<?xml version="1.0" encoding="utf-8"?>
<!-- Generator: Adobe Illustrator 23.0.5, SVG Export Plug-In . SVG Version: 6.00 Build 0)  -->
<svg version="1.1" id="Layer_1" xmlns="http://www.w3.org/2000/svg" xmlns:xlink="http://www.w3.org/1999/xlink" x="0px" y="0px"
	 viewBox="0 0 512 512" style="enable-background:new 0 0 512 512;" xml:space="preserve">
<style type="text/css">
	.st0{fill:#FF2020;}
	.st1{enable-background:new    ;}
</style>
<circle class="st0" cx="256.1" cy="199.5" r="131.2"/>
<g>
	<path class="st0" d="M256,355.1C149.6,355.1,55.9,417.3,0.5,512h230.4c0.6-1.3,1.2-2.5,2-3.8L324.8,364
		C302.6,358.2,279.6,355.1,256,355.1z"/>
	<path class="st0" d="M433.3,512h78.2c-12.1-20.8-26.1-39.9-41.7-57.3L433.3,512z"/>
</g>
<g>
	<path class="st0" d="M511.5,356.9v-9.1c-1.1-1-2.3-2-3.6-2.8L409,282c-4-2.6-8.6-3.9-13.3-3.9c-1.8,0-3.6,0.2-5.5,0.6
		c-6.5,1.4-12.1,5.3-15.6,10.9l-47.8,75l-92.2,144.7c-0.6,0.9-1,1.8-1.5,2.7h6.4l92.9-145.8l46.9-73.6c2.8-4.3,7.1-7.3,12.1-8.5
		c5-1.1,10.2-0.2,14.5,2.6l98.9,63C507.7,351.5,510,354,511.5,356.9z"/>
	<path class="st0" d="M511.5,375c-0.2,0.4-0.5,0.9-0.8,1.3l-46.3,72.6L424.3,512h6.7l37.5-58.8l43.1-67.6V375H511.5z"/>
</g>
<g class="st1">
	<path class="st0" d="M287.1,470.9c3.1,2,4.7,4.8,5,8.5c0.3,3.7-1.1,7.9-4,12.5l-1.6,2.5l7.2,7.3l-4.2,6.7l-22-22.3l5.9-9.3
		c1.1-1.7,2.1-3.1,3.1-4.2s2.1-1.9,3.3-2.5c1.1-0.5,2.3-0.8,3.5-0.7C284.5,469.5,285.8,470,287.1,470.9z M283.2,478.4
		c-1-0.6-2-0.7-2.9-0.3c-0.9,0.4-1.9,1.3-2.8,2.8l-1.7,2.7l6.6,6.7l1.5-2.4c1.3-2,1.9-3.9,1.8-5.5
		C285.6,480.6,284.8,479.3,283.2,478.4z"/>
	<path class="st0" d="M303.2,456.9l-0.4,0.6c-0.3,0.2-0.6,0.6-1,1c-0.4,0.5-0.7,1-1,1.5c-0.5,0.8-1,1.6-1.3,2.5
		c-0.4,0.8-0.7,1.7-0.9,2.7l11.1,11.3l-4,6.3l-16.6-16.9l4-6.3l2.4,2.5c-0.1-1.7-0.1-3.3,0.1-4.9c0.2-1.5,0.7-2.9,1.4-4.1
		c0.1-0.2,0.3-0.5,0.5-0.7c0.2-0.3,0.4-0.5,0.5-0.7L303.2,456.9z"/>
	<path class="st0" d="M318.9,434.8c1.8,1.2,3.3,2.6,4.5,4.2s2,3.4,2.5,5.2c0.5,1.9,0.5,3.8,0.2,5.8c-0.3,1.9-1.1,3.9-2.4,5.9
		c-1.8,2.9-3.9,4.7-6.3,5.3c-2.4,0.7-4.8,0.2-7.2-1.3c-1.7-1.1-3.2-2.4-4.4-4c-1.2-1.6-2-3.3-2.5-5.2c-0.5-1.8-0.5-3.8-0.2-5.8
		c0.3-2,1.1-4,2.4-6c1.8-2.9,3.9-4.7,6.3-5.4C314.1,432.9,316.5,433.3,318.9,434.8z M320.1,447c-0.5-1-1.1-2-1.9-2.9
		c-0.8-0.9-1.9-1.8-3.2-2.6c-1.2-0.8-2.3-1.1-3.2-1c-1,0.1-1.8,0.7-2.5,1.9c-0.6,0.9-0.8,1.8-0.8,2.7c0,0.9,0.2,1.9,0.7,2.9
		c0.4,0.9,1.1,1.9,2,2.8s1.9,1.8,3,2.5c1.3,0.8,2.5,1.2,3.4,0.9c0.9-0.2,1.7-0.9,2.4-1.9c0.5-0.8,0.7-1.6,0.8-2.6
		C320.7,448.9,320.5,447.9,320.1,447z"/>
</g>
</svg>
