<?xml version="1.0" encoding="utf-8"?>
<!-- Generator: Adobe Illustrator 23.0.5, SVG Export Plug-In . SVG Version: 6.00 Build 0)  -->
<svg version="1.1" id="Layer_1" xmlns="http://www.w3.org/2000/svg" xmlns:xlink="http://www.w3.org/1999/xlink" x="0px" y="0px"
	 viewBox="0 0 512 512" style="enable-background:new 0 0 512 512;" xml:space="preserve">
<style type="text/css">
	.st0{fill:url(#SVGID_1_);}
	.st1{fill:url(#SVGID_2_);}
	.st2{fill:url(#SVGID_3_);}
	.st3{fill:url(#SVGID_4_);}
	.st4{fill:url(#SVGID_5_);}
</style>
<g>
	<linearGradient id="SVGID_1_" gradientUnits="userSpaceOnUse" x1="-76.6265" y1="304.3825" x2="416.5056" y2="148.8353">
		<stop  offset="0" style="stop-color:#21FF60"/>
		<stop  offset="9.584106e-02" style="stop-color:#19E551"/>
		<stop  offset="0.2512" style="stop-color:#0EC23D"/>
		<stop  offset="0.3972" style="stop-color:#06A82E"/>
		<stop  offset="0.5287" style="stop-color:#029825"/>
		<stop  offset="0.6332" style="stop-color:#009322"/>
		<stop  offset="0.8065" style="stop-color:#009F2A"/>
		<stop  offset="1" style="stop-color:#00B237"/>
	</linearGradient>
	<circle class="st0" cx="256.2" cy="199.4" r="131.2"/>
	<g>
		<linearGradient id="SVGID_2_" gradientUnits="userSpaceOnUse" x1="33.0526" y1="652.0987" x2="526.1847" y2="496.5515">
			<stop  offset="0" style="stop-color:#21FF60"/>
			<stop  offset="9.584106e-02" style="stop-color:#19E551"/>
			<stop  offset="0.2512" style="stop-color:#0EC23D"/>
			<stop  offset="0.3972" style="stop-color:#06A82E"/>
			<stop  offset="0.5287" style="stop-color:#029825"/>
			<stop  offset="0.6332" style="stop-color:#009322"/>
			<stop  offset="0.8065" style="stop-color:#009F2A"/>
			<stop  offset="1" style="stop-color:#00B237"/>
		</linearGradient>
		<path class="st1" d="M472.4,502.7C472.4,502.7,472.4,502.7,472.4,502.7c-2.3,2.4-3.9,5.6-5.3,9.3h44.4c-0.7-1.2-1.5-2.5-2.2-3.7
			C503.7,505.5,485.1,500.1,472.4,502.7z"/>
		<linearGradient id="SVGID_3_" gradientUnits="userSpaceOnUse" x1="-5.9904" y1="528.3204" x2="487.1417" y2="372.7733">
			<stop  offset="0" style="stop-color:#21FF60"/>
			<stop  offset="9.584106e-02" style="stop-color:#19E551"/>
			<stop  offset="0.2512" style="stop-color:#0EC23D"/>
			<stop  offset="0.3972" style="stop-color:#06A82E"/>
			<stop  offset="0.5287" style="stop-color:#029825"/>
			<stop  offset="0.6332" style="stop-color:#009322"/>
			<stop  offset="0.8065" style="stop-color:#009F2A"/>
			<stop  offset="1" style="stop-color:#00B237"/>
		</linearGradient>
		<path class="st2" d="M331.6,508.4l-2.6,1.3l-2.4-1.7c-11.5-7.9-32.8-44.7-37-61.2l-0.7-2.6l1.9-2c2.7-2.9,5.9-5.8,9.3-8.8
			c6.2-5.6,12.7-11.4,15.9-17.4c0-0.6,0-1.1-0.1-1.7c-2.9-12.8-18.6-28-24.2-31.7l-2.5-1.6l0.2-2.9c0.4-4.6,3-11.9,6.8-19.9
			c-13.1-2-26.5-3-40.1-3C149.7,355.1,56,417.3,0.6,512h373.9c-1.8-3.6-3.9-6.9-6.3-9.4C355.3,500.2,336.9,505.7,331.6,508.4z"/>
		<linearGradient id="SVGID_4_" gradientUnits="userSpaceOnUse" x1="2.5663" y1="555.4477" x2="495.6983" y2="399.9005">
			<stop  offset="0" style="stop-color:#21FF60"/>
			<stop  offset="9.584106e-02" style="stop-color:#19E551"/>
			<stop  offset="0.2512" style="stop-color:#0EC23D"/>
			<stop  offset="0.3972" style="stop-color:#06A82E"/>
			<stop  offset="0.5287" style="stop-color:#029825"/>
			<stop  offset="0.6332" style="stop-color:#009322"/>
			<stop  offset="0.8065" style="stop-color:#009F2A"/>
			<stop  offset="1" style="stop-color:#00B237"/>
		</linearGradient>
		<path class="st3" d="M465.8,495.1l0.5-0.5l1.1-0.6c0.2-0.1,0.5-0.3,0.7-0.4l0.6-0.4l0.7-0.2c10-2.3,22.2-0.5,31.5,1.9
			c-12.3-18.6-26.2-35.8-41.4-51.2c-9.2,11.4-23.3,18.7-39,18.7c-27.6,0-50.1-22.5-50.1-50.1c0-10.3,3.1-19.9,8.5-27.8
			c-22.9-11.5-47.2-19.9-72.5-24.7c-3.2,6.4-5.6,12.3-6.6,16.3c7.7,6.2,22.9,21.4,25.9,36.5l0.1,0.5l0,0.5c0,1.1,0.1,2.1,0.1,3.2
			l0.1,1.2l-0.5,1.1c-3.8,8.2-11.4,15.1-18.8,21.7c-2.4,2.2-4.7,4.2-6.7,6.2c4.9,15,21.2,42.6,30.1,51.1c8.5-3.3,27.2-8.3,41.5-5
			l0.7,0.2l1.4,0.8l0.5,0.4c4.8,4.6,8.5,11,11.3,17.5h71.1C458.6,505.5,461.4,499.5,465.8,495.1z"/>
	</g>
	<linearGradient id="SVGID_5_" gradientUnits="userSpaceOnUse" x1="-3.0573" y1="537.6192" x2="490.0748" y2="382.0721">
		<stop  offset="0" style="stop-color:#21FF60"/>
		<stop  offset="9.584106e-02" style="stop-color:#19E551"/>
		<stop  offset="0.2512" style="stop-color:#0EC23D"/>
		<stop  offset="0.3972" style="stop-color:#06A82E"/>
		<stop  offset="0.5287" style="stop-color:#029825"/>
		<stop  offset="0.6332" style="stop-color:#009322"/>
		<stop  offset="0.8065" style="stop-color:#009F2A"/>
		<stop  offset="1" style="stop-color:#00B237"/>
	</linearGradient>
	<path class="st4" d="M503.4,327.2c-11,3.6-23.6,7.7-34,4.2l-0.5-0.2l-0.5-0.3c-0.7-0.4-1.4-0.8-2.1-1.1l-0.7-0.4l-0.5-0.6
		c-7.1-7.5-9.7-19.6-12-30.2c-0.7-3.2-1.3-6.2-2-8.9c-15.4-3.3-47.4-2.9-59.3,0.6c-1.4,9.2-6.6,28.7-17.2,39.3l-0.5,0.5l-1.1,0.6
		c-0.2,0.1-0.4,0.2-0.6,0.3l-0.5,0.3l-0.5,0.2c-10.4,3.4-23-0.7-34-4.2c-3.1-1-6-2-8.7-2.7c-7,7.8-16.3,22.6-22.6,35.3
		c-3.2,6.4-5.6,12.3-6.6,16.3c7.7,6.2,22.9,21.4,25.9,36.5l0.1,0.5l0,0.5c0,1.1,0.1,2.1,0.1,3.2l0.1,1.2l-0.5,1.1
		c-3.8,8.2-11.4,15.1-18.8,21.7c-2.4,2.2-4.7,4.2-6.7,6.2c4.9,15,21.2,42.6,30.1,51.1c8.5-3.3,27.2-8.3,41.5-5l0.7,0.2l1.4,0.8
		l0.5,0.4c4.8,4.6,8.5,11,11.3,17.5h71.1c2-6.5,4.7-12.5,9.1-16.9l0.5-0.5l1.1-0.6c0.2-0.1,0.5-0.3,0.7-0.4l0.6-0.4l0.7-0.2
		c10-2.3,22.2-0.5,31.5,1.9c4,1,7.5,2.2,10,3.2c0.3-0.3,0.7-0.6,1-1V324.6C509.3,325.3,506.4,326.3,503.4,327.2z M420.6,462.4
		c-27.6,0-50.1-22.5-50.1-50.1c0-10.3,3.1-19.9,8.5-27.8c9-13.4,24.3-22.3,41.6-22.3c27.6,0,50.1,22.5,50.1,50.1
		c0,11.9-4.2,22.8-11.1,31.4C450.4,455.1,436.3,462.4,420.6,462.4z"/>
</g>
</svg>
