<?xml version="1.0" encoding="utf-8"?>
<!-- Generator: Adobe Illustrator 23.0.5, SVG Export Plug-In . SVG Version: 6.00 Build 0)  -->
<svg version="1.1" id="Layer_1" xmlns="http://www.w3.org/2000/svg" xmlns:xlink="http://www.w3.org/1999/xlink" x="0px" y="0px"
	 viewBox="0 0 512 512" style="enable-background:new 0 0 512 512;" xml:space="preserve">
<style type="text/css">
	.st0{fill:url(#SVGID_1_);}
	.st1{fill:url(#SVGID_2_);}
	.st2{fill:url(#SVGID_3_);}
	.st3{fill:url(#SVGID_4_);}
	.st4{fill:url(#SVGID_5_);}
	.st5{enable-background:new    ;}
	.st6{fill:url(#SVGID_6_);}
	.st7{fill:url(#SVGID_7_);}
	.st8{fill:url(#SVGID_8_);}
	.st9{fill:url(#SVGID_9_);}
	.st10{fill:url(#SVGID_10_);}
	.st11{fill:url(#SVGID_11_);}
	.st12{fill:url(#SVGID_12_);}
	.st13{fill:url(#SVGID_13_);}
</style>
<g>
	<linearGradient id="SVGID_1_" gradientUnits="userSpaceOnUse" x1="104.1215" y1="250.0664" x2="484.5411" y2="123.493">
		<stop  offset="0" style="stop-color:#CACACA"/>
		<stop  offset="0.5503" style="stop-color:#595959"/>
		<stop  offset="0.653" style="stop-color:#888888"/>
		<stop  offset="0.7602" style="stop-color:#B1B1B1"/>
		<stop  offset="0.8576" style="stop-color:#CFCFCF"/>
		<stop  offset="0.9408" style="stop-color:#E1E1E1"/>
		<stop  offset="1" style="stop-color:#E8E8E8"/>
	</linearGradient>
	<circle class="st0" cx="256.1" cy="199.5" r="131.2"/>
	<g>
		<linearGradient id="SVGID_2_" gradientUnits="userSpaceOnUse" x1="170.7887" y1="450.4363" x2="551.2083" y2="323.8629">
			<stop  offset="0" style="stop-color:#CACACA"/>
			<stop  offset="0.5503" style="stop-color:#595959"/>
			<stop  offset="0.653" style="stop-color:#888888"/>
			<stop  offset="0.7602" style="stop-color:#B1B1B1"/>
			<stop  offset="0.8576" style="stop-color:#CFCFCF"/>
			<stop  offset="0.9408" style="stop-color:#E1E1E1"/>
			<stop  offset="1" style="stop-color:#E8E8E8"/>
		</linearGradient>
		<path class="st1" d="M256,355.1C149.6,355.1,55.9,417.3,0.5,512h230.4c0.6-1.3,1.2-2.5,2-3.8L324.8,364
			C302.6,358.2,279.6,355.1,256,355.1z"/>
		<linearGradient id="SVGID_3_" gradientUnits="userSpaceOnUse" x1="212.5286" y1="575.8867" x2="592.9482" y2="449.3133">
			<stop  offset="0" style="stop-color:#CACACA"/>
			<stop  offset="0.5503" style="stop-color:#595959"/>
			<stop  offset="0.653" style="stop-color:#888888"/>
			<stop  offset="0.7602" style="stop-color:#B1B1B1"/>
			<stop  offset="0.8576" style="stop-color:#CFCFCF"/>
			<stop  offset="0.9408" style="stop-color:#E1E1E1"/>
			<stop  offset="1" style="stop-color:#E8E8E8"/>
		</linearGradient>
		<path class="st2" d="M433.3,512h78.2c-12.1-20.8-26.1-39.9-41.7-57.3L433.3,512z"/>
	</g>
	<g>
		<linearGradient id="SVGID_4_" gradientUnits="userSpaceOnUse" x1="168.6221" y1="443.9246" x2="549.0417" y2="317.3512">
			<stop  offset="0" style="stop-color:#CACACA"/>
			<stop  offset="0.5503" style="stop-color:#595959"/>
			<stop  offset="0.653" style="stop-color:#888888"/>
			<stop  offset="0.7602" style="stop-color:#B1B1B1"/>
			<stop  offset="0.8576" style="stop-color:#CFCFCF"/>
			<stop  offset="0.9408" style="stop-color:#E1E1E1"/>
			<stop  offset="1" style="stop-color:#E8E8E8"/>
		</linearGradient>
		<path class="st3" d="M511.5,356.9v-9.1c-1.1-1-2.3-2-3.6-2.8L409,282c-4-2.6-8.6-3.9-13.3-3.9c-1.8,0-3.6,0.2-5.5,0.6
			c-6.5,1.4-12.1,5.3-15.6,10.9l-47.8,75l-92.2,144.7c-0.6,0.9-1,1.8-1.5,2.7h6.4l92.9-145.8l46.9-73.6c2.8-4.3,7.1-7.3,12.1-8.5
			c5-1.1,10.2-0.2,14.5,2.6l98.9,63C507.7,351.5,510,354,511.5,356.9z"/>
		<linearGradient id="SVGID_5_" gradientUnits="userSpaceOnUse" x1="198.6576" y1="534.1971" x2="579.0772" y2="407.6237">
			<stop  offset="0" style="stop-color:#CACACA"/>
			<stop  offset="0.5503" style="stop-color:#595959"/>
			<stop  offset="0.653" style="stop-color:#888888"/>
			<stop  offset="0.7602" style="stop-color:#B1B1B1"/>
			<stop  offset="0.8576" style="stop-color:#CFCFCF"/>
			<stop  offset="0.9408" style="stop-color:#E1E1E1"/>
			<stop  offset="1" style="stop-color:#E8E8E8"/>
		</linearGradient>
		<path class="st4" d="M511.5,375c-0.2,0.4-0.5,0.9-0.8,1.3l-46.3,72.6L424.3,512h6.7l37.5-58.8l43.1-67.6V375H511.5z"/>
	</g>
	<g class="st5">
		<linearGradient id="SVGID_6_" gradientUnits="userSpaceOnUse" x1="193.7406" y1="519.4189" x2="574.1602" y2="392.8455">
			<stop  offset="0" style="stop-color:#CACACA"/>
			<stop  offset="0.5503" style="stop-color:#595959"/>
			<stop  offset="0.653" style="stop-color:#888888"/>
			<stop  offset="0.7602" style="stop-color:#B1B1B1"/>
			<stop  offset="0.8576" style="stop-color:#CFCFCF"/>
			<stop  offset="0.9408" style="stop-color:#E1E1E1"/>
			<stop  offset="1" style="stop-color:#E8E8E8"/>
		</linearGradient>
		<path class="st6" d="M287.1,470.9c3.1,2,4.7,4.8,5,8.5c0.3,3.7-1.1,7.9-4,12.5l-1.6,2.5l7.2,7.3l-4.2,6.7l-22-22.3l5.9-9.3
			c1.1-1.7,2.1-3.1,3.1-4.2s2.1-1.9,3.3-2.5c1.1-0.5,2.3-0.8,3.5-0.7C284.5,469.5,285.8,470,287.1,470.9z M283.2,478.4
			c-1-0.6-2-0.7-2.9-0.3c-0.9,0.4-1.9,1.3-2.8,2.8l-1.7,2.7l6.6,6.7l1.5-2.4c1.3-2,1.9-3.9,1.8-5.5
			C285.6,480.6,284.8,479.3,283.2,478.4z"/>
		<linearGradient id="SVGID_7_" gradientUnits="userSpaceOnUse" x1="188.8901" y1="504.8405" x2="569.3097" y2="378.2671">
			<stop  offset="0" style="stop-color:#CACACA"/>
			<stop  offset="0.5503" style="stop-color:#595959"/>
			<stop  offset="0.653" style="stop-color:#888888"/>
			<stop  offset="0.7602" style="stop-color:#B1B1B1"/>
			<stop  offset="0.8576" style="stop-color:#CFCFCF"/>
			<stop  offset="0.9408" style="stop-color:#E1E1E1"/>
			<stop  offset="1" style="stop-color:#E8E8E8"/>
		</linearGradient>
		<path class="st7" d="M303.2,456.9l-0.4,0.6c-0.3,0.2-0.6,0.6-1,1c-0.4,0.5-0.7,1-1,1.5c-0.5,0.8-1,1.6-1.3,2.5
			c-0.4,0.8-0.7,1.7-0.9,2.7l11.1,11.3l-4,6.3l-16.6-16.9l4-6.3l2.4,2.5c-0.1-1.7-0.1-3.3,0.1-4.9c0.2-1.5,0.7-2.9,1.4-4.1
			c0.1-0.2,0.3-0.5,0.5-0.7c0.2-0.3,0.4-0.5,0.5-0.7L303.2,456.9z"/>
		<linearGradient id="SVGID_8_" gradientUnits="userSpaceOnUse" x1="184.1288" y1="490.5302" x2="564.5483" y2="363.9568">
			<stop  offset="0" style="stop-color:#CACACA"/>
			<stop  offset="0.5503" style="stop-color:#595959"/>
			<stop  offset="0.653" style="stop-color:#888888"/>
			<stop  offset="0.7602" style="stop-color:#B1B1B1"/>
			<stop  offset="0.8576" style="stop-color:#CFCFCF"/>
			<stop  offset="0.9408" style="stop-color:#E1E1E1"/>
			<stop  offset="1" style="stop-color:#E8E8E8"/>
		</linearGradient>
		<path class="st8" d="M324.5,454.5c-2.1,3.3-4.5,5.4-7.1,6.3c-2.6,0.9-5.2,0.5-7.8-1.2c-1.8-1.1-3.2-2.5-4.3-4
			c-1.1-1.5-1.9-3.2-2.3-5c-0.4-1.8-0.4-3.6,0-5.6c0.4-2,1.2-3.9,2.4-5.9c1.8-2.9,3.8-4.7,5.9-5.4c2.1-0.7,4.3-0.4,6.6,1.1
			c0.8,0.5,1.5,1.1,2.2,1.7c0.7,0.6,1.3,1.3,1.8,2l-9.2,14.5c0.1,0,0.1,0.1,0.2,0.1s0.1,0.1,0.2,0.1c1.3,0.9,2.7,1.1,4.1,0.6
			c1.4-0.5,2.7-1.7,3.9-3.6c0.9-1.4,1.5-2.8,1.8-4.3c0.3-1.5,0.5-2.9,0.5-4.2l0.4-0.7l4.3,4.3c-0.2,1.5-0.7,3.1-1.2,4.6
			C326.2,451.4,325.4,453,324.5,454.5z M314.8,441.6c-0.2-0.2-0.4-0.3-0.5-0.4c-0.2-0.1-0.3-0.3-0.5-0.4c-0.9-0.6-1.8-0.7-2.6-0.5
			c-0.8,0.3-1.6,0.9-2.3,2c-0.8,1.3-1.2,2.6-1,3.9s0.7,2.6,1.6,3.8L314.8,441.6z"/>
		<linearGradient id="SVGID_9_" gradientUnits="userSpaceOnUse" x1="177.5003" y1="470.6082" x2="557.9199" y2="344.0347">
			<stop  offset="0" style="stop-color:#CACACA"/>
			<stop  offset="0.5503" style="stop-color:#595959"/>
			<stop  offset="0.653" style="stop-color:#888888"/>
			<stop  offset="0.7602" style="stop-color:#B1B1B1"/>
			<stop  offset="0.8576" style="stop-color:#CFCFCF"/>
			<stop  offset="0.9408" style="stop-color:#E1E1E1"/>
			<stop  offset="1" style="stop-color:#E8E8E8"/>
		</linearGradient>
		<path class="st9" d="M339.1,396.9c0.4,0.2,0.7,0.5,1.1,0.8c0.4,0.3,0.8,0.7,1.2,1.1l10.8,11l-4,6.3l-8.3-8.4
			c-0.6-0.6-1.1-1.1-1.7-1.6c-0.5-0.5-1-0.9-1.4-1.1c-0.7-0.4-1.3-0.6-1.8-0.4c-0.5,0.2-1.1,0.7-1.7,1.7c-0.3,0.4-0.5,1-0.6,1.7
			c-0.1,0.7-0.3,1.6-0.3,2.7l11.8,11.9l-4,6.3l-8.3-8.4c-0.5-0.5-1-1-1.6-1.5c-0.6-0.5-1-0.9-1.4-1.1c-0.7-0.4-1.3-0.6-1.9-0.4
			c-0.5,0.1-1.1,0.7-1.7,1.7c-0.3,0.5-0.5,1.1-0.7,1.8c-0.1,0.7-0.3,1.6-0.3,2.6l11.8,11.9l-4,6.3l-16.6-16.9l4-6.3l1.8,1.9
			c0-1.8,0-3.4,0.2-4.7c0.2-1.3,0.6-2.6,1.4-3.8c0.8-1.3,1.8-2.2,2.9-2.7c1.1-0.5,2.4-0.6,3.7-0.2c-0.1-2.3-0.1-4.2,0.1-5.8
			s0.7-2.9,1.4-4.1c1.1-1.7,2.3-2.7,3.7-3.1C336.1,395.6,337.6,395.9,339.1,396.9z"/>
		<linearGradient id="SVGID_10_" gradientUnits="userSpaceOnUse" x1="169.9335" y1="447.8659" x2="550.353" y2="321.2925">
			<stop  offset="0" style="stop-color:#CACACA"/>
			<stop  offset="0.5503" style="stop-color:#595959"/>
			<stop  offset="0.653" style="stop-color:#888888"/>
			<stop  offset="0.7602" style="stop-color:#B1B1B1"/>
			<stop  offset="0.8576" style="stop-color:#CFCFCF"/>
			<stop  offset="0.9408" style="stop-color:#E1E1E1"/>
			<stop  offset="1" style="stop-color:#E8E8E8"/>
		</linearGradient>
		<path class="st10" d="M336.9,374.3l4,4.1l-4.2,6.6l-4-4.1L336.9,374.3z M343.2,380.9l16.6,16.9l-4,6.3l-16.6-16.9L343.2,380.9z"/>
		<linearGradient id="SVGID_11_" gradientUnits="userSpaceOnUse" x1="166.4331" y1="437.3454" x2="546.8527" y2="310.772">
			<stop  offset="0" style="stop-color:#CACACA"/>
			<stop  offset="0.5503" style="stop-color:#595959"/>
			<stop  offset="0.653" style="stop-color:#888888"/>
			<stop  offset="0.7602" style="stop-color:#B1B1B1"/>
			<stop  offset="0.8576" style="stop-color:#CFCFCF"/>
			<stop  offset="0.9408" style="stop-color:#E1E1E1"/>
			<stop  offset="1" style="stop-color:#E8E8E8"/>
		</linearGradient>
		<path class="st11" d="M359.3,355.7l16.6,16.9l-4,6.3L370,377c0,0.9,0,1.7,0,2.5c0,0.8-0.1,1.6-0.2,2.2c-0.1,0.8-0.4,1.6-0.6,2.2
			s-0.6,1.2-0.9,1.7c-1.1,1.7-2.4,2.8-3.8,3.3c-1.4,0.5-3,0.2-4.6-0.8c-0.4-0.3-0.8-0.6-1.2-0.8c-0.3-0.3-0.7-0.6-1.1-1l-10.8-11
			l4-6.3l8.2,8.4c0.6,0.6,1.2,1.2,1.7,1.6c0.5,0.4,0.9,0.8,1.3,1c0.8,0.5,1.4,0.7,2,0.5s1.2-0.7,1.8-1.8c0.3-0.5,0.6-1.2,0.8-2
			c0.2-0.8,0.3-1.7,0.4-2.8L355.3,362L359.3,355.7z"/>
		<linearGradient id="SVGID_12_" gradientUnits="userSpaceOnUse" x1="159.8247" y1="417.4837" x2="540.2443" y2="290.9103">
			<stop  offset="0" style="stop-color:#CACACA"/>
			<stop  offset="0.5503" style="stop-color:#595959"/>
			<stop  offset="0.653" style="stop-color:#888888"/>
			<stop  offset="0.7602" style="stop-color:#B1B1B1"/>
			<stop  offset="0.8576" style="stop-color:#CFCFCF"/>
			<stop  offset="0.9408" style="stop-color:#E1E1E1"/>
			<stop  offset="1" style="stop-color:#E8E8E8"/>
		</linearGradient>
		<path class="st12" d="M386.7,322.1c0.4,0.2,0.7,0.5,1.1,0.8c0.4,0.3,0.8,0.7,1.1,1.1l10.8,11l-4,6.3l-8.3-8.4
			c-0.6-0.6-1.1-1.1-1.7-1.6s-1-0.9-1.4-1.1c-0.7-0.4-1.3-0.6-1.8-0.4c-0.5,0.2-1.1,0.7-1.7,1.7c-0.3,0.4-0.5,1-0.6,1.7
			s-0.3,1.6-0.3,2.7l11.8,11.9l-4,6.3l-8.3-8.4c-0.5-0.5-1-1-1.6-1.5c-0.6-0.5-1-0.9-1.4-1.2c-0.7-0.4-1.3-0.6-1.9-0.4
			s-1.1,0.7-1.7,1.7c-0.3,0.5-0.5,1.1-0.7,1.8c-0.1,0.7-0.3,1.6-0.3,2.6l11.8,11.9l-4,6.3L363,349.8l4-6.3l1.8,1.9
			c0-1.8,0-3.4,0.2-4.7c0.2-1.3,0.6-2.6,1.4-3.8c0.8-1.3,1.8-2.2,2.9-2.7c1.1-0.5,2.4-0.6,3.7-0.2c-0.1-2.3-0.1-4.2,0.1-5.8
			c0.2-1.6,0.7-2.9,1.4-4.1c1.1-1.7,2.3-2.7,3.7-3.1C383.7,320.8,385.2,321.1,386.7,322.1z"/>
		<linearGradient id="SVGID_13_" gradientUnits="userSpaceOnUse" x1="150.7833" y1="390.3095" x2="531.2028" y2="263.7361">
			<stop  offset="0" style="stop-color:#CACACA"/>
			<stop  offset="0.5503" style="stop-color:#595959"/>
			<stop  offset="0.653" style="stop-color:#888888"/>
			<stop  offset="0.7602" style="stop-color:#B1B1B1"/>
			<stop  offset="0.8576" style="stop-color:#CFCFCF"/>
			<stop  offset="0.9408" style="stop-color:#E1E1E1"/>
			<stop  offset="1" style="stop-color:#E8E8E8"/>
		</linearGradient>
		<path class="st13" d="M411.2,296.8l-5.9,9.2l9.1,5.8l-3,4.7l-9.1-5.8l-5.9,9.2l-4.6-3l5.9-9.2l-9.1-5.8l3-4.7l9.1,5.8l5.9-9.2
			L411.2,296.8z"/>
	</g>
</g>
</svg>
