<?xml version="1.0" encoding="utf-8"?>
<!-- Generator: Adobe Illustrator 23.0.5, SVG Export Plug-In . SVG Version: 6.00 Build 0)  -->
<svg version="1.1" id="Layer_1" xmlns="http://www.w3.org/2000/svg" xmlns:xlink="http://www.w3.org/1999/xlink" x="0px" y="0px"
	 viewBox="0 0 512 512" style="enable-background:new 0 0 512 512;" xml:space="preserve">
<style type="text/css">
	.st0{fill:url(#SVGID_1_);}
	.st1{fill:url(#SVGID_2_);}
	.st2{fill:url(#SVGID_3_);}
	.st3{fill:url(#SVGID_4_);}
	.st4{fill:url(#SVGID_5_);}
</style>
<g>
	<linearGradient id="SVGID_1_" gradientUnits="userSpaceOnUse" x1="56.7613" y1="509.5735" x2="427.3906" y2="441.042">
		<stop  offset="0" style="stop-color:#21FF60"/>
		<stop  offset="9.584106e-02" style="stop-color:#19E551"/>
		<stop  offset="0.2512" style="stop-color:#0EC23D"/>
		<stop  offset="0.3972" style="stop-color:#06A82E"/>
		<stop  offset="0.5287" style="stop-color:#029825"/>
		<stop  offset="0.6332" style="stop-color:#009322"/>
		<stop  offset="0.8065" style="stop-color:#009F2A"/>
		<stop  offset="1" style="stop-color:#00B237"/>
	</linearGradient>
	<path class="st0" d="M335.7,491.7c-3.1,6.8-6.3,13.6-9.4,20.3h51.8c15.5-42.8,31.7-87.7,38.1-105.2c-10.3-7.2-21-13.8-32-19.6
		c-0.9,2-1.8,4-2.8,6.1C375.9,405,356.3,447.1,335.7,491.7z"/>
	<g>
		<linearGradient id="SVGID_2_" gradientUnits="userSpaceOnUse" x1="-25.2592" y1="326.36" x2="384.3257" y2="141.6053">
			<stop  offset="0" style="stop-color:#21FF60"/>
			<stop  offset="9.584106e-02" style="stop-color:#19E551"/>
			<stop  offset="0.2512" style="stop-color:#0EC23D"/>
			<stop  offset="0.3972" style="stop-color:#06A82E"/>
			<stop  offset="0.5287" style="stop-color:#029825"/>
			<stop  offset="0.6332" style="stop-color:#009322"/>
			<stop  offset="0.8065" style="stop-color:#009F2A"/>
			<stop  offset="1" style="stop-color:#00B237"/>
		</linearGradient>
		<circle class="st1" cx="256.2" cy="199.4" r="131.2"/>
		<linearGradient id="SVGID_3_" gradientUnits="userSpaceOnUse" x1="61.6274" y1="518.9799" x2="471.2123" y2="334.2252">
			<stop  offset="0" style="stop-color:#21FF60"/>
			<stop  offset="9.584106e-02" style="stop-color:#19E551"/>
			<stop  offset="0.2512" style="stop-color:#0EC23D"/>
			<stop  offset="0.3972" style="stop-color:#06A82E"/>
			<stop  offset="0.5287" style="stop-color:#029825"/>
			<stop  offset="0.6332" style="stop-color:#009322"/>
			<stop  offset="0.8065" style="stop-color:#009F2A"/>
			<stop  offset="1" style="stop-color:#00B237"/>
		</linearGradient>
		<path class="st2" d="M363.3,384.7c1-2.2,2-4.3,2.9-6.3c-34.2-15.1-71.3-23.4-110.1-23.4C149.7,355.1,56,417.3,0.6,512h303.6
			c4.4-9.4,8.8-19.1,13.3-28.7C338.2,438.7,357.7,396.6,363.3,384.7z"/>
		<linearGradient id="SVGID_4_" gradientUnits="userSpaceOnUse" x1="111.083" y1="628.6185" x2="520.6678" y2="443.8638">
			<stop  offset="0" style="stop-color:#21FF60"/>
			<stop  offset="9.584106e-02" style="stop-color:#19E551"/>
			<stop  offset="0.2512" style="stop-color:#0EC23D"/>
			<stop  offset="0.3972" style="stop-color:#06A82E"/>
			<stop  offset="0.5287" style="stop-color:#029825"/>
			<stop  offset="0.6332" style="stop-color:#009322"/>
			<stop  offset="0.8065" style="stop-color:#009F2A"/>
			<stop  offset="1" style="stop-color:#00B237"/>
		</linearGradient>
		<path class="st3" d="M432.8,419.4c-6.9,19.1-20.3,56-33.5,92.6h112.3C490.5,475.9,463.7,444.5,432.8,419.4z"/>
		<linearGradient id="SVGID_5_" gradientUnits="userSpaceOnUse" x1="64.7036" y1="525.7996" x2="474.2885" y2="341.0449">
			<stop  offset="0" style="stop-color:#21FF60"/>
			<stop  offset="9.584106e-02" style="stop-color:#19E551"/>
			<stop  offset="0.2512" style="stop-color:#0EC23D"/>
			<stop  offset="0.3972" style="stop-color:#06A82E"/>
			<stop  offset="0.5287" style="stop-color:#029825"/>
			<stop  offset="0.6332" style="stop-color:#009322"/>
			<stop  offset="0.8065" style="stop-color:#009F2A"/>
			<stop  offset="1" style="stop-color:#00B237"/>
		</linearGradient>
		<path class="st4" d="M427.6,404.8c7.4-20.1,14.7-12.7,51.3-38.3c36.6-25.6,33-69.2,33.1-73.6c0.1-4.4-3-10.2-8.3-5.1
			c0,0-24.1,23.7-30.6,29.1c-6.5,5.4-14.2,3.4-23.6-0.2c-9.4-3.6-19.2-14.1-23.8-25.7c-4.6-11.6-0.2-17.6,4-22.5
			s22.2-21.3,28.2-26.7s4.6-10,0.3-10.7c-38.5-4.2-56.7,7.7-72,29.9c-15.3,22.2-8.4,46.3-3.9,69.2c4.1,20.7,1.6,33.1-7,52.5
			c-0.9,2-1.9,4.1-2.9,6.3c-6.6,14-33.5,72.1-57.1,123h11h51.8h10.6c14.6-40.3,29.2-80.6,35.9-99.1
			C425.9,409.3,426.9,406.5,427.6,404.8z"/>
	</g>
</g>
</svg>
