<?xml version="1.0" encoding="utf-8"?>
<!-- Generator: Adobe Illustrator 23.0.5, SVG Export Plug-In . SVG Version: 6.00 Build 0)  -->
<svg version="1.1" id="Layer_1" xmlns="http://www.w3.org/2000/svg" xmlns:xlink="http://www.w3.org/1999/xlink" x="0px" y="0px"
	 viewBox="0 0 512 512" style="enable-background:new 0 0 512 512;" xml:space="preserve">
<style type="text/css">
	.st0{fill:url(#SVGID_1_);}
	.st1{fill:url(#SVGID_2_);}
	.st2{fill:url(#SVGID_3_);}
	.st3{fill:url(#SVGID_4_);}
	.st4{fill:url(#SVGID_5_);}
	.st5{fill:url(#SVGID_6_);}
	.st6{fill:url(#SVGID_7_);}
	.st7{fill:url(#SVGID_8_);}
	.st8{fill:url(#SVGID_9_);}
	.st9{fill:url(#SVGID_10_);}
	.st10{fill:url(#SVGID_11_);}
	.st11{fill:url(#SVGID_12_);}
	.st12{fill:url(#SVGID_13_);}
</style>
<g>
	<linearGradient id="SVGID_1_" gradientUnits="userSpaceOnUse" x1="4.2925" y1="414.9838" x2="401.4952" y2="510.788">
		<stop  offset="0" style="stop-color:#FBC731"/>
		<stop  offset="0.5503" style="stop-color:#8F4A03"/>
		<stop  offset="1" style="stop-color:#E1A822"/>
	</linearGradient>
	<path class="st0" d="M282.3,462.4l13.7,14c3,3.1,4.7,6.2,5,9.2c0.3,3-0.7,6.4-3.2,10.2c-2.2,3.4-4.4,5.6-6.7,6.5s-4.7,0.7-7.2-0.9
		c-0.5-0.3-1-0.7-1.5-1.1c-0.5-0.4-0.9-0.8-1.3-1.2l-13.6-13.9l4.3-6.7l13.6,13.9c0.3,0.3,0.6,0.6,0.9,0.9c0.4,0.3,0.7,0.5,0.9,0.7
		c1.1,0.7,2.1,0.9,3.1,0.6c1-0.3,1.9-1.2,2.9-2.7c0.9-1.5,1.3-2.9,1.1-4.3s-1.1-2.9-2.5-4.4L278,469.1L282.3,462.4z"/>
	<linearGradient id="SVGID_2_" gradientUnits="userSpaceOnUse" x1="9.2598" y1="394.3892" x2="406.4626" y2="490.1934">
		<stop  offset="0" style="stop-color:#FBC731"/>
		<stop  offset="0.5503" style="stop-color:#8F4A03"/>
		<stop  offset="1" style="stop-color:#E1A822"/>
	</linearGradient>
	<path class="st1" d="M289.1,449.3l22.9,23.4l-4,6.3l-22.9-23.4L289.1,449.3z"/>
	<linearGradient id="SVGID_3_" gradientUnits="userSpaceOnUse" x1="13.0079" y1="378.8498" x2="410.2107" y2="474.654">
		<stop  offset="0" style="stop-color:#FBC731"/>
		<stop  offset="0.5503" style="stop-color:#8F4A03"/>
		<stop  offset="1" style="stop-color:#E1A822"/>
	</linearGradient>
	<path class="st2" d="M320.8,459.7c-1.4,2.2-2.7,3.5-4,3.9c-1.3,0.5-2.6,0.3-4-0.6c-0.4-0.2-0.7-0.5-1-0.8c-0.3-0.3-0.7-0.6-1.1-1
		l-7.8-8l-1.6,2.6l-3.5-3.6l1.6-2.6l-4.7-4.8l4-6.2l4.7,4.8l3.7-5.8l3.5,3.6l-3.7,5.8l6,6.1c0.4,0.4,0.8,0.8,1.2,1.3
		c0.4,0.4,0.8,0.7,1.2,1c0.7,0.4,1.3,0.6,1.8,0.3s1-0.7,1.5-1.5c0.2-0.3,0.4-0.8,0.6-1.4c0.2-0.6,0.3-1.1,0.4-1.5l0.3-0.5l3.5,3.6
		c-0.3,0.8-0.6,1.6-1,2.5C322.1,457.7,321.5,458.6,320.8,459.7z"/>
	<linearGradient id="SVGID_4_" gradientUnits="userSpaceOnUse" x1="16.7056" y1="363.519" x2="413.9084" y2="459.3232">
		<stop  offset="0" style="stop-color:#FBC731"/>
		<stop  offset="0.5503" style="stop-color:#8F4A03"/>
		<stop  offset="1" style="stop-color:#E1A822"/>
	</linearGradient>
	<path class="st3" d="M307.2,420.9l4,4.1l-4.2,6.6l-4-4.1L307.2,420.9z M313.5,427.6l16.5,16.9l-4,6.3l-16.5-16.9L313.5,427.6z"/>
	<linearGradient id="SVGID_5_" gradientUnits="userSpaceOnUse" x1="22.3328" y1="340.1886" x2="419.5356" y2="435.9928">
		<stop  offset="0" style="stop-color:#FBC731"/>
		<stop  offset="0.5503" style="stop-color:#8F4A03"/>
		<stop  offset="1" style="stop-color:#E1A822"/>
	</linearGradient>
	<path class="st4" d="M341.1,394.1c0.4,0.2,0.7,0.5,1.1,0.8c0.4,0.3,0.8,0.7,1.1,1.1l10.7,11l-4,6.3l-8.2-8.5
		c-0.6-0.6-1.1-1.1-1.7-1.6s-1-0.9-1.4-1.1c-0.7-0.4-1.3-0.6-1.8-0.4c-0.5,0.2-1.1,0.7-1.7,1.7c-0.3,0.4-0.5,1-0.7,1.7
		c-0.1,0.7-0.3,1.6-0.4,2.7l11.7,12l-4,6.3l-8.2-8.5c-0.5-0.5-1-1-1.6-1.6c-0.6-0.5-1-0.9-1.4-1.2c-0.7-0.5-1.3-0.6-1.9-0.5
		s-1.1,0.7-1.7,1.7c-0.3,0.5-0.5,1.1-0.7,1.8c-0.1,0.7-0.3,1.6-0.3,2.6l11.7,12l-4,6.3l-16.5-16.9l4-6.3l1.8,1.9
		c0-1.8,0-3.4,0.2-4.7c0.2-1.3,0.6-2.6,1.4-3.8c0.8-1.3,1.8-2.2,2.9-2.7c1.1-0.5,2.4-0.6,3.7-0.2c-0.1-2.3-0.1-4.2,0.1-5.8
		c0.2-1.6,0.7-2.9,1.4-4.1c1.1-1.7,2.3-2.7,3.8-3.1C338,392.8,339.5,393.1,341.1,394.1z"/>
	<linearGradient id="SVGID_6_" gradientUnits="userSpaceOnUse" x1="30.4684" y1="306.4589" x2="427.6711" y2="402.2631">
		<stop  offset="0" style="stop-color:#FBC731"/>
		<stop  offset="0.5503" style="stop-color:#8F4A03"/>
		<stop  offset="1" style="stop-color:#E1A822"/>
	</linearGradient>
	<path class="st5" d="M363.5,387.7c0,0.6,0,1.2,0,2c0,0.8,0,1.5-0.1,2.1c-0.1,0.8-0.3,1.6-0.6,2.2c-0.2,0.7-0.7,1.5-1.3,2.5
		c-1,1.6-2.3,2.6-3.9,3.1c-1.6,0.4-3.1,0.2-4.5-0.7c-1.5-1-2.6-2.2-3.2-3.6c-0.6-1.4-0.8-3-0.5-4.9c0.3-1.7,0.8-3.6,1.8-5.6
		s2-4.1,3.3-6.4c-0.1-0.1-0.2-0.2-0.3-0.3c-0.1-0.1-0.3-0.3-0.5-0.4c-0.8-0.5-1.6-0.5-2.4,0c-0.8,0.5-1.7,1.6-2.7,3.1
		c-0.7,1-1.2,2.3-1.7,3.7c-0.4,1.5-0.8,2.6-0.9,3.3l-0.4,0.6l-4-3.9c0.3-0.8,0.8-2.1,1.5-3.8c0.7-1.7,1.6-3.3,2.6-4.8
		c1.9-3,3.8-5,5.5-5.9s3.4-0.8,5.1,0.2c0.2,0.1,0.5,0.4,0.9,0.6c0.3,0.3,0.6,0.5,0.9,0.8l11.2,11.5l-4,6.2L363.5,387.7z
		 M357.5,381.5c-0.6,1.2-1.2,2.3-1.7,3.3c-0.5,1.1-0.8,2-1,2.8c-0.2,0.9-0.2,1.6,0,2.3c0.2,0.7,0.7,1.2,1.5,1.7
		c0.7,0.4,1.3,0.5,1.9,0.2c0.6-0.3,1.2-0.9,1.8-1.9c0.4-0.6,0.7-1.4,0.8-2.2c0.2-0.9,0.2-1.8,0.2-2.7L357.5,381.5z"/>
	<linearGradient id="SVGID_7_" gradientUnits="userSpaceOnUse" x1="36.4922" y1="281.4841" x2="433.695" y2="377.2883">
		<stop  offset="0" style="stop-color:#FBC731"/>
		<stop  offset="0.5503" style="stop-color:#8F4A03"/>
		<stop  offset="1" style="stop-color:#E1A822"/>
	</linearGradient>
	<path class="st6" d="M378,370.5c-1.4,2.2-2.7,3.5-4,3.9c-1.3,0.5-2.6,0.3-4-0.6c-0.4-0.2-0.7-0.5-1-0.8c-0.3-0.3-0.7-0.6-1.1-1
		l-7.8-8l-1.6,2.6l-3.5-3.6l1.6-2.6l-4.7-4.8l4-6.2l4.7,4.8l3.7-5.8l3.5,3.6l-3.7,5.8l6,6.1c0.4,0.4,0.8,0.8,1.2,1.3
		c0.4,0.4,0.8,0.7,1.2,1c0.7,0.4,1.3,0.6,1.8,0.3c0.5-0.2,1-0.7,1.6-1.5c0.2-0.3,0.4-0.8,0.6-1.4c0.2-0.6,0.3-1.1,0.4-1.5l0.3-0.5
		l3.5,3.6c-0.3,0.8-0.6,1.6-1,2.5C379.2,368.4,378.7,369.4,378,370.5z"/>
	<linearGradient id="SVGID_8_" gradientUnits="userSpaceOnUse" x1="41.2093" y1="261.9271" x2="438.4121" y2="357.7313">
		<stop  offset="0" style="stop-color:#FBC731"/>
		<stop  offset="0.5503" style="stop-color:#8F4A03"/>
		<stop  offset="1" style="stop-color:#E1A822"/>
	</linearGradient>
	<path class="st7" d="M390.7,351c-2.1,3.3-4.5,5.4-7.1,6.3c-2.6,0.9-5.2,0.5-7.8-1.2c-1.8-1.1-3.2-2.5-4.3-4c-1.1-1.5-1.9-3.2-2.3-5
		c-0.4-1.8-0.4-3.6,0-5.6c0.4-2,1.2-3.9,2.4-5.8c1.9-2.9,3.8-4.7,5.9-5.4c2.1-0.7,4.3-0.3,6.6,1.1c0.8,0.5,1.5,1.1,2.2,1.7
		c0.6,0.6,1.3,1.3,1.8,2l-9.2,14.4c0.1,0,0.1,0.1,0.2,0.1c0.1,0,0.1,0.1,0.2,0.1c1.3,0.9,2.7,1.1,4.1,0.6c1.4-0.5,2.7-1.7,3.9-3.6
		c0.9-1.4,1.5-2.8,1.8-4.3c0.3-1.5,0.5-2.9,0.5-4.2l0.4-0.7l4.2,4.4c-0.2,1.5-0.7,3.1-1.2,4.6C392.5,347.9,391.7,349.4,390.7,351z
		 M381.1,338.1c-0.2-0.2-0.4-0.3-0.5-0.4s-0.3-0.3-0.5-0.4c-0.9-0.6-1.8-0.7-2.6-0.5c-0.8,0.3-1.6,0.9-2.3,2c-0.8,1.3-1.2,2.6-1,3.9
		c0.1,1.3,0.7,2.6,1.6,3.8L381.1,338.1z"/>
</g>
<g>
	
		<linearGradient id="SVGID_9_" gradientUnits="userSpaceOnUse" x1="-55.0337" y1="219.4213" x2="361.0502" y2="343.8969" gradientTransform="matrix(1 0 0 -1 0 512)">
		<stop  offset="0" style="stop-color:#FBC731"/>
		<stop  offset="7.578108e-02" style="stop-color:#E6B027"/>
		<stop  offset="0.2143" style="stop-color:#C58C17"/>
		<stop  offset="0.3438" style="stop-color:#AD710C"/>
		<stop  offset="0.4597" style="stop-color:#9E6205"/>
		<stop  offset="0.5503" style="stop-color:#995C03"/>
		<stop  offset="0.6411" style="stop-color:#A16406"/>
		<stop  offset="0.7817" style="stop-color:#B57A0F"/>
		<stop  offset="0.9539" style="stop-color:#D79D1E"/>
		<stop  offset="1" style="stop-color:#E1A822"/>
	</linearGradient>
	<circle class="st8" cx="256.1" cy="199.5" r="131.2"/>
	<g>
		
			<linearGradient id="SVGID_10_" gradientUnits="userSpaceOnUse" x1="6.5679" y1="13.5059" x2="422.6518" y2="137.9815" gradientTransform="matrix(1 0 0 -1 0 512)">
			<stop  offset="0" style="stop-color:#FBC731"/>
			<stop  offset="7.578108e-02" style="stop-color:#E6B027"/>
			<stop  offset="0.2143" style="stop-color:#C58C17"/>
			<stop  offset="0.3438" style="stop-color:#AD710C"/>
			<stop  offset="0.4597" style="stop-color:#9E6205"/>
			<stop  offset="0.5503" style="stop-color:#995C03"/>
			<stop  offset="0.6411" style="stop-color:#A16406"/>
			<stop  offset="0.7817" style="stop-color:#B57A0F"/>
			<stop  offset="0.9539" style="stop-color:#D79D1E"/>
			<stop  offset="1" style="stop-color:#E1A822"/>
		</linearGradient>
		<path class="st9" d="M256,355.1C149.6,355.1,55.9,417.3,0.5,512h230.4c0.6-1.3,1.2-2.5,2-3.8L324.8,364
			C302.6,358.2,279.6,355.1,256,355.1z"/>
		
			<linearGradient id="SVGID_11_" gradientUnits="userSpaceOnUse" x1="42.1744" y1="-105.5158" x2="458.2583" y2="18.9597" gradientTransform="matrix(1 0 0 -1 0 512)">
			<stop  offset="0" style="stop-color:#FBC731"/>
			<stop  offset="7.578108e-02" style="stop-color:#E6B027"/>
			<stop  offset="0.2143" style="stop-color:#C58C17"/>
			<stop  offset="0.3438" style="stop-color:#AD710C"/>
			<stop  offset="0.4597" style="stop-color:#9E6205"/>
			<stop  offset="0.5503" style="stop-color:#995C03"/>
			<stop  offset="0.6411" style="stop-color:#A16406"/>
			<stop  offset="0.7817" style="stop-color:#B57A0F"/>
			<stop  offset="0.9539" style="stop-color:#D79D1E"/>
			<stop  offset="1" style="stop-color:#E1A822"/>
		</linearGradient>
		<path class="st10" d="M433.3,512h78.2c-12.1-20.8-26.1-39.9-41.7-57.3L433.3,512z"/>
	</g>
	<g>
		
			<linearGradient id="SVGID_12_" gradientUnits="userSpaceOnUse" x1="3.5588" y1="23.5646" x2="419.6427" y2="148.0401" gradientTransform="matrix(1 0 0 -1 0 512)">
			<stop  offset="0" style="stop-color:#FBC731"/>
			<stop  offset="7.578108e-02" style="stop-color:#E6B027"/>
			<stop  offset="0.2143" style="stop-color:#C58C17"/>
			<stop  offset="0.3438" style="stop-color:#AD710C"/>
			<stop  offset="0.4597" style="stop-color:#9E6205"/>
			<stop  offset="0.5503" style="stop-color:#995C03"/>
			<stop  offset="0.6411" style="stop-color:#A16406"/>
			<stop  offset="0.7817" style="stop-color:#B57A0F"/>
			<stop  offset="0.9539" style="stop-color:#D79D1E"/>
			<stop  offset="1" style="stop-color:#E1A822"/>
		</linearGradient>
		<path class="st11" d="M511.5,356.9v-9.1c-1.1-1-2.3-2-3.6-2.8L409,282c-4-2.6-8.6-3.9-13.3-3.9c-1.8,0-3.6,0.2-5.5,0.6
			c-6.5,1.4-12.1,5.3-15.6,10.9l-47.8,75l-92.2,144.7c-0.6,0.9-1,1.8-1.5,2.7h6.4l92.9-145.8l46.9-73.6c2.8-4.3,7.1-7.3,12.1-8.5
			c5-1.1,10.2-0.2,14.5,2.6l98.9,63C507.7,351.5,510,354,511.5,356.9z"/>
		
			<linearGradient id="SVGID_13_" gradientUnits="userSpaceOnUse" x1="29.6386" y1="-63.6123" x2="445.7225" y2="60.8632" gradientTransform="matrix(1 0 0 -1 0 512)">
			<stop  offset="0" style="stop-color:#FBC731"/>
			<stop  offset="7.578108e-02" style="stop-color:#E6B027"/>
			<stop  offset="0.2143" style="stop-color:#C58C17"/>
			<stop  offset="0.3438" style="stop-color:#AD710C"/>
			<stop  offset="0.4597" style="stop-color:#9E6205"/>
			<stop  offset="0.5503" style="stop-color:#995C03"/>
			<stop  offset="0.6411" style="stop-color:#A16406"/>
			<stop  offset="0.7817" style="stop-color:#B57A0F"/>
			<stop  offset="0.9539" style="stop-color:#D79D1E"/>
			<stop  offset="1" style="stop-color:#E1A822"/>
		</linearGradient>
		<path class="st12" d="M511.5,375c-0.2,0.4-0.5,0.9-0.8,1.3l-46.3,72.6L424.3,512h6.7l37.5-58.8l43.1-67.6V375H511.5z"/>
	</g>
</g>
</svg>
