<?xml version="1.0" encoding="utf-8"?>
<!-- Generator: Adobe Illustrator 23.0.5, SVG Export Plug-In . SVG Version: 6.00 Build 0)  -->
<svg version="1.1" id="Layer_1" xmlns="http://www.w3.org/2000/svg" xmlns:xlink="http://www.w3.org/1999/xlink" x="0px" y="0px"
	 viewBox="0 0 512 512" style="enable-background:new 0 0 512 512;" xml:space="preserve">
<style type="text/css">
	.st0{fill:url(#SVGID_1_);}
	.st1{fill:url(#SVGID_2_);}
	.st2{fill:#FF2020;}
	.st3{fill:url(#SVGID_3_);}
	.st4{fill:url(#SVGID_4_);}
</style>
<g>
	<linearGradient id="SVGID_1_" gradientUnits="userSpaceOnUse" x1="41.0333" y1="496.1509" x2="41.0333" y2="511.0943">
		<stop  offset="0" style="stop-color:#000000;stop-opacity:0"/>
		<stop  offset="1" style="stop-color:#000000"/>
	</linearGradient>
	<path class="st0" d="M48.1,489.8H0V512h82.1C62.6,509.3,48.1,489.8,48.1,489.8z"/>
	<linearGradient id="SVGID_2_" gradientUnits="userSpaceOnUse" x1="470.8986" y1="496.1509" x2="470.8986" y2="511.0943">
		<stop  offset="0" style="stop-color:#000000;stop-opacity:0"/>
		<stop  offset="1" style="stop-color:#000000"/>
	</linearGradient>
	<path class="st1" d="M461.4,489.8H512V512h-82.2C446.7,508.8,461.4,489.8,461.4,489.8z"/>
</g>
<g>
	<g>
		<path class="st2" d="M87.5,413.2c6.7,18.5,21.3,58.8,35.9,99.1H134h51.8h11c-23.6-50.9-50.5-109-57.1-123c-1-2.2-2-4.3-2.9-6.3
			c-8.6-19.4-11.1-31.8-7-52.5c4.5-22.9,11.4-47-3.9-69.2s-33.5-34.1-72-29.9c-4.3,0.7-5.7,5.3,0.3,10.7s24,21.8,28.2,26.7
			s8.6,10.9,4,22.5C81.8,302.9,72,313.4,62.6,317s-17.1,5.6-23.6,0.2S8.4,288.1,8.4,288.1c-5.3-5.1-8.4,0.7-8.3,5.1
			c0.1,4.4-3.5,48,33.1,73.6c36.6,25.6,43.9,18.2,51.3,38.3C85.2,406.8,86.2,409.6,87.5,413.2z"/>
	</g>
</g>
<g>
	<linearGradient id="SVGID_3_" gradientUnits="userSpaceOnUse" x1="306.2144" y1="496.1509" x2="306.2144" y2="511.0943">
		<stop  offset="0" style="stop-color:#000000;stop-opacity:0"/>
		<stop  offset="1" style="stop-color:#000000"/>
	</linearGradient>
	<path class="st3" d="M388.2,489.8h-27.3h-1.7H191.9l10.3,22.2h138.2h39.5h40.8C400.2,509.3,388.2,489.8,388.2,489.8z"/>
	<linearGradient id="SVGID_4_" gradientUnits="userSpaceOnUse" x1="103.8123" y1="502.9901" x2="103.8123" y2="511.4851">
		<stop  offset="0" style="stop-color:#000000;stop-opacity:0"/>
		<stop  offset="1" style="stop-color:#000000"/>
	</linearGradient>
	<path class="st4" d="M113.4,499.4c-5.2,4.6-12.9,9.8-23.7,12.6h28.2C116.4,507.8,114.9,503.6,113.4,499.4z"/>
</g>
<path class="st2" d="M112.6,497.3c-7,7.4-16.9,11.9-27.8,11.9c-21.2,0-38.4-17.2-38.4-38.4s17.2-38.4,38.4-38.4c1.5,0,3,0.1,4.4,0.3
	c-0.4-1.1-0.8-2.1-1.1-3.1c-1.1-0.1-2.2-0.1-3.3-0.1c-22.8,0-41.4,18.6-41.4,41.4s18.6,41.4,41.4,41.4c11.2,0,21.4-4.5,28.9-11.8
	C113.4,499.4,113,498.4,112.6,497.3z"/>
<path class="st2" d="M88.2,474.5c0.9-0.6,2-0.8,3.4-0.7c1.3,0.7,2.9,1.3,4.9,1.7c3.4,1.8,7.4,4.8,11.5,9.1c-0.5-1.4-1-2.9-1.5-4.3
	c-1.8-1.7-3.6-3.1-5.4-4.4c0.5,0,1,0,1.5,0c0.8,0,1.6,0,2.4-0.1c-0.2-0.7-0.5-1.3-0.7-2c-1.1,0-2.1,0.1-3.1,0
	c-1.5-0.1-2.8-0.2-4-0.4c-1.7-0.8-3.3-1.4-4.7-1.6c-1-0.6-1.7-1.4-2-2.3c-0.9-2.9,2.1-7.1,8.2-11.4c-0.2-0.6-0.5-1.3-0.7-1.9
	c-1.8,1.2-3.4,2.4-4.7,3.7c1.1-2.4,2.1-5.4,2.9-8.7c-0.4-1.2-0.9-2.4-1.3-3.6c-1.9,11.1-5.9,17.9-9.8,17.9
	c-5.2,0-10.8-12.4-10.9-30.9c-0.7,0.2-1.3,0.4-2,0.7c0.1,9.9,1.8,18.6,4.5,24.4c-0.5-0.5-1.1-1-1.7-1.5c-5-3.9-12.1-7.5-20-10.2
	c-0.4,0.6-0.8,1.1-1.2,1.7c7.9,2.6,15,6.2,19.9,10.1c4.7,3.7,6.9,7.3,6.1,9.8c-0.3,1-1.1,1.8-2.2,2.5c-1.3,0.2-2.8,0.7-4.4,1.5
	c-1.2,0.2-2.6,0.4-4.1,0.4c-6.2,0.2-13.9-1-21.8-3.5c0,0.1,0,0.2,0,0.3c0,0.6,0,1.2,0,1.8c7.2,2.2,14.3,3.4,20.2,3.4
	c0.5,0,1,0,1.5,0c-5.2,3.5-10.6,9-15.5,15.6c0.4,0.6,0.8,1.2,1.2,1.7c5-6.8,10.5-12.4,15.8-15.9c1.2-0.8,2.3-1.4,3.3-1.9
	c1.7-0.3,3.2-0.8,4.4-1.5c0.3,0,0.7-0.1,1-0.1c1,0,1.9,0.2,2.5,0.7c2.2,1.6,2.5,5.8,0.9,11.5c-1.7,6.1-5.4,13.3-10.4,20.2
	c0.7,0.2,1.3,0.5,2,0.7c4.9-6.9,8.6-14.1,10.4-20.3c0.2-0.8,0.4-1.6,0.6-2.4c1.4,6.4,5.2,14.6,11.1,22.7c0.7-0.2,1.3-0.4,2-0.7
	c0-0.1-0.1-0.1-0.1-0.2C86.8,491.1,83.9,477.6,88.2,474.5z M84.8,476.2c-0.4-1.3-1.2-2.3-2.1-3c-0.7-0.5-1.4-0.8-2.2-1
	c0.5-0.6,0.8-1.2,1-1.9c0.4-1.2,0.3-2.5-0.1-3.9c1.1,0.8,2.3,1.2,3.5,1.2c1.3,0,2.6-0.5,3.8-1.4c-0.5,1.4-0.6,2.8-0.2,4.1
	c0.2,0.6,0.5,1.2,0.9,1.7c-0.9,0.2-1.6,0.5-2.3,1C86,473.7,85.3,474.8,84.8,476.2z"/>
<g>
	<path class="st2" d="M425,512.3c-22.8,0-41.4-18.6-41.4-41.4s18.6-41.4,41.4-41.4s41.4,18.6,41.4,41.4S447.8,512.3,425,512.3z
		 M425,432.5c-21.2,0-38.4,17.2-38.4,38.4s17.2,38.4,38.4,38.4s38.4-17.2,38.4-38.4S446.1,432.5,425,432.5z"/>
	<g>
		<path class="st2" d="M456.5,449.7c-0.4-0.6-0.8-1.1-1.2-1.7c-9.5,3.2-17.3,7.6-22,12c2.8-5.9,4.5-14.7,4.6-24.8
			c-0.7-0.2-1.3-0.5-2-0.7c-0.1,18.5-5.7,31-10.9,31c-5.2,0-10.8-12.4-10.9-30.9c-0.7,0.2-1.3,0.4-2,0.7c0.1,9.9,1.8,18.6,4.5,24.4
			c-0.5-0.5-1.1-1-1.7-1.5c-5-3.9-12.1-7.5-20-10.2c-0.4,0.6-0.8,1.1-1.2,1.7c7.9,2.6,15,6.2,19.9,10.1c4.7,3.7,6.9,7.3,6.1,9.8
			c-0.3,1-1.1,1.8-2.2,2.5c-1.3,0.2-2.8,0.7-4.4,1.5c-1.2,0.2-2.6,0.4-4.1,0.4c-6.2,0.2-13.9-1-21.8-3.5c0,0.1,0,0.2,0,0.3
			c0,0.6,0,1.2,0,1.8c7.2,2.2,14.3,3.4,20.2,3.4c0.5,0,1,0,1.5,0c-5.2,3.5-10.6,9-15.5,15.6c0.4,0.6,0.8,1.2,1.2,1.7
			c5-6.8,10.5-12.4,15.8-15.9c1.2-0.8,2.3-1.4,3.3-1.9c1.7-0.3,3.2-0.8,4.4-1.5c0.3,0,0.7-0.1,1-0.1c1,0,1.9,0.2,2.5,0.7
			c2.2,1.6,2.5,5.8,0.9,11.5c-1.7,6.1-5.4,13.3-10.4,20.2c0.7,0.2,1.3,0.5,2,0.7c4.9-6.9,8.6-14.1,10.4-20.3
			c0.2-0.8,0.4-1.6,0.6-2.4c1.4,6.4,5.2,14.6,11.1,22.7c0.7-0.2,1.3-0.4,2-0.7c0-0.1-0.1-0.1-0.1-0.2c-11-15.2-13.9-28.7-9.6-31.8
			c0.9-0.6,2-0.8,3.4-0.7c1.3,0.7,2.9,1.3,4.9,1.7c5.4,2.8,12.3,8.9,18.9,17.9c0.4-0.6,0.8-1.1,1.2-1.7c-5-6.8-10.5-12.2-15.5-15.7
			c0.5,0,1,0,1.5,0c5.9,0,13-1.2,20.2-3.4c0-0.6,0-1.1,0-1.7c0-0.1,0-0.3,0-0.4c-7.9,2.5-15.6,3.7-21.8,3.5c-1.5-0.1-2.8-0.2-4-0.4
			c-1.7-0.8-3.3-1.4-4.7-1.6c-1-0.6-1.7-1.4-2-2.3C428.9,464.7,438.9,455.5,456.5,449.7z M427.1,472.9c-1,0.8-1.8,1.9-2.2,3.2
			c-0.4-1.3-1.2-2.3-2.1-3c-0.7-0.5-1.4-0.8-2.2-1c0.5-0.6,0.8-1.2,1-1.9c0.4-1.2,0.3-2.5-0.1-3.9c1.1,0.8,2.3,1.2,3.5,1.2
			c1.3,0,2.6-0.5,3.8-1.4c-0.5,1.4-0.6,2.8-0.2,4.1c0.2,0.6,0.5,1.2,0.9,1.7C428.6,472.1,427.8,472.4,427.1,472.9z"/>
	</g>
</g>
<path class="st2" d="M165.8,396.2l-6.4,2.5l8-6.2c6.2-4.5,11.9-9,17.4-13.3c25.8-20.1,48.1-37.4,87-41.6
	c53.2-5.7,108.3,11.5,118.8,15l1.5,0.5c23,7.7,70.9,23.7,105.5,16l-0.5,0.3c-3.6,2.6-7.8,4.2-12.2,4.7
	c-38.2,4.1-71.9-10.8-93.8-18.2l-1.5-0.5c-10.4-3.5-65-20.5-117.6-14.9c-38.1,4.1-59,20.4-85.5,41c-4.7,3.6-9.5,7.4-14.5,11.2
	C170.2,394.1,168,395.3,165.8,396.2z"/>
<path class="st2" d="M27.6,471.8c-4.4,0.3-8.7,2.5-8.7,3.3c2.2,0,12.5-0.1,15.4-0.3c4.4-0.3,6.7-2.3,6.8-3.1
	C38.8,471.7,30.4,471.6,27.6,471.8z"/>
<g>
	<g>
		<g>
			<path class="st2" d="M47.8,490.9H18.9l0.6,0.4c2.6,1.7,5.6,2.6,8.7,2.6h21.4C48.9,492.9,48.3,491.9,47.8,490.9z"/>
			<path class="st2" d="M501.4,482c-12.4,8.5-37.8,8.9-38.1,8.9h-0.8c-0.6,1-1.2,2-1.8,3h2.7c1,0,16.7,0.7,30.4-4.6
				C497.2,487.9,499.9,485.3,501.4,482L501.4,482z"/>
		</g>
	</g>
</g>
<path class="st2" d="M193.8,493.9h195.9c-0.6-1-1.2-2-1.8-3H192.4L193.8,493.9z"/>
<path class="st2" d="M251.9,469.4c-5.7,0.1-14.6,0.3-25.6,0.5c-18.9,0.4-26.9,0.8-43,1.3c0.4,0.9,0.9,1.9,1.3,2.8
	c14.6-0.4,27.4-0.8,41.8-1.1c11-0.2,19.9-0.4,25.6-0.5c32-0.6,63.2-1.4,105.3-13.4c3.1-0.9,6-2,8.9-3.3c5.7-2.6,20.5-10.8,22.6-13.4
	C356.2,460.5,285.8,468.7,251.9,469.4z"/>
<g>
	<path class="st2" d="M151.3,402.4c48.9-1,266.7-16.4,321.7-24.7l-28.6,0.8c-0.7,0-1.3,0.1-2,0.1c-50.7,5.5-247.7,20.2-292.5,20.8
		C150.4,400.4,150.8,401.4,151.3,402.4z"/>
	<path class="st2" d="M77.3,401.1c-23.2,1.4-43.1,3.9-52.7,8.4c-2.9,1.3-4.8,4.1-5.3,7.2l-0.4,2.6c2.3-10,29.8-14.2,59.6-15.9
		C78.1,402.6,77.7,401.9,77.3,401.1z"/>
</g>
<polygon class="st2" points="512,101 411.5,101 411.5,0 402.5,9 402.5,101 310,101 301,110 402.5,110 402.5,211 411.5,202 
	411.5,110 503,110 "/>
</svg>
