<?xml version="1.0" encoding="utf-8"?>
<!-- Generator: Adobe Illustrator 23.0.5, SVG Export Plug-In . SVG Version: 6.00 Build 0)  -->
<svg version="1.1" id="Layer_1" xmlns="http://www.w3.org/2000/svg" xmlns:xlink="http://www.w3.org/1999/xlink" x="0px" y="0px"
	 viewBox="0 0 512 512" style="enable-background:new 0 0 512 512;" xml:space="preserve">
<style type="text/css">
	.st0{fill:url(#SVGID_1_);}
	.st1{fill:url(#SVGID_2_);}
	.st2{fill:url(#SVGID_3_);}
	.st3{fill:#FF2020;}
</style>
<g>
	<g>
		<linearGradient id="SVGID_1_" gradientUnits="userSpaceOnUse" x1="41.05" y1="382.7184" x2="41.05" y2="397.6618">
			<stop  offset="0" style="stop-color:#000000;stop-opacity:0"/>
			<stop  offset="1" style="stop-color:#000000"/>
		</linearGradient>
		<path class="st0" d="M48.1,376.4H0v22.2h82.1C62.6,395.9,48.1,376.4,48.1,376.4z"/>
		<linearGradient id="SVGID_2_" gradientUnits="userSpaceOnUse" x1="470.9" y1="382.7184" x2="470.9" y2="397.6618">
			<stop  offset="0" style="stop-color:#000000;stop-opacity:0"/>
			<stop  offset="1" style="stop-color:#000000"/>
		</linearGradient>
		<path class="st1" d="M461.4,376.4H512v22.2h-82.2C446.7,395.4,461.4,376.4,461.4,376.4z"/>
		<linearGradient id="SVGID_3_" gradientUnits="userSpaceOnUse" x1="255.15" y1="382.7184" x2="255.15" y2="397.6618">
			<stop  offset="0" style="stop-color:#000000;stop-opacity:0"/>
			<stop  offset="1" style="stop-color:#000000"/>
		</linearGradient>
		<path class="st2" d="M388.2,376.4h-27.3h-1.7H121.6c0,0-9.3,16.2-31.9,22.2h250.6h39.5h40.8C400.2,395.9,388.2,376.4,388.2,376.4z
			"/>
	</g>
	<g>
		<path class="st3" d="M425,398.9c-22.8,0-41.4-18.6-41.4-41.4s18.6-41.4,41.4-41.4s41.4,18.6,41.4,41.4S447.8,398.9,425,398.9z
			 M425,319.1c-21.2,0-38.4,17.2-38.4,38.4s17.2,38.4,38.4,38.4s38.4-17.2,38.4-38.4S446.1,319.1,425,319.1z"/>
		<g>
			<path class="st3" d="M456.5,336.3c-0.4-0.6-0.8-1.1-1.2-1.7c-9.5,3.2-17.3,7.6-22,12c2.8-5.9,4.5-14.7,4.6-24.8
				c-0.7-0.2-1.3-0.5-2-0.7c-0.1,18.5-5.7,31-10.9,31c-5.2,0-10.8-12.4-10.9-30.9c-0.7,0.2-1.3,0.4-2,0.7c0.1,9.9,1.8,18.6,4.5,24.4
				c-0.5-0.5-1.1-1-1.7-1.5c-5-3.9-12.1-7.5-20-10.2c-0.4,0.6-0.8,1.1-1.2,1.7c7.9,2.6,15,6.2,19.9,10.1c4.7,3.7,6.9,7.3,6.1,9.8
				c-0.3,1-1.1,1.8-2.2,2.5c-1.3,0.2-2.8,0.7-4.4,1.5c-1.2,0.2-2.6,0.4-4.1,0.4c-6.2,0.2-13.9-1-21.8-3.5c0,0.1,0,0.2,0,0.3
				c0,0.6,0,1.2,0,1.8c7.2,2.2,14.3,3.4,20.2,3.4c0.5,0,1,0,1.5,0c-5.2,3.5-10.6,9-15.5,15.6c0.4,0.6,0.8,1.2,1.2,1.7
				c5-6.8,10.5-12.4,15.8-15.9c1.2-0.8,2.3-1.4,3.3-1.9c1.7-0.3,3.2-0.8,4.4-1.5c0.3,0,0.7-0.1,1-0.1c1,0,1.9,0.2,2.5,0.7
				c2.2,1.6,2.5,5.8,0.9,11.5c-1.7,6.1-5.4,13.3-10.4,20.2c0.7,0.2,1.3,0.5,2,0.7c4.9-6.9,8.6-14.1,10.4-20.3
				c0.2-0.8,0.4-1.6,0.6-2.4c1.4,6.4,5.2,14.6,11.1,22.7c0.7-0.2,1.3-0.4,2-0.7c0-0.1-0.1-0.1-0.1-0.2c-11-15.2-13.9-28.7-9.6-31.8
				c0.9-0.6,2-0.8,3.4-0.7c1.3,0.7,2.9,1.3,4.9,1.7c5.4,2.8,12.3,8.9,18.9,17.9c0.4-0.6,0.8-1.1,1.2-1.7c-5-6.8-10.5-12.2-15.5-15.7
				c0.5,0,1,0,1.5,0c5.9,0,13-1.2,20.2-3.4c0-0.6,0-1.1,0-1.7c0-0.1,0-0.3,0-0.4c-7.9,2.5-15.6,3.7-21.8,3.5c-1.5-0.1-2.8-0.2-4-0.4
				c-1.7-0.8-3.3-1.4-4.7-1.6c-1-0.6-1.7-1.4-2-2.3C428.9,351.3,438.9,342.1,456.5,336.3z M427.1,359.5c-1,0.8-1.8,1.9-2.2,3.2
				c-0.4-1.3-1.2-2.3-2.1-3c-0.7-0.5-1.4-0.8-2.2-1c0.5-0.6,0.8-1.2,1-1.9c0.4-1.2,0.3-2.5-0.1-3.9c1.1,0.8,2.3,1.2,3.5,1.2
				c1.3,0,2.6-0.5,3.8-1.4c-0.5,1.4-0.6,2.8-0.2,4.1c0.2,0.6,0.5,1.2,0.9,1.7C428.6,358.7,427.8,359,427.1,359.5z"/>
		</g>
	</g>
	<path class="st3" d="M165.8,301.4l-6.4,2.5l8-6.2c6.2-4.5,11.9-9,17.4-13.3c25.8-20.1,48.1-37.4,87-41.6
		c53.2-5.7,108.3,11.5,118.8,15l1.5,0.5c23,7.7,70.9,23.7,105.5,16l-0.5,0.3c-3.6,2.6-7.8,4.2-12.2,4.7
		c-38.2,4.1-71.9-10.8-93.8-18.2l-1.5-0.5c-10.4-3.5-65-20.5-117.6-14.9c-38.1,4.1-59,20.4-85.5,41c-4.7,3.6-9.5,7.4-14.5,11.2
		C170.2,299.3,168,300.5,165.8,301.4z"/>
	<g>
		<path class="st3" d="M444.4,283.7c-0.7,0-1.3,0.1-2,0.1c-51.9,5.6-256.9,20.9-295.4,20.9c-44.8,0-103.7,1.2-122.6,10
			c-2.9,1.3-4.8,4.1-5.3,7.2l-0.4,2.6c4.3-19.1,100.1-16.9,128.2-16.9c38.8,0,269.2-16.2,326-24.8L444.4,283.7z"/>
	</g>
	<g>
		<path class="st3" d="M388.7,329c-32.5,18.1-102.9,26.3-136.9,27c-5.7,0.1-14.6,0.3-25.6,0.5c-27.8,0.6-32,1.2-73.2,2
			c-2.2,0-4.5,0.3-6.6,0.7c-4.3,0.9-15.4,1.9-15.5,2.7c44.1-0.8,66.4-1.8,95.4-2.4c11-0.2,19.9-0.4,25.6-0.5
			c32-0.6,63.2-1.4,105.3-13.4c3.1-0.9,6-2,8.9-3.3C371.8,339.7,386.6,331.6,388.7,329z"/>
	</g>
	<path class="st3" d="M27.6,358.4c-4.4,0.3-8.7,2.5-8.7,3.3c2.2,0,12.5-0.1,15.4-0.3c4.4-0.3,6.7-2.3,6.8-3.1
		C38.8,358.3,30.4,358.2,27.6,358.4z"/>
	<g>
		<path class="st3" d="M84.8,398.9c-22.8,0-41.4-18.6-41.4-41.4s18.6-41.4,41.4-41.4s41.4,18.6,41.4,41.4S107.7,398.9,84.8,398.9z
			 M84.8,319.2c-21.2,0-38.4,17.2-38.4,38.4S63.6,396,84.8,396s38.4-17.2,38.4-38.4S106,319.2,84.8,319.2z"/>
		<g>
			<path class="st3" d="M116.3,336.4c-0.4-0.6-0.8-1.1-1.2-1.7c-9.5,3.2-17.3,7.6-22,12c2.8-5.9,4.5-14.7,4.6-24.8
				c-0.7-0.2-1.3-0.5-2-0.7c-0.1,18.5-5.7,31-10.9,31c-5.2,0-10.8-12.4-10.9-30.9c-0.7,0.2-1.3,0.4-2,0.7c0.1,9.9,1.8,18.6,4.5,24.4
				c-0.5-0.5-1.1-1-1.7-1.5c-5-3.9-12.1-7.5-20-10.2c-0.4,0.6-0.8,1.1-1.2,1.7c7.9,2.6,15,6.2,19.9,10.1c4.7,3.7,6.9,7.3,6.1,9.8
				c-0.3,1-1.1,1.8-2.2,2.5c-1.3,0.2-2.8,0.7-4.4,1.5c-1.2,0.2-2.6,0.4-4.1,0.4c-6.2,0.2-13.9-1-21.8-3.5c0,0.1,0,0.2,0,0.3
				c0,0.6,0,1.2,0,1.8c7.2,2.2,14.3,3.4,20.2,3.4c0.5,0,1,0,1.5,0c-5.2,3.5-10.6,9-15.5,15.6c0.4,0.6,0.8,1.2,1.2,1.7
				c5-6.8,10.5-12.4,15.8-15.9c1.2-0.8,2.3-1.4,3.3-1.9c1.7-0.3,3.2-0.8,4.4-1.5c0.3,0,0.7-0.1,1-0.1c1,0,1.9,0.2,2.5,0.7
				c2.2,1.6,2.5,5.8,0.9,11.5c-1.7,6.1-5.4,13.3-10.4,20.2c0.7,0.2,1.3,0.5,2,0.7c4.9-6.9,8.6-14.1,10.4-20.3
				c0.2-0.8,0.4-1.6,0.6-2.4c1.4,6.4,5.2,14.6,11.1,22.7c0.7-0.2,1.3-0.4,2-0.7c0-0.1-0.1-0.1-0.1-0.2c-11-15.2-13.9-28.7-9.6-31.8
				c0.9-0.6,2-0.8,3.4-0.7c1.3,0.7,2.9,1.3,4.9,1.7c5.4,2.8,12.3,8.9,18.9,17.9c0.4-0.6,0.8-1.1,1.2-1.7c-5-6.8-10.5-12.2-15.5-15.7
				c0.5,0,1,0,1.5,0c5.9,0,13-1.2,20.2-3.4c0-0.6,0-1.1,0-1.7c0-0.1,0-0.3,0-0.4c-7.9,2.5-15.6,3.7-21.8,3.5c-1.5-0.1-2.8-0.2-4-0.4
				c-1.7-0.8-3.3-1.4-4.7-1.6c-1-0.6-1.7-1.4-2-2.3C88.7,351.3,98.8,342.2,116.3,336.4z M87,359.5c-1,0.8-1.8,1.9-2.2,3.2
				c-0.4-1.3-1.2-2.3-2.1-3c-0.7-0.5-1.4-0.8-2.2-1c0.5-0.6,0.8-1.2,1-1.9c0.4-1.2,0.3-2.5-0.1-3.9c1.1,0.8,2.3,1.2,3.5,1.2
				c1.3,0,2.6-0.5,3.8-1.4c-0.5,1.4-0.6,2.8-0.2,4.1c0.2,0.6,0.5,1.2,0.9,1.7C88.5,358.7,87.7,359,87,359.5z"/>
		</g>
	</g>
	<g>
		<g>
			<g>
				<path class="st3" d="M387.9,377.5H122.4c-0.6,1-1.2,2-1.8,3h269.1C389.1,379.5,388.5,378.5,387.9,377.5z"/>
				<path class="st3" d="M47.8,377.5H18.9l0.6,0.4c2.6,1.7,5.6,2.6,8.7,2.6h21.4C48.9,379.5,48.3,378.5,47.8,377.5z"/>
				<path class="st3" d="M501.4,368.6c-12.4,8.5-37.8,8.9-38.1,8.9h-0.8c-0.6,1-1.2,2-1.8,3h2.7c1,0,16.7,0.7,30.4-4.6
					C497.2,374.5,499.9,371.9,501.4,368.6L501.4,368.6z"/>
			</g>
		</g>
	</g>
</g>
</svg>
