<?xml version="1.0" encoding="utf-8"?>
<!-- Generator: Adobe Illustrator 23.0.5, SVG Export Plug-In . SVG Version: 6.00 Build 0)  -->
<svg version="1.1" id="Layer_1" xmlns="http://www.w3.org/2000/svg" xmlns:xlink="http://www.w3.org/1999/xlink" x="0px" y="0px"
	 viewBox="0 0 512 265" style="enable-background:new 0 0 512 265;" xml:space="preserve">
<style type="text/css">
	.st0{fill:#FFFFFF;}
</style>
<g>
	<g>
		<path class="st0" d="M204.1,165c-1.2,0.8-2.6,1.7-4.2,2.7c-1.6,1.1-3.2,1.9-4.6,2.5c-1.9,0.8-3.7,1.4-5.4,1.8
			c-1.7,0.4-4,0.6-7,0.6c-4.8,0-8.7-1.3-11.8-4c-3-2.7-4.6-6.2-4.6-10.5c0-4.6,1.1-8.4,3.2-11.6c2.2-3.2,5.4-5.7,9.6-7.6
			c4-1.8,8.7-3.1,14.2-3.9c5.5-0.8,11.5-1.4,17.9-1.8c0-0.2,0.1-0.5,0.2-1c0.1-0.5,0.2-1,0.2-1.6c0-2.4-1.1-4.1-3.4-5.1
			s-5.6-1.5-10.1-1.5c-3.1,0-6.4,0.5-10.1,1.5c-3.7,1-6.5,1.9-8.3,2.6h-1.7l2.7-13.7c2.2-0.5,5.5-1.2,10-1.9c4.5-0.7,9-1,13.5-1
			c9.1,0,15.7,1.2,20,3.6c4.2,2.4,6.4,6,6.4,11c0,0.7-0.1,1.6-0.2,2.7c-0.1,1.1-0.3,2.1-0.5,2.9l-9.1,39.3h-18.4L204.1,165z
			 M209.1,143.9c-3.3,0.3-6.4,0.6-9.3,1c-2.9,0.4-5.4,0.9-7.4,1.6c-2.1,0.8-3.7,1.8-4.8,3.2c-1.1,1.4-1.7,3.2-1.7,5.5
			c0,2,0.7,3.4,2.2,4.2c1.5,0.8,3.6,1.2,6.4,1.2c1.8,0,3.8-0.4,5.9-1.3c2.1-0.8,4-1.9,5.9-3.2L209.1,143.9z"/>
		<path class="st0" d="M276.2,131h-1.6c-0.8-0.3-2-0.5-3.5-0.6c-1.5-0.1-3-0.2-4.5-0.2c-2.4,0-4.8,0.2-7,0.5s-4.6,0.9-7,1.7l-9,38.7
			h-18.7l13.4-57.8H257l-2,8.5c3.5-2.6,7-4.7,10.5-6.3s7-2.4,10.5-2.4c0.7,0,1.4,0,2.2,0.1s1.5,0.1,2.1,0.2L276.2,131z"/>
	</g>
	<g>
		<path class="st0" d="M261.6,192c0,6.1-1.9,11.3-5.6,15.5c-3.7,4.2-8.8,7.3-15.2,9.5l17.7,32.4h-22.1L222,221.3h-11.1l-6.5,28.1
			h-19.8l17.7-76.7h29.9c9.4,0,16.6,1.6,21.7,4.8C259.1,180.6,261.6,185.5,261.6,192z M240.3,195.3c0-3.1-1-5.3-3-6.5
			c-2-1.3-4.9-1.9-8.7-1.9h-9.8l-4.8,20.6h9.7c5.2,0,9.3-1.1,12.2-3.2C238.9,202.1,240.3,199.1,240.3,195.3z"/>
		<path class="st0" d="M285.5,251c-9.9,0-17.5-2.2-22.8-6.5c-5.4-4.4-8-10.4-8-18.1c0-5.3,0.9-10.1,2.6-14.5
			c1.8-4.4,4.3-8.3,7.6-11.6c3.2-3.2,7.1-5.8,11.9-7.7c4.7-1.9,9.9-2.8,15.6-2.8c8.6,0,15.1,1.7,19.5,5.2c4.4,3.5,6.6,8.6,6.6,15.4
			c0,2.3-0.2,4.6-0.7,6.9c-0.5,2.2-1.1,4.5-1.8,6.7h-43c0,0.2,0,0.4,0,0.6s0,0.4,0,0.6c0,4,1.4,7.2,4.2,9.4c2.8,2.3,7.1,3.4,13,3.4
			c4.1,0,7.9-0.7,11.5-2.1c3.6-1.4,6.8-2.9,9.5-4.6h2.1l-3.5,14.9c-3.6,1.6-7.4,2.8-11.4,3.6C294.3,250.6,290,251,285.5,251z
			 M299.7,213.1c0.1-0.6,0.2-1.2,0.2-1.7c0.1-0.5,0.1-1.1,0.1-1.6c0-2.7-0.8-4.8-2.5-6.3c-1.7-1.4-4.1-2.2-7.3-2.2
			c-3.8,0-7,1-9.6,3.1c-2.6,2.1-4.6,4.9-5.9,8.6H299.7z"/>
		<path class="st0" d="M454,243.3c-1.2,0.8-2.6,1.7-4.2,2.7c-1.6,1.1-3.2,1.9-4.6,2.5c-1.9,0.8-3.7,1.4-5.4,1.8
			c-1.7,0.4-4,0.6-7,0.6c-4.8,0-8.7-1.4-11.8-4c-3-2.7-4.6-6.2-4.6-10.5c0-4.6,1.1-8.4,3.2-11.6c2.2-3.2,5.4-5.7,9.6-7.6
			c4-1.8,8.7-3.1,14.2-3.9c5.5-0.8,11.5-1.4,17.9-1.8c0-0.2,0.1-0.5,0.2-1c0.1-0.5,0.2-1,0.2-1.6c0-2.4-1.1-4.1-3.4-5.1
			c-2.3-1-5.6-1.5-10.1-1.5c-3.1,0-6.4,0.5-10.1,1.5s-6.5,1.9-8.3,2.6h-1.7l2.7-13.7c2.2-0.5,5.5-1.2,10-1.9c4.5-0.7,9-1,13.5-1
			c9.1,0,15.7,1.2,20,3.6c4.2,2.4,6.4,6,6.4,11c0,0.7-0.1,1.6-0.2,2.7c-0.1,1.1-0.3,2.1-0.5,2.9l-9.1,39.3h-18.4L454,243.3z
			 M459,222.1c-3.3,0.3-6.4,0.6-9.3,1c-2.9,0.4-5.4,0.9-7.4,1.6c-2.1,0.8-3.7,1.8-4.8,3.2c-1.1,1.4-1.7,3.2-1.7,5.5
			c0,2,0.7,3.4,2.2,4.2c1.5,0.8,3.6,1.2,6.4,1.2c1.8,0,3.8-0.4,5.9-1.3c2.1-0.8,4-1.9,5.9-3.2L459,222.1z"/>
		<path class="st0" d="M512,169.3l-18.5,80.1h-18.7l18.5-80.1H512z"/>
	</g>
	<path class="st0" d="M164.9,158.2c0-3.4,0.6-6.4,1.7-9.1c-3.2,2.3-6.5,4.3-10,5.9c-4.2,1.9-8.6,2.9-13.3,2.9c-5.3,0-9.3-1.4-12-4.1
		c-2.7-2.7-4.1-7.2-4.1-13.3c0-9.5,2.5-17.3,7.4-23.5c5-6.1,11.3-9.2,18.9-9.2c4.4,0,8.2,0.8,11.4,2.5c3.2,1.6,6.5,4.2,9.7,7.7h2.3
		l4.5-18.6c-3.6-2.1-7.7-3.7-12.3-4.8c-4.5-1.1-9.4-1.6-14.7-1.6c-6.6,0-12.8,1.2-18.8,3.7c-6,2.4-11.1,5.8-15.3,10.1
		c-4.4,4.5-7.8,9.7-10.3,15.9c-2.5,6.1-3.7,12.9-3.7,20.4c0,9.5,2.8,16.8,8.4,21.9s13.6,7.6,24,7.6c3.8,0,6.8-0.2,9-0.6
		c2.1-0.4,4.5-0.9,6.9-1.6c1.9-0.5,3.9-1.3,5.9-2.1c2.1-0.9,3.9-1.6,5.4-2.2l0.3-1.1C165.4,162.9,164.9,160.7,164.9,158.2z"/>
	<path class="st0" d="M414.8,236.5h-0.3c-0.9,0.4-2.2,0.8-3.7,1.2c-1.6,0.4-2.8,0.5-3.8,0.5c-2.4,0-4.2-0.4-5.3-1.2
		c-1.1-0.8-1.7-2.2-1.7-4.3c0-1,0.2-2.3,0.5-3.7c0.3-1.5,0.6-2.9,1-4.4l4.8-20.9h17.3l2.8-12.2h-17.4l3.8-16.5h-18.6l-3.8,16.5h-7.6
		l-2.8,12.2h7.7l-6.3,27.4c-0.3,1.4-0.5,2.6-0.7,3.6c-0.2,1-0.3,2.1-0.3,3.2c0,4.2,1.4,7.3,4.1,9.4s7.3,3.2,13.7,3.2
		c3.2,0,6-0.1,8.3-0.4s4.5-0.7,6.6-1.2l2-8.7C415,239,414.8,237.8,414.8,236.5z"/>
	<path class="st0" d="M381.7,208c0.1-0.9,0.2-1.8,0.2-2.6h-4l2-8.8c-0.6-1.1-1.4-2.1-2.4-2.9c-2.9-2.5-6.9-3.8-12.1-3.8
		c-3.8,0-7.2,0.7-10.4,2.1c-3.1,1.4-6.6,3.4-10.4,5.9l1.5-6.4h-18.7l-13.4,57.8h18.7l9.4-41c2.4-1.3,4.6-2.2,6.5-2.9
		c1.9-0.6,3.6-1,5.1-1c3,0,5.1,0.5,6.2,1.5c1.1,1,1.7,2.7,1.7,4.9c0,1.3-0.1,2.7-0.4,4.2c-0.3,1.5-0.7,3.3-1.1,5.5l-6.6,28.7h18.8
		l8.6-37.6C381.4,210.4,381.6,209.2,381.7,208z"/>
</g>
<path class="st0" d="M59.7,263.5c1,0.2,2.2,0.5,3.4,0.7c17.8,3.9,33.6-6.6,42.1-21.2c1.2-1.8,2.2-3.8,3-6.1c0.2-0.5,0.4-1.1,0.6-1.6
	c6.9-18.4,7.1-19.4,12.9-36.6c5.8-17.2-7.6-35.4-24.3-39c-0.1,0-0.2,0-0.3-0.1l5.5-25.4l-9.8-2.1l24-110.4L103.2,0.2L89.5,9
	l-2.9,13.2l3.6,5.7l-14,9l8.4,13.1l-4.8,3.1l-6.6,30.3l3.4,5.4L63.7,97l-5.9,26.9l-10.3-2.2l-5.6,25.9C25.3,143.9,5.5,155,3.6,173
	c0,0,0,0,0,0c0,0.2-0.1,0.3-0.1,0.5c-1.8,17.4-3.1,28.2-3.4,38.1c0,0,0,0,0,0.1c-1.4,19.6,8.7,40.8,29.6,45.4
	c7.7,1.7,12,2.6,14.3,3.1c0,0,0,0,0,0c1.1,0.2,1.7,0.4,2.1,0.5c0,0,0.1,0,0.1,0C51,261.6,55.8,262.6,59.7,263.5
	C59.7,263.4,59.7,263.5,59.7,263.5z M34.4,235.9c-4.3-0.9-7.1-5.2-6.1-9.5c0.9-4.3,5.2-7.1,9.5-6.1l33.2,7.2
	c4.3,0.9,7.1,5.2,6.1,9.5c-0.9,4.3-5.2,7.1-9.5,6.1L34.4,235.9z"/>
</svg>
