<?xml version="1.0" encoding="utf-8"?>
<!-- Generator: Adobe Illustrator 23.0.5, SVG Export Plug-In . SVG Version: 6.00 Build 0)  -->
<svg version="1.1" id="Layer_1" xmlns="http://www.w3.org/2000/svg" xmlns:xlink="http://www.w3.org/1999/xlink" x="0px" y="0px"
	 viewBox="0 0 512 512" style="enable-background:new 0 0 512 512;" xml:space="preserve">
<style type="text/css">
	.st0{fill:url(#SVGID_1_);}
	.st1{fill:url(#SVGID_2_);}
	.st2{fill:url(#SVGID_3_);}
	.st3{fill:#FF2020;}
	.st4{fill:url(#SVGID_4_);}
	.st5{fill:url(#SVGID_5_);}
	.st6{fill:url(#SVGID_6_);}
	.st7{fill:none;}
	.st8{fill:url(#SVGID_7_);}
	.st9{fill:url(#SVGID_8_);}
	.st10{fill:#FFFF20;}
	.st11{fill:none;stroke:#FF2020;stroke-width:3.4;stroke-miterlimit:10;}
	.st12{fill:url(#SVGID_9_);}
	.st13{fill:url(#SVGID_10_);}
	.st14{fill:url(#SVGID_11_);}
	.st15{fill:url(#SVGID_12_);}
	.st16{fill:url(#SVGID_13_);}
	.st17{fill:url(#SVGID_14_);}
	.st18{fill:url(#SVGID_15_);}
	.st19{fill:url(#SVGID_16_);}
	.st20{fill:url(#SVGID_17_);}
	.st21{fill:url(#SVGID_18_);}
	.st22{fill:url(#SVGID_19_);}
	.st23{fill:url(#SVGID_20_);}
	.st24{fill:url(#SVGID_21_);}
	.st25{fill:url(#SVGID_22_);}
	.st26{fill:url(#SVGID_23_);}
	.st27{fill:url(#SVGID_24_);}
	.st28{fill:url(#SVGID_25_);}
	.st29{fill:url(#SVGID_26_);}
	.st30{fill:url(#SVGID_27_);}
	.st31{fill:url(#SVGID_28_);}
	.st32{fill:url(#SVGID_29_);}
	.st33{fill:url(#SVGID_30_);}
	.st34{fill:url(#SVGID_31_);}
	.st35{fill:url(#SVGID_32_);}
</style>
<g>
	<g>
		<g>
			<g>
				
					<linearGradient id="SVGID_1_" gradientUnits="userSpaceOnUse" x1="9.8061" y1="415.4723" x2="9.8061" y2="411.9026" gradientTransform="matrix(1 0 0 -1 0 512)">
					<stop  offset="0" style="stop-color:#000000;stop-opacity:0"/>
					<stop  offset="1" style="stop-color:#000000"/>
				</linearGradient>
				<path class="st0" d="M11.5,95H0v5.3h19.6C15,99.7,11.5,95,11.5,95z"/>
				
					<linearGradient id="SVGID_2_" gradientUnits="userSpaceOnUse" x1="112.4891" y1="415.4723" x2="112.4891" y2="411.9026" gradientTransform="matrix(1 0 0 -1 0 512)">
					<stop  offset="0" style="stop-color:#000000;stop-opacity:0"/>
					<stop  offset="1" style="stop-color:#000000"/>
				</linearGradient>
				<path class="st1" d="M110.2,95h12.1v5.3h-19.6C106.7,99.6,110.2,95,110.2,95z"/>
				
					<linearGradient id="SVGID_3_" gradientUnits="userSpaceOnUse" x1="60.9505" y1="415.4723" x2="60.9505" y2="411.9026" gradientTransform="matrix(1 0 0 -1 0 512)">
					<stop  offset="0" style="stop-color:#000000;stop-opacity:0"/>
					<stop  offset="1" style="stop-color:#000000"/>
				</linearGradient>
				<path class="st2" d="M92.7,95h-6.5h-0.4H29c0,0-2.2,3.9-7.6,5.3h59.9h9.4h9.7C95.6,99.7,92.7,95,92.7,95z"/>
			</g>
			<g>
				<path class="st3" d="M101.5,100.4c-5.4,0-9.9-4.4-9.9-9.9c0-5.4,4.4-9.9,9.9-9.9c5.4,0,9.9,4.4,9.9,9.9
					C111.4,95.9,107,100.4,101.5,100.4z M101.5,81.3c-5.1,0-9.2,4.1-9.2,9.2s4.1,9.2,9.2,9.2c5.1,0,9.2-4.1,9.2-9.2
					S106.6,81.3,101.5,81.3z"/>
				<g>
					<path class="st3" d="M109,85.4c-0.1-0.1-0.2-0.3-0.3-0.4c-2.3,0.8-4.1,1.8-5.3,2.9c0.7-1.4,1.1-3.5,1.1-5.9
						c-0.2,0-0.3-0.1-0.5-0.2c0,4.4-1.4,7.4-2.6,7.4s-2.6-3-2.6-7.4c-0.2,0-0.3,0.1-0.5,0.2c0,2.4,0.4,4.4,1.1,5.8
						c-0.1-0.1-0.3-0.2-0.4-0.4c-1.2-0.9-2.9-1.8-4.8-2.4c-0.1,0.1-0.2,0.3-0.3,0.4c1.9,0.6,3.6,1.5,4.8,2.4
						c1.1,0.9,1.6,1.7,1.5,2.3c-0.1,0.2-0.3,0.4-0.5,0.6c-0.3,0-0.7,0.2-1.1,0.4c-0.3,0-0.6,0.1-1,0.1c-1.5,0-3.3-0.2-5.2-0.8
						c0,0,0,0,0,0.1c0,0.1,0,0.3,0,0.4c1.7,0.5,3.4,0.8,4.8,0.8c0.1,0,0.2,0,0.4,0c-1.2,0.8-2.5,2.1-3.7,3.7
						c0.1,0.1,0.2,0.3,0.3,0.4c1.2-1.6,2.5-3,3.8-3.8c0.3-0.2,0.5-0.3,0.8-0.5c0.4-0.1,0.8-0.2,1.1-0.4c0.1,0,0.2,0,0.2,0
						c0.2,0,0.5,0,0.6,0.2c0.5,0.4,0.6,1.4,0.2,2.7c-0.4,1.5-1.3,3.2-2.5,4.8c0.2,0,0.3,0.1,0.5,0.2c1.2-1.6,2.1-3.4,2.5-4.8
						c0-0.2,0.1-0.4,0.1-0.6c0.3,1.5,1.2,3.5,2.7,5.4c0.2,0,0.3-0.1,0.5-0.2c0,0,0,0,0,0c-2.6-3.6-3.3-6.9-2.3-7.6
						c0.2-0.1,0.5-0.2,0.8-0.2c0.3,0.2,0.7,0.3,1.2,0.4c1.3,0.7,2.9,2.1,4.5,4.3c0.1-0.1,0.2-0.3,0.3-0.4c-1.2-1.6-2.5-2.9-3.7-3.8
						c0.1,0,0.2,0,0.4,0c1.4,0,3.1-0.3,4.8-0.8c0-0.1,0-0.3,0-0.4c0,0,0-0.1,0-0.1c-1.9,0.6-3.7,0.9-5.2,0.8c-0.4,0-0.7,0-1-0.1
						c-0.4-0.2-0.8-0.3-1.1-0.4c-0.2-0.1-0.4-0.3-0.5-0.5C102.5,89,104.8,86.8,109,85.4z M102,91c-0.2,0.2-0.4,0.5-0.5,0.8
						c-0.1-0.3-0.3-0.5-0.5-0.7c-0.2-0.1-0.3-0.2-0.5-0.2c0.1-0.1,0.2-0.3,0.2-0.5c0.1-0.3,0.1-0.6,0-0.9c0.3,0.2,0.5,0.3,0.8,0.3
						c0.3,0,0.6-0.1,0.9-0.3c-0.1,0.3-0.1,0.7,0,1c0,0.1,0.1,0.3,0.2,0.4C102.4,90.8,102.2,90.9,102,91z"/>
				</g>
			</g>
			<path class="st3" d="M39.6,77.1l-1.5,0.6l1.9-1.5c1.5-1.1,2.8-2.1,4.2-3.2c6.2-4.8,11.5-8.9,20.8-9.9c12.7-1.4,25.9,2.7,28.4,3.6
				l0.4,0.1c5.5,1.8,16.9,5.7,25.2,3.8l-0.1,0.1c-0.9,0.6-1.9,1-2.9,1.1c-9.1,1-17.2-2.6-22.4-4.3l-0.4-0.1
				c-2.5-0.8-15.5-4.9-28.1-3.6c-9.1,1-14.1,4.9-20.4,9.8c-1.1,0.9-2.3,1.8-3.5,2.7C40.7,76.6,40.1,76.9,39.6,77.1z"/>
			<g>
				<path class="st3" d="M106.2,72.9c-0.2,0-0.3,0-0.5,0c-12.4,1.3-61.4,5-70.6,5c-10.7,0-24.8,0.3-29.3,2.4c-0.7,0.3-1.1,1-1.3,1.7
					l-0.1,0.6c1-4.6,23.9-4,30.6-4c9.3,0,64.3-3.9,77.9-5.9L106.2,72.9z"/>
			</g>
			<g>
				<path class="st3" d="M92.9,83.7C85.1,88,68.3,90,60.2,90.1c-1.4,0-3.5,0.1-6.1,0.1c-6.6,0.1-7.6,0.3-17.5,0.5
					c-0.5,0-1.1,0.1-1.6,0.2c-1,0.2-3.7,0.5-3.7,0.6c10.5-0.2,15.9-0.4,22.8-0.6c2.6,0,4.8-0.1,6.1-0.1c7.6-0.1,15.1-0.3,25.2-3.2
					c0.7-0.2,1.4-0.5,2.1-0.8C88.8,86.3,92.4,84.3,92.9,83.7z"/>
			</g>
			<path class="st3" d="M6.6,90.7c-1.1,0.1-2.1,0.6-2.1,0.8c0.5,0,3,0,3.7-0.1c1.1-0.1,1.6-0.5,1.6-0.7C9.3,90.7,7.3,90.7,6.6,90.7z
				"/>
			<g>
				<path class="st3" d="M20.3,100.4c-5.4,0-9.9-4.4-9.9-9.9c0-5.4,4.4-9.9,9.9-9.9s9.9,4.4,9.9,9.9
					C30.1,95.9,25.7,100.4,20.3,100.4z M20.3,81.4c-5.1,0-9.2,4.1-9.2,9.2c0,5.1,4.1,9.2,9.2,9.2s9.2-4.1,9.2-9.2
					C29.4,85.5,25.3,81.4,20.3,81.4z"/>
				<g>
					<path class="st3" d="M27.8,85.5c-0.1-0.1-0.2-0.3-0.3-0.4c-2.3,0.8-4.1,1.8-5.3,2.9c0.7-1.4,1.1-3.5,1.1-5.9
						c-0.2,0-0.3-0.1-0.5-0.2c0,4.4-1.4,7.4-2.6,7.4c-1.2,0-2.6-3-2.6-7.4c-0.2,0-0.3,0.1-0.5,0.2c0,2.4,0.4,4.4,1.1,5.8
						c-0.1-0.1-0.3-0.2-0.4-0.4c-1.2-0.9-2.9-1.8-4.8-2.4c-0.1,0.1-0.2,0.3-0.3,0.4c1.9,0.6,3.6,1.5,4.8,2.4
						c1.1,0.9,1.6,1.7,1.5,2.3c-0.1,0.2-0.3,0.4-0.5,0.6c-0.3,0-0.7,0.2-1.1,0.4c-0.3,0-0.6,0.1-1,0.1c-1.5,0-3.3-0.2-5.2-0.8
						c0,0,0,0,0,0.1c0,0.1,0,0.3,0,0.4c1.7,0.5,3.4,0.8,4.8,0.8c0.1,0,0.2,0,0.4,0c-1.2,0.8-2.5,2.1-3.7,3.7
						c0.1,0.1,0.2,0.3,0.3,0.4c1.2-1.6,2.5-3,3.8-3.8c0.3-0.2,0.5-0.3,0.8-0.5c0.4-0.1,0.8-0.2,1.1-0.4c0.1,0,0.2,0,0.2,0
						c0.2,0,0.5,0,0.6,0.2c0.5,0.4,0.6,1.4,0.2,2.7c-0.4,1.5-1.3,3.2-2.5,4.8c0.2,0,0.3,0.1,0.5,0.2c1.2-1.6,2.1-3.4,2.5-4.8
						c0-0.2,0.1-0.4,0.1-0.6c0.3,1.5,1.2,3.5,2.7,5.4c0.2,0,0.3-0.1,0.5-0.2c0,0,0,0,0,0c-2.6-3.6-3.3-6.9-2.3-7.6
						c0.2-0.1,0.5-0.2,0.8-0.2c0.3,0.2,0.7,0.3,1.2,0.4c1.3,0.7,2.9,2.1,4.5,4.3c0.1-0.1,0.2-0.3,0.3-0.4c-1.2-1.6-2.5-2.9-3.7-3.8
						c0.1,0,0.2,0,0.4,0c1.4,0,3.1-0.3,4.8-0.8c0-0.1,0-0.3,0-0.4c0,0,0-0.1,0-0.1c-1.9,0.6-3.7,0.9-5.2,0.8c-0.4,0-0.7,0-1-0.1
						c-0.4-0.2-0.8-0.3-1.1-0.4c-0.2-0.1-0.4-0.3-0.5-0.5C21.2,89,23.6,86.8,27.8,85.5z M20.8,91c-0.2,0.2-0.4,0.5-0.5,0.8
						c-0.1-0.3-0.3-0.5-0.5-0.7c-0.2-0.1-0.3-0.2-0.5-0.2c0.1-0.1,0.2-0.3,0.2-0.5c0.1-0.3,0.1-0.6,0-0.9c0.3,0.2,0.5,0.3,0.8,0.3
						c0.3,0,0.6-0.1,0.9-0.3c-0.1,0.3-0.1,0.7,0,1c0,0.1,0.1,0.3,0.2,0.4C21.1,90.8,20.9,90.9,20.8,91z"/>
				</g>
			</g>
			<g>
				<g>
					<g>
						<path class="st3" d="M92.7,95.3H29.2c-0.1,0.2-0.3,0.5-0.4,0.7h64.3C92.9,95.8,92.8,95.5,92.7,95.3z"/>
						<path class="st3" d="M11.4,95.3H4.5l0.1,0.1C5.3,95.8,6,96,6.7,96h5.1C11.7,95.8,11.5,95.5,11.4,95.3z"/>
						<path class="st3" d="M119.8,93.2c-3,2-9,2.1-9.1,2.1h-0.2c-0.1,0.2-0.3,0.5-0.4,0.7h0.6c0.2,0,4,0.2,7.3-1.1
							C118.8,94.6,119.4,93.9,119.8,93.2L119.8,93.2z"/>
					</g>
				</g>
			</g>
		</g>
	</g>
	<g>
		<g>
			<g>
				
					<linearGradient id="SVGID_4_" gradientUnits="userSpaceOnUse" x1="138.379" y1="403.9286" x2="138.379" y2="400.3589" gradientTransform="matrix(1 0 0 -1 0 512)">
					<stop  offset="0" style="stop-color:#000000;stop-opacity:0"/>
					<stop  offset="1" style="stop-color:#000000"/>
				</linearGradient>
				<path class="st4" d="M140.1,106.6h-11.5v5.3h19.6C143.5,111.2,140.1,106.6,140.1,106.6z"/>
				
					<linearGradient id="SVGID_5_" gradientUnits="userSpaceOnUse" x1="241.062" y1="403.9286" x2="241.062" y2="400.3589" gradientTransform="matrix(1 0 0 -1 0 512)">
					<stop  offset="0" style="stop-color:#000000;stop-opacity:0"/>
					<stop  offset="1" style="stop-color:#000000"/>
				</linearGradient>
				<path class="st5" d="M238.8,106.6h12.1v5.3h-19.6C235.3,111.1,238.8,106.6,238.8,106.6z"/>
				
					<linearGradient id="SVGID_6_" gradientUnits="userSpaceOnUse" x1="189.5234" y1="403.9286" x2="189.5234" y2="400.3589" gradientTransform="matrix(1 0 0 -1 0 512)">
					<stop  offset="0" style="stop-color:#000000;stop-opacity:0"/>
					<stop  offset="1" style="stop-color:#000000"/>
				</linearGradient>
				<path class="st6" d="M221.3,106.6h-6.5h-0.4h-56.8c0,0-2.2,3.9-7.6,5.3h59.9h9.4h9.7C224.2,111.2,221.3,106.6,221.3,106.6z"/>
			</g>
			<g>
				<path class="st3" d="M230.1,111.9c-5.4,0-9.9-4.4-9.9-9.9c0-5.4,4.4-9.9,9.9-9.9s9.9,4.4,9.9,9.9
					C240,107.5,235.5,111.9,230.1,111.9z M230.1,92.9c-5.1,0-9.2,4.1-9.2,9.2c0,5.1,4.1,9.2,9.2,9.2s9.2-4.1,9.2-9.2
					C239.3,97,235.1,92.9,230.1,92.9z"/>
				<g>
					<path class="st3" d="M237.6,97c-0.1-0.1-0.2-0.3-0.3-0.4c-2.3,0.8-4.1,1.8-5.3,2.9c0.7-1.4,1.1-3.5,1.1-5.9
						c-0.2,0-0.3-0.1-0.5-0.2c0,4.4-1.4,7.4-2.6,7.4c-1.2,0-2.6-3-2.6-7.4c-0.2,0-0.3,0.1-0.5,0.2c0,2.4,0.4,4.4,1.1,5.8
						c-0.1-0.1-0.3-0.2-0.4-0.4c-1.2-0.9-2.9-1.8-4.8-2.4c-0.1,0.1-0.2,0.3-0.3,0.4c1.9,0.6,3.6,1.5,4.8,2.4
						c1.1,0.9,1.6,1.7,1.5,2.3c-0.1,0.2-0.3,0.4-0.5,0.6c-0.3,0-0.7,0.2-1.1,0.4c-0.3,0-0.6,0.1-1,0.1c-1.5,0-3.3-0.2-5.2-0.8
						c0,0,0,0,0,0.1c0,0.1,0,0.3,0,0.4c1.7,0.5,3.4,0.8,4.8,0.8c0.1,0,0.2,0,0.4,0c-1.2,0.8-2.5,2.1-3.7,3.7
						c0.1,0.1,0.2,0.3,0.3,0.4c1.2-1.6,2.5-3,3.8-3.8c0.3-0.2,0.5-0.3,0.8-0.5c0.4-0.1,0.8-0.2,1.1-0.4c0.1,0,0.2,0,0.2,0
						c0.2,0,0.5,0,0.6,0.2c0.5,0.4,0.6,1.4,0.2,2.7c-0.4,1.5-1.3,3.2-2.5,4.8c0.2,0,0.3,0.1,0.5,0.2c1.2-1.6,2.1-3.4,2.5-4.8
						c0-0.2,0.1-0.4,0.1-0.6c0.3,1.5,1.2,3.5,2.7,5.4c0.2,0,0.3-0.1,0.5-0.2c0,0,0,0,0,0c-2.6-3.6-3.3-6.9-2.3-7.6
						c0.2-0.1,0.5-0.2,0.8-0.2c0.3,0.2,0.7,0.3,1.2,0.4c1.3,0.7,2.9,2.1,4.5,4.3c0.1-0.1,0.2-0.3,0.3-0.4c-1.2-1.6-2.5-2.9-3.7-3.8
						c0.1,0,0.2,0,0.4,0c1.4,0,3.1-0.3,4.8-0.8c0-0.1,0-0.3,0-0.4c0,0,0-0.1,0-0.1c-1.9,0.6-3.7,0.9-5.2,0.8c-0.4,0-0.7,0-1-0.1
						c-0.4-0.2-0.8-0.3-1.1-0.4c-0.2-0.1-0.4-0.3-0.5-0.5C231,100.6,233.4,98.4,237.6,97z M230.6,102.5c-0.2,0.2-0.4,0.5-0.5,0.8
						c-0.1-0.3-0.3-0.5-0.5-0.7c-0.2-0.1-0.3-0.2-0.5-0.2c0.1-0.1,0.2-0.3,0.2-0.5c0.1-0.3,0.1-0.6,0-0.9c0.3,0.2,0.5,0.3,0.8,0.3
						c0.3,0,0.6-0.1,0.9-0.3c-0.1,0.3-0.1,0.7,0,1c0,0.1,0.1,0.3,0.2,0.4C231,102.3,230.8,102.4,230.6,102.5z"/>
				</g>
			</g>
			<path class="st3" d="M168.2,88.6l-1.5,0.6l1.9-1.5c1.5-1.1,2.8-2.1,4.2-3.2c6.2-4.8,11.5-8.9,20.8-9.9
				c12.7-1.4,25.9,2.7,28.4,3.6l0.4,0.1c5.5,1.8,16.9,5.7,25.2,3.8l-0.1,0.1c-0.9,0.6-1.9,1-2.9,1.1c-9.1,1-17.2-2.6-22.4-4.3
				l-0.4-0.1c-2.5-0.8-15.5-4.9-28.1-3.6c-9.1,1-14.1,4.9-20.4,9.8c-1.1,0.9-2.3,1.8-3.5,2.7C169.2,88.1,168.7,88.4,168.2,88.6z"/>
			<g>
				<path class="st3" d="M234.7,84.4c-0.2,0-0.3,0-0.5,0c-12.4,1.3-61.4,5-70.6,5c-10.7,0-24.8,0.3-29.3,2.4c-0.7,0.3-1.1,1-1.3,1.7
					l-0.1,0.6c1-4.6,23.9-4,30.6-4c9.3,0,64.3-3.9,77.9-5.9L234.7,84.4z"/>
			</g>
			<g>
				<path class="st3" d="M221.4,95.2c-7.8,4.3-24.6,6.3-32.7,6.4c-1.4,0-3.5,0.1-6.1,0.1c-6.6,0.1-7.6,0.3-17.5,0.5
					c-0.5,0-1.1,0.1-1.6,0.2c-1,0.2-3.7,0.5-3.7,0.6c10.5-0.2,15.9-0.4,22.8-0.6c2.6,0,4.8-0.1,6.1-0.1c7.6-0.1,15.1-0.3,25.2-3.2
					c0.7-0.2,1.4-0.5,2.1-0.8C217.4,97.8,220.9,95.9,221.4,95.2z"/>
			</g>
			<path class="st3" d="M135.2,102.3c-1.1,0.1-2.1,0.6-2.1,0.8c0.5,0,3,0,3.7-0.1c1.1-0.1,1.6-0.5,1.6-0.7
				C137.8,102.2,135.8,102.2,135.2,102.3z"/>
			<g>
				<path class="st3" d="M148.8,111.9c-5.4,0-9.9-4.4-9.9-9.9c0-5.4,4.4-9.9,9.9-9.9s9.9,4.4,9.9,9.9
					C158.7,107.5,154.3,111.9,148.8,111.9z M148.8,92.9c-5.1,0-9.2,4.1-9.2,9.2s4.1,9.2,9.2,9.2c5.1,0,9.2-4.1,9.2-9.2
					S153.9,92.9,148.8,92.9z"/>
				<g>
					<path class="st3" d="M156.4,97c-0.1-0.1-0.2-0.3-0.3-0.4c-2.3,0.8-4.1,1.8-5.3,2.9c0.7-1.4,1.1-3.5,1.1-5.9
						c-0.2,0-0.3-0.1-0.5-0.2c0,4.4-1.4,7.4-2.6,7.4c-1.2,0-2.6-3-2.6-7.4c-0.2,0-0.3,0.1-0.5,0.2c0,2.4,0.4,4.4,1.1,5.8
						c-0.1-0.1-0.3-0.2-0.4-0.4c-1.2-0.9-2.9-1.8-4.8-2.4c-0.1,0.1-0.2,0.3-0.3,0.4c1.9,0.6,3.6,1.5,4.8,2.4
						c1.1,0.9,1.6,1.7,1.5,2.3c-0.1,0.2-0.3,0.4-0.5,0.6c-0.3,0-0.7,0.2-1.1,0.4c-0.3,0-0.6,0.1-1,0.1c-1.5,0-3.3-0.2-5.2-0.8
						c0,0,0,0,0,0.1c0,0.1,0,0.3,0,0.4c1.7,0.5,3.4,0.8,4.8,0.8c0.1,0,0.2,0,0.4,0c-1.2,0.8-2.5,2.1-3.7,3.7
						c0.1,0.1,0.2,0.3,0.3,0.4c1.2-1.6,2.5-3,3.8-3.8c0.3-0.2,0.5-0.3,0.8-0.5c0.4-0.1,0.8-0.2,1.1-0.4c0.1,0,0.2,0,0.2,0
						c0.2,0,0.5,0,0.6,0.2c0.5,0.4,0.6,1.4,0.2,2.7c-0.4,1.5-1.3,3.2-2.5,4.8c0.2,0,0.3,0.1,0.5,0.2c1.2-1.6,2.1-3.4,2.5-4.8
						c0-0.2,0.1-0.4,0.1-0.6c0.3,1.5,1.2,3.5,2.7,5.4c0.2,0,0.3-0.1,0.5-0.2c0,0,0,0,0,0c-2.6-3.6-3.3-6.9-2.3-7.6
						c0.2-0.1,0.5-0.2,0.8-0.2c0.3,0.2,0.7,0.3,1.2,0.4c1.3,0.7,2.9,2.1,4.5,4.3c0.1-0.1,0.2-0.3,0.3-0.4c-1.2-1.6-2.5-2.9-3.7-3.8
						c0.1,0,0.2,0,0.4,0c1.4,0,3.1-0.3,4.8-0.8c0-0.1,0-0.3,0-0.4c0,0,0-0.1,0-0.1c-1.9,0.6-3.7,0.9-5.2,0.8c-0.4,0-0.7,0-1-0.1
						c-0.4-0.2-0.8-0.3-1.1-0.4c-0.2-0.1-0.4-0.3-0.5-0.5C149.8,100.6,152.2,98.4,156.4,97z M149.4,102.5c-0.2,0.2-0.4,0.5-0.5,0.8
						c-0.1-0.3-0.3-0.5-0.5-0.7c-0.2-0.1-0.3-0.2-0.5-0.2c0.1-0.1,0.2-0.3,0.2-0.5c0.1-0.3,0.1-0.6,0-0.9c0.3,0.2,0.5,0.3,0.8,0.3
						c0.3,0,0.6-0.1,0.9-0.3c-0.1,0.3-0.1,0.7,0,1c0,0.1,0.1,0.3,0.2,0.4C149.7,102.3,149.5,102.4,149.4,102.5z"/>
				</g>
			</g>
			<g>
				<g>
					<g>
						<path class="st3" d="M221.2,106.8h-63.4c-0.1,0.2-0.3,0.5-0.4,0.7h64.3C221.5,107.3,221.4,107.1,221.2,106.8z"/>
						<path class="st3" d="M140,106.8h-6.9l0.1,0.1c0.6,0.4,1.3,0.6,2.1,0.6h5.1C140.3,107.3,140.1,107.1,140,106.8z"/>
						<path class="st3" d="M248.3,104.7c-3,2-9,2.1-9.1,2.1h-0.2c-0.1,0.2-0.3,0.5-0.4,0.7h0.6c0.2,0,4,0.2,7.3-1.1
							C247.3,106.1,248,105.5,248.3,104.7L248.3,104.7z"/>
					</g>
				</g>
			</g>
		</g>
	</g>
	<g>
		<path class="st7" d="M97.1,62.3c0.1,0.1,0.2,0.3,0.3,0.4c-2.2,0.7-3.9,1.7-5,2.6c0.5,0.2,1,0.3,1.2,0.4l0.4,0.1
			c1.4,0.5,3.1,1,5,1.6c-0.2-4.9-4.2-8.8-9.2-8.8c-3.3,0-6.1,1.7-7.7,4.3c0.4,0.1,0.9,0.2,1.3,0.2c-0.3-0.1-0.7-0.3-1.1-0.4
			c0.1-0.1,0.2-0.3,0.3-0.4c1,0.3,2,0.8,2.8,1.2c0.7,0.1,1.3,0.3,1.9,0.4c-0.4-1.3-0.6-2.9-0.6-4.7c0.2-0.1,0.3-0.1,0.5-0.2
			c0,2,0.3,3.7,0.7,5c1.3,0.3,2.5,0.6,3.4,0.9c0.6-1.3,1.1-3.4,1.1-5.9c0.2,0,0.3,0.1,0.5,0.2c0,2.4-0.4,4.5-1.1,5.9c0,0,0,0,0,0
			C93,64.1,94.8,63.1,97.1,62.3z"/>
		<path class="st7" d="M171.1,58.6c-5.1,0-9.2,4.1-9.2,9.2c0,5.1,4.1,9.2,9.2,9.2c5.1,0,9.2-4.1,9.2-9.2
			C180.3,62.7,176.1,58.6,171.1,58.6z M180.2,68.1c-1.7,0.5-3.4,0.8-4.8,0.8c-0.1,0-0.2,0-0.4,0c1.2,0.8,2.5,2.1,3.7,3.8
			c-0.1,0.1-0.2,0.3-0.3,0.4c-1.6-2.1-3.2-3.6-4.5-4.3c-0.5-0.1-0.9-0.2-1.2-0.4c-0.3,0-0.6,0-0.8,0.2c-1,0.7-0.3,4,2.3,7.6
			c0,0,0,0,0,0c-0.2,0.1-0.3,0.1-0.5,0.2c-1.4-1.9-2.3-3.9-2.7-5.4c0,0.2-0.1,0.4-0.1,0.6c-0.4,1.5-1.3,3.2-2.5,4.8
			c-0.2,0-0.3-0.1-0.5-0.2c1.2-1.6,2.1-3.4,2.5-4.8c0.4-1.4,0.3-2.4-0.2-2.7c-0.1-0.1-0.4-0.2-0.6-0.2c-0.1,0-0.2,0-0.2,0
			c-0.3,0.2-0.6,0.3-1.1,0.4c-0.2,0.1-0.5,0.3-0.8,0.5c-1.3,0.8-2.6,2.2-3.8,3.8c-0.1-0.1-0.2-0.3-0.3-0.4c1.2-1.6,2.5-2.9,3.7-3.7
			c-0.1,0-0.2,0-0.4,0c-1.4,0-3.1-0.3-4.8-0.8c0-0.1,0-0.3,0-0.4c0,0,0,0,0-0.1c1.9,0.6,3.7,0.9,5.2,0.8c0.4,0,0.7,0,1-0.1
			c0.4-0.2,0.7-0.3,1.1-0.4c0.3-0.2,0.5-0.4,0.5-0.6c0.2-0.6-0.3-1.5-1.5-2.3c-1.2-0.9-2.9-1.8-4.8-2.4c0.1-0.1,0.2-0.3,0.3-0.4
			c1.9,0.6,3.6,1.5,4.8,2.4c0.1,0.1,0.3,0.2,0.4,0.4c-0.6-1.4-1.1-3.5-1.1-5.8c0.2-0.1,0.3-0.1,0.5-0.2c0,4.4,1.4,7.4,2.6,7.4
			c1.2,0,2.6-3,2.6-7.4c0.2,0,0.3,0.1,0.5,0.2c0,2.4-0.4,4.5-1.1,5.9c1.1-1.1,3-2.1,5.3-2.9c0.1,0.1,0.2,0.3,0.3,0.4
			c-4.2,1.4-6.6,3.6-6.2,4.7c0.1,0.2,0.2,0.4,0.5,0.5c0.3,0,0.7,0.2,1.1,0.4c0.3,0,0.6,0.1,1,0.1c1.5,0,3.3-0.2,5.2-0.8
			c0,0,0,0.1,0,0.1C180.2,67.8,180.2,68,180.2,68.1z"/>
		<path class="st7" d="M172,66.6c-0.3,0.2-0.6,0.3-0.9,0.3c-0.3,0-0.6-0.1-0.8-0.3c0.1,0.3,0.1,0.6,0,0.9c0,0.2-0.1,0.3-0.2,0.5
			c0.2,0,0.4,0.1,0.5,0.2c0.2,0.2,0.4,0.4,0.5,0.7c0.1-0.3,0.3-0.6,0.5-0.8c0.2-0.1,0.4-0.2,0.6-0.2c-0.1-0.1-0.2-0.3-0.2-0.4
			C171.9,67.3,171.9,66.9,172,66.6z"/>
		
			<linearGradient id="SVGID_7_" gradientUnits="userSpaceOnUse" x1="182.0638" y1="438.2257" x2="182.0638" y2="434.656" gradientTransform="matrix(1 0 0 -1 0 512)">
			<stop  offset="0" style="stop-color:#000000;stop-opacity:0"/>
			<stop  offset="1" style="stop-color:#000000"/>
		</linearGradient>
		<path class="st8" d="M191.9,72.3h-4.7c-3.2,1.1-6.7,1-6.9,1h-0.6c0.1-0.2,0.3-0.5,0.4-0.7h0.2c0,0,1.4,0,3.2-0.3h-3.6
			c-1.5,2.9-4.3,4.9-7.6,5.3c0,0,0,0,0,0h8.7c3.1-1.8,6.6-3.1,11-3.8V72.3z"/>
		
			<linearGradient id="SVGID_8_" gradientUnits="userSpaceOnUse" x1="145.3561" y1="438.2257" x2="145.3561" y2="434.656" gradientTransform="matrix(1 0 0 -1 0 512)">
			<stop  offset="0" style="stop-color:#000000;stop-opacity:0"/>
			<stop  offset="1" style="stop-color:#000000"/>
		</linearGradient>
		<path class="st9" d="M162.3,72.3C162.3,72.3,162.3,72.3,162.3,72.3l-6.5,0h-0.4h-34.5c0,0.1,0,0.2-0.1,0.3h41.4
			c0.1,0.2,0.3,0.5,0.4,0.7h-41.9v4.3h30.1h9.4h9.7C166.6,77.2,163.8,75.1,162.3,72.3z"/>
		<path class="st3" d="M179.8,72.3L179.8,72.3c0.8-1.4,1.2-2.9,1.2-4.5c0-5.4-4.4-9.9-9.9-9.9c-5.4,0-9.9,4.4-9.9,9.9
			c0,1.6,0.4,3.2,1.1,4.5c0.2,0.3,3,4.7,7.7,5.3H170c0.4,0,0.8,0.1,1.1,0.1c0.4,0,0.8,0,1.2-0.1C176.3,76.8,179.8,72.3,179.8,72.3z
			 M171.1,76.9c-5.1,0-9.2-4.1-9.2-9.2c0-5.1,4.1-9.2,9.2-9.2c5,0,9.2,4.1,9.2,9.2C180.3,72.8,176.2,76.9,171.1,76.9z"/>
		<path class="st3" d="M179.9,72.3L179.9,72.3c-0.1,0-3.6,4.5-7.6,5.3C175.6,77.2,178.4,75.1,179.9,72.3z"/>
		<path class="st3" d="M162.3,72.3c1.5,2.8,4.3,4.9,7.6,5.3h0.1C165.4,76.9,162.5,72.6,162.3,72.3z"/>
		<path class="st3" d="M175,68.4c-0.4,0-0.7,0-1-0.1c-0.4-0.2-0.8-0.3-1.1-0.4c-0.2-0.1-0.4-0.3-0.5-0.5c-0.4-1.1,2-3.3,6.2-4.7
			c-0.1-0.1-0.2-0.3-0.3-0.4c-2.3,0.8-4.1,1.8-5.3,2.9c0.7-1.4,1.1-3.5,1.1-5.9c-0.2,0-0.3-0.1-0.5-0.2c0,4.4-1.4,7.4-2.6,7.4
			c-1.2,0-2.6-3-2.6-7.4c-0.2,0-0.3,0.1-0.5,0.2c0,2.4,0.4,4.4,1.1,5.8c-0.1-0.1-0.3-0.2-0.4-0.4c-1.2-0.9-2.9-1.8-4.8-2.4
			c-0.1,0.1-0.2,0.3-0.3,0.4c1.9,0.6,3.6,1.5,4.8,2.4c1.1,0.9,1.6,1.7,1.5,2.3c-0.1,0.2-0.3,0.4-0.5,0.6c-0.3,0-0.7,0.2-1.1,0.4
			c-0.3,0-0.6,0.1-1,0.1c-1.5,0-3.3-0.2-5.2-0.8c0,0,0,0,0,0.1c0,0.1,0,0.3,0,0.4c1.7,0.5,3.4,0.8,4.8,0.8c0.1,0,0.2,0,0.4,0
			c-1.2,0.8-2.5,2.1-3.7,3.7c0.1,0.1,0.2,0.3,0.3,0.4c1.2-1.6,2.5-3,3.8-3.8c0.3-0.2,0.5-0.3,0.8-0.5c0.4-0.1,0.8-0.2,1.1-0.4
			c0.1,0,0.2,0,0.2,0c0.2,0,0.5,0,0.6,0.2c0.5,0.4,0.6,1.4,0.2,2.7c-0.4,1.5-1.3,3.2-2.5,4.8c0.2,0,0.3,0.1,0.5,0.2
			c1.2-1.6,2.1-3.4,2.5-4.8c0-0.2,0.1-0.4,0.1-0.6c0.3,1.5,1.2,3.5,2.7,5.4c0.2,0,0.3-0.1,0.5-0.2c0,0,0,0,0,0
			c-2.6-3.6-3.3-6.9-2.3-7.6c0.2-0.1,0.5-0.2,0.8-0.2c0.3,0.2,0.7,0.3,1.2,0.4c1.3,0.7,2.9,2.1,4.5,4.3c0.1-0.1,0.2-0.3,0.3-0.4
			c-1.2-1.6-2.5-2.9-3.7-3.8c0.1,0,0.2,0,0.4,0c1.4,0,3.1-0.3,4.8-0.8c0-0.1,0-0.3,0-0.4c0,0,0-0.1,0-0.1
			C178.3,68.2,176.5,68.5,175,68.4z M171.6,68.2c-0.2,0.2-0.4,0.5-0.5,0.8c-0.1-0.3-0.3-0.5-0.5-0.7c-0.2-0.1-0.3-0.2-0.5-0.2
			c0.1-0.1,0.2-0.3,0.2-0.5c0.1-0.3,0.1-0.6,0-0.9c0.3,0.2,0.5,0.3,0.8,0.3c0.3,0,0.6-0.1,0.9-0.3c-0.1,0.3-0.1,0.7,0,1
			c0,0.1,0.1,0.3,0.2,0.4C172,68,171.8,68.1,171.6,68.2z"/>
		<path class="st3" d="M110.7,53.5c1.2-0.9,2.3-1.8,3.5-2.7c6.3-4.9,11.3-8.8,20.4-9.8c12.6-1.3,25.6,2.7,28.1,3.6l0.4,0.1
			c5.2,1.8,13.3,5.3,22.4,4.3c1.1-0.1,2.1-0.5,2.9-1.1l0.1-0.1v0c-8.3,1.8-19.7-2-25.2-3.8l-0.4-0.1c-2.5-0.8-15.7-4.9-28.4-3.6
			c-9.3,1-14.6,5.1-20.8,9.9c-1.3,1-2.7,2.1-4.2,3.2l-1.9,1.5l1.5-0.6C109.7,54.1,110.2,53.8,110.7,53.5z"/>
		<path class="st3" d="M104.7,55.8c9.3,0,64.3-3.9,77.9-5.9l-6.8,0.2c-0.2,0-0.3,0-0.5,0c-12.4,1.3-61.4,5-70.6,5
			c-10.7,0-24.8,0.3-29.3,2.4c-0.7,0.3-1.1,1-1.3,1.7L74,59.9C75.1,55.3,98,55.8,104.7,55.8z"/>
		<path class="st3" d="M129.7,68.1c7.6-0.1,15.1-0.3,25.2-3.2c0.7-0.2,1.4-0.5,2.1-0.8c1.4-0.6,4.9-2.6,5.4-3.2
			c-7.8,4.3-24.6,6.3-32.7,6.4c-1.4,0-3.5,0.1-6.1,0.1c-6.6,0.1-7.6,0.3-17.5,0.5c-0.5,0-1.1,0.1-1.6,0.2c-0.4,0.1-1.2,0.2-1.9,0.3
			c0.4,0.1,0.8,0.2,1.3,0.3c8.5-0.2,13.5-0.4,19.7-0.5C126.3,68.2,128.4,68.1,129.7,68.1z"/>
		<path class="st3" d="M89.8,58.6c4.9,0,9,3.9,9.2,8.8c0.2,0.1,0.5,0.1,0.7,0.2c-0.1-5.4-4.5-9.8-9.9-9.8c-3.6,0-6.8,2-8.5,4.9
			c0.3,0,0.5,0.1,0.8,0.1C83.7,60.3,86.6,58.6,89.8,58.6z"/>
		<path class="st3" d="M92.4,59.1c0,2.5-0.5,4.6-1.1,5.9c0.2,0,0.3,0.1,0.5,0.1c0.7-1.4,1.1-3.5,1.1-5.9
			C92.7,59.2,92.6,59.1,92.4,59.1z"/>
		<path class="st3" d="M86.8,59.3c0,1.8,0.3,3.4,0.6,4.7c0.2,0,0.4,0.1,0.6,0.1c-0.4-1.3-0.7-3-0.7-5C87.1,59.2,86.9,59.2,86.8,59.3
			z"/>
		<path class="st3" d="M82.4,62.7c0.4,0.1,0.7,0.3,1.1,0.4c0.7,0.1,1.4,0.3,2,0.4c-0.9-0.4-1.8-0.9-2.8-1.2
			C82.5,62.4,82.5,62.6,82.4,62.7z"/>
		<path class="st3" d="M97.1,62.3c-2.2,0.8-4.1,1.8-5.2,2.8c0.2,0.1,0.4,0.1,0.5,0.2c1.1-0.9,2.8-1.9,5-2.6
			C97.3,62.6,97.2,62.4,97.1,62.3z"/>
		<path class="st3" d="M162.2,72.5h-41.4c0,0.2-0.1,0.4-0.1,0.6v0.1h41.9C162.5,73,162.4,72.8,162.2,72.5z"/>
		<path class="st3" d="M187.5,72.1c0.8-0.3,1.5-1,1.8-1.7c-1.6,1.1-4,1.6-5.9,1.9h3.8C187.3,72.2,187.4,72.2,187.5,72.1z"/>
		<path class="st3" d="M180.1,72.5c-0.1,0.2-0.3,0.5-0.4,0.7h0.6c0.2,0,3.7,0.2,6.9-1h-3.8c-1.8,0.2-3.2,0.3-3.2,0.3H180.1z"/>
		<polygon class="st10" points="188.4,47.9 188.4,47.9 188.4,47.9 		"/>
		<path d="M91.9,65.1C91.8,65.1,91.8,65.1,91.9,65.1C91.8,65.1,91.8,65.2,91.9,65.1C91.8,65.2,91.8,65.1,91.9,65.1z"/>
	</g>
	<path class="st11" d="M125.4,129.4c-17.3,0-32.6,4.1-40.4,6.5c0,10.3,5,59.6,40.4,74c35.4-14.4,40.4-63.7,40.4-74
		C158.1,133.5,142.8,129.4,125.4,129.4z"/>
</g>
<g>
	<g>
		<g>
			<g>
				
					<linearGradient id="SVGID_9_" gradientUnits="userSpaceOnUse" x1="270.9261" y1="415.4723" x2="270.9261" y2="411.9026" gradientTransform="matrix(1 0 0 -1 0 512)">
					<stop  offset="0" style="stop-color:#000000;stop-opacity:0"/>
					<stop  offset="1" style="stop-color:#000000"/>
				</linearGradient>
				<path class="st12" d="M272.6,95h-11.5v5.3h19.6C276.1,99.7,272.6,95,272.6,95z"/>
				
					<linearGradient id="SVGID_10_" gradientUnits="userSpaceOnUse" x1="373.6091" y1="415.4723" x2="373.6091" y2="411.9026" gradientTransform="matrix(1 0 0 -1 0 512)">
					<stop  offset="0" style="stop-color:#000000;stop-opacity:0"/>
					<stop  offset="1" style="stop-color:#000000"/>
				</linearGradient>
				<path class="st13" d="M371.3,95h12.1v5.3h-19.6C367.8,99.6,371.3,95,371.3,95z"/>
				
					<linearGradient id="SVGID_11_" gradientUnits="userSpaceOnUse" x1="322.0705" y1="415.4723" x2="322.0705" y2="411.9026" gradientTransform="matrix(1 0 0 -1 0 512)">
					<stop  offset="0" style="stop-color:#000000;stop-opacity:0"/>
					<stop  offset="1" style="stop-color:#000000"/>
				</linearGradient>
				<path class="st14" d="M353.9,95h-6.5h-0.4h-56.8c0,0-2.2,3.9-7.6,5.3h59.9h9.4h9.7C356.7,99.7,353.9,95,353.9,95z"/>
			</g>
			<g>
				<path class="st3" d="M362.6,100.4c-5.4,0-9.9-4.4-9.9-9.9c0-5.4,4.4-9.9,9.9-9.9c5.4,0,9.9,4.4,9.9,9.9
					C372.5,95.9,368.1,100.4,362.6,100.4z M362.6,81.3c-5.1,0-9.2,4.1-9.2,9.2s4.1,9.2,9.2,9.2c5.1,0,9.2-4.1,9.2-9.2
					S367.7,81.3,362.6,81.3z"/>
				<g>
					<path class="st3" d="M370.2,85.4c-0.1-0.1-0.2-0.3-0.3-0.4c-2.3,0.8-4.1,1.8-5.3,2.9c0.7-1.4,1.1-3.5,1.1-5.9
						c-0.2,0-0.3-0.1-0.5-0.2c0,4.4-1.4,7.4-2.6,7.4c-1.2,0-2.6-3-2.6-7.4c-0.2,0-0.3,0.1-0.5,0.2c0,2.4,0.4,4.4,1.1,5.8
						c-0.1-0.1-0.3-0.2-0.4-0.4c-1.2-0.9-2.9-1.8-4.8-2.4c-0.1,0.1-0.2,0.3-0.3,0.4c1.9,0.6,3.6,1.5,4.8,2.4
						c1.1,0.9,1.6,1.7,1.5,2.3c-0.1,0.2-0.3,0.4-0.5,0.6c-0.3,0-0.7,0.2-1.1,0.4c-0.3,0-0.6,0.1-1,0.1c-1.5,0-3.3-0.2-5.2-0.8
						c0,0,0,0,0,0.1c0,0.1,0,0.3,0,0.4c1.7,0.5,3.4,0.8,4.8,0.8c0.1,0,0.2,0,0.4,0c-1.2,0.8-2.5,2.1-3.7,3.7
						c0.1,0.1,0.2,0.3,0.3,0.4c1.2-1.6,2.5-3,3.8-3.8c0.3-0.2,0.5-0.3,0.8-0.5c0.4-0.1,0.8-0.2,1.1-0.4c0.1,0,0.2,0,0.2,0
						c0.2,0,0.5,0,0.6,0.2c0.5,0.4,0.6,1.4,0.2,2.7c-0.4,1.5-1.3,3.2-2.5,4.8c0.2,0,0.3,0.1,0.5,0.2c1.2-1.6,2.1-3.4,2.5-4.8
						c0-0.2,0.1-0.4,0.1-0.6c0.3,1.5,1.2,3.5,2.7,5.4c0.2,0,0.3-0.1,0.5-0.2c0,0,0,0,0,0c-2.6-3.6-3.3-6.9-2.3-7.6
						c0.2-0.1,0.5-0.2,0.8-0.2c0.3,0.2,0.7,0.3,1.2,0.4c1.3,0.7,2.9,2.1,4.5,4.3c0.1-0.1,0.2-0.3,0.3-0.4c-1.2-1.6-2.5-2.9-3.7-3.8
						c0.1,0,0.2,0,0.4,0c1.4,0,3.1-0.3,4.8-0.8c0-0.1,0-0.3,0-0.4c0,0,0-0.1,0-0.1c-1.9,0.6-3.7,0.9-5.2,0.8c-0.4,0-0.7,0-1-0.1
						c-0.4-0.2-0.8-0.3-1.1-0.4c-0.2-0.1-0.4-0.3-0.5-0.5C363.6,89,366,86.8,370.2,85.4z M363.1,91c-0.2,0.2-0.4,0.5-0.5,0.8
						c-0.1-0.3-0.3-0.5-0.5-0.7c-0.2-0.1-0.3-0.2-0.5-0.2c0.1-0.1,0.2-0.3,0.2-0.5c0.1-0.3,0.1-0.6,0-0.9c0.3,0.2,0.5,0.3,0.8,0.3
						c0.3,0,0.6-0.1,0.9-0.3c-0.1,0.3-0.1,0.7,0,1c0,0.1,0.1,0.3,0.2,0.4C363.5,90.8,363.3,90.9,363.1,91z"/>
				</g>
			</g>
			<path class="st3" d="M300.7,77.1l-1.5,0.6l1.9-1.5c1.5-1.1,2.8-2.1,4.2-3.2c6.2-4.8,11.5-8.9,20.8-9.9
				c12.7-1.4,25.9,2.7,28.4,3.6l0.4,0.1c5.5,1.8,16.9,5.7,25.2,3.8l-0.1,0.1c-0.9,0.6-1.9,1-2.9,1.1c-9.1,1-17.2-2.6-22.4-4.3
				l-0.4-0.1c-2.5-0.8-15.5-4.9-28.1-3.6c-9.1,1-14.1,4.9-20.4,9.8c-1.1,0.9-2.3,1.8-3.5,2.7C301.8,76.6,301.3,76.9,300.7,77.1z"/>
			<g>
				<path class="st3" d="M367.3,72.9c-0.2,0-0.3,0-0.5,0c-12.4,1.3-61.4,5-70.6,5c-10.7,0-24.8,0.3-29.3,2.4c-0.7,0.3-1.1,1-1.3,1.7
					l-0.1,0.6c1-4.6,23.9-4,30.6-4c9.3,0,64.3-3.9,77.9-5.9L367.3,72.9z"/>
			</g>
			<g>
				<path class="st3" d="M354,83.7c-7.8,4.3-24.6,6.3-32.7,6.4c-1.4,0-3.5,0.1-6.1,0.1c-6.6,0.1-7.6,0.3-17.5,0.5
					c-0.5,0-1.1,0.1-1.6,0.2c-1,0.2-3.7,0.5-3.7,0.6c10.5-0.2,15.9-0.4,22.8-0.6c2.6,0,4.8-0.1,6.1-0.1c7.6-0.1,15.1-0.3,25.2-3.2
					c0.7-0.2,1.4-0.5,2.1-0.8C349.9,86.3,353.5,84.3,354,83.7z"/>
			</g>
			<path class="st3" d="M267.7,90.7c-1.1,0.1-2.1,0.6-2.1,0.8c0.5,0,3,0,3.7-0.1c1.1-0.1,1.6-0.5,1.6-0.7
				C270.4,90.7,268.4,90.7,267.7,90.7z"/>
			<g>
				<path class="st3" d="M281.4,100.4c-5.4,0-9.9-4.4-9.9-9.9c0-5.4,4.4-9.9,9.9-9.9c5.4,0,9.9,4.4,9.9,9.9
					C291.3,95.9,286.8,100.4,281.4,100.4z M281.4,81.4c-5.1,0-9.2,4.1-9.2,9.2c0,5.1,4.1,9.2,9.2,9.2s9.2-4.1,9.2-9.2
					C290.6,85.5,286.4,81.4,281.4,81.4z"/>
				<g>
					<path class="st3" d="M288.9,85.5c-0.1-0.1-0.2-0.3-0.3-0.4c-2.3,0.8-4.1,1.8-5.3,2.9c0.7-1.4,1.1-3.5,1.1-5.9
						c-0.2,0-0.3-0.1-0.5-0.2c0,4.4-1.4,7.4-2.6,7.4s-2.6-3-2.6-7.4c-0.2,0-0.3,0.1-0.5,0.2c0,2.4,0.4,4.4,1.1,5.8
						c-0.1-0.1-0.3-0.2-0.4-0.4c-1.2-0.9-2.9-1.8-4.8-2.4c-0.1,0.1-0.2,0.3-0.3,0.4c1.9,0.6,3.6,1.5,4.8,2.4
						c1.1,0.9,1.6,1.7,1.5,2.3c-0.1,0.2-0.3,0.4-0.5,0.6c-0.3,0-0.7,0.2-1.1,0.4c-0.3,0-0.6,0.1-1,0.1c-1.5,0-3.3-0.2-5.2-0.8
						c0,0,0,0,0,0.1c0,0.1,0,0.3,0,0.4c1.7,0.5,3.4,0.8,4.8,0.8c0.1,0,0.2,0,0.4,0c-1.2,0.8-2.5,2.1-3.7,3.7
						c0.1,0.1,0.2,0.3,0.3,0.4c1.2-1.6,2.5-3,3.8-3.8c0.3-0.2,0.5-0.3,0.8-0.5c0.4-0.1,0.8-0.2,1.1-0.4c0.1,0,0.2,0,0.2,0
						c0.2,0,0.5,0,0.6,0.2c0.5,0.4,0.6,1.4,0.2,2.7c-0.4,1.5-1.3,3.2-2.5,4.8c0.2,0,0.3,0.1,0.5,0.2c1.2-1.6,2.1-3.4,2.5-4.8
						c0-0.2,0.1-0.4,0.1-0.6c0.3,1.5,1.2,3.5,2.7,5.4c0.2,0,0.3-0.1,0.5-0.2c0,0,0,0,0,0c-2.6-3.6-3.3-6.9-2.3-7.6
						c0.2-0.1,0.5-0.2,0.8-0.2c0.3,0.2,0.7,0.3,1.2,0.4c1.3,0.7,2.9,2.1,4.5,4.3c0.1-0.1,0.2-0.3,0.3-0.4c-1.2-1.6-2.5-2.9-3.7-3.8
						c0.1,0,0.2,0,0.4,0c1.4,0,3.1-0.3,4.8-0.8c0-0.1,0-0.3,0-0.4c0,0,0-0.1,0-0.1c-1.9,0.6-3.7,0.9-5.2,0.8c-0.4,0-0.7,0-1-0.1
						c-0.4-0.2-0.8-0.3-1.1-0.4c-0.2-0.1-0.4-0.3-0.5-0.5C282.3,89,284.7,86.8,288.9,85.5z M281.9,91c-0.2,0.2-0.4,0.5-0.5,0.8
						c-0.1-0.3-0.3-0.5-0.5-0.7c-0.2-0.1-0.3-0.2-0.5-0.2c0.1-0.1,0.2-0.3,0.2-0.5c0.1-0.3,0.1-0.6,0-0.9c0.3,0.2,0.5,0.3,0.8,0.3
						c0.3,0,0.6-0.1,0.9-0.3c-0.1,0.3-0.1,0.7,0,1c0,0.1,0.1,0.3,0.2,0.4C282.3,90.8,282.1,90.9,281.9,91z"/>
				</g>
			</g>
			<g>
				<g>
					<g>
						<path class="st3" d="M353.8,95.3h-63.4c-0.1,0.2-0.3,0.5-0.4,0.7h64.3C354.1,95.8,353.9,95.5,353.8,95.3z"/>
						<path class="st3" d="M272.5,95.3h-6.9l0.1,0.1c0.6,0.4,1.3,0.6,2.1,0.6h5.1C272.8,95.8,272.7,95.5,272.5,95.3z"/>
						<path class="st3" d="M380.9,93.2c-3,2-9,2.1-9.1,2.1h-0.2c-0.1,0.2-0.3,0.5-0.4,0.7h0.6c0.2,0,4,0.2,7.3-1.1
							C379.9,94.6,380.5,93.9,380.9,93.2L380.9,93.2z"/>
					</g>
				</g>
			</g>
		</g>
	</g>
	<g>
		<g>
			<g>
				
					<linearGradient id="SVGID_12_" gradientUnits="userSpaceOnUse" x1="399.499" y1="403.9286" x2="399.499" y2="400.3589" gradientTransform="matrix(1 0 0 -1 0 512)">
					<stop  offset="0" style="stop-color:#000000;stop-opacity:0"/>
					<stop  offset="1" style="stop-color:#000000"/>
				</linearGradient>
				<path class="st15" d="M401.2,106.6h-11.5v5.3h19.6C404.6,111.2,401.2,106.6,401.2,106.6z"/>
				
					<linearGradient id="SVGID_13_" gradientUnits="userSpaceOnUse" x1="502.182" y1="403.9286" x2="502.182" y2="400.3589" gradientTransform="matrix(1 0 0 -1 0 512)">
					<stop  offset="0" style="stop-color:#000000;stop-opacity:0"/>
					<stop  offset="1" style="stop-color:#000000"/>
				</linearGradient>
				<path class="st16" d="M499.9,106.6H512v5.3h-19.6C496.4,111.1,499.9,106.6,499.9,106.6z"/>
				
					<linearGradient id="SVGID_14_" gradientUnits="userSpaceOnUse" x1="450.6434" y1="403.9286" x2="450.6434" y2="400.3589" gradientTransform="matrix(1 0 0 -1 0 512)">
					<stop  offset="0" style="stop-color:#000000;stop-opacity:0"/>
					<stop  offset="1" style="stop-color:#000000"/>
				</linearGradient>
				<path class="st17" d="M482.4,106.6h-6.5h-0.4h-56.8c0,0-2.2,3.9-7.6,5.3H471h9.4h9.7C485.3,111.2,482.4,106.6,482.4,106.6z"/>
			</g>
			<g>
				<path class="st3" d="M491.2,111.9c-5.4,0-9.9-4.4-9.9-9.9c0-5.4,4.4-9.9,9.9-9.9c5.4,0,9.9,4.4,9.9,9.9
					C501.1,107.5,496.7,111.9,491.2,111.9z M491.2,92.9c-5.1,0-9.2,4.1-9.2,9.2c0,5.1,4.1,9.2,9.2,9.2s9.2-4.1,9.2-9.2
					C500.4,97,496.3,92.9,491.2,92.9z"/>
				<g>
					<path class="st3" d="M498.7,97c-0.1-0.1-0.2-0.3-0.3-0.4c-2.3,0.8-4.1,1.8-5.3,2.9c0.7-1.4,1.1-3.5,1.1-5.9
						c-0.2,0-0.3-0.1-0.5-0.2c0,4.4-1.4,7.4-2.6,7.4s-2.6-3-2.6-7.4c-0.2,0-0.3,0.1-0.5,0.2c0,2.4,0.4,4.4,1.1,5.8
						c-0.1-0.1-0.3-0.2-0.4-0.4c-1.2-0.9-2.9-1.8-4.8-2.4c-0.1,0.1-0.2,0.3-0.3,0.4c1.9,0.6,3.6,1.5,4.8,2.4
						c1.1,0.9,1.6,1.7,1.5,2.3c-0.1,0.2-0.3,0.4-0.5,0.6c-0.3,0-0.7,0.2-1.1,0.4c-0.3,0-0.6,0.1-1,0.1c-1.5,0-3.3-0.2-5.2-0.8
						c0,0,0,0,0,0.1c0,0.1,0,0.3,0,0.4c1.7,0.5,3.4,0.8,4.8,0.8c0.1,0,0.2,0,0.4,0c-1.2,0.8-2.5,2.1-3.7,3.7
						c0.1,0.1,0.2,0.3,0.3,0.4c1.2-1.6,2.5-3,3.8-3.8c0.3-0.2,0.5-0.3,0.8-0.5c0.4-0.1,0.8-0.2,1.1-0.4c0.1,0,0.2,0,0.2,0
						c0.2,0,0.5,0,0.6,0.2c0.5,0.4,0.6,1.4,0.2,2.7c-0.4,1.5-1.3,3.2-2.5,4.8c0.2,0,0.3,0.1,0.5,0.2c1.2-1.6,2.1-3.4,2.5-4.8
						c0-0.2,0.1-0.4,0.1-0.6c0.3,1.5,1.2,3.5,2.7,5.4c0.2,0,0.3-0.1,0.5-0.2c0,0,0,0,0,0c-2.6-3.6-3.3-6.9-2.3-7.6
						c0.2-0.1,0.5-0.2,0.8-0.2c0.3,0.2,0.7,0.3,1.2,0.4c1.3,0.7,2.9,2.1,4.5,4.3c0.1-0.1,0.2-0.3,0.3-0.4c-1.2-1.6-2.5-2.9-3.7-3.8
						c0.1,0,0.2,0,0.4,0c1.4,0,3.1-0.3,4.8-0.8c0-0.1,0-0.3,0-0.4c0,0,0-0.1,0-0.1c-1.9,0.6-3.7,0.9-5.2,0.8c-0.4,0-0.7,0-1-0.1
						c-0.4-0.2-0.8-0.3-1.1-0.4c-0.2-0.1-0.4-0.3-0.5-0.5C492.1,100.6,494.5,98.4,498.7,97z M491.7,102.5c-0.2,0.2-0.4,0.5-0.5,0.8
						c-0.1-0.3-0.3-0.5-0.5-0.7c-0.2-0.1-0.3-0.2-0.5-0.2c0.1-0.1,0.2-0.3,0.2-0.5c0.1-0.3,0.1-0.6,0-0.9c0.3,0.2,0.5,0.3,0.8,0.3
						c0.3,0,0.6-0.1,0.9-0.3c-0.1,0.3-0.1,0.7,0,1c0,0.1,0.1,0.3,0.2,0.4C492.1,102.3,491.9,102.4,491.7,102.5z"/>
				</g>
			</g>
			<path class="st3" d="M429.3,88.6l-1.5,0.6l1.9-1.5c1.5-1.1,2.8-2.1,4.2-3.2c6.2-4.8,11.5-8.9,20.8-9.9
				c12.7-1.4,25.9,2.7,28.4,3.6l0.4,0.1c5.5,1.8,16.9,5.7,25.2,3.8l-0.1,0.1c-0.9,0.6-1.9,1-2.9,1.1c-9.1,1-17.2-2.6-22.4-4.3
				l-0.4-0.1c-2.5-0.8-15.5-4.9-28.1-3.6c-9.1,1-14.1,4.9-20.4,9.8c-1.1,0.9-2.3,1.8-3.5,2.7C430.4,88.1,429.8,88.4,429.3,88.6z"/>
			<g>
				<path class="st3" d="M495.9,84.4c-0.2,0-0.3,0-0.5,0c-12.4,1.3-61.4,5-70.6,5c-10.7,0-24.8,0.3-29.3,2.4c-0.7,0.3-1.1,1-1.3,1.7
					l-0.1,0.6c1-4.6,23.9-4,30.6-4c9.3,0,64.3-3.9,77.9-5.9L495.9,84.4z"/>
			</g>
			<g>
				<path class="st3" d="M482.5,95.2c-7.8,4.3-24.6,6.3-32.7,6.4c-1.4,0-3.5,0.1-6.1,0.1c-6.6,0.1-7.6,0.3-17.5,0.5
					c-0.5,0-1.1,0.1-1.6,0.2c-1,0.2-3.7,0.5-3.7,0.6c10.5-0.2,15.9-0.4,22.8-0.6c2.6,0,4.8-0.1,6.1-0.1c7.6-0.1,15.1-0.3,25.2-3.2
					c0.7-0.2,1.4-0.5,2.1-0.8C478.5,97.8,482,95.9,482.5,95.2z"/>
			</g>
			<path class="st3" d="M396.3,102.3c-1.1,0.1-2.1,0.6-2.1,0.8c0.5,0,3,0,3.7-0.1c1.1-0.1,1.6-0.5,1.6-0.7
				C399,102.2,397,102.2,396.3,102.3z"/>
			<g>
				<path class="st3" d="M410,111.9c-5.4,0-9.9-4.4-9.9-9.9c0-5.4,4.4-9.9,9.9-9.9c5.4,0,9.9,4.4,9.9,9.9
					C419.8,107.5,415.4,111.9,410,111.9z M410,92.9c-5.1,0-9.2,4.1-9.2,9.2s4.1,9.2,9.2,9.2s9.2-4.1,9.2-9.2S415,92.9,410,92.9z"/>
				<g>
					<path class="st3" d="M417.5,97c-0.1-0.1-0.2-0.3-0.3-0.4c-2.3,0.8-4.1,1.8-5.3,2.9c0.7-1.4,1.1-3.5,1.1-5.9
						c-0.2,0-0.3-0.1-0.5-0.2c0,4.4-1.4,7.4-2.6,7.4s-2.6-3-2.6-7.4c-0.2,0-0.3,0.1-0.5,0.2c0,2.4,0.4,4.4,1.1,5.8
						c-0.1-0.1-0.3-0.2-0.4-0.4c-1.2-0.9-2.9-1.8-4.8-2.4c-0.1,0.1-0.2,0.3-0.3,0.4c1.9,0.6,3.6,1.5,4.8,2.4
						c1.1,0.9,1.6,1.7,1.5,2.3c-0.1,0.2-0.3,0.4-0.5,0.6c-0.3,0-0.7,0.2-1.1,0.4c-0.3,0-0.6,0.1-1,0.1c-1.5,0-3.3-0.2-5.2-0.8
						c0,0,0,0,0,0.1c0,0.1,0,0.3,0,0.4c1.7,0.5,3.4,0.8,4.8,0.8c0.1,0,0.2,0,0.4,0c-1.2,0.8-2.5,2.1-3.7,3.7
						c0.1,0.1,0.2,0.3,0.3,0.4c1.2-1.6,2.5-3,3.8-3.8c0.3-0.2,0.5-0.3,0.8-0.5c0.4-0.1,0.8-0.2,1.1-0.4c0.1,0,0.2,0,0.2,0
						c0.2,0,0.5,0,0.6,0.2c0.5,0.4,0.6,1.4,0.2,2.7c-0.4,1.5-1.3,3.2-2.5,4.8c0.2,0,0.3,0.1,0.5,0.2c1.2-1.6,2.1-3.4,2.5-4.8
						c0-0.2,0.1-0.4,0.1-0.6c0.3,1.5,1.2,3.5,2.7,5.4c0.2,0,0.3-0.1,0.5-0.2c0,0,0,0,0,0c-2.6-3.6-3.3-6.9-2.3-7.6
						c0.2-0.1,0.5-0.2,0.8-0.2c0.3,0.2,0.7,0.3,1.2,0.4c1.3,0.7,2.9,2.1,4.5,4.3c0.1-0.1,0.2-0.3,0.3-0.4c-1.2-1.6-2.5-2.9-3.7-3.8
						c0.1,0,0.2,0,0.4,0c1.4,0,3.1-0.3,4.8-0.8c0-0.1,0-0.3,0-0.4c0,0,0-0.1,0-0.1c-1.9,0.6-3.7,0.9-5.2,0.8c-0.4,0-0.7,0-1-0.1
						c-0.4-0.2-0.8-0.3-1.1-0.4c-0.2-0.1-0.4-0.3-0.5-0.5C410.9,100.6,413.3,98.4,417.5,97z M410.5,102.5c-0.2,0.2-0.4,0.5-0.5,0.8
						c-0.1-0.3-0.3-0.5-0.5-0.7c-0.2-0.1-0.3-0.2-0.5-0.2c0.1-0.1,0.2-0.3,0.2-0.5c0.1-0.3,0.1-0.6,0-0.9c0.3,0.2,0.5,0.3,0.8,0.3
						c0.3,0,0.6-0.1,0.9-0.3c-0.1,0.3-0.1,0.7,0,1c0,0.1,0.1,0.3,0.2,0.4C410.8,102.3,410.6,102.4,410.5,102.5z"/>
				</g>
			</g>
			<g>
				<g>
					<g>
						<path class="st3" d="M482.4,106.8h-63.4c-0.1,0.2-0.3,0.5-0.4,0.7h64.3C482.6,107.3,482.5,107.1,482.4,106.8z"/>
						<path class="st3" d="M401.1,106.8h-6.9l0.1,0.1c0.6,0.4,1.3,0.6,2.1,0.6h5.1C401.4,107.3,401.2,107.1,401.1,106.8z"/>
						<path class="st3" d="M509.5,104.7c-3,2-9,2.1-9.1,2.1h-0.2c-0.1,0.2-0.3,0.5-0.4,0.7h0.6c0.2,0,4,0.2,7.3-1.1
							C508.5,106.1,509.1,105.5,509.5,104.7L509.5,104.7z"/>
					</g>
				</g>
			</g>
		</g>
	</g>
	<g>
		<path class="st7" d="M358.2,62.3c0.1,0.1,0.2,0.3,0.3,0.4c-2.2,0.7-3.9,1.7-5,2.6c0.5,0.2,1,0.3,1.2,0.4l0.4,0.1
			c1.4,0.5,3.1,1,5,1.6c-0.2-4.9-4.2-8.8-9.2-8.8c-3.3,0-6.1,1.7-7.7,4.3c0.4,0.1,0.9,0.2,1.3,0.2c-0.3-0.1-0.7-0.3-1.1-0.4
			c0.1-0.1,0.2-0.3,0.3-0.4c1,0.3,2,0.8,2.8,1.2c0.7,0.1,1.3,0.3,1.9,0.4c-0.4-1.3-0.6-2.9-0.6-4.7c0.2-0.1,0.3-0.1,0.5-0.2
			c0,2,0.3,3.7,0.7,5c1.3,0.3,2.5,0.6,3.4,0.9c0.6-1.3,1.1-3.4,1.1-5.9c0.2,0,0.3,0.1,0.5,0.2c0,2.4-0.4,4.5-1.1,5.9c0,0,0,0,0,0
			C354.1,64.1,355.9,63.1,358.2,62.3z"/>
		<path class="st7" d="M432.2,58.6c-5.1,0-9.2,4.1-9.2,9.2c0,5.1,4.1,9.2,9.2,9.2s9.2-4.1,9.2-9.2C441.4,62.7,437.3,58.6,432.2,58.6
			z M441.3,68.1c-1.7,0.5-3.4,0.8-4.8,0.8c-0.1,0-0.2,0-0.4,0c1.2,0.8,2.5,2.1,3.7,3.8c-0.1,0.1-0.2,0.3-0.3,0.4
			c-1.6-2.1-3.2-3.6-4.5-4.3c-0.5-0.1-0.9-0.2-1.2-0.4c-0.3,0-0.6,0-0.8,0.2c-1,0.7-0.3,4,2.3,7.6c0,0,0,0,0,0
			c-0.2,0.1-0.3,0.1-0.5,0.2c-1.4-1.9-2.3-3.9-2.7-5.4c0,0.2-0.1,0.4-0.1,0.6c-0.4,1.5-1.3,3.2-2.5,4.8c-0.2,0-0.3-0.1-0.5-0.2
			c1.2-1.6,2.1-3.4,2.5-4.8c0.4-1.4,0.3-2.4-0.2-2.7c-0.1-0.1-0.4-0.2-0.6-0.2c-0.1,0-0.2,0-0.2,0c-0.3,0.2-0.6,0.3-1.1,0.4
			c-0.2,0.1-0.5,0.3-0.8,0.5c-1.3,0.8-2.6,2.2-3.8,3.8c-0.1-0.1-0.2-0.3-0.3-0.4c1.2-1.6,2.5-2.9,3.7-3.7c-0.1,0-0.2,0-0.4,0
			c-1.4,0-3.1-0.3-4.8-0.8c0-0.1,0-0.3,0-0.4c0,0,0,0,0-0.1c1.9,0.6,3.7,0.9,5.2,0.8c0.4,0,0.7,0,1-0.1c0.4-0.2,0.7-0.3,1.1-0.4
			c0.3-0.2,0.5-0.4,0.5-0.6c0.2-0.6-0.3-1.5-1.5-2.3c-1.2-0.9-2.9-1.8-4.8-2.4c0.1-0.1,0.2-0.3,0.3-0.4c1.9,0.6,3.6,1.5,4.8,2.4
			c0.1,0.1,0.3,0.2,0.4,0.4c-0.6-1.4-1.1-3.5-1.1-5.8c0.2-0.1,0.3-0.1,0.5-0.2c0,4.4,1.4,7.4,2.6,7.4s2.6-3,2.6-7.4
			c0.2,0,0.3,0.1,0.5,0.2c0,2.4-0.4,4.5-1.1,5.9c1.1-1.1,3-2.1,5.3-2.9c0.1,0.1,0.2,0.3,0.3,0.4c-4.2,1.4-6.6,3.6-6.2,4.7
			c0.1,0.2,0.2,0.4,0.5,0.5c0.3,0,0.7,0.2,1.1,0.4c0.3,0,0.6,0.1,1,0.1c1.5,0,3.3-0.2,5.2-0.8c0,0,0,0.1,0,0.1
			C441.3,67.8,441.3,68,441.3,68.1z"/>
		<path class="st7" d="M433.1,66.6c-0.3,0.2-0.6,0.3-0.9,0.3c-0.3,0-0.6-0.1-0.8-0.3c0.1,0.3,0.1,0.6,0,0.9c0,0.2-0.1,0.3-0.2,0.5
			c0.2,0,0.4,0.1,0.5,0.2c0.2,0.2,0.4,0.4,0.5,0.7c0.1-0.3,0.3-0.6,0.5-0.8c0.2-0.1,0.4-0.2,0.6-0.2c-0.1-0.1-0.2-0.3-0.2-0.4
			C433,67.3,433,66.9,433.1,66.6z"/>
		
			<linearGradient id="SVGID_15_" gradientUnits="userSpaceOnUse" x1="443.1838" y1="438.2257" x2="443.1838" y2="434.656" gradientTransform="matrix(1 0 0 -1 0 512)">
			<stop  offset="0" style="stop-color:#000000;stop-opacity:0"/>
			<stop  offset="1" style="stop-color:#000000"/>
		</linearGradient>
		<path class="st18" d="M453,72.3h-4.7c-3.2,1.1-6.7,1-6.9,1h-0.6c0.1-0.2,0.3-0.5,0.4-0.7h0.2c0,0,1.4,0,3.2-0.3H441
			c-1.5,2.9-4.3,4.9-7.6,5.3c0,0,0,0,0,0h8.7c3.1-1.8,6.6-3.1,11-3.8V72.3z"/>
		
			<linearGradient id="SVGID_16_" gradientUnits="userSpaceOnUse" x1="406.4761" y1="438.2257" x2="406.4761" y2="434.656" gradientTransform="matrix(1 0 0 -1 0 512)">
			<stop  offset="0" style="stop-color:#000000;stop-opacity:0"/>
			<stop  offset="1" style="stop-color:#000000"/>
		</linearGradient>
		<path class="st19" d="M423.4,72.3C423.4,72.3,423.4,72.3,423.4,72.3l-6.5,0h-0.4H382c0,0.1,0,0.2-0.1,0.3h41.4
			c0.1,0.2,0.3,0.5,0.4,0.7h-41.9v4.3H412h9.4h9.7C427.8,77.2,424.9,75.1,423.4,72.3z"/>
		<path class="st3" d="M440.9,72.3L440.9,72.3c0.8-1.4,1.2-2.9,1.2-4.5c0-5.4-4.4-9.9-9.9-9.9c-5.4,0-9.9,4.4-9.9,9.9
			c0,1.6,0.4,3.2,1.1,4.5c0.2,0.3,3,4.7,7.7,5.3h-0.1c0.4,0,0.8,0.1,1.1,0.1c0.4,0,0.8,0,1.2-0.1C437.4,76.8,440.9,72.3,440.9,72.3z
			 M432.2,76.9c-5.1,0-9.2-4.1-9.2-9.2c0-5.1,4.1-9.2,9.2-9.2c5,0,9.2,4.1,9.2,9.2C441.4,72.8,437.3,76.9,432.2,76.9z"/>
		<path class="st3" d="M441,72.3L441,72.3c-0.1,0-3.6,4.5-7.6,5.3C436.7,77.2,439.5,75.1,441,72.3z"/>
		<path class="st3" d="M423.4,72.3c1.5,2.8,4.3,4.9,7.6,5.3h0.1C426.5,76.9,423.7,72.6,423.4,72.3z"/>
		<path class="st3" d="M436.1,68.4c-0.4,0-0.7,0-1-0.1c-0.4-0.2-0.8-0.3-1.1-0.4c-0.2-0.1-0.4-0.3-0.5-0.5c-0.4-1.1,2-3.3,6.2-4.7
			c-0.1-0.1-0.2-0.3-0.3-0.4c-2.3,0.8-4.1,1.8-5.3,2.9c0.7-1.4,1.1-3.5,1.1-5.9c-0.2,0-0.3-0.1-0.5-0.2c0,4.4-1.4,7.4-2.6,7.4
			s-2.6-3-2.6-7.4c-0.2,0-0.3,0.1-0.5,0.2c0,2.4,0.4,4.4,1.1,5.8c-0.1-0.1-0.3-0.2-0.4-0.4c-1.2-0.9-2.9-1.8-4.8-2.4
			c-0.1,0.1-0.2,0.3-0.3,0.4c1.9,0.6,3.6,1.5,4.8,2.4c1.1,0.9,1.6,1.7,1.5,2.3c-0.1,0.2-0.3,0.4-0.5,0.6c-0.3,0-0.7,0.2-1.1,0.4
			c-0.3,0-0.6,0.1-1,0.1c-1.5,0-3.3-0.2-5.2-0.8c0,0,0,0,0,0.1c0,0.1,0,0.3,0,0.4c1.7,0.5,3.4,0.8,4.8,0.8c0.1,0,0.2,0,0.4,0
			c-1.2,0.8-2.5,2.1-3.7,3.7c0.1,0.1,0.2,0.3,0.3,0.4c1.2-1.6,2.5-3,3.8-3.8c0.3-0.2,0.5-0.3,0.8-0.5c0.4-0.1,0.8-0.2,1.1-0.4
			c0.1,0,0.2,0,0.2,0c0.2,0,0.5,0,0.6,0.2c0.5,0.4,0.6,1.4,0.2,2.7c-0.4,1.5-1.3,3.2-2.5,4.8c0.2,0,0.3,0.1,0.5,0.2
			c1.2-1.6,2.1-3.4,2.5-4.8c0-0.2,0.1-0.4,0.1-0.6c0.3,1.5,1.2,3.5,2.7,5.4c0.2,0,0.3-0.1,0.5-0.2c0,0,0,0,0,0
			c-2.6-3.6-3.3-6.9-2.3-7.6c0.2-0.1,0.5-0.2,0.8-0.2c0.3,0.2,0.7,0.3,1.2,0.4c1.3,0.7,2.9,2.1,4.5,4.3c0.1-0.1,0.2-0.3,0.3-0.4
			c-1.2-1.6-2.5-2.9-3.7-3.8c0.1,0,0.2,0,0.4,0c1.4,0,3.1-0.3,4.8-0.8c0-0.1,0-0.3,0-0.4c0,0,0-0.1,0-0.1
			C439.4,68.2,437.6,68.5,436.1,68.4z M432.7,68.2c-0.2,0.2-0.4,0.5-0.5,0.8c-0.1-0.3-0.3-0.5-0.5-0.7c-0.2-0.1-0.3-0.2-0.5-0.2
			c0.1-0.1,0.2-0.3,0.2-0.5c0.1-0.3,0.1-0.6,0-0.9c0.3,0.2,0.5,0.3,0.8,0.3c0.3,0,0.6-0.1,0.9-0.3c-0.1,0.3-0.1,0.7,0,1
			c0,0.1,0.1,0.3,0.2,0.4C433.1,68,432.9,68.1,432.7,68.2z"/>
		<path class="st3" d="M371.8,53.5c1.2-0.9,2.3-1.8,3.5-2.7c6.3-4.9,11.3-8.8,20.4-9.8c12.6-1.3,25.6,2.7,28.1,3.6l0.4,0.1
			c5.2,1.8,13.3,5.3,22.4,4.3c1.1-0.1,2.1-0.5,2.9-1.1l0.1-0.1v0c-8.3,1.8-19.7-2-25.2-3.8l-0.4-0.1c-2.5-0.8-15.7-4.9-28.4-3.6
			c-9.3,1-14.6,5.1-20.8,9.9c-1.3,1-2.7,2.1-4.2,3.2l-1.9,1.5l1.5-0.6C370.8,54.1,371.4,53.8,371.8,53.5z"/>
		<path class="st3" d="M365.8,55.8c9.3,0,64.3-3.9,77.9-5.9l-6.8,0.2c-0.2,0-0.3,0-0.5,0c-12.4,1.3-61.4,5-70.6,5
			c-10.7,0-24.8,0.3-29.3,2.4c-0.7,0.3-1.1,1-1.3,1.7l-0.1,0.6C336.2,55.3,359.1,55.8,365.8,55.8z"/>
		<path class="st3" d="M390.9,68.1c7.6-0.1,15.1-0.3,25.2-3.2c0.7-0.2,1.4-0.5,2.1-0.8c1.4-0.6,4.9-2.6,5.4-3.2
			c-7.8,4.3-24.6,6.3-32.7,6.4c-1.4,0-3.5,0.1-6.1,0.1c-6.6,0.1-7.6,0.3-17.5,0.5c-0.5,0-1.1,0.1-1.6,0.2c-0.4,0.1-1.2,0.2-1.9,0.3
			c0.4,0.1,0.8,0.2,1.3,0.3c8.5-0.2,13.5-0.4,19.7-0.5C387.4,68.2,389.5,68.1,390.9,68.1z"/>
		<path class="st3" d="M351,58.6c4.9,0,9,3.9,9.2,8.8c0.2,0.1,0.5,0.1,0.7,0.2c-0.1-5.4-4.5-9.8-9.9-9.8c-3.6,0-6.8,2-8.5,4.9
			c0.3,0,0.5,0.1,0.8,0.1C344.8,60.3,347.7,58.6,351,58.6z"/>
		<path class="st3" d="M353.6,59.1c0,2.5-0.5,4.6-1.1,5.9c0.2,0,0.3,0.1,0.5,0.1c0.7-1.4,1.1-3.5,1.1-5.9
			C353.9,59.2,353.7,59.1,353.6,59.1z"/>
		<path class="st3" d="M347.9,59.3c0,1.8,0.3,3.4,0.6,4.7c0.2,0,0.4,0.1,0.6,0.1c-0.4-1.3-0.7-3-0.7-5
			C348.2,59.2,348,59.2,347.9,59.3z"/>
		<path class="st3" d="M343.5,62.7c0.4,0.1,0.7,0.3,1.1,0.4c0.7,0.1,1.4,0.3,2,0.4c-0.9-0.4-1.8-0.9-2.8-1.2
			C343.7,62.4,343.6,62.6,343.5,62.7z"/>
		<path class="st3" d="M358.2,62.3c-2.2,0.8-4.1,1.8-5.2,2.8c0.2,0.1,0.4,0.1,0.5,0.2c1.1-0.9,2.8-1.9,5-2.6
			C358.4,62.6,358.3,62.4,358.2,62.3z"/>
		<path class="st3" d="M423.4,72.5h-41.4c0,0.2-0.1,0.4-0.1,0.6v0.1h41.9C423.6,73,423.5,72.8,423.4,72.5z"/>
		<path class="st3" d="M448.7,72.1c0.8-0.3,1.5-1,1.8-1.7c-1.6,1.1-4,1.6-5.9,1.9h3.8C448.4,72.2,448.5,72.2,448.7,72.1z"/>
		<path class="st3" d="M441.2,72.5c-0.1,0.2-0.3,0.5-0.4,0.7h0.6c0.2,0,3.7,0.2,6.9-1h-3.8c-1.8,0.2-3.2,0.3-3.2,0.3H441.2z"/>
		<polygon class="st10" points="449.6,47.9 449.6,47.9 449.6,47.9 		"/>
		<path d="M353,65.1C353,65.1,353,65.1,353,65.1C352.9,65.1,352.9,65.2,353,65.1C352.9,65.2,353,65.1,353,65.1z"/>
	</g>
	<path class="st11" d="M386.6,129.4c-17.3,0-32.6,4.1-40.4,6.5c0,10.3,5,59.6,40.4,74c35.4-14.4,40.4-63.7,40.4-74
		C419.2,133.5,403.9,129.4,386.6,129.4z"/>
</g>
<g>
	<g>
		<g>
			<g>
				
					<linearGradient id="SVGID_17_" gradientUnits="userSpaceOnUse" x1="9.8061" y1="199.5485" x2="9.8061" y2="195.9788" gradientTransform="matrix(1 0 0 -1 0 512)">
					<stop  offset="0" style="stop-color:#000000;stop-opacity:0"/>
					<stop  offset="1" style="stop-color:#000000"/>
				</linearGradient>
				<path class="st20" d="M11.5,310.9H0v5.3h19.6C15,315.6,11.5,310.9,11.5,310.9z"/>
				
					<linearGradient id="SVGID_18_" gradientUnits="userSpaceOnUse" x1="112.4891" y1="199.5485" x2="112.4891" y2="195.9788" gradientTransform="matrix(1 0 0 -1 0 512)">
					<stop  offset="0" style="stop-color:#000000;stop-opacity:0"/>
					<stop  offset="1" style="stop-color:#000000"/>
				</linearGradient>
				<path class="st21" d="M110.2,310.9h12.1v5.3h-19.6C106.7,315.5,110.2,310.9,110.2,310.9z"/>
				
					<linearGradient id="SVGID_19_" gradientUnits="userSpaceOnUse" x1="60.9505" y1="199.5485" x2="60.9505" y2="195.9788" gradientTransform="matrix(1 0 0 -1 0 512)">
					<stop  offset="0" style="stop-color:#000000;stop-opacity:0"/>
					<stop  offset="1" style="stop-color:#000000"/>
				</linearGradient>
				<path class="st22" d="M92.7,310.9h-6.5h-0.4H29c0,0-2.2,3.9-7.6,5.3h59.9h9.4h9.7C95.6,315.6,92.7,310.9,92.7,310.9z"/>
			</g>
			<g>
				<path class="st3" d="M101.5,316.3c-5.4,0-9.9-4.4-9.9-9.9c0-5.4,4.4-9.9,9.9-9.9c5.4,0,9.9,4.4,9.9,9.9
					C111.4,311.9,107,316.3,101.5,316.3z M101.5,297.3c-5.1,0-9.2,4.1-9.2,9.2s4.1,9.2,9.2,9.2c5.1,0,9.2-4.1,9.2-9.2
					S106.6,297.3,101.5,297.3z"/>
				<g>
					<path class="st3" d="M109,301.4c-0.1-0.1-0.2-0.3-0.3-0.4c-2.3,0.8-4.1,1.8-5.3,2.9c0.7-1.4,1.1-3.5,1.1-5.9
						c-0.2,0-0.3-0.1-0.5-0.2c0,4.4-1.4,7.4-2.6,7.4s-2.6-3-2.6-7.4c-0.2,0-0.3,0.1-0.5,0.2c0,2.4,0.4,4.4,1.1,5.8
						c-0.1-0.1-0.3-0.2-0.4-0.4c-1.2-0.9-2.9-1.8-4.8-2.4c-0.1,0.1-0.2,0.3-0.3,0.4c1.9,0.6,3.6,1.5,4.8,2.4
						c1.1,0.9,1.6,1.7,1.5,2.3c-0.1,0.2-0.3,0.4-0.5,0.6c-0.3,0-0.7,0.2-1.1,0.4c-0.3,0-0.6,0.1-1,0.1c-1.5,0-3.3-0.2-5.2-0.8
						c0,0,0,0,0,0.1c0,0.1,0,0.3,0,0.4c1.7,0.5,3.4,0.8,4.8,0.8c0.1,0,0.2,0,0.4,0c-1.2,0.8-2.5,2.1-3.7,3.7
						c0.1,0.1,0.2,0.3,0.3,0.4c1.2-1.6,2.5-3,3.8-3.8c0.3-0.2,0.5-0.3,0.8-0.5c0.4-0.1,0.8-0.2,1.1-0.4c0.1,0,0.2,0,0.2,0
						c0.2,0,0.5,0,0.6,0.2c0.5,0.4,0.6,1.4,0.2,2.7c-0.4,1.5-1.3,3.2-2.5,4.8c0.2,0,0.3,0.1,0.5,0.2c1.2-1.6,2.1-3.4,2.5-4.8
						c0-0.2,0.1-0.4,0.1-0.6c0.3,1.5,1.2,3.5,2.7,5.4c0.2,0,0.3-0.1,0.5-0.2c0,0,0,0,0,0c-2.6-3.6-3.3-6.9-2.3-7.6
						c0.2-0.1,0.5-0.2,0.8-0.2c0.3,0.2,0.7,0.3,1.2,0.4c1.3,0.7,2.9,2.1,4.5,4.3c0.1-0.1,0.2-0.3,0.3-0.4c-1.2-1.6-2.5-2.9-3.7-3.8
						c0.1,0,0.2,0,0.4,0c1.4,0,3.1-0.3,4.8-0.8c0-0.1,0-0.3,0-0.4c0,0,0-0.1,0-0.1c-1.9,0.6-3.7,0.9-5.2,0.8c-0.4,0-0.7,0-1-0.1
						c-0.4-0.2-0.8-0.3-1.1-0.4c-0.2-0.1-0.4-0.3-0.5-0.5C102.5,304.9,104.8,302.7,109,301.4z M102,306.9c-0.2,0.2-0.4,0.5-0.5,0.8
						c-0.1-0.3-0.3-0.5-0.5-0.7c-0.2-0.1-0.3-0.2-0.5-0.2c0.1-0.1,0.2-0.3,0.2-0.5c0.1-0.3,0.1-0.6,0-0.9c0.3,0.2,0.5,0.3,0.8,0.3
						c0.3,0,0.6-0.1,0.9-0.3c-0.1,0.3-0.1,0.7,0,1c0,0.1,0.1,0.3,0.2,0.4C102.4,306.7,102.2,306.8,102,306.9z"/>
				</g>
			</g>
			<path class="st3" d="M39.6,293l-1.5,0.6l1.9-1.5c1.5-1.1,2.8-2.1,4.2-3.2c6.2-4.8,11.5-8.9,20.8-9.9c12.7-1.4,25.9,2.7,28.4,3.6
				l0.4,0.1c5.5,1.8,16.9,5.7,25.2,3.8l-0.1,0.1c-0.9,0.6-1.9,1-2.9,1.1c-9.1,1-17.2-2.6-22.4-4.3l-0.4-0.1
				c-2.5-0.8-15.5-4.9-28.1-3.6c-9.1,1-14.1,4.9-20.4,9.8c-1.1,0.9-2.3,1.8-3.5,2.7C40.7,292.5,40.1,292.8,39.6,293z"/>
			<g>
				<path class="st3" d="M106.2,288.8c-0.2,0-0.3,0-0.5,0c-12.4,1.3-61.4,5-70.6,5c-10.7,0-24.8,0.3-29.3,2.4
					c-0.7,0.3-1.1,1-1.3,1.7l-0.1,0.6c1-4.6,23.9-4,30.6-4c9.3,0,64.3-3.9,77.9-5.9L106.2,288.8z"/>
			</g>
			<g>
				<path class="st3" d="M92.9,299.6c-7.8,4.3-24.6,6.3-32.7,6.4c-1.4,0-3.5,0.1-6.1,0.1c-6.6,0.1-7.6,0.3-17.5,0.5
					c-0.5,0-1.1,0.1-1.6,0.2c-1,0.2-3.7,0.5-3.7,0.6c10.5-0.2,15.9-0.4,22.8-0.6c2.6,0,4.8-0.1,6.1-0.1c7.6-0.1,15.1-0.3,25.2-3.2
					c0.7-0.2,1.4-0.5,2.1-0.8C88.8,302.2,92.4,300.2,92.9,299.6z"/>
			</g>
			<path class="st3" d="M6.6,306.6c-1.1,0.1-2.1,0.6-2.1,0.8c0.5,0,3,0,3.7-0.1c1.1-0.1,1.6-0.5,1.6-0.7
				C9.3,306.6,7.3,306.6,6.6,306.6z"/>
			<g>
				<path class="st3" d="M20.3,316.3c-5.4,0-9.9-4.4-9.9-9.9c0-5.4,4.4-9.9,9.9-9.9s9.9,4.4,9.9,9.9
					C30.1,311.9,25.7,316.3,20.3,316.3z M20.3,297.3c-5.1,0-9.2,4.1-9.2,9.2s4.1,9.2,9.2,9.2s9.2-4.1,9.2-9.2S25.3,297.3,20.3,297.3
					z"/>
				<g>
					<path class="st3" d="M27.8,301.4c-0.1-0.1-0.2-0.3-0.3-0.4c-2.3,0.8-4.1,1.8-5.3,2.9c0.7-1.4,1.1-3.5,1.1-5.9
						c-0.2,0-0.3-0.1-0.5-0.2c0,4.4-1.4,7.4-2.6,7.4c-1.2,0-2.6-3-2.6-7.4c-0.2,0-0.3,0.1-0.5,0.2c0,2.4,0.4,4.4,1.1,5.8
						c-0.1-0.1-0.3-0.2-0.4-0.4c-1.2-0.9-2.9-1.8-4.8-2.4c-0.1,0.1-0.2,0.3-0.3,0.4c1.9,0.6,3.6,1.5,4.8,2.4
						c1.1,0.9,1.6,1.7,1.5,2.3c-0.1,0.2-0.3,0.4-0.5,0.6c-0.3,0-0.7,0.2-1.1,0.4c-0.3,0-0.6,0.1-1,0.1c-1.5,0-3.3-0.2-5.2-0.8
						c0,0,0,0,0,0.1c0,0.1,0,0.3,0,0.4c1.7,0.5,3.4,0.8,4.8,0.8c0.1,0,0.2,0,0.4,0c-1.2,0.8-2.5,2.1-3.7,3.7
						c0.1,0.1,0.2,0.3,0.3,0.4c1.2-1.6,2.5-3,3.8-3.8c0.3-0.2,0.5-0.3,0.8-0.5c0.4-0.1,0.8-0.2,1.1-0.4c0.1,0,0.2,0,0.2,0
						c0.2,0,0.5,0,0.6,0.2c0.5,0.4,0.6,1.4,0.2,2.7c-0.4,1.5-1.3,3.2-2.5,4.8c0.2,0,0.3,0.1,0.5,0.2c1.2-1.6,2.1-3.4,2.5-4.8
						c0-0.2,0.1-0.4,0.1-0.6c0.3,1.5,1.2,3.5,2.7,5.4c0.2,0,0.3-0.1,0.5-0.2c0,0,0,0,0,0c-2.6-3.6-3.3-6.9-2.3-7.6
						c0.2-0.1,0.5-0.2,0.8-0.2c0.3,0.2,0.7,0.3,1.2,0.4c1.3,0.7,2.9,2.1,4.5,4.3c0.1-0.1,0.2-0.3,0.3-0.4c-1.2-1.6-2.5-2.9-3.7-3.8
						c0.1,0,0.2,0,0.4,0c1.4,0,3.1-0.3,4.8-0.8c0-0.1,0-0.3,0-0.4c0,0,0-0.1,0-0.1c-1.9,0.6-3.7,0.9-5.2,0.8c-0.4,0-0.7,0-1-0.1
						c-0.4-0.2-0.8-0.3-1.1-0.4c-0.2-0.1-0.4-0.3-0.5-0.5C21.2,304.9,23.6,302.8,27.8,301.4z M20.8,306.9c-0.2,0.2-0.4,0.5-0.5,0.8
						c-0.1-0.3-0.3-0.5-0.5-0.7c-0.2-0.1-0.3-0.2-0.5-0.2c0.1-0.1,0.2-0.3,0.2-0.5c0.1-0.3,0.1-0.6,0-0.9c0.3,0.2,0.5,0.3,0.8,0.3
						c0.3,0,0.6-0.1,0.9-0.3c-0.1,0.3-0.1,0.7,0,1c0,0.1,0.1,0.3,0.2,0.4C21.1,306.7,20.9,306.8,20.8,306.9z"/>
				</g>
			</g>
			<g>
				<g>
					<g>
						<path class="st3" d="M92.7,311.2H29.2c-0.1,0.2-0.3,0.5-0.4,0.7h64.3C92.9,311.7,92.8,311.4,92.7,311.2z"/>
						<path class="st3" d="M11.4,311.2H4.5l0.1,0.1c0.6,0.4,1.3,0.6,2.1,0.6h5.1C11.7,311.7,11.5,311.4,11.4,311.2z"/>
						<path class="st3" d="M119.8,309.1c-3,2-9,2.1-9.1,2.1h-0.2c-0.1,0.2-0.3,0.5-0.4,0.7h0.6c0.2,0,4,0.2,7.3-1.1
							C118.8,310.5,119.4,309.9,119.8,309.1L119.8,309.1z"/>
					</g>
				</g>
			</g>
		</g>
	</g>
	<g>
		<g>
			<g>
				
					<linearGradient id="SVGID_20_" gradientUnits="userSpaceOnUse" x1="138.379" y1="188.0048" x2="138.379" y2="184.4352" gradientTransform="matrix(1 0 0 -1 0 512)">
					<stop  offset="0" style="stop-color:#000000;stop-opacity:0"/>
					<stop  offset="1" style="stop-color:#000000"/>
				</linearGradient>
				<path class="st23" d="M140.1,322.5h-11.5v5.3h19.6C143.5,327.1,140.1,322.5,140.1,322.5z"/>
				
					<linearGradient id="SVGID_21_" gradientUnits="userSpaceOnUse" x1="241.062" y1="188.0048" x2="241.062" y2="184.4352" gradientTransform="matrix(1 0 0 -1 0 512)">
					<stop  offset="0" style="stop-color:#000000;stop-opacity:0"/>
					<stop  offset="1" style="stop-color:#000000"/>
				</linearGradient>
				<path class="st24" d="M238.8,322.5h12.1v5.3h-19.6C235.3,327,238.8,322.5,238.8,322.5z"/>
				
					<linearGradient id="SVGID_22_" gradientUnits="userSpaceOnUse" x1="189.5234" y1="188.0048" x2="189.5234" y2="184.4352" gradientTransform="matrix(1 0 0 -1 0 512)">
					<stop  offset="0" style="stop-color:#000000;stop-opacity:0"/>
					<stop  offset="1" style="stop-color:#000000"/>
				</linearGradient>
				<path class="st25" d="M221.3,322.5h-6.5h-0.4h-56.8c0,0-2.2,3.9-7.6,5.3h59.9h9.4h9.7C224.2,327.1,221.3,322.5,221.3,322.5z"/>
			</g>
			<g>
				<path class="st3" d="M230.1,327.9c-5.4,0-9.9-4.4-9.9-9.9c0-5.4,4.4-9.9,9.9-9.9s9.9,4.4,9.9,9.9
					C240,323.4,235.5,327.9,230.1,327.9z M230.1,308.8c-5.1,0-9.2,4.1-9.2,9.2s4.1,9.2,9.2,9.2s9.2-4.1,9.2-9.2
					S235.1,308.8,230.1,308.8z"/>
				<g>
					<path class="st3" d="M237.6,312.9c-0.1-0.1-0.2-0.3-0.3-0.4c-2.3,0.8-4.1,1.8-5.3,2.9c0.7-1.4,1.1-3.5,1.1-5.9
						c-0.2,0-0.3-0.1-0.5-0.2c0,4.4-1.4,7.4-2.6,7.4c-1.2,0-2.6-3-2.6-7.4c-0.2,0-0.3,0.1-0.5,0.2c0,2.4,0.4,4.4,1.1,5.8
						c-0.1-0.1-0.3-0.2-0.4-0.4c-1.2-0.9-2.9-1.8-4.8-2.4c-0.1,0.1-0.2,0.3-0.3,0.4c1.9,0.6,3.6,1.5,4.8,2.4
						c1.1,0.9,1.6,1.7,1.5,2.3c-0.1,0.2-0.3,0.4-0.5,0.6c-0.3,0-0.7,0.2-1.1,0.4c-0.3,0-0.6,0.1-1,0.1c-1.5,0-3.3-0.2-5.2-0.8
						c0,0,0,0,0,0.1c0,0.1,0,0.3,0,0.4c1.7,0.5,3.4,0.8,4.8,0.8c0.1,0,0.2,0,0.4,0c-1.2,0.8-2.5,2.1-3.7,3.7
						c0.1,0.1,0.2,0.3,0.3,0.4c1.2-1.6,2.5-3,3.8-3.8c0.3-0.2,0.5-0.3,0.8-0.5c0.4-0.1,0.8-0.2,1.1-0.4c0.1,0,0.2,0,0.2,0
						c0.2,0,0.5,0,0.6,0.2c0.5,0.4,0.6,1.4,0.2,2.7c-0.4,1.5-1.3,3.2-2.5,4.8c0.2,0,0.3,0.1,0.5,0.2c1.2-1.6,2.1-3.4,2.5-4.8
						c0-0.2,0.1-0.4,0.1-0.6c0.3,1.5,1.2,3.5,2.7,5.4c0.2,0,0.3-0.1,0.5-0.2c0,0,0,0,0,0c-2.6-3.6-3.3-6.9-2.3-7.6
						c0.2-0.1,0.5-0.2,0.8-0.2c0.3,0.2,0.7,0.3,1.2,0.4c1.3,0.7,2.9,2.1,4.5,4.3c0.1-0.1,0.2-0.3,0.3-0.4c-1.2-1.6-2.5-2.9-3.7-3.8
						c0.1,0,0.2,0,0.4,0c1.4,0,3.1-0.3,4.8-0.8c0-0.1,0-0.3,0-0.4c0,0,0-0.1,0-0.1c-1.9,0.6-3.7,0.9-5.2,0.8c-0.4,0-0.7,0-1-0.1
						c-0.4-0.2-0.8-0.3-1.1-0.4c-0.2-0.1-0.4-0.3-0.5-0.5C231,316.5,233.4,314.3,237.6,312.9z M230.6,318.4
						c-0.2,0.2-0.4,0.5-0.5,0.8c-0.1-0.3-0.3-0.5-0.5-0.7c-0.2-0.1-0.3-0.2-0.5-0.2c0.1-0.1,0.2-0.3,0.2-0.5c0.1-0.3,0.1-0.6,0-0.9
						c0.3,0.2,0.5,0.3,0.8,0.3c0.3,0,0.6-0.1,0.9-0.3c-0.1,0.3-0.1,0.7,0,1c0,0.1,0.1,0.3,0.2,0.4
						C231,318.3,230.8,318.3,230.6,318.4z"/>
				</g>
			</g>
			<path class="st3" d="M168.2,304.6l-1.5,0.6l1.9-1.5c1.5-1.1,2.8-2.1,4.2-3.2c6.2-4.8,11.5-8.9,20.8-9.9
				c12.7-1.4,25.9,2.7,28.4,3.6l0.4,0.1c5.5,1.8,16.9,5.7,25.2,3.8l-0.1,0.1c-0.9,0.6-1.9,1-2.9,1.1c-9.1,1-17.2-2.6-22.4-4.3
				l-0.4-0.1c-2.5-0.8-15.5-4.9-28.1-3.6c-9.1,1-14.1,4.9-20.4,9.8c-1.1,0.9-2.3,1.8-3.5,2.7C169.2,304.1,168.7,304.4,168.2,304.6z"
				/>
			<g>
				<path class="st3" d="M234.7,300.3c-0.2,0-0.3,0-0.5,0c-12.4,1.3-61.4,5-70.6,5c-10.7,0-24.8,0.3-29.3,2.4
					c-0.7,0.3-1.1,1-1.3,1.7l-0.1,0.6c1-4.6,23.9-4,30.6-4c9.3,0,64.3-3.9,77.9-5.9L234.7,300.3z"/>
			</g>
			<g>
				<path class="st3" d="M221.4,311.2c-7.8,4.3-24.6,6.3-32.7,6.4c-1.4,0-3.5,0.1-6.1,0.1c-6.6,0.1-7.6,0.3-17.5,0.5
					c-0.5,0-1.1,0.1-1.6,0.2c-1,0.2-3.7,0.5-3.7,0.6c10.5-0.2,15.9-0.4,22.8-0.6c2.6,0,4.8-0.1,6.1-0.1c7.6-0.1,15.1-0.3,25.2-3.2
					c0.7-0.2,1.4-0.5,2.1-0.8C217.4,313.7,220.9,311.8,221.4,311.2z"/>
			</g>
			<path class="st3" d="M135.2,318.2c-1.1,0.1-2.1,0.6-2.1,0.8c0.5,0,3,0,3.7-0.1c1.1-0.1,1.6-0.5,1.6-0.7
				C137.8,318.2,135.8,318.1,135.2,318.2z"/>
			<g>
				<path class="st3" d="M148.8,327.9c-5.4,0-9.9-4.4-9.9-9.9c0-5.4,4.4-9.9,9.9-9.9s9.9,4.4,9.9,9.9
					C158.7,323.4,154.3,327.9,148.8,327.9z M148.8,308.8c-5.1,0-9.2,4.1-9.2,9.2s4.1,9.2,9.2,9.2c5.1,0,9.2-4.1,9.2-9.2
					S153.9,308.8,148.8,308.8z"/>
				<g>
					<path class="st3" d="M156.4,312.9c-0.1-0.1-0.2-0.3-0.3-0.4c-2.3,0.8-4.1,1.8-5.3,2.9c0.7-1.4,1.1-3.5,1.1-5.9
						c-0.2,0-0.3-0.1-0.5-0.2c0,4.4-1.4,7.4-2.6,7.4c-1.2,0-2.6-3-2.6-7.4c-0.2,0-0.3,0.1-0.5,0.2c0,2.4,0.4,4.4,1.1,5.8
						c-0.1-0.1-0.3-0.2-0.4-0.4c-1.2-0.9-2.9-1.8-4.8-2.4c-0.1,0.1-0.2,0.3-0.3,0.4c1.9,0.6,3.6,1.5,4.8,2.4
						c1.1,0.9,1.6,1.7,1.5,2.3c-0.1,0.2-0.3,0.4-0.5,0.6c-0.3,0-0.7,0.2-1.1,0.4c-0.3,0-0.6,0.1-1,0.1c-1.5,0-3.3-0.2-5.2-0.8
						c0,0,0,0,0,0.1c0,0.1,0,0.3,0,0.4c1.7,0.5,3.4,0.8,4.8,0.8c0.1,0,0.2,0,0.4,0c-1.2,0.8-2.5,2.1-3.7,3.7
						c0.1,0.1,0.2,0.3,0.3,0.4c1.2-1.6,2.5-3,3.8-3.8c0.3-0.2,0.5-0.3,0.8-0.5c0.4-0.1,0.8-0.2,1.1-0.4c0.1,0,0.2,0,0.2,0
						c0.2,0,0.5,0,0.6,0.2c0.5,0.4,0.6,1.4,0.2,2.7c-0.4,1.5-1.3,3.2-2.5,4.8c0.2,0,0.3,0.1,0.5,0.2c1.2-1.6,2.1-3.4,2.5-4.8
						c0-0.2,0.1-0.4,0.1-0.6c0.3,1.5,1.2,3.5,2.7,5.4c0.2,0,0.3-0.1,0.5-0.2c0,0,0,0,0,0c-2.6-3.6-3.3-6.9-2.3-7.6
						c0.2-0.1,0.5-0.2,0.8-0.2c0.3,0.2,0.7,0.3,1.2,0.4c1.3,0.7,2.9,2.1,4.5,4.3c0.1-0.1,0.2-0.3,0.3-0.4c-1.2-1.6-2.5-2.9-3.7-3.8
						c0.1,0,0.2,0,0.4,0c1.4,0,3.1-0.3,4.8-0.8c0-0.1,0-0.3,0-0.4c0,0,0-0.1,0-0.1c-1.9,0.6-3.7,0.9-5.2,0.8c-0.4,0-0.7,0-1-0.1
						c-0.4-0.2-0.8-0.3-1.1-0.4c-0.2-0.1-0.4-0.3-0.5-0.5C149.8,316.5,152.2,314.3,156.4,312.9z M149.4,318.4
						c-0.2,0.2-0.4,0.5-0.5,0.8c-0.1-0.3-0.3-0.5-0.5-0.7c-0.2-0.1-0.3-0.2-0.5-0.2c0.1-0.1,0.2-0.3,0.2-0.5c0.1-0.3,0.1-0.6,0-0.9
						c0.3,0.2,0.5,0.3,0.8,0.3c0.3,0,0.6-0.1,0.9-0.3c-0.1,0.3-0.1,0.7,0,1c0,0.1,0.1,0.3,0.2,0.4
						C149.7,318.3,149.5,318.3,149.4,318.4z"/>
				</g>
			</g>
			<g>
				<g>
					<g>
						<path class="st3" d="M221.2,322.7h-63.4c-0.1,0.2-0.3,0.5-0.4,0.7h64.3C221.5,323.2,221.4,323,221.2,322.7z"/>
						<path class="st3" d="M140,322.7h-6.9l0.1,0.1c0.6,0.4,1.3,0.6,2.1,0.6h5.1C140.3,323.2,140.1,323,140,322.7z"/>
						<path class="st3" d="M248.3,320.6c-3,2-9,2.1-9.1,2.1h-0.2c-0.1,0.2-0.3,0.5-0.4,0.7h0.6c0.2,0,4,0.2,7.3-1.1
							C247.3,322,248,321.4,248.3,320.6L248.3,320.6z"/>
					</g>
				</g>
			</g>
		</g>
	</g>
	<g>
		<path class="st7" d="M97.1,278.2c0.1,0.1,0.2,0.3,0.3,0.4c-2.2,0.7-3.9,1.7-5,2.6c0.5,0.2,1,0.3,1.2,0.4l0.4,0.1
			c1.4,0.5,3.1,1,5,1.6c-0.2-4.9-4.2-8.8-9.2-8.8c-3.3,0-6.1,1.7-7.7,4.3c0.4,0.1,0.9,0.2,1.3,0.2c-0.3-0.1-0.7-0.3-1.1-0.4
			c0.1-0.1,0.2-0.3,0.3-0.4c1,0.3,2,0.8,2.8,1.2c0.7,0.1,1.3,0.3,1.9,0.4c-0.4-1.3-0.6-2.9-0.6-4.7c0.2-0.1,0.3-0.1,0.5-0.2
			c0,2,0.3,3.7,0.7,5c1.3,0.3,2.5,0.6,3.4,0.9c0.6-1.3,1.1-3.4,1.1-5.9c0.2,0,0.3,0.1,0.5,0.2c0,2.4-0.4,4.5-1.1,5.9c0,0,0,0,0,0
			C93,280,94.8,279,97.1,278.2z"/>
		<path class="st7" d="M171.1,274.5c-5.1,0-9.2,4.1-9.2,9.2c0,5.1,4.1,9.2,9.2,9.2c5.1,0,9.2-4.1,9.2-9.2
			C180.3,278.6,176.1,274.5,171.1,274.5z M180.2,284c-1.7,0.5-3.4,0.8-4.8,0.8c-0.1,0-0.2,0-0.4,0c1.2,0.8,2.5,2.1,3.7,3.8
			c-0.1,0.1-0.2,0.3-0.3,0.4c-1.6-2.1-3.2-3.6-4.5-4.3c-0.5-0.1-0.9-0.2-1.2-0.4c-0.3,0-0.6,0-0.8,0.2c-1,0.7-0.3,4,2.3,7.6
			c0,0,0,0,0,0c-0.2,0.1-0.3,0.1-0.5,0.2c-1.4-1.9-2.3-3.9-2.7-5.4c0,0.2-0.1,0.4-0.1,0.6c-0.4,1.5-1.3,3.2-2.5,4.8
			c-0.2,0-0.3-0.1-0.5-0.2c1.2-1.6,2.1-3.4,2.5-4.8c0.4-1.4,0.3-2.4-0.2-2.7c-0.1-0.1-0.4-0.2-0.6-0.2c-0.1,0-0.2,0-0.2,0
			c-0.3,0.2-0.6,0.3-1.1,0.4c-0.2,0.1-0.5,0.3-0.8,0.5c-1.3,0.8-2.6,2.2-3.8,3.8c-0.1-0.1-0.2-0.3-0.3-0.4c1.2-1.6,2.5-2.9,3.7-3.7
			c-0.1,0-0.2,0-0.4,0c-1.4,0-3.1-0.3-4.8-0.8c0-0.1,0-0.3,0-0.4c0,0,0,0,0-0.1c1.9,0.6,3.7,0.9,5.2,0.8c0.4,0,0.7,0,1-0.1
			c0.4-0.2,0.7-0.3,1.1-0.4c0.3-0.2,0.5-0.4,0.5-0.6c0.2-0.6-0.3-1.5-1.5-2.3c-1.2-0.9-2.9-1.8-4.8-2.4c0.1-0.1,0.2-0.3,0.3-0.4
			c1.9,0.6,3.6,1.5,4.8,2.4c0.1,0.1,0.3,0.2,0.4,0.4c-0.6-1.4-1.1-3.5-1.1-5.8c0.2-0.1,0.3-0.1,0.5-0.2c0,4.4,1.4,7.4,2.6,7.4
			c1.2,0,2.6-3,2.6-7.4c0.2,0,0.3,0.1,0.5,0.2c0,2.4-0.4,4.5-1.1,5.9c1.1-1.1,3-2.1,5.3-2.9c0.1,0.1,0.2,0.3,0.3,0.4
			c-4.2,1.4-6.6,3.6-6.2,4.7c0.1,0.2,0.2,0.4,0.5,0.5c0.3,0,0.7,0.2,1.1,0.4c0.3,0,0.6,0.1,1,0.1c1.5,0,3.3-0.2,5.2-0.8
			c0,0,0,0.1,0,0.1C180.2,283.8,180.2,283.9,180.2,284z"/>
		<path class="st7" d="M172,282.5c-0.3,0.2-0.6,0.3-0.9,0.3c-0.3,0-0.6-0.1-0.8-0.3c0.1,0.3,0.1,0.6,0,0.9c0,0.2-0.1,0.3-0.2,0.5
			c0.2,0,0.4,0.1,0.5,0.2c0.2,0.2,0.4,0.4,0.5,0.7c0.1-0.3,0.3-0.6,0.5-0.8c0.2-0.1,0.4-0.2,0.6-0.2c-0.1-0.1-0.2-0.3-0.2-0.4
			C171.9,283.2,171.9,282.9,172,282.5z"/>
		
			<linearGradient id="SVGID_23_" gradientUnits="userSpaceOnUse" x1="182.0638" y1="222.3019" x2="182.0638" y2="218.7322" gradientTransform="matrix(1 0 0 -1 0 512)">
			<stop  offset="0" style="stop-color:#000000;stop-opacity:0"/>
			<stop  offset="1" style="stop-color:#000000"/>
		</linearGradient>
		<path class="st26" d="M191.9,288.2h-4.7c-3.2,1.1-6.7,1-6.9,1h-0.6c0.1-0.2,0.3-0.5,0.4-0.7h0.2c0,0,1.4,0,3.2-0.3h-3.6
			c-1.5,2.9-4.3,4.9-7.6,5.3c0,0,0,0,0,0h8.7c3.1-1.8,6.6-3.1,11-3.8V288.2z"/>
		
			<linearGradient id="SVGID_24_" gradientUnits="userSpaceOnUse" x1="145.3561" y1="222.3019" x2="145.3561" y2="218.7322" gradientTransform="matrix(1 0 0 -1 0 512)">
			<stop  offset="0" style="stop-color:#000000;stop-opacity:0"/>
			<stop  offset="1" style="stop-color:#000000"/>
		</linearGradient>
		<path class="st27" d="M162.3,288.2C162.3,288.2,162.3,288.2,162.3,288.2l-6.5,0h-0.4h-34.5c0,0.1,0,0.2-0.1,0.3h41.4
			c0.1,0.2,0.3,0.5,0.4,0.7h-41.9v4.3h30.1h9.4h9.7C166.6,293.1,163.8,291.1,162.3,288.2z"/>
		<path class="st3" d="M179.8,288.2L179.8,288.2c0.8-1.4,1.2-2.9,1.2-4.5c0-5.4-4.4-9.9-9.9-9.9c-5.4,0-9.9,4.4-9.9,9.9
			c0,1.6,0.4,3.2,1.1,4.5c0.2,0.3,3,4.7,7.7,5.3H170c0.4,0,0.8,0.1,1.1,0.1c0.4,0,0.8,0,1.2-0.1
			C176.3,292.7,179.8,288.2,179.8,288.2z M171.1,292.8c-5.1,0-9.2-4.1-9.2-9.2c0-5.1,4.1-9.2,9.2-9.2c5,0,9.2,4.1,9.2,9.2
			C180.3,288.7,176.2,292.8,171.1,292.8z"/>
		<path class="st3" d="M179.9,288.2L179.9,288.2c-0.1,0-3.6,4.5-7.6,5.3C175.6,293.1,178.4,291,179.9,288.2z"/>
		<path class="st3" d="M162.3,288.2c1.5,2.8,4.3,4.9,7.6,5.3h0.1C165.4,292.9,162.5,288.6,162.3,288.2z"/>
		<path class="st3" d="M175,284.4c-0.4,0-0.7,0-1-0.1c-0.4-0.2-0.8-0.3-1.1-0.4c-0.2-0.1-0.4-0.3-0.5-0.5c-0.4-1.1,2-3.3,6.2-4.7
			c-0.1-0.1-0.2-0.3-0.3-0.4c-2.3,0.8-4.1,1.8-5.3,2.9c0.7-1.4,1.1-3.5,1.1-5.9c-0.2,0-0.3-0.1-0.5-0.2c0,4.4-1.4,7.4-2.6,7.4
			c-1.2,0-2.6-3-2.6-7.4c-0.2,0-0.3,0.1-0.5,0.2c0,2.4,0.4,4.4,1.1,5.8c-0.1-0.1-0.3-0.2-0.4-0.4c-1.2-0.9-2.9-1.8-4.8-2.4
			c-0.1,0.1-0.2,0.3-0.3,0.4c1.9,0.6,3.6,1.5,4.8,2.4c1.1,0.9,1.6,1.7,1.5,2.3c-0.1,0.2-0.3,0.4-0.5,0.6c-0.3,0-0.7,0.2-1.1,0.4
			c-0.3,0-0.6,0.1-1,0.1c-1.5,0-3.3-0.2-5.2-0.8c0,0,0,0,0,0.1c0,0.1,0,0.3,0,0.4c1.7,0.5,3.4,0.8,4.8,0.8c0.1,0,0.2,0,0.4,0
			c-1.2,0.8-2.5,2.1-3.7,3.7c0.1,0.1,0.2,0.3,0.3,0.4c1.2-1.6,2.5-3,3.8-3.8c0.3-0.2,0.5-0.3,0.8-0.5c0.4-0.1,0.8-0.2,1.1-0.4
			c0.1,0,0.2,0,0.2,0c0.2,0,0.5,0,0.6,0.2c0.5,0.4,0.6,1.4,0.2,2.7c-0.4,1.5-1.3,3.2-2.5,4.8c0.2,0,0.3,0.1,0.5,0.2
			c1.2-1.6,2.1-3.4,2.5-4.8c0-0.2,0.1-0.4,0.1-0.6c0.3,1.5,1.2,3.5,2.7,5.4c0.2,0,0.3-0.1,0.5-0.2c0,0,0,0,0,0
			c-2.6-3.6-3.3-6.9-2.3-7.6c0.2-0.1,0.5-0.2,0.8-0.2c0.3,0.2,0.7,0.3,1.2,0.4c1.3,0.7,2.9,2.1,4.5,4.3c0.1-0.1,0.2-0.3,0.3-0.4
			c-1.2-1.6-2.5-2.9-3.7-3.8c0.1,0,0.2,0,0.4,0c1.4,0,3.1-0.3,4.8-0.8c0-0.1,0-0.3,0-0.4c0,0,0-0.1,0-0.1
			C178.3,284.1,176.5,284.4,175,284.4z M171.6,284.2c-0.2,0.2-0.4,0.5-0.5,0.8c-0.1-0.3-0.3-0.5-0.5-0.7c-0.2-0.1-0.3-0.2-0.5-0.2
			c0.1-0.1,0.2-0.3,0.2-0.5c0.1-0.3,0.1-0.6,0-0.9c0.3,0.2,0.5,0.3,0.8,0.3c0.3,0,0.6-0.1,0.9-0.3c-0.1,0.3-0.1,0.7,0,1
			c0,0.1,0.1,0.3,0.2,0.4C172,284,171.8,284,171.6,284.2z"/>
		<path class="st3" d="M110.7,269.4c1.2-0.9,2.3-1.8,3.5-2.7c6.3-4.9,11.3-8.8,20.4-9.8c12.6-1.3,25.6,2.7,28.1,3.6l0.4,0.1
			c5.2,1.8,13.3,5.3,22.4,4.3c1.1-0.1,2.1-0.5,2.9-1.1l0.1-0.1v0c-8.3,1.8-19.7-2-25.2-3.8l-0.4-0.1c-2.5-0.8-15.7-4.9-28.4-3.6
			c-9.3,1-14.6,5.1-20.8,9.9c-1.3,1-2.7,2.1-4.2,3.2l-1.9,1.5l1.5-0.6C109.7,270.1,110.2,269.8,110.7,269.4z"/>
		<path class="st3" d="M104.7,271.8c9.3,0,64.3-3.9,77.9-5.9l-6.8,0.2c-0.2,0-0.3,0-0.5,0c-12.4,1.3-61.4,5-70.6,5
			c-10.7,0-24.8,0.3-29.3,2.4c-0.7,0.3-1.1,1-1.3,1.7l-0.1,0.6C75.1,271.2,98,271.8,104.7,271.8z"/>
		<path class="st3" d="M129.7,284c7.6-0.1,15.1-0.3,25.2-3.2c0.7-0.2,1.4-0.5,2.1-0.8c1.4-0.6,4.9-2.6,5.4-3.2
			c-7.8,4.3-24.6,6.3-32.7,6.4c-1.4,0-3.5,0.1-6.1,0.1c-6.6,0.1-7.6,0.3-17.5,0.5c-0.5,0-1.1,0.1-1.6,0.2c-0.4,0.1-1.2,0.2-1.9,0.3
			c0.4,0.1,0.8,0.2,1.3,0.3c8.5-0.2,13.5-0.4,19.7-0.5C126.3,284.1,128.4,284.1,129.7,284z"/>
		<path class="st3" d="M89.8,274.5c4.9,0,9,3.9,9.2,8.8c0.2,0.1,0.5,0.1,0.7,0.2c-0.1-5.4-4.5-9.8-9.9-9.8c-3.6,0-6.8,2-8.5,4.9
			c0.3,0,0.5,0.1,0.8,0.1C83.7,276.2,86.6,274.5,89.8,274.5z"/>
		<path class="st3" d="M92.4,275c0,2.5-0.5,4.6-1.1,5.9c0.2,0,0.3,0.1,0.5,0.1c0.7-1.4,1.1-3.5,1.1-5.9
			C92.7,275.1,92.6,275.1,92.4,275z"/>
		<path class="st3" d="M86.8,275.2c0,1.8,0.3,3.4,0.6,4.7c0.2,0,0.4,0.1,0.6,0.1c-0.4-1.3-0.7-3-0.7-5
			C87.1,275.1,86.9,275.1,86.8,275.2z"/>
		<path class="st3" d="M82.4,278.6c0.4,0.1,0.7,0.3,1.1,0.4c0.7,0.1,1.4,0.3,2,0.4c-0.9-0.4-1.8-0.9-2.8-1.2
			C82.5,278.4,82.5,278.5,82.4,278.6z"/>
		<path class="st3" d="M97.1,278.2c-2.2,0.8-4.1,1.8-5.2,2.8c0.2,0.1,0.4,0.1,0.5,0.2c1.1-0.9,2.8-1.9,5-2.6
			C97.3,278.5,97.2,278.4,97.1,278.2z"/>
		<path class="st3" d="M162.2,288.5h-41.4c0,0.2-0.1,0.4-0.1,0.6v0.1h41.9C162.5,288.9,162.4,288.7,162.2,288.5z"/>
		<path class="st3" d="M187.5,288.1c0.8-0.3,1.5-1,1.8-1.7c-1.6,1.1-4,1.6-5.9,1.9h3.8C187.3,288.1,187.4,288.1,187.5,288.1z"/>
		<path class="st3" d="M180.1,288.5c-0.1,0.2-0.3,0.5-0.4,0.7h0.6c0.2,0,3.7,0.2,6.9-1h-3.8c-1.8,0.2-3.2,0.3-3.2,0.3H180.1z"/>
		<polygon class="st10" points="188.4,263.8 188.4,263.8 188.4,263.8 		"/>
		<path d="M91.9,281.1C91.8,281.1,91.8,281.1,91.9,281.1C91.8,281.1,91.8,281.1,91.9,281.1C91.8,281.1,91.8,281.1,91.9,281.1z"/>
	</g>
	<path class="st11" d="M125.4,345.3c-17.3,0-32.6,4.1-40.4,6.5c0,10.3,5,59.6,40.4,74c35.4-14.4,40.4-63.7,40.4-74
		C158.1,349.4,142.8,345.3,125.4,345.3z"/>
</g>
<g>
	<g>
		<g>
			<g>
				
					<linearGradient id="SVGID_25_" gradientUnits="userSpaceOnUse" x1="270.9261" y1="199.5485" x2="270.9261" y2="195.9788" gradientTransform="matrix(1 0 0 -1 0 512)">
					<stop  offset="0" style="stop-color:#000000;stop-opacity:0"/>
					<stop  offset="1" style="stop-color:#000000"/>
				</linearGradient>
				<path class="st28" d="M272.6,310.9h-11.5v5.3h19.6C276.1,315.6,272.6,310.9,272.6,310.9z"/>
				
					<linearGradient id="SVGID_26_" gradientUnits="userSpaceOnUse" x1="373.6091" y1="199.5485" x2="373.6091" y2="195.9788" gradientTransform="matrix(1 0 0 -1 0 512)">
					<stop  offset="0" style="stop-color:#000000;stop-opacity:0"/>
					<stop  offset="1" style="stop-color:#000000"/>
				</linearGradient>
				<path class="st29" d="M371.3,310.9h12.1v5.3h-19.6C367.8,315.5,371.3,310.9,371.3,310.9z"/>
				
					<linearGradient id="SVGID_27_" gradientUnits="userSpaceOnUse" x1="322.0705" y1="199.5485" x2="322.0705" y2="195.9788" gradientTransform="matrix(1 0 0 -1 0 512)">
					<stop  offset="0" style="stop-color:#000000;stop-opacity:0"/>
					<stop  offset="1" style="stop-color:#000000"/>
				</linearGradient>
				<path class="st30" d="M353.9,310.9h-6.5h-0.4h-56.8c0,0-2.2,3.9-7.6,5.3h59.9h9.4h9.7C356.7,315.6,353.9,310.9,353.9,310.9z"/>
			</g>
			<g>
				<path class="st3" d="M362.6,316.3c-5.4,0-9.9-4.4-9.9-9.9c0-5.4,4.4-9.9,9.9-9.9c5.4,0,9.9,4.4,9.9,9.9
					C372.5,311.9,368.1,316.3,362.6,316.3z M362.6,297.3c-5.1,0-9.2,4.1-9.2,9.2s4.1,9.2,9.2,9.2c5.1,0,9.2-4.1,9.2-9.2
					S367.7,297.3,362.6,297.3z"/>
				<g>
					<path class="st3" d="M370.2,301.4c-0.1-0.1-0.2-0.3-0.3-0.4c-2.3,0.8-4.1,1.8-5.3,2.9c0.7-1.4,1.1-3.5,1.1-5.9
						c-0.2,0-0.3-0.1-0.5-0.2c0,4.4-1.4,7.4-2.6,7.4c-1.2,0-2.6-3-2.6-7.4c-0.2,0-0.3,0.1-0.5,0.2c0,2.4,0.4,4.4,1.1,5.8
						c-0.1-0.1-0.3-0.2-0.4-0.4c-1.2-0.9-2.9-1.8-4.8-2.4c-0.1,0.1-0.2,0.3-0.3,0.4c1.9,0.6,3.6,1.5,4.8,2.4
						c1.1,0.9,1.6,1.7,1.5,2.3c-0.1,0.2-0.3,0.4-0.5,0.6c-0.3,0-0.7,0.2-1.1,0.4c-0.3,0-0.6,0.1-1,0.1c-1.5,0-3.3-0.2-5.2-0.8
						c0,0,0,0,0,0.1c0,0.1,0,0.3,0,0.4c1.7,0.5,3.4,0.8,4.8,0.8c0.1,0,0.2,0,0.4,0c-1.2,0.8-2.5,2.1-3.7,3.7
						c0.1,0.1,0.2,0.3,0.3,0.4c1.2-1.6,2.5-3,3.8-3.8c0.3-0.2,0.5-0.3,0.8-0.5c0.4-0.1,0.8-0.2,1.1-0.4c0.1,0,0.2,0,0.2,0
						c0.2,0,0.5,0,0.6,0.2c0.5,0.4,0.6,1.4,0.2,2.7c-0.4,1.5-1.3,3.2-2.5,4.8c0.2,0,0.3,0.1,0.5,0.2c1.2-1.6,2.1-3.4,2.5-4.8
						c0-0.2,0.1-0.4,0.1-0.6c0.3,1.5,1.2,3.5,2.7,5.4c0.2,0,0.3-0.1,0.5-0.2c0,0,0,0,0,0c-2.6-3.6-3.3-6.9-2.3-7.6
						c0.2-0.1,0.5-0.2,0.8-0.2c0.3,0.2,0.7,0.3,1.2,0.4c1.3,0.7,2.9,2.1,4.5,4.3c0.1-0.1,0.2-0.3,0.3-0.4c-1.2-1.6-2.5-2.9-3.7-3.8
						c0.1,0,0.2,0,0.4,0c1.4,0,3.1-0.3,4.8-0.8c0-0.1,0-0.3,0-0.4c0,0,0-0.1,0-0.1c-1.9,0.6-3.7,0.9-5.2,0.8c-0.4,0-0.7,0-1-0.1
						c-0.4-0.2-0.8-0.3-1.1-0.4c-0.2-0.1-0.4-0.3-0.5-0.5C363.6,304.9,366,302.7,370.2,301.4z M363.1,306.9
						c-0.2,0.2-0.4,0.5-0.5,0.8c-0.1-0.3-0.3-0.5-0.5-0.7c-0.2-0.1-0.3-0.2-0.5-0.2c0.1-0.1,0.2-0.3,0.2-0.5c0.1-0.3,0.1-0.6,0-0.9
						c0.3,0.2,0.5,0.3,0.8,0.3c0.3,0,0.6-0.1,0.9-0.3c-0.1,0.3-0.1,0.7,0,1c0,0.1,0.1,0.3,0.2,0.4
						C363.5,306.7,363.3,306.8,363.1,306.9z"/>
				</g>
			</g>
			<path class="st3" d="M300.7,293l-1.5,0.6l1.9-1.5c1.5-1.1,2.8-2.1,4.2-3.2c6.2-4.8,11.5-8.9,20.8-9.9c12.7-1.4,25.9,2.7,28.4,3.6
				l0.4,0.1c5.5,1.8,16.9,5.7,25.2,3.8l-0.1,0.1c-0.9,0.6-1.9,1-2.9,1.1c-9.1,1-17.2-2.6-22.4-4.3l-0.4-0.1
				c-2.5-0.8-15.5-4.9-28.1-3.6c-9.1,1-14.1,4.9-20.4,9.8c-1.1,0.9-2.3,1.8-3.5,2.7C301.8,292.5,301.3,292.8,300.7,293z"/>
			<g>
				<path class="st3" d="M367.3,288.8c-0.2,0-0.3,0-0.5,0c-12.4,1.3-61.4,5-70.6,5c-10.7,0-24.8,0.3-29.3,2.4
					c-0.7,0.3-1.1,1-1.3,1.7l-0.1,0.6c1-4.6,23.9-4,30.6-4c9.3,0,64.3-3.9,77.9-5.9L367.3,288.8z"/>
			</g>
			<g>
				<path class="st3" d="M354,299.6c-7.8,4.3-24.6,6.3-32.7,6.4c-1.4,0-3.5,0.1-6.1,0.1c-6.6,0.1-7.6,0.3-17.5,0.5
					c-0.5,0-1.1,0.1-1.6,0.2c-1,0.2-3.7,0.5-3.7,0.6c10.5-0.2,15.9-0.4,22.8-0.6c2.6,0,4.8-0.1,6.1-0.1c7.6-0.1,15.1-0.3,25.2-3.2
					c0.7-0.2,1.4-0.5,2.1-0.8C349.9,302.2,353.5,300.2,354,299.6z"/>
			</g>
			<path class="st3" d="M267.7,306.6c-1.1,0.1-2.1,0.6-2.1,0.8c0.5,0,3,0,3.7-0.1c1.1-0.1,1.6-0.5,1.6-0.7
				C270.4,306.6,268.4,306.6,267.7,306.6z"/>
			<g>
				<path class="st3" d="M281.4,316.3c-5.4,0-9.9-4.4-9.9-9.9c0-5.4,4.4-9.9,9.9-9.9c5.4,0,9.9,4.4,9.9,9.9
					C291.3,311.9,286.8,316.3,281.4,316.3z M281.4,297.3c-5.1,0-9.2,4.1-9.2,9.2s4.1,9.2,9.2,9.2s9.2-4.1,9.2-9.2
					S286.4,297.3,281.4,297.3z"/>
				<g>
					<path class="st3" d="M288.9,301.4c-0.1-0.1-0.2-0.3-0.3-0.4c-2.3,0.8-4.1,1.8-5.3,2.9c0.7-1.4,1.1-3.5,1.1-5.9
						c-0.2,0-0.3-0.1-0.5-0.2c0,4.4-1.4,7.4-2.6,7.4s-2.6-3-2.6-7.4c-0.2,0-0.3,0.1-0.5,0.2c0,2.4,0.4,4.4,1.1,5.8
						c-0.1-0.1-0.3-0.2-0.4-0.4c-1.2-0.9-2.9-1.8-4.8-2.4c-0.1,0.1-0.2,0.3-0.3,0.4c1.9,0.6,3.6,1.5,4.8,2.4
						c1.1,0.9,1.6,1.7,1.5,2.3c-0.1,0.2-0.3,0.4-0.5,0.6c-0.3,0-0.7,0.2-1.1,0.4c-0.3,0-0.6,0.1-1,0.1c-1.5,0-3.3-0.2-5.2-0.8
						c0,0,0,0,0,0.1c0,0.1,0,0.3,0,0.4c1.7,0.5,3.4,0.8,4.8,0.8c0.1,0,0.2,0,0.4,0c-1.2,0.8-2.5,2.1-3.7,3.7
						c0.1,0.1,0.2,0.3,0.3,0.4c1.2-1.6,2.5-3,3.8-3.8c0.3-0.2,0.5-0.3,0.8-0.5c0.4-0.1,0.8-0.2,1.1-0.4c0.1,0,0.2,0,0.2,0
						c0.2,0,0.5,0,0.6,0.2c0.5,0.4,0.6,1.4,0.2,2.7c-0.4,1.5-1.3,3.2-2.5,4.8c0.2,0,0.3,0.1,0.5,0.2c1.2-1.6,2.1-3.4,2.5-4.8
						c0-0.2,0.1-0.4,0.1-0.6c0.3,1.5,1.2,3.5,2.7,5.4c0.2,0,0.3-0.1,0.5-0.2c0,0,0,0,0,0c-2.6-3.6-3.3-6.9-2.3-7.6
						c0.2-0.1,0.5-0.2,0.8-0.2c0.3,0.2,0.7,0.3,1.2,0.4c1.3,0.7,2.9,2.1,4.5,4.3c0.1-0.1,0.2-0.3,0.3-0.4c-1.2-1.6-2.5-2.9-3.7-3.8
						c0.1,0,0.2,0,0.4,0c1.4,0,3.1-0.3,4.8-0.8c0-0.1,0-0.3,0-0.4c0,0,0-0.1,0-0.1c-1.9,0.6-3.7,0.9-5.2,0.8c-0.4,0-0.7,0-1-0.1
						c-0.4-0.2-0.8-0.3-1.1-0.4c-0.2-0.1-0.4-0.3-0.5-0.5C282.3,304.9,284.7,302.8,288.9,301.4z M281.9,306.9
						c-0.2,0.2-0.4,0.5-0.5,0.8c-0.1-0.3-0.3-0.5-0.5-0.7c-0.2-0.1-0.3-0.2-0.5-0.2c0.1-0.1,0.2-0.3,0.2-0.5c0.1-0.3,0.1-0.6,0-0.9
						c0.3,0.2,0.5,0.3,0.8,0.3c0.3,0,0.6-0.1,0.9-0.3c-0.1,0.3-0.1,0.7,0,1c0,0.1,0.1,0.3,0.2,0.4
						C282.3,306.7,282.1,306.8,281.9,306.9z"/>
				</g>
			</g>
			<g>
				<g>
					<g>
						<path class="st3" d="M353.8,311.2h-63.4c-0.1,0.2-0.3,0.5-0.4,0.7h64.3C354.1,311.7,353.9,311.4,353.8,311.2z"/>
						<path class="st3" d="M272.5,311.2h-6.9l0.1,0.1c0.6,0.4,1.3,0.6,2.1,0.6h5.1C272.8,311.7,272.7,311.4,272.5,311.2z"/>
						<path class="st3" d="M380.9,309.1c-3,2-9,2.1-9.1,2.1h-0.2c-0.1,0.2-0.3,0.5-0.4,0.7h0.6c0.2,0,4,0.2,7.3-1.1
							C379.9,310.5,380.5,309.9,380.9,309.1L380.9,309.1z"/>
					</g>
				</g>
			</g>
		</g>
	</g>
	<g>
		<g>
			<g>
				
					<linearGradient id="SVGID_28_" gradientUnits="userSpaceOnUse" x1="399.499" y1="188.0048" x2="399.499" y2="184.4352" gradientTransform="matrix(1 0 0 -1 0 512)">
					<stop  offset="0" style="stop-color:#000000;stop-opacity:0"/>
					<stop  offset="1" style="stop-color:#000000"/>
				</linearGradient>
				<path class="st31" d="M401.2,322.5h-11.5v5.3h19.6C404.6,327.1,401.2,322.5,401.2,322.5z"/>
				
					<linearGradient id="SVGID_29_" gradientUnits="userSpaceOnUse" x1="502.182" y1="188.0048" x2="502.182" y2="184.4352" gradientTransform="matrix(1 0 0 -1 0 512)">
					<stop  offset="0" style="stop-color:#000000;stop-opacity:0"/>
					<stop  offset="1" style="stop-color:#000000"/>
				</linearGradient>
				<path class="st32" d="M499.9,322.5H512v5.3h-19.6C496.4,327,499.9,322.5,499.9,322.5z"/>
				
					<linearGradient id="SVGID_30_" gradientUnits="userSpaceOnUse" x1="450.6434" y1="188.0048" x2="450.6434" y2="184.4352" gradientTransform="matrix(1 0 0 -1 0 512)">
					<stop  offset="0" style="stop-color:#000000;stop-opacity:0"/>
					<stop  offset="1" style="stop-color:#000000"/>
				</linearGradient>
				<path class="st33" d="M482.4,322.5h-6.5h-0.4h-56.8c0,0-2.2,3.9-7.6,5.3H471h9.4h9.7C485.3,327.1,482.4,322.5,482.4,322.5z"/>
			</g>
			<g>
				<path class="st3" d="M491.2,327.9c-5.4,0-9.9-4.4-9.9-9.9c0-5.4,4.4-9.9,9.9-9.9c5.4,0,9.9,4.4,9.9,9.9
					C501.1,323.4,496.7,327.9,491.2,327.9z M491.2,308.8c-5.1,0-9.2,4.1-9.2,9.2s4.1,9.2,9.2,9.2s9.2-4.1,9.2-9.2
					S496.3,308.8,491.2,308.8z"/>
				<g>
					<path class="st3" d="M498.7,312.9c-0.1-0.1-0.2-0.3-0.3-0.4c-2.3,0.8-4.1,1.8-5.3,2.9c0.7-1.4,1.1-3.5,1.1-5.9
						c-0.2,0-0.3-0.1-0.5-0.2c0,4.4-1.4,7.4-2.6,7.4s-2.6-3-2.6-7.4c-0.2,0-0.3,0.1-0.5,0.2c0,2.4,0.4,4.4,1.1,5.8
						c-0.1-0.1-0.3-0.2-0.4-0.4c-1.2-0.9-2.9-1.8-4.8-2.4c-0.1,0.1-0.2,0.3-0.3,0.4c1.9,0.6,3.6,1.5,4.8,2.4
						c1.1,0.9,1.6,1.7,1.5,2.3c-0.1,0.2-0.3,0.4-0.5,0.6c-0.3,0-0.7,0.2-1.1,0.4c-0.3,0-0.6,0.1-1,0.1c-1.5,0-3.3-0.2-5.2-0.8
						c0,0,0,0,0,0.1c0,0.1,0,0.3,0,0.4c1.7,0.5,3.4,0.8,4.8,0.8c0.1,0,0.2,0,0.4,0c-1.2,0.8-2.5,2.1-3.7,3.7
						c0.1,0.1,0.2,0.3,0.3,0.4c1.2-1.6,2.5-3,3.8-3.8c0.3-0.2,0.5-0.3,0.8-0.5c0.4-0.1,0.8-0.2,1.1-0.4c0.1,0,0.2,0,0.2,0
						c0.2,0,0.5,0,0.6,0.2c0.5,0.4,0.6,1.4,0.2,2.7c-0.4,1.5-1.3,3.2-2.5,4.8c0.2,0,0.3,0.1,0.5,0.2c1.2-1.6,2.1-3.4,2.5-4.8
						c0-0.2,0.1-0.4,0.1-0.6c0.3,1.5,1.2,3.5,2.7,5.4c0.2,0,0.3-0.1,0.5-0.2c0,0,0,0,0,0c-2.6-3.6-3.3-6.9-2.3-7.6
						c0.2-0.1,0.5-0.2,0.8-0.2c0.3,0.2,0.7,0.3,1.2,0.4c1.3,0.7,2.9,2.1,4.5,4.3c0.1-0.1,0.2-0.3,0.3-0.4c-1.2-1.6-2.5-2.9-3.7-3.8
						c0.1,0,0.2,0,0.4,0c1.4,0,3.1-0.3,4.8-0.8c0-0.1,0-0.3,0-0.4c0,0,0-0.1,0-0.1c-1.9,0.6-3.7,0.9-5.2,0.8c-0.4,0-0.7,0-1-0.1
						c-0.4-0.2-0.8-0.3-1.1-0.4c-0.2-0.1-0.4-0.3-0.5-0.5C492.1,316.5,494.5,314.3,498.7,312.9z M491.7,318.4
						c-0.2,0.2-0.4,0.5-0.5,0.8c-0.1-0.3-0.3-0.5-0.5-0.7c-0.2-0.1-0.3-0.2-0.5-0.2c0.1-0.1,0.2-0.3,0.2-0.5c0.1-0.3,0.1-0.6,0-0.9
						c0.3,0.2,0.5,0.3,0.8,0.3c0.3,0,0.6-0.1,0.9-0.3c-0.1,0.3-0.1,0.7,0,1c0,0.1,0.1,0.3,0.2,0.4
						C492.1,318.3,491.9,318.3,491.7,318.4z"/>
				</g>
			</g>
			<path class="st3" d="M429.3,304.6l-1.5,0.6l1.9-1.5c1.5-1.1,2.8-2.1,4.2-3.2c6.2-4.8,11.5-8.9,20.8-9.9
				c12.7-1.4,25.9,2.7,28.4,3.6l0.4,0.1c5.5,1.8,16.9,5.7,25.2,3.8l-0.1,0.1c-0.9,0.6-1.9,1-2.9,1.1c-9.1,1-17.2-2.6-22.4-4.3
				l-0.4-0.1c-2.5-0.8-15.5-4.9-28.1-3.6c-9.1,1-14.1,4.9-20.4,9.8c-1.1,0.9-2.3,1.8-3.5,2.7C430.4,304.1,429.8,304.4,429.3,304.6z"
				/>
			<g>
				<path class="st3" d="M495.9,300.3c-0.2,0-0.3,0-0.5,0c-12.4,1.3-61.4,5-70.6,5c-10.7,0-24.8,0.3-29.3,2.4
					c-0.7,0.3-1.1,1-1.3,1.7l-0.1,0.6c1-4.6,23.9-4,30.6-4c9.3,0,64.3-3.9,77.9-5.9L495.9,300.3z"/>
			</g>
			<g>
				<path class="st3" d="M482.5,311.2c-7.8,4.3-24.6,6.3-32.7,6.4c-1.4,0-3.5,0.1-6.1,0.1c-6.6,0.1-7.6,0.3-17.5,0.5
					c-0.5,0-1.1,0.1-1.6,0.2c-1,0.2-3.7,0.5-3.7,0.6c10.5-0.2,15.9-0.4,22.8-0.6c2.6,0,4.8-0.1,6.1-0.1c7.6-0.1,15.1-0.3,25.2-3.2
					c0.7-0.2,1.4-0.5,2.1-0.8C478.5,313.7,482,311.8,482.5,311.2z"/>
			</g>
			<path class="st3" d="M396.3,318.2c-1.1,0.1-2.1,0.6-2.1,0.8c0.5,0,3,0,3.7-0.1c1.1-0.1,1.6-0.5,1.6-0.7
				C399,318.2,397,318.1,396.3,318.2z"/>
			<g>
				<path class="st3" d="M410,327.9c-5.4,0-9.9-4.4-9.9-9.9c0-5.4,4.4-9.9,9.9-9.9c5.4,0,9.9,4.4,9.9,9.9
					C419.8,323.4,415.4,327.9,410,327.9z M410,308.8c-5.1,0-9.2,4.1-9.2,9.2s4.1,9.2,9.2,9.2s9.2-4.1,9.2-9.2S415,308.8,410,308.8z"
					/>
				<g>
					<path class="st3" d="M417.5,312.9c-0.1-0.1-0.2-0.3-0.3-0.4c-2.3,0.8-4.1,1.8-5.3,2.9c0.7-1.4,1.1-3.5,1.1-5.9
						c-0.2,0-0.3-0.1-0.5-0.2c0,4.4-1.4,7.4-2.6,7.4s-2.6-3-2.6-7.4c-0.2,0-0.3,0.1-0.5,0.2c0,2.4,0.4,4.4,1.1,5.8
						c-0.1-0.1-0.3-0.2-0.4-0.4c-1.2-0.9-2.9-1.8-4.8-2.4c-0.1,0.1-0.2,0.3-0.3,0.4c1.9,0.6,3.6,1.5,4.8,2.4
						c1.1,0.9,1.6,1.7,1.5,2.3c-0.1,0.2-0.3,0.4-0.5,0.6c-0.3,0-0.7,0.2-1.1,0.4c-0.3,0-0.6,0.1-1,0.1c-1.5,0-3.3-0.2-5.2-0.8
						c0,0,0,0,0,0.1c0,0.1,0,0.3,0,0.4c1.7,0.5,3.4,0.8,4.8,0.8c0.1,0,0.2,0,0.4,0c-1.2,0.8-2.5,2.1-3.7,3.7
						c0.1,0.1,0.2,0.3,0.3,0.4c1.2-1.6,2.5-3,3.8-3.8c0.3-0.2,0.5-0.3,0.8-0.5c0.4-0.1,0.8-0.2,1.1-0.4c0.1,0,0.2,0,0.2,0
						c0.2,0,0.5,0,0.6,0.2c0.5,0.4,0.6,1.4,0.2,2.7c-0.4,1.5-1.3,3.2-2.5,4.8c0.2,0,0.3,0.1,0.5,0.2c1.2-1.6,2.1-3.4,2.5-4.8
						c0-0.2,0.1-0.4,0.1-0.6c0.3,1.5,1.2,3.5,2.7,5.4c0.2,0,0.3-0.1,0.5-0.2c0,0,0,0,0,0c-2.6-3.6-3.3-6.9-2.3-7.6
						c0.2-0.1,0.5-0.2,0.8-0.2c0.3,0.2,0.7,0.3,1.2,0.4c1.3,0.7,2.9,2.1,4.5,4.3c0.1-0.1,0.2-0.3,0.3-0.4c-1.2-1.6-2.5-2.9-3.7-3.8
						c0.1,0,0.2,0,0.4,0c1.4,0,3.1-0.3,4.8-0.8c0-0.1,0-0.3,0-0.4c0,0,0-0.1,0-0.1c-1.9,0.6-3.7,0.9-5.2,0.8c-0.4,0-0.7,0-1-0.1
						c-0.4-0.2-0.8-0.3-1.1-0.4c-0.2-0.1-0.4-0.3-0.5-0.5C410.9,316.5,413.3,314.3,417.5,312.9z M410.5,318.4
						c-0.2,0.2-0.4,0.5-0.5,0.8c-0.1-0.3-0.3-0.5-0.5-0.7c-0.2-0.1-0.3-0.2-0.5-0.2c0.1-0.1,0.2-0.3,0.2-0.5c0.1-0.3,0.1-0.6,0-0.9
						c0.3,0.2,0.5,0.3,0.8,0.3c0.3,0,0.6-0.1,0.9-0.3c-0.1,0.3-0.1,0.7,0,1c0,0.1,0.1,0.3,0.2,0.4
						C410.8,318.3,410.6,318.3,410.5,318.4z"/>
				</g>
			</g>
			<g>
				<g>
					<g>
						<path class="st3" d="M482.4,322.7h-63.4c-0.1,0.2-0.3,0.5-0.4,0.7h64.3C482.6,323.2,482.5,323,482.4,322.7z"/>
						<path class="st3" d="M401.1,322.7h-6.9l0.1,0.1c0.6,0.4,1.3,0.6,2.1,0.6h5.1C401.4,323.2,401.2,323,401.1,322.7z"/>
						<path class="st3" d="M509.5,320.6c-3,2-9,2.1-9.1,2.1h-0.2c-0.1,0.2-0.3,0.5-0.4,0.7h0.6c0.2,0,4,0.2,7.3-1.1
							C508.5,322,509.1,321.4,509.5,320.6L509.5,320.6z"/>
					</g>
				</g>
			</g>
		</g>
	</g>
	<g>
		<path class="st7" d="M358.2,278.2c0.1,0.1,0.2,0.3,0.3,0.4c-2.2,0.7-3.9,1.7-5,2.6c0.5,0.2,1,0.3,1.2,0.4l0.4,0.1
			c1.4,0.5,3.1,1,5,1.6c-0.2-4.9-4.2-8.8-9.2-8.8c-3.3,0-6.1,1.7-7.7,4.3c0.4,0.1,0.9,0.2,1.3,0.2c-0.3-0.1-0.7-0.3-1.1-0.4
			c0.1-0.1,0.2-0.3,0.3-0.4c1,0.3,2,0.8,2.8,1.2c0.7,0.1,1.3,0.3,1.9,0.4c-0.4-1.3-0.6-2.9-0.6-4.7c0.2-0.1,0.3-0.1,0.5-0.2
			c0,2,0.3,3.7,0.7,5c1.3,0.3,2.5,0.6,3.4,0.9c0.6-1.3,1.1-3.4,1.1-5.9c0.2,0,0.3,0.1,0.5,0.2c0,2.4-0.4,4.5-1.1,5.9c0,0,0,0,0,0
			C354.1,280,355.9,279,358.2,278.2z"/>
		<path class="st7" d="M432.2,274.5c-5.1,0-9.2,4.1-9.2,9.2c0,5.1,4.1,9.2,9.2,9.2s9.2-4.1,9.2-9.2
			C441.4,278.6,437.3,274.5,432.2,274.5z M441.3,284c-1.7,0.5-3.4,0.8-4.8,0.8c-0.1,0-0.2,0-0.4,0c1.2,0.8,2.5,2.1,3.7,3.8
			c-0.1,0.1-0.2,0.3-0.3,0.4c-1.6-2.1-3.2-3.6-4.5-4.3c-0.5-0.1-0.9-0.2-1.2-0.4c-0.3,0-0.6,0-0.8,0.2c-1,0.7-0.3,4,2.3,7.6
			c0,0,0,0,0,0c-0.2,0.1-0.3,0.1-0.5,0.2c-1.4-1.9-2.3-3.9-2.7-5.4c0,0.2-0.1,0.4-0.1,0.6c-0.4,1.5-1.3,3.2-2.5,4.8
			c-0.2,0-0.3-0.1-0.5-0.2c1.2-1.6,2.1-3.4,2.5-4.8c0.4-1.4,0.3-2.4-0.2-2.7c-0.1-0.1-0.4-0.2-0.6-0.2c-0.1,0-0.2,0-0.2,0
			c-0.3,0.2-0.6,0.3-1.1,0.4c-0.2,0.1-0.5,0.3-0.8,0.5c-1.3,0.8-2.6,2.2-3.8,3.8c-0.1-0.1-0.2-0.3-0.3-0.4c1.2-1.6,2.5-2.9,3.7-3.7
			c-0.1,0-0.2,0-0.4,0c-1.4,0-3.1-0.3-4.8-0.8c0-0.1,0-0.3,0-0.4c0,0,0,0,0-0.1c1.9,0.6,3.7,0.9,5.2,0.8c0.4,0,0.7,0,1-0.1
			c0.4-0.2,0.7-0.3,1.1-0.4c0.3-0.2,0.5-0.4,0.5-0.6c0.2-0.6-0.3-1.5-1.5-2.3c-1.2-0.9-2.9-1.8-4.8-2.4c0.1-0.1,0.2-0.3,0.3-0.4
			c1.9,0.6,3.6,1.5,4.8,2.4c0.1,0.1,0.3,0.2,0.4,0.4c-0.6-1.4-1.1-3.5-1.1-5.8c0.2-0.1,0.3-0.1,0.5-0.2c0,4.4,1.4,7.4,2.6,7.4
			s2.6-3,2.6-7.4c0.2,0,0.3,0.1,0.5,0.2c0,2.4-0.4,4.5-1.1,5.9c1.1-1.1,3-2.1,5.3-2.9c0.1,0.1,0.2,0.3,0.3,0.4
			c-4.2,1.4-6.6,3.6-6.2,4.7c0.1,0.2,0.2,0.4,0.5,0.5c0.3,0,0.7,0.2,1.1,0.4c0.3,0,0.6,0.1,1,0.1c1.5,0,3.3-0.2,5.2-0.8
			c0,0,0,0.1,0,0.1C441.3,283.8,441.3,283.9,441.3,284z"/>
		<path class="st7" d="M433.1,282.5c-0.3,0.2-0.6,0.3-0.9,0.3c-0.3,0-0.6-0.1-0.8-0.3c0.1,0.3,0.1,0.6,0,0.9c0,0.2-0.1,0.3-0.2,0.5
			c0.2,0,0.4,0.1,0.5,0.2c0.2,0.2,0.4,0.4,0.5,0.7c0.1-0.3,0.3-0.6,0.5-0.8c0.2-0.1,0.4-0.2,0.6-0.2c-0.1-0.1-0.2-0.3-0.2-0.4
			C433,283.2,433,282.9,433.1,282.5z"/>
		
			<linearGradient id="SVGID_31_" gradientUnits="userSpaceOnUse" x1="443.1838" y1="222.3019" x2="443.1838" y2="218.7322" gradientTransform="matrix(1 0 0 -1 0 512)">
			<stop  offset="0" style="stop-color:#000000;stop-opacity:0"/>
			<stop  offset="1" style="stop-color:#000000"/>
		</linearGradient>
		<path class="st34" d="M453,288.2h-4.7c-3.2,1.1-6.7,1-6.9,1h-0.6c0.1-0.2,0.3-0.5,0.4-0.7h0.2c0,0,1.4,0,3.2-0.3H441
			c-1.5,2.9-4.3,4.9-7.6,5.3c0,0,0,0,0,0h8.7c3.1-1.8,6.6-3.1,11-3.8V288.2z"/>
		
			<linearGradient id="SVGID_32_" gradientUnits="userSpaceOnUse" x1="406.4761" y1="222.3019" x2="406.4761" y2="218.7322" gradientTransform="matrix(1 0 0 -1 0 512)">
			<stop  offset="0" style="stop-color:#000000;stop-opacity:0"/>
			<stop  offset="1" style="stop-color:#000000"/>
		</linearGradient>
		<path class="st35" d="M423.4,288.2C423.4,288.2,423.4,288.2,423.4,288.2l-6.5,0h-0.4H382c0,0.1,0,0.2-0.1,0.3h41.4
			c0.1,0.2,0.3,0.5,0.4,0.7h-41.9v4.3H412h9.4h9.7C427.8,293.1,424.9,291.1,423.4,288.2z"/>
		<path class="st3" d="M440.9,288.2L440.9,288.2c0.8-1.4,1.2-2.9,1.2-4.5c0-5.4-4.4-9.9-9.9-9.9c-5.4,0-9.9,4.4-9.9,9.9
			c0,1.6,0.4,3.2,1.1,4.5c0.2,0.3,3,4.7,7.7,5.3h-0.1c0.4,0,0.8,0.1,1.1,0.1c0.4,0,0.8,0,1.2-0.1
			C437.4,292.7,440.9,288.2,440.9,288.2z M432.2,292.8c-5.1,0-9.2-4.1-9.2-9.2c0-5.1,4.1-9.2,9.2-9.2c5,0,9.2,4.1,9.2,9.2
			C441.4,288.7,437.3,292.8,432.2,292.8z"/>
		<path class="st3" d="M441,288.2L441,288.2c-0.1,0-3.6,4.5-7.6,5.3C436.7,293.1,439.5,291,441,288.2z"/>
		<path class="st3" d="M423.4,288.2c1.5,2.8,4.3,4.9,7.6,5.3h0.1C426.5,292.9,423.7,288.6,423.4,288.2z"/>
		<path class="st3" d="M436.1,284.4c-0.4,0-0.7,0-1-0.1c-0.4-0.2-0.8-0.3-1.1-0.4c-0.2-0.1-0.4-0.3-0.5-0.5c-0.4-1.1,2-3.3,6.2-4.7
			c-0.1-0.1-0.2-0.3-0.3-0.4c-2.3,0.8-4.1,1.8-5.3,2.9c0.7-1.4,1.1-3.5,1.1-5.9c-0.2,0-0.3-0.1-0.5-0.2c0,4.4-1.4,7.4-2.6,7.4
			s-2.6-3-2.6-7.4c-0.2,0-0.3,0.1-0.5,0.2c0,2.4,0.4,4.4,1.1,5.8c-0.1-0.1-0.3-0.2-0.4-0.4c-1.2-0.9-2.9-1.8-4.8-2.4
			c-0.1,0.1-0.2,0.3-0.3,0.4c1.9,0.6,3.6,1.5,4.8,2.4c1.1,0.9,1.6,1.7,1.5,2.3c-0.1,0.2-0.3,0.4-0.5,0.6c-0.3,0-0.7,0.2-1.1,0.4
			c-0.3,0-0.6,0.1-1,0.1c-1.5,0-3.3-0.2-5.2-0.8c0,0,0,0,0,0.1c0,0.1,0,0.3,0,0.4c1.7,0.5,3.4,0.8,4.8,0.8c0.1,0,0.2,0,0.4,0
			c-1.2,0.8-2.5,2.1-3.7,3.7c0.1,0.1,0.2,0.3,0.3,0.4c1.2-1.6,2.5-3,3.8-3.8c0.3-0.2,0.5-0.3,0.8-0.5c0.4-0.1,0.8-0.2,1.1-0.4
			c0.1,0,0.2,0,0.2,0c0.2,0,0.5,0,0.6,0.2c0.5,0.4,0.6,1.4,0.2,2.7c-0.4,1.5-1.3,3.2-2.5,4.8c0.2,0,0.3,0.1,0.5,0.2
			c1.2-1.6,2.1-3.4,2.5-4.8c0-0.2,0.1-0.4,0.1-0.6c0.3,1.5,1.2,3.5,2.7,5.4c0.2,0,0.3-0.1,0.5-0.2c0,0,0,0,0,0
			c-2.6-3.6-3.3-6.9-2.3-7.6c0.2-0.1,0.5-0.2,0.8-0.2c0.3,0.2,0.7,0.3,1.2,0.4c1.3,0.7,2.9,2.1,4.5,4.3c0.1-0.1,0.2-0.3,0.3-0.4
			c-1.2-1.6-2.5-2.9-3.7-3.8c0.1,0,0.2,0,0.4,0c1.4,0,3.1-0.3,4.8-0.8c0-0.1,0-0.3,0-0.4c0,0,0-0.1,0-0.1
			C439.4,284.1,437.6,284.4,436.1,284.4z M432.7,284.2c-0.2,0.2-0.4,0.5-0.5,0.8c-0.1-0.3-0.3-0.5-0.5-0.7c-0.2-0.1-0.3-0.2-0.5-0.2
			c0.1-0.1,0.2-0.3,0.2-0.5c0.1-0.3,0.1-0.6,0-0.9c0.3,0.2,0.5,0.3,0.8,0.3c0.3,0,0.6-0.1,0.9-0.3c-0.1,0.3-0.1,0.7,0,1
			c0,0.1,0.1,0.3,0.2,0.4C433.1,284,432.9,284,432.7,284.2z"/>
		<path class="st3" d="M371.8,269.4c1.2-0.9,2.3-1.8,3.5-2.7c6.3-4.9,11.3-8.8,20.4-9.8c12.6-1.3,25.6,2.7,28.1,3.6l0.4,0.1
			c5.2,1.8,13.3,5.3,22.4,4.3c1.1-0.1,2.1-0.5,2.9-1.1l0.1-0.1v0c-8.3,1.8-19.7-2-25.2-3.8l-0.4-0.1c-2.5-0.8-15.7-4.9-28.4-3.6
			c-9.3,1-14.6,5.1-20.8,9.9c-1.3,1-2.7,2.1-4.2,3.2l-1.9,1.5l1.5-0.6C370.8,270.1,371.4,269.8,371.8,269.4z"/>
		<path class="st3" d="M365.8,271.8c9.3,0,64.3-3.9,77.9-5.9l-6.8,0.2c-0.2,0-0.3,0-0.5,0c-12.4,1.3-61.4,5-70.6,5
			c-10.7,0-24.8,0.3-29.3,2.4c-0.7,0.3-1.1,1-1.3,1.7l-0.1,0.6C336.2,271.2,359.1,271.8,365.8,271.8z"/>
		<path class="st3" d="M390.9,284c7.6-0.1,15.1-0.3,25.2-3.2c0.7-0.2,1.4-0.5,2.1-0.8c1.4-0.6,4.9-2.6,5.4-3.2
			c-7.8,4.3-24.6,6.3-32.7,6.4c-1.4,0-3.5,0.1-6.1,0.1c-6.6,0.1-7.6,0.3-17.5,0.5c-0.5,0-1.1,0.1-1.6,0.2c-0.4,0.1-1.2,0.2-1.9,0.3
			c0.4,0.1,0.8,0.2,1.3,0.3c8.5-0.2,13.5-0.4,19.7-0.5C387.4,284.1,389.5,284.1,390.9,284z"/>
		<path class="st3" d="M351,274.5c4.9,0,9,3.9,9.2,8.8c0.2,0.1,0.5,0.1,0.7,0.2c-0.1-5.4-4.5-9.8-9.9-9.8c-3.6,0-6.8,2-8.5,4.9
			c0.3,0,0.5,0.1,0.8,0.1C344.8,276.2,347.7,274.5,351,274.5z"/>
		<path class="st3" d="M353.6,275c0,2.5-0.5,4.6-1.1,5.9c0.2,0,0.3,0.1,0.5,0.1c0.7-1.4,1.1-3.5,1.1-5.9
			C353.9,275.1,353.7,275.1,353.6,275z"/>
		<path class="st3" d="M347.9,275.2c0,1.8,0.3,3.4,0.6,4.7c0.2,0,0.4,0.1,0.6,0.1c-0.4-1.3-0.7-3-0.7-5
			C348.2,275.1,348,275.1,347.9,275.2z"/>
		<path class="st3" d="M343.5,278.6c0.4,0.1,0.7,0.3,1.1,0.4c0.7,0.1,1.4,0.3,2,0.4c-0.9-0.4-1.8-0.9-2.8-1.2
			C343.7,278.4,343.6,278.5,343.5,278.6z"/>
		<path class="st3" d="M358.2,278.2c-2.2,0.8-4.1,1.8-5.2,2.8c0.2,0.1,0.4,0.1,0.5,0.2c1.1-0.9,2.8-1.9,5-2.6
			C358.4,278.5,358.3,278.4,358.2,278.2z"/>
		<path class="st3" d="M423.4,288.5h-41.4c0,0.2-0.1,0.4-0.1,0.6v0.1h41.9C423.6,288.9,423.5,288.7,423.4,288.5z"/>
		<path class="st3" d="M448.7,288.1c0.8-0.3,1.5-1,1.8-1.7c-1.6,1.1-4,1.6-5.9,1.9h3.8C448.4,288.1,448.5,288.1,448.7,288.1z"/>
		<path class="st3" d="M441.2,288.5c-0.1,0.2-0.3,0.5-0.4,0.7h0.6c0.2,0,3.7,0.2,6.9-1h-3.8c-1.8,0.2-3.2,0.3-3.2,0.3H441.2z"/>
		<polygon class="st10" points="449.6,263.8 449.6,263.8 449.6,263.8 		"/>
		<path d="M353,281.1C353,281.1,353,281.1,353,281.1C352.9,281.1,352.9,281.1,353,281.1C352.9,281.1,353,281.1,353,281.1z"/>
	</g>
	<path class="st11" d="M386.6,345.3c-17.3,0-32.6,4.1-40.4,6.5c0,10.3,5,59.6,40.4,74c35.4-14.4,40.4-63.7,40.4-74
		C419.2,349.4,403.9,345.3,386.6,345.3z"/>
</g>
</svg>
