<?xml version="1.0" encoding="utf-8"?>
<!-- Generator: Adobe Illustrator 23.0.5, SVG Export Plug-In . SVG Version: 6.00 Build 0)  -->
<svg version="1.1" id="Layer_1" xmlns="http://www.w3.org/2000/svg" xmlns:xlink="http://www.w3.org/1999/xlink" x="0px" y="0px"
	 viewBox="0 0 512 512" style="enable-background:new 0 0 512 512;" xml:space="preserve">
<style type="text/css">
	.st0{fill:#FF2020;}
</style>
<g>
	<path class="st0" d="M359.6,333.3l-0.1-0.7v-0.7c0-1.6-0.1-3-0.1-4.6l-0.1-1.7l0.7-1.6c5.4-11.7,16.3-21.5,26.8-31
		c3.4-3.1,6.7-6,9.6-8.8c-7-21.4-30.2-60.8-42.9-72.9c-0.1,0.1-0.3,0.1-0.4,0.2c0,0,0,0,0,0c-1.4,0.6-3.1,1.1-4.9,1.7
		c-13.5,4.4-36.1,9.4-53.9,5.2l-1-0.3l-2-1.1l-0.7-0.6c-5.3-5.1-9.7-11.8-13.3-18.9c-3.2-8.3-5.1-17.4-7-25.9
		c-1-4.6-1.9-8.8-2.9-12.7c-22-4.7-67.6-4.1-84.6,0.9c-2,13.1-9.4,40.9-24.5,56.1l-0.7,0.7l-1.6,0.9c-0.3,0.1-0.6,0.3-0.9,0.4
		l-0.7,0.4l-0.7,0.3c-14.8,4.8-32.8-1-48.5-6c-4.4-1.4-8.6-2.9-12.4-3.9c-10,11.1-23.3,32.2-32.2,50.4c-4.6,9.1-8,17.5-9.4,23.3
		c11,8.8,32.7,30.5,36.9,52.1l0.1,0.7v0.7c0,1.6,0.1,3,0.1,4.6l0.1,1.7l-0.7,1.6c-5.4,11.7-16.3,21.5-26.8,31
		c-3.4,3.1-6.7,6-9.6,8.8c7,21.4,30.2,60.8,42.9,72.9c0.1-0.1,0.3-0.1,0.4-0.2c0,0,0,0,0,0c1.4-0.6,3.1-1.1,4.9-1.7
		c13.5-4.4,36.1-9.4,53.9-5.2l1,0.3l2,1.1l0.7,0.6c5.3,5.1,9.7,11.8,13.3,18.9c3.2,8.3,5.1,17.4,7,25.9c1,4.6,1.9,8.8,2.9,12.7
		c22,4.7,67.6,4.1,84.6-0.9c2-13.1,9.4-40.9,24.5-56.1l0.7-0.7l1.6-0.9c0.3-0.1,0.6-0.3,0.9-0.4l0.7-0.4l0.7-0.3
		c14.8-4.8,32.8,1,48.5,6c4.4,1.4,8.6,2.9,12.4,3.9c10-11.1,23.3-32.2,32.2-50.4c4.6-9.1,8-17.5,9.4-23.3
		C385.6,376.5,363.9,354.9,359.6,333.3z M223.8,412.4c-43.4,0-78.5-35.2-78.5-78.5s35.2-78.5,78.5-78.5c43.4,0,78.5,35.2,78.5,78.5
		S267.2,412.4,223.8,412.4z"/>
	<path class="st0" d="M458.3,91.8l-0.2-0.4l-0.1-0.4c-0.3-1-0.7-1.9-1-2.8l-0.4-1l0.2-1.1c1.2-8.4,6.1-16.6,11-24.5
		c1.6-2.6,3.1-5,4.3-7.4c-8.4-12.1-30.5-32.4-40.7-37.6c-0.1,0.1-0.2,0.1-0.2,0.2c0,0,0,0,0,0c-0.8,0.6-1.7,1.3-2.7,2
		c-7.6,5.3-20.9,12.7-32.8,13.5l-0.7,0l-1.5-0.3l-0.6-0.2c-4.3-2.2-8.3-5.6-11.9-9.3c-3.5-4.6-6.5-9.9-9.3-14.9
		c-1.5-2.7-2.8-5.2-4.2-7.4c-14.7,1.2-43.2,10.2-52.9,16.5c1.2,8.6,1.8,27.4-4.8,39.8l-0.3,0.6l-0.8,0.8c-0.2,0.1-0.3,0.3-0.5,0.4
		l-0.4,0.4l-0.4,0.3c-8.4,5.8-20.8,5.6-31.5,5.4c-3-0.1-5.9-0.2-8.5-0.1c-4.2,8.9-8.5,24.6-10.7,37.7c-1.1,6.6-1.7,12.5-1.5,16.4
		c8.6,3.5,26.3,13,33,25.6l0.2,0.4l0.1,0.4c0.3,1,0.7,1.9,1,2.8l0.4,1l-0.2,1.1c-1.2,8.4-6.1,16.6-11,24.5c-1.6,2.6-3.1,5-4.3,7.4
		c8.4,12.1,30.5,32.4,40.7,37.6c0.1-0.1,0.2-0.1,0.2-0.2c0,0,0,0,0,0c0.8-0.6,1.7-1.3,2.7-2c7.6-5.3,20.9-12.7,32.8-13.5l0.7,0
		l1.5,0.3l0.6,0.2c4.3,2.2,8.3,5.6,11.9,9.3c3.5,4.6,6.5,9.9,9.3,14.9c1.5,2.7,2.8,5.2,4.2,7.4c14.7-1.2,43.2-10.2,52.9-16.5
		c-1.2-8.6-1.8-27.4,4.8-39.8l0.3-0.6l0.8-0.8c0.2-0.1,0.3-0.3,0.5-0.4l0.4-0.4l0.4-0.3c8.4-5.8,20.8-5.6,31.5-5.4
		c3,0.1,5.9,0.2,8.5,0.1c4.2-8.9,8.5-24.6,10.7-37.7c1.1-6.6,1.7-12.5,1.5-16.4C482.8,114,465.1,104.5,458.3,91.8z M388.1,167.1
		c-27.2,8.2-55.9-7.2-64.1-34.4s7.2-55.9,34.4-64.1c27.2-8.2,55.9,7.2,64.1,34.4C430.7,130.2,415.3,158.9,388.1,167.1z"/>
</g>
</svg>
