<?xml version="1.0" encoding="utf-8"?>
<!-- Generator: Adobe Illustrator 23.0.5, SVG Export Plug-In . SVG Version: 6.00 Build 0)  -->
<svg version="1.1" id="Layer_1" xmlns="http://www.w3.org/2000/svg" xmlns:xlink="http://www.w3.org/1999/xlink" x="0px" y="0px"
	 viewBox="0 0 512 512" style="enable-background:new 0 0 512 512;" xml:space="preserve">
<style type="text/css">
	.st0{fill:#FF2020;}
	.st1{fill:none;stroke:#FF2020;stroke-width:6;stroke-miterlimit:10;}
</style>
<g>
	<path class="st0" d="M128,512c-22.2,0-40.2-18-40.2-40.2s18-40.2,40.2-40.2s40.2,18,40.2,40.2S150.2,512,128,512z M128,438.6
		c-18.3,0-33.2,14.9-33.2,33.2c0,18.3,14.9,33.2,33.2,33.2s33.2-14.9,33.2-33.2C161.2,453.5,146.3,438.6,128,438.6z"/>
	<path class="st0" d="M128,80.4c-22.2,0-40.2-18-40.2-40.2S105.8,0,128,0s40.2,18,40.2,40.2S150.2,80.4,128,80.4z M128,7
		c-18.3,0-33.2,14.9-33.2,33.2c0,18.3,14.9,33.2,33.2,33.2s33.2-14.9,33.2-33.2C161.2,21.9,146.3,7,128,7z"/>
	<path class="st0" d="M384,80.4c-22.2,0-40.2-18-40.2-40.2S361.8,0,384,0s40.2,18,40.2,40.2S406.2,80.4,384,80.4z M384,7
		c-18.3,0-33.2,14.9-33.2,33.2c0,18.3,14.9,33.2,33.2,33.2s33.2-14.9,33.2-33.2C417.2,21.9,402.3,7,384,7z"/>
	<path class="st1" d="M384,80.4c0,56.9-256,270.7-256,351.1V80.4"/>
</g>
</svg>
