<?xml version="1.0" encoding="utf-8"?>
<!-- Generator: Adobe Illustrator 23.0.5, SVG Export Plug-In . SVG Version: 6.00 Build 0)  -->
<svg version="1.1" id="Layer_1" xmlns="http://www.w3.org/2000/svg" xmlns:xlink="http://www.w3.org/1999/xlink" x="0px" y="0px"
	 viewBox="0 0 512 512" style="enable-background:new 0 0 512 512;" xml:space="preserve">
<style type="text/css">
	.st0{fill:url(#SVGID_1_);}
	.st1{fill:url(#SVGID_2_);}
	.st2{fill:#FF2020;}
	.st3{fill:url(#SVGID_3_);}
	.st4{fill:url(#SVGID_4_);}
</style>
<g>
	<g>
		<linearGradient id="SVGID_1_" gradientUnits="userSpaceOnUse" x1="41.0333" y1="380.7353" x2="41.0333" y2="395.6786">
			<stop  offset="0" style="stop-color:#000000;stop-opacity:0"/>
			<stop  offset="1" style="stop-color:#000000"/>
		</linearGradient>
		<path class="st0" d="M48.1,374.4H0v22.2h82.1C62.6,393.9,48.1,374.4,48.1,374.4z"/>
		<linearGradient id="SVGID_2_" gradientUnits="userSpaceOnUse" x1="470.8986" y1="380.7353" x2="470.8986" y2="395.6786">
			<stop  offset="0" style="stop-color:#000000;stop-opacity:0"/>
			<stop  offset="1" style="stop-color:#000000"/>
		</linearGradient>
		<path class="st1" d="M461.4,374.4H512v22.2h-82.2C446.7,393.3,461.4,374.4,461.4,374.4z"/>
	</g>
	<g>
		<g>
			<path class="st2" d="M87.5,297.8c6.7,18.5,21.3,58.8,35.9,99.1H134h51.8h11c-23.6-50.9-50.5-109-57.1-123c-1-2.2-2-4.3-2.9-6.3
				c-8.6-19.4-11.1-31.8-7-52.5c4.5-22.9,11.4-47-3.9-69.2s-33.5-34.1-72-29.9c-4.3,0.7-5.7,5.3,0.3,10.7s24,21.8,28.2,26.7
				s8.6,10.9,4,22.5C81.8,187.5,72,198,62.6,201.6s-17.1,5.6-23.6,0.2S8.4,172.7,8.4,172.7c-5.3-5.1-8.4,0.7-8.3,5.1
				c0.1,4.4-3.5,48,33.1,73.6c36.6,25.6,43.9,18.2,51.3,38.3C85.2,291.4,86.2,294.2,87.5,297.8z"/>
		</g>
	</g>
	<g>
		<linearGradient id="SVGID_3_" gradientUnits="userSpaceOnUse" x1="306.2144" y1="380.7353" x2="306.2144" y2="395.6786">
			<stop  offset="0" style="stop-color:#000000;stop-opacity:0"/>
			<stop  offset="1" style="stop-color:#000000"/>
		</linearGradient>
		<path class="st3" d="M388.2,374.4h-27.3h-1.7H191.9l10.3,22.2h138.2h39.5h40.8C400.2,393.8,388.2,374.4,388.2,374.4z"/>
		<linearGradient id="SVGID_4_" gradientUnits="userSpaceOnUse" x1="103.8123" y1="387.5744" x2="103.8123" y2="396.0695">
			<stop  offset="0" style="stop-color:#000000;stop-opacity:0"/>
			<stop  offset="1" style="stop-color:#000000"/>
		</linearGradient>
		<path class="st4" d="M113.4,384c-5.2,4.6-12.9,9.8-23.7,12.6h28.2C116.4,392.4,114.9,388.2,113.4,384z"/>
	</g>
	<path class="st2" d="M112.6,381.9c-7,7.4-16.9,11.9-27.8,11.9c-21.2,0-38.4-17.2-38.4-38.4s17.2-38.4,38.4-38.4
		c1.5,0,3,0.1,4.4,0.3c-0.4-1.1-0.8-2.1-1.1-3.1c-1.1-0.1-2.2-0.1-3.3-0.1c-22.8,0-41.4,18.6-41.4,41.4s18.6,41.4,41.4,41.4
		c11.2,0,21.4-4.5,28.9-11.8C113.4,384,113,383,112.6,381.9z"/>
	<path class="st2" d="M88.2,359.1c0.9-0.6,2-0.8,3.4-0.7c1.3,0.7,2.9,1.3,4.9,1.7c3.4,1.8,7.4,4.8,11.5,9.1c-0.5-1.4-1-2.9-1.5-4.3
		c-1.8-1.7-3.6-3.1-5.4-4.4c0.5,0,1,0,1.5,0c0.8,0,1.6,0,2.4-0.1c-0.2-0.7-0.5-1.3-0.7-2c-1.1,0-2.1,0.1-3.1,0
		c-1.5-0.1-2.8-0.2-4-0.4c-1.7-0.8-3.3-1.4-4.7-1.6c-1-0.6-1.7-1.4-2-2.3c-0.9-2.9,2.1-7.1,8.2-11.4c-0.2-0.6-0.5-1.3-0.7-1.9
		c-1.8,1.2-3.4,2.4-4.7,3.7c1.1-2.4,2.1-5.4,2.9-8.7c-0.4-1.2-0.9-2.4-1.3-3.6c-1.9,11.1-5.9,17.9-9.8,17.9
		c-5.2,0-10.8-12.4-10.9-30.9c-0.7,0.2-1.3,0.4-2,0.7c0.1,9.9,1.8,18.6,4.5,24.4c-0.5-0.5-1.1-1-1.7-1.5c-5-3.9-12.1-7.5-20-10.2
		c-0.4,0.6-0.8,1.1-1.2,1.7c7.9,2.6,15,6.2,19.9,10.1c4.7,3.7,6.9,7.3,6.1,9.8c-0.3,1-1.1,1.8-2.2,2.5c-1.3,0.2-2.8,0.7-4.4,1.5
		c-1.2,0.2-2.6,0.4-4.1,0.4c-6.2,0.2-13.9-1-21.8-3.5c0,0.1,0,0.2,0,0.3c0,0.6,0,1.2,0,1.8c7.2,2.2,14.3,3.4,20.2,3.4
		c0.5,0,1,0,1.5,0c-5.2,3.5-10.6,9-15.5,15.6c0.4,0.6,0.8,1.2,1.2,1.7c5-6.8,10.5-12.4,15.8-15.9c1.2-0.8,2.3-1.4,3.3-1.9
		c1.7-0.3,3.2-0.8,4.4-1.5c0.3,0,0.7-0.1,1-0.1c1,0,1.9,0.2,2.5,0.7c2.2,1.6,2.5,5.8,0.9,11.5c-1.7,6.1-5.4,13.3-10.4,20.2
		c0.7,0.2,1.3,0.5,2,0.7c4.9-6.9,8.6-14.1,10.4-20.3c0.2-0.8,0.4-1.6,0.6-2.4c1.4,6.4,5.2,14.6,11.1,22.7c0.7-0.2,1.3-0.4,2-0.7
		c0-0.1-0.1-0.1-0.1-0.2C86.8,375.7,83.9,362.2,88.2,359.1z M84.8,360.7c-0.4-1.3-1.2-2.3-2.1-3c-0.7-0.5-1.4-0.8-2.2-1
		c0.5-0.6,0.8-1.2,1-1.9c0.4-1.2,0.3-2.5-0.1-3.9c1.1,0.8,2.3,1.2,3.5,1.2c1.3,0,2.6-0.5,3.8-1.4c-0.5,1.4-0.6,2.8-0.2,4.1
		c0.2,0.6,0.5,1.2,0.9,1.7c-0.9,0.2-1.6,0.5-2.3,1C86,358.3,85.3,359.4,84.8,360.7z"/>
	<g>
		<path class="st2" d="M425,396.8c-22.8,0-41.4-18.6-41.4-41.4s18.6-41.4,41.4-41.4s41.4,18.6,41.4,41.4S447.8,396.8,425,396.8z
			 M425,317.1c-21.2,0-38.4,17.2-38.4,38.4s17.2,38.4,38.4,38.4s38.4-17.2,38.4-38.4S446.1,317.1,425,317.1z"/>
		<g>
			<path class="st2" d="M456.5,334.3c-0.4-0.6-0.8-1.1-1.2-1.7c-9.5,3.2-17.3,7.6-22,12c2.8-5.9,4.5-14.7,4.6-24.8
				c-0.7-0.2-1.3-0.5-2-0.7c-0.1,18.5-5.7,31-10.9,31c-5.2,0-10.8-12.4-10.9-30.9c-0.7,0.2-1.3,0.4-2,0.7c0.1,9.9,1.8,18.6,4.5,24.4
				c-0.5-0.5-1.1-1-1.7-1.5c-5-3.9-12.1-7.5-20-10.2c-0.4,0.6-0.8,1.1-1.2,1.7c7.9,2.6,15,6.2,19.9,10.1c4.7,3.7,6.9,7.3,6.1,9.8
				c-0.3,1-1.1,1.8-2.2,2.5c-1.3,0.2-2.8,0.7-4.4,1.5c-1.2,0.2-2.6,0.4-4.1,0.4c-6.2,0.2-13.9-1-21.8-3.5c0,0.1,0,0.2,0,0.3
				c0,0.6,0,1.2,0,1.8c7.2,2.2,14.3,3.4,20.2,3.4c0.5,0,1,0,1.5,0c-5.2,3.5-10.6,9-15.5,15.6c0.4,0.6,0.8,1.2,1.2,1.7
				c5-6.8,10.5-12.4,15.8-15.9c1.2-0.8,2.3-1.4,3.3-1.9c1.7-0.3,3.2-0.8,4.4-1.5c0.3,0,0.7-0.1,1-0.1c1,0,1.9,0.2,2.5,0.7
				c2.2,1.6,2.5,5.8,0.9,11.5c-1.7,6.1-5.4,13.3-10.4,20.2c0.7,0.2,1.3,0.5,2,0.7c4.9-6.9,8.6-14.1,10.4-20.3
				c0.2-0.8,0.4-1.6,0.6-2.4c1.4,6.4,5.2,14.6,11.1,22.7c0.7-0.2,1.3-0.4,2-0.7c0-0.1-0.1-0.1-0.1-0.2c-11-15.2-13.9-28.7-9.6-31.8
				c0.9-0.6,2-0.8,3.4-0.7c1.3,0.7,2.9,1.3,4.9,1.7c5.4,2.8,12.3,8.9,18.9,17.9c0.4-0.6,0.8-1.1,1.2-1.7c-5-6.8-10.5-12.2-15.5-15.7
				c0.5,0,1,0,1.5,0c5.9,0,13-1.2,20.2-3.4c0-0.6,0-1.1,0-1.7c0-0.1,0-0.3,0-0.4c-7.9,2.5-15.6,3.7-21.8,3.5c-1.5-0.1-2.8-0.2-4-0.4
				c-1.7-0.8-3.3-1.4-4.7-1.6c-1-0.6-1.7-1.4-2-2.3C428.9,349.3,438.9,340.1,456.5,334.3z M427.1,357.5c-1,0.8-1.8,1.9-2.2,3.2
				c-0.4-1.3-1.2-2.3-2.1-3c-0.7-0.5-1.4-0.8-2.2-1c0.5-0.6,0.8-1.2,1-1.9c0.4-1.2,0.3-2.5-0.1-3.9c1.1,0.8,2.3,1.2,3.5,1.2
				c1.3,0,2.6-0.5,3.8-1.4c-0.5,1.4-0.6,2.8-0.2,4.1c0.2,0.6,0.5,1.2,0.9,1.7C428.6,356.7,427.8,357,427.1,357.5z"/>
		</g>
	</g>
	<path class="st2" d="M165.8,299.3l-6.4,2.5l8-6.2c6.2-4.5,11.9-9,17.4-13.3c25.8-20.1,48.1-37.4,87-41.6
		c53.2-5.7,108.3,11.5,118.8,15l1.5,0.5c23,7.7,70.9,23.7,105.5,16l-0.5,0.3c-3.6,2.6-7.8,4.2-12.2,4.7
		c-38.2,4.1-71.9-10.8-93.8-18.2l-1.5-0.5c-10.4-3.5-65-20.5-117.6-14.9c-38.1,4.1-59,20.4-85.5,41c-4.7,3.6-9.5,7.4-14.5,11.2
		C170.2,297.3,168,298.4,165.8,299.3z"/>
	<path class="st2" d="M27.6,356.4c-4.4,0.3-8.7,2.5-8.7,3.3c2.2,0,12.5-0.1,15.4-0.3c4.4-0.3,6.7-2.3,6.8-3.1
		C38.8,356.3,30.4,356.2,27.6,356.4z"/>
	<g>
		<g>
			<g>
				<path class="st2" d="M47.8,375.5H18.9l0.6,0.4c2.6,1.7,5.6,2.6,8.7,2.6h21.4C48.9,377.5,48.3,376.5,47.8,375.5z"/>
				<path class="st2" d="M501.4,366.6c-12.4,8.5-37.8,8.9-38.1,8.9h-0.8c-0.6,1-1.2,2-1.8,3h2.7c1,0,16.7,0.7,30.4-4.6
					C497.2,372.5,499.9,369.9,501.4,366.6L501.4,366.6z"/>
			</g>
		</g>
	</g>
	<path class="st2" d="M193.8,378.5h195.9c-0.6-1-1.2-2-1.8-3H192.4L193.8,378.5z"/>
	<path class="st2" d="M251.9,354c-5.7,0.1-14.6,0.3-25.6,0.5c-18.9,0.4-26.9,0.8-43,1.3c0.4,0.9,0.9,1.9,1.3,2.8
		c14.6-0.4,27.4-0.8,41.8-1.1c11-0.2,19.9-0.4,25.6-0.5c32-0.6,63.2-1.4,105.3-13.4c3.1-0.9,6-2,8.9-3.3
		c5.7-2.6,20.5-10.8,22.6-13.4C356.2,345.1,285.8,353.3,251.9,354z"/>
	<g>
		<path class="st2" d="M158.8,305.1c48.9-1,259.2-15.9,314.2-24.2l-28.6,0.8c-0.7,0-1.3,0.1-2,0.1c-50.7,5.5-240.2,19.6-285,20.3
			C157.9,303,158.3,304,158.8,305.1z"/>
		<path class="st2" d="M84.8,303.7c-23.2,1.4-50.6,4.4-60.2,8.9c-2.9,1.3-4.8,4.1-5.3,7.2l-0.4,2.6c2.3-10,37.3-14.7,67-16.4
			C85.5,305.3,85.2,304.5,84.8,303.7z"/>
	</g>
</g>
</svg>
