<?xml version="1.0" encoding="utf-8"?>
<!-- Generator: Adobe Illustrator 23.0.5, SVG Export Plug-In . SVG Version: 6.00 Build 0)  -->
<svg version="1.1" id="Layer_1" xmlns="http://www.w3.org/2000/svg" xmlns:xlink="http://www.w3.org/1999/xlink" x="0px" y="0px"
	 viewBox="0 0 512 512" style="enable-background:new 0 0 512 512;" xml:space="preserve">
<style type="text/css">
	.st0{fill:url(#SVGID_1_);}
	.st1{fill:url(#SVGID_2_);}
	.st2{fill:url(#SVGID_3_);}
	.st3{fill:#FF2020;}
	.st4{fill:url(#SVGID_4_);}
	.st5{fill:url(#SVGID_5_);}
	.st6{fill:url(#SVGID_6_);}
	.st7{fill:none;}
	.st8{fill:url(#SVGID_7_);}
	.st9{fill:url(#SVGID_8_);}
	.st10{fill:#FFFF20;}
	.st11{fill:none;stroke:#FF2020;stroke-width:7;stroke-miterlimit:10;}
</style>
<g>
	<g>
		<g>
			
				<linearGradient id="SVGID_1_" gradientUnits="userSpaceOnUse" x1="20.0124" y1="327.2303" x2="20.0124" y2="319.9452" gradientTransform="matrix(1 0 0 -1 0 512)">
				<stop  offset="0" style="stop-color:#000000;stop-opacity:0"/>
				<stop  offset="1" style="stop-color:#000000"/>
			</linearGradient>
			<path class="st0" d="M23.4,181.7H0v10.8h40C30.5,191.2,23.4,181.7,23.4,181.7z"/>
			
				<linearGradient id="SVGID_2_" gradientUnits="userSpaceOnUse" x1="229.5695" y1="327.2303" x2="229.5695" y2="319.9452" gradientTransform="matrix(1 0 0 -1 0 512)">
				<stop  offset="0" style="stop-color:#000000;stop-opacity:0"/>
				<stop  offset="1" style="stop-color:#000000"/>
			</linearGradient>
			<path class="st1" d="M224.9,181.7h24.7v10.8h-40.1C217.8,191,224.9,181.7,224.9,181.7z"/>
			
				<linearGradient id="SVGID_3_" gradientUnits="userSpaceOnUse" x1="124.3887" y1="327.2303" x2="124.3887" y2="319.9452" gradientTransform="matrix(1 0 0 -1 0 512)">
				<stop  offset="0" style="stop-color:#000000;stop-opacity:0"/>
				<stop  offset="1" style="stop-color:#000000"/>
			</linearGradient>
			<path class="st2" d="M189.3,181.7h-13.3h-0.8H59.3c0,0-4.5,7.9-15.6,10.8h122.2h19.3H205C195.1,191.2,189.3,181.7,189.3,181.7z"
				/>
		</g>
		<g>
			<path class="st3" d="M207.2,192.7c-11.1,0-20.2-9.1-20.2-20.2c0-11.1,9.1-20.2,20.2-20.2c11.1,0,20.2,9.1,20.2,20.2
				C227.4,183.6,218.3,192.7,207.2,192.7z M207.2,153.8c-10.3,0-18.7,8.4-18.7,18.7c0,10.3,8.4,18.7,18.7,18.7s18.7-8.4,18.7-18.7
				C225.9,162.1,217.5,153.8,207.2,153.8z"/>
			<g>
				<path class="st3" d="M222.5,162.1c-0.2-0.3-0.4-0.5-0.6-0.8c-4.6,1.6-8.4,3.7-10.7,5.9c1.4-2.9,2.2-7.2,2.2-12.1
					c-0.3-0.1-0.6-0.2-1-0.3c0,9-2.8,15.1-5.3,15.1c-2.5,0-5.3-6-5.3-15.1c-0.3,0.1-0.6,0.2-1,0.3c0,4.8,0.9,9.1,2.2,11.9
					c-0.2-0.2-0.5-0.5-0.8-0.7c-2.4-1.9-5.9-3.7-9.8-5c-0.2,0.3-0.4,0.5-0.6,0.8c3.9,1.3,7.3,3,9.7,4.9c2.3,1.8,3.4,3.6,3,4.8
					c-0.1,0.5-0.5,0.9-1.1,1.2c-0.6,0.1-1.4,0.3-2.1,0.7c-0.6,0.1-1.3,0.2-2,0.2c-3,0.1-6.8-0.5-10.6-1.7c0,0,0,0.1,0,0.1
					c0,0.3,0,0.6,0,0.9c3.5,1.1,7,1.7,9.8,1.7c0.2,0,0.5,0,0.7,0c-2.5,1.7-5.2,4.4-7.6,7.6c0.2,0.3,0.4,0.6,0.6,0.8
					c2.4-3.3,5.1-6,7.7-7.8c0.6-0.4,1.1-0.7,1.6-0.9c0.8-0.1,1.6-0.4,2.1-0.7c0.1,0,0.3,0,0.5,0c0.5,0,0.9,0.1,1.2,0.3
					c1.1,0.8,1.2,2.8,0.4,5.6c-0.8,3-2.6,6.5-5.1,9.8c0.3,0.1,0.6,0.2,1,0.3c2.4-3.4,4.2-6.9,5.1-9.9c0.1-0.4,0.2-0.8,0.3-1.2
					c0.7,3.1,2.5,7.1,5.4,11.1c0.3-0.1,0.6-0.2,1-0.3c0,0,0,0,0-0.1c-5.4-7.4-6.8-14-4.7-15.5c0.4-0.3,1-0.4,1.7-0.3
					c0.6,0.3,1.4,0.6,2.4,0.8c2.6,1.4,6,4.3,9.2,8.7c0.2-0.3,0.4-0.5,0.6-0.8c-2.4-3.3-5.1-5.9-7.6-7.7c0.2,0,0.5,0,0.7,0
					c2.9,0,6.3-0.6,9.8-1.7c0-0.3,0-0.5,0-0.8c0,0,0-0.1,0-0.2c-3.9,1.2-7.6,1.8-10.6,1.7c-0.7,0-1.4-0.1-2-0.2
					c-0.8-0.4-1.6-0.7-2.3-0.8c-0.5-0.3-0.8-0.7-1-1.1C209.1,169.5,214,165,222.5,162.1z M208.2,173.5c-0.5,0.4-0.9,0.9-1.1,1.6
					c-0.2-0.6-0.6-1.1-1-1.5c-0.3-0.2-0.7-0.4-1.1-0.5c0.2-0.3,0.4-0.6,0.5-0.9c0.2-0.6,0.1-1.2,0-1.9c0.5,0.4,1.1,0.6,1.7,0.6
					c0.6,0,1.3-0.2,1.9-0.7c-0.2,0.7-0.3,1.4-0.1,2c0.1,0.3,0.2,0.6,0.4,0.8C208.9,173.1,208.6,173.2,208.2,173.5z"/>
			</g>
		</g>
		<path class="st3" d="M80.8,145.1l-3.1,1.2l3.9-3c3-2.2,5.8-4.4,8.5-6.5c12.6-9.8,23.4-18.2,42.4-20.3c25.9-2.8,52.8,5.6,57.9,7.3
			l0.7,0.2c11.2,3.8,34.6,11.6,51.4,7.8l-0.2,0.1c-1.8,1.3-3.8,2-5.9,2.3c-18.6,2-35.1-5.3-45.7-8.9l-0.7-0.2
			c-5.1-1.7-31.7-10-57.3-7.3c-18.6,2-28.8,9.9-41.7,20c-2.3,1.8-4.6,3.6-7.1,5.5C83,144.1,81.9,144.7,80.8,145.1z"/>
		<g>
			<path class="st3" d="M216.7,136.5c-0.3,0-0.6,0-1,0c-25.3,2.7-125.2,10.2-144,10.2c-21.8,0-50.6,0.6-59.8,4.9
				c-1.4,0.6-2.3,2-2.6,3.5l-0.2,1.3c2.1-9.3,48.8-8.2,62.5-8.2c18.9,0,131.2-7.9,158.9-12.1L216.7,136.5z"/>
		</g>
		<g>
			<path class="st3" d="M189.5,158.6c-15.8,8.8-50.2,12.8-66.7,13.2c-2.8,0-7.1,0.1-12.5,0.2c-13.6,0.3-15.6,0.6-35.7,1
				c-1.1,0-2.2,0.1-3.2,0.3c-2.1,0.4-7.5,0.9-7.6,1.3c21.5-0.4,32.4-0.9,46.5-1.2c5.4-0.1,9.7-0.2,12.5-0.2
				c15.6-0.3,30.8-0.7,51.3-6.5c1.5-0.4,2.9-1,4.3-1.6C181.3,163.8,188.5,159.8,189.5,158.6z"/>
		</g>
		<path class="st3" d="M13.5,172.9c-2.1,0.1-4.2,1.2-4.2,1.6c1.1,0,6.1,0,7.5-0.1c2.1-0.1,3.3-1.1,3.3-1.5
			C18.9,172.9,14.8,172.8,13.5,172.9z"/>
		<g>
			<path class="st3" d="M41.3,192.7c-11.1,0-20.2-9.1-20.2-20.2c0-11.1,9.1-20.2,20.2-20.2s20.2,9.1,20.2,20.2
				C61.5,183.6,52.5,192.7,41.3,192.7z M41.3,153.8c-10.3,0-18.7,8.4-18.7,18.7s8.4,18.7,18.7,18.7s18.7-8.4,18.7-18.7
				S51.7,153.8,41.3,153.8z"/>
			<g>
				<path class="st3" d="M56.7,162.2c-0.2-0.3-0.4-0.5-0.6-0.8c-4.6,1.6-8.4,3.7-10.7,5.9c1.4-2.9,2.2-7.2,2.2-12.1
					c-0.3-0.1-0.6-0.2-1-0.3c0,9-2.8,15.1-5.3,15.1s-5.3-6-5.3-15.1c-0.3,0.1-0.6,0.2-1,0.3c0,4.8,0.9,9.1,2.2,11.9
					c-0.2-0.2-0.5-0.5-0.8-0.7c-2.4-1.9-5.9-3.7-9.8-5c-0.2,0.3-0.4,0.5-0.6,0.8c3.9,1.3,7.3,3,9.7,4.9c2.3,1.8,3.4,3.6,3,4.8
					c-0.1,0.5-0.5,0.9-1.1,1.2c-0.6,0.1-1.4,0.3-2.1,0.7c-0.6,0.1-1.3,0.2-2,0.2c-3,0.1-6.8-0.5-10.6-1.7c0,0,0,0.1,0,0.1
					c0,0.3,0,0.6,0,0.9c3.5,1.1,7,1.7,9.8,1.7c0.2,0,0.5,0,0.7,0c-2.5,1.7-5.2,4.4-7.6,7.6c0.2,0.3,0.4,0.6,0.6,0.8
					c2.4-3.3,5.1-6,7.7-7.8c0.6-0.4,1.1-0.7,1.6-0.9c0.8-0.1,1.6-0.4,2.1-0.7c0.1,0,0.3,0,0.5,0c0.5,0,0.9,0.1,1.2,0.3
					c1.1,0.8,1.2,2.8,0.4,5.6c-0.8,3-2.6,6.5-5.1,9.8c0.3,0.1,0.6,0.2,1,0.3c2.4-3.4,4.2-6.9,5.1-9.9c0.1-0.4,0.2-0.8,0.3-1.2
					c0.7,3.1,2.5,7.1,5.4,11.1c0.3-0.1,0.6-0.2,1-0.3c0,0,0,0,0-0.1c-5.4-7.4-6.8-14-4.7-15.5c0.4-0.3,1-0.4,1.7-0.3
					c0.6,0.3,1.4,0.6,2.4,0.8c2.6,1.4,6,4.3,9.2,8.7c0.2-0.3,0.4-0.5,0.6-0.8c-2.4-3.3-5.1-5.9-7.6-7.7c0.2,0,0.5,0,0.7,0
					c2.9,0,6.3-0.6,9.8-1.7c0-0.3,0-0.5,0-0.8c0,0,0-0.1,0-0.2c-3.9,1.2-7.6,1.8-10.6,1.7c-0.7,0-1.4-0.1-2-0.2
					c-0.8-0.4-1.6-0.7-2.3-0.8c-0.5-0.3-0.8-0.7-1-1.1C43.2,169.5,48.2,165,56.7,162.2z M42.4,173.5c-0.5,0.4-0.9,0.9-1.1,1.6
					c-0.2-0.6-0.6-1.1-1-1.5c-0.3-0.2-0.7-0.4-1.1-0.5c0.2-0.3,0.4-0.6,0.5-0.9c0.2-0.6,0.1-1.2,0-1.9c0.5,0.4,1.1,0.6,1.7,0.6
					c0.6,0,1.3-0.2,1.9-0.7c-0.2,0.7-0.3,1.4-0.1,2c0.1,0.3,0.2,0.6,0.4,0.8C43.1,173.1,42.8,173.2,42.4,173.5z"/>
			</g>
		</g>
		<g>
			<g>
				<g>
					<path class="st3" d="M189.1,182.2H59.7c-0.3,0.5-0.6,1-0.9,1.5H190C189.7,183.2,189.4,182.7,189.1,182.2z"/>
					<path class="st3" d="M23.3,182.2H9.2l0.3,0.2c1.3,0.8,2.7,1.3,4.2,1.3h10.4C23.8,183.2,23.5,182.7,23.3,182.2z"/>
					<path class="st3" d="M244.4,177.9c-6,4.1-18.4,4.3-18.6,4.3h-0.4c-0.3,0.5-0.6,1-0.9,1.5h1.3c0.5,0,8.1,0.3,14.8-2.2
						C242.4,180.8,243.7,179.5,244.4,177.9L244.4,177.9z"/>
				</g>
			</g>
		</g>
	</g>
</g>
<g>
	<g>
		<g>
			
				<linearGradient id="SVGID_4_" gradientUnits="userSpaceOnUse" x1="282.4061" y1="303.6717" x2="282.4061" y2="296.3867" gradientTransform="matrix(1 0 0 -1 0 512)">
				<stop  offset="0" style="stop-color:#000000;stop-opacity:0"/>
				<stop  offset="1" style="stop-color:#000000"/>
			</linearGradient>
			<path class="st4" d="M285.8,205.2h-23.4v10.8h40C292.9,214.8,285.8,205.2,285.8,205.2z"/>
			
				<linearGradient id="SVGID_5_" gradientUnits="userSpaceOnUse" x1="491.9633" y1="303.6717" x2="491.9633" y2="296.3867" gradientTransform="matrix(1 0 0 -1 0 512)">
				<stop  offset="0" style="stop-color:#000000;stop-opacity:0"/>
				<stop  offset="1" style="stop-color:#000000"/>
			</linearGradient>
			<path class="st5" d="M487.3,205.2H512v10.8h-40.1C480.2,214.5,487.3,205.2,487.3,205.2z"/>
			
				<linearGradient id="SVGID_6_" gradientUnits="userSpaceOnUse" x1="386.7825" y1="303.6717" x2="386.7825" y2="296.3867" gradientTransform="matrix(1 0 0 -1 0 512)">
				<stop  offset="0" style="stop-color:#000000;stop-opacity:0"/>
				<stop  offset="1" style="stop-color:#000000"/>
			</linearGradient>
			<path class="st6" d="M451.6,205.2h-13.3h-0.8H321.7c0,0-4.5,7.9-15.6,10.8h122.2h19.3h19.9C457.5,214.8,451.6,205.2,451.6,205.2z
				"/>
		</g>
		<g>
			<path class="st3" d="M469.6,216.2c-11.1,0-20.2-9.1-20.2-20.2c0-11.1,9.1-20.2,20.2-20.2c11.1,0,20.2,9.1,20.2,20.2
				C489.8,207.1,480.7,216.2,469.6,216.2z M469.6,177.3c-10.3,0-18.7,8.4-18.7,18.7s8.4,18.7,18.7,18.7c10.3,0,18.7-8.4,18.7-18.7
				S479.9,177.3,469.6,177.3z"/>
			<g>
				<path class="st3" d="M484.9,185.7c-0.2-0.3-0.4-0.5-0.6-0.8c-4.6,1.6-8.4,3.7-10.7,5.9c1.4-2.9,2.2-7.2,2.2-12.1
					c-0.3-0.1-0.6-0.2-1-0.3c0,9-2.8,15.1-5.3,15.1s-5.3-6-5.3-15.1c-0.3,0.1-0.6,0.2-1,0.3c0,4.8,0.9,9.1,2.2,11.9
					c-0.2-0.2-0.5-0.5-0.8-0.7c-2.4-1.9-5.9-3.7-9.8-5c-0.2,0.3-0.4,0.5-0.6,0.8c3.9,1.3,7.3,3,9.7,4.9c2.3,1.8,3.4,3.6,3,4.8
					c-0.1,0.5-0.5,0.9-1.1,1.2c-0.6,0.1-1.4,0.3-2.1,0.7c-0.6,0.1-1.3,0.2-2,0.2c-3,0.1-6.8-0.5-10.6-1.7c0,0,0,0.1,0,0.1
					c0,0.3,0,0.6,0,0.9c3.5,1.1,7,1.7,9.8,1.7c0.2,0,0.5,0,0.7,0c-2.5,1.7-5.2,4.4-7.6,7.6c0.2,0.3,0.4,0.6,0.6,0.8
					c2.4-3.3,5.1-6,7.7-7.8c0.6-0.4,1.1-0.7,1.6-0.9c0.8-0.1,1.6-0.4,2.1-0.7c0.1,0,0.3,0,0.5,0c0.5,0,0.9,0.1,1.2,0.3
					c1.1,0.8,1.2,2.8,0.4,5.6c-0.8,3-2.6,6.5-5.1,9.8c0.3,0.1,0.6,0.2,1,0.3c2.4-3.4,4.2-6.9,5.1-9.9c0.1-0.4,0.2-0.8,0.3-1.2
					c0.7,3.1,2.5,7.1,5.4,11.1c0.3-0.1,0.6-0.2,1-0.3c0,0,0,0,0-0.1c-5.4-7.4-6.8-14-4.7-15.5c0.4-0.3,1-0.4,1.7-0.3
					c0.6,0.3,1.4,0.6,2.4,0.8c2.6,1.4,6,4.3,9.2,8.7c0.2-0.3,0.4-0.5,0.6-0.8c-2.4-3.3-5.1-5.9-7.6-7.7c0.2,0,0.5,0,0.7,0
					c2.9,0,6.3-0.6,9.8-1.7c0-0.3,0-0.5,0-0.8c0,0,0-0.1,0-0.2c-3.9,1.2-7.6,1.8-10.6,1.7c-0.7,0-1.4-0.1-2-0.2
					c-0.8-0.4-1.6-0.7-2.3-0.8c-0.5-0.3-0.8-0.7-1-1.1C471.5,193,476.4,188.5,484.9,185.7z M470.6,197c-0.5,0.4-0.9,0.9-1.1,1.6
					c-0.2-0.6-0.6-1.1-1-1.5c-0.3-0.2-0.7-0.4-1.1-0.5c0.2-0.3,0.4-0.6,0.5-0.9c0.2-0.6,0.1-1.2,0-1.9c0.5,0.4,1.1,0.6,1.7,0.6
					c0.6,0,1.3-0.2,1.9-0.7c-0.2,0.7-0.3,1.4-0.1,2c0.1,0.3,0.2,0.6,0.4,0.8C471.3,196.6,471,196.8,470.6,197z"/>
			</g>
		</g>
		<path class="st3" d="M343.2,168.7l-3.1,1.2l3.9-3c3-2.2,5.8-4.4,8.5-6.5c12.6-9.8,23.4-18.2,42.4-20.3c25.9-2.8,52.8,5.6,57.9,7.3
			l0.7,0.2c11.2,3.8,34.6,11.6,51.4,7.8l-0.2,0.1c-1.8,1.3-3.8,2-5.9,2.3c-18.6,2-35.1-5.3-45.7-8.9l-0.7-0.2
			c-5.1-1.7-31.7-10-57.3-7.3c-18.6,2-28.8,9.9-41.7,20c-2.3,1.8-4.6,3.6-7.1,5.5C345.4,167.7,344.3,168.2,343.2,168.7z"/>
		<g>
			<path class="st3" d="M479,160.1c-0.3,0-0.6,0-1,0c-25.3,2.7-125.2,10.2-144,10.2c-21.8,0-50.6,0.6-59.8,4.9
				c-1.4,0.6-2.3,2-2.6,3.5l-0.2,1.3c2.1-9.3,48.8-8.2,62.5-8.2c18.9,0,131.2-7.9,158.9-12.1L479,160.1z"/>
		</g>
		<g>
			<path class="st3" d="M451.9,182.1c-15.8,8.8-50.2,12.8-66.7,13.2c-2.8,0-7.1,0.1-12.5,0.2c-13.6,0.3-15.6,0.6-35.7,1
				c-1.1,0-2.2,0.1-3.2,0.3c-2.1,0.4-7.5,0.9-7.6,1.3c21.5-0.4,32.4-0.9,46.5-1.2c5.4-0.1,9.7-0.2,12.5-0.2
				c15.6-0.3,30.8-0.7,51.3-6.5c1.5-0.4,2.9-1,4.3-1.6C443.7,187.4,450.9,183.4,451.9,182.1z"/>
		</g>
		<path class="st3" d="M275.8,196.5c-2.1,0.1-4.2,1.2-4.2,1.6c1.1,0,6.1,0,7.5-0.1c2.1-0.1,3.3-1.1,3.3-1.5
			C281.3,196.4,277.2,196.4,275.8,196.5z"/>
		<g>
			<path class="st3" d="M303.7,216.2c-11.1,0-20.2-9.1-20.2-20.2c0-11.1,9.1-20.2,20.2-20.2c11.1,0,20.2,9.1,20.2,20.2
				C323.9,207.1,314.9,216.2,303.7,216.2z M303.7,177.4c-10.3,0-18.7,8.4-18.7,18.7s8.4,18.7,18.7,18.7s18.7-8.4,18.7-18.7
				S314.1,177.4,303.7,177.4z"/>
			<g>
				<path class="st3" d="M319.1,185.7c-0.2-0.3-0.4-0.5-0.6-0.8c-4.6,1.6-8.4,3.7-10.7,5.9c1.4-2.9,2.2-7.2,2.2-12.1
					c-0.3-0.1-0.6-0.2-1-0.3c0,9-2.8,15.1-5.3,15.1s-5.3-6-5.3-15.1c-0.3,0.1-0.6,0.2-1,0.3c0,4.8,0.9,9.1,2.2,11.9
					c-0.2-0.2-0.5-0.5-0.8-0.7c-2.4-1.9-5.9-3.7-9.8-5c-0.2,0.3-0.4,0.5-0.6,0.8c3.9,1.3,7.3,3,9.7,4.9c2.3,1.8,3.4,3.6,3,4.8
					c-0.1,0.5-0.5,0.9-1.1,1.2c-0.6,0.1-1.4,0.3-2.1,0.7c-0.6,0.1-1.3,0.2-2,0.2c-3,0.1-6.8-0.5-10.6-1.7c0,0,0,0.1,0,0.1
					c0,0.3,0,0.6,0,0.9c3.5,1.1,7,1.7,9.8,1.7c0.2,0,0.5,0,0.7,0c-2.5,1.7-5.2,4.4-7.6,7.6c0.2,0.3,0.4,0.6,0.6,0.8
					c2.4-3.3,5.1-6,7.7-7.8c0.6-0.4,1.1-0.7,1.6-0.9c0.8-0.1,1.6-0.4,2.1-0.7c0.1,0,0.3,0,0.5,0c0.5,0,0.9,0.1,1.2,0.3
					c1.1,0.8,1.2,2.8,0.4,5.6c-0.8,3-2.6,6.5-5.1,9.8c0.3,0.1,0.6,0.2,1,0.3c2.4-3.4,4.2-6.9,5.1-9.9c0.1-0.4,0.2-0.8,0.3-1.2
					c0.7,3.1,2.5,7.1,5.4,11.1c0.3-0.1,0.6-0.2,1-0.3c0,0,0,0,0-0.1c-5.4-7.4-6.8-14-4.7-15.5c0.4-0.3,1-0.4,1.7-0.3
					c0.6,0.3,1.4,0.6,2.4,0.8c2.6,1.4,6,4.3,9.2,8.7c0.2-0.3,0.4-0.5,0.6-0.8c-2.4-3.3-5.1-5.9-7.6-7.7c0.2,0,0.5,0,0.7,0
					c2.9,0,6.3-0.6,9.8-1.7c0-0.3,0-0.5,0-0.8c0,0,0-0.1,0-0.2c-3.9,1.2-7.6,1.8-10.6,1.7c-0.7,0-1.4-0.1-2-0.2
					c-0.8-0.4-1.6-0.7-2.3-0.8c-0.5-0.3-0.8-0.7-1-1.1C305.6,193,310.6,188.6,319.1,185.7z M304.8,197c-0.5,0.4-0.9,0.9-1.1,1.6
					c-0.2-0.6-0.6-1.1-1-1.5c-0.3-0.2-0.7-0.4-1.1-0.5c0.2-0.3,0.4-0.6,0.5-0.9c0.2-0.6,0.1-1.2,0-1.9c0.5,0.4,1.1,0.6,1.7,0.6
					c0.6,0,1.3-0.2,1.9-0.7c-0.2,0.7-0.3,1.4-0.1,2c0.1,0.3,0.2,0.6,0.4,0.8C305.5,196.6,305.1,196.8,304.8,197z"/>
			</g>
		</g>
		<g>
			<g>
				<g>
					<path class="st3" d="M451.5,205.8H322.1c-0.3,0.5-0.6,1-0.9,1.5h131.2C452.1,206.8,451.8,206.3,451.5,205.8z"/>
					<path class="st3" d="M285.7,205.8h-14.1l0.3,0.2c1.3,0.8,2.7,1.3,4.2,1.3h10.4C286.2,206.8,285.9,206.3,285.7,205.8z"/>
					<path class="st3" d="M506.8,201.4c-6,4.1-18.4,4.3-18.6,4.3h-0.4c-0.3,0.5-0.6,1-0.9,1.5h1.3c0.5,0,8.1,0.3,14.8-2.2
						C504.8,204.3,506.1,203.1,506.8,201.4L506.8,201.4z"/>
				</g>
			</g>
		</g>
	</g>
</g>
<g>
	<path class="st7" d="M198.1,114.9c0.2,0.3,0.4,0.5,0.6,0.8c-4.5,1.5-8,3.4-10.2,5.3c1.1,0.3,1.9,0.6,2.5,0.8l0.7,0.2
		c2.8,0.9,6.3,2.1,10.2,3.3c-0.4-10-8.6-18-18.7-18c-6.6,0-12.5,3.5-15.8,8.7c0.9,0.2,1.8,0.3,2.7,0.5c-0.7-0.3-1.4-0.5-2.2-0.8
		c0.2-0.3,0.4-0.5,0.6-0.8c2.1,0.7,4,1.5,5.8,2.5c1.4,0.3,2.7,0.6,3.9,0.9c-0.8-2.6-1.3-5.9-1.3-9.5c0.3-0.1,0.6-0.2,1-0.3
		c0,4.1,0.6,7.6,1.5,10.1c2.7,0.7,5.1,1.3,7,1.9c1.3-2.6,2.2-6.9,2.2-12.1c0.3,0.1,0.6,0.2,1,0.3c0,4.9-0.9,9.1-2.2,12c0,0,0,0,0,0
		C189.8,118.6,193.5,116.5,198.1,114.9z"/>
	<path class="st7" d="M349.2,107.3c-10.3,0-18.7,8.4-18.7,18.7c0,10.3,8.4,18.7,18.7,18.7c10.3,0,18.7-8.4,18.7-18.7
		C367.9,115.7,359.5,107.3,349.2,107.3z M367.8,126.8c-3.5,1.1-7,1.7-9.8,1.7c-0.2,0-0.5,0-0.7,0c2.4,1.7,5.1,4.3,7.6,7.7
		c-0.2,0.3-0.4,0.5-0.6,0.8c-3.2-4.4-6.6-7.4-9.2-8.7c-1-0.2-1.8-0.5-2.4-0.8c-0.7,0-1.2,0-1.7,0.3c-2.1,1.5-0.7,8.1,4.7,15.5
		c0,0,0,0,0,0.1c-0.3,0.1-0.6,0.2-1,0.3c-2.9-3.9-4.7-7.9-5.4-11.1c-0.1,0.4-0.2,0.8-0.3,1.2c-0.9,3-2.7,6.5-5.1,9.9
		c-0.3-0.1-0.6-0.2-1-0.3c2.4-3.4,4.2-6.9,5.1-9.8c0.8-2.8,0.6-4.8-0.4-5.6c-0.3-0.2-0.7-0.3-1.2-0.3c-0.1,0-0.3,0-0.5,0
		c-0.6,0.3-1.3,0.6-2.1,0.7c-0.5,0.2-1,0.5-1.6,0.9c-2.6,1.7-5.3,4.4-7.7,7.8c-0.2-0.2-0.4-0.5-0.6-0.8c2.4-3.2,5-5.9,7.6-7.6
		c-0.2,0-0.5,0-0.7,0c-2.9,0-6.3-0.6-9.8-1.7c0-0.3,0-0.6,0-0.9c0,0,0-0.1,0-0.1c3.9,1.2,7.6,1.8,10.6,1.7c0.7,0,1.4-0.1,2-0.2
		c0.8-0.4,1.5-0.6,2.1-0.7c0.5-0.3,0.9-0.7,1.1-1.2c0.4-1.2-0.7-3-3-4.8c-2.4-1.9-5.9-3.7-9.7-4.9c0.2-0.3,0.4-0.5,0.6-0.8
		c3.9,1.3,7.3,3.1,9.8,5c0.3,0.2,0.6,0.5,0.8,0.7c-1.3-2.8-2.1-7.1-2.2-11.9c0.3-0.1,0.6-0.2,1-0.3c0,9,2.8,15.1,5.3,15.1
		c2.5,0,5.3-6.1,5.3-15.1c0.3,0.1,0.6,0.2,1,0.3c0,4.9-0.9,9.2-2.2,12.1c2.3-2.1,6.1-4.3,10.7-5.9c0.2,0.3,0.4,0.5,0.6,0.8
		c-8.6,2.8-13.5,7.3-12.6,9.7c0.1,0.4,0.5,0.8,1,1.1c0.7,0.1,1.5,0.4,2.3,0.8c0.6,0.1,1.2,0.1,2,0.2c3,0.1,6.8-0.5,10.6-1.7
		c0,0,0,0.1,0,0.2C367.8,126.2,367.8,126.5,367.8,126.8z"/>
	<path class="st7" d="M351,123.7c-0.6,0.4-1.2,0.7-1.9,0.7c-0.6,0-1.2-0.2-1.7-0.6c0.2,0.7,0.2,1.3,0,1.9c-0.1,0.3-0.2,0.6-0.5,0.9
		c0.4,0.1,0.7,0.2,1.1,0.5c0.4,0.3,0.8,0.8,1,1.5c0.2-0.6,0.6-1.2,1.1-1.6c0.3-0.2,0.7-0.4,1.2-0.5c-0.2-0.2-0.3-0.5-0.4-0.8
		C350.7,125.1,350.8,124.4,351,123.7z"/>
	
		<linearGradient id="SVGID_7_" gradientUnits="userSpaceOnUse" x1="371.5588" y1="373.6658" x2="371.5588" y2="366.3807" gradientTransform="matrix(1 0 0 -1 0 512)">
		<stop  offset="0" style="stop-color:#000000;stop-opacity:0"/>
		<stop  offset="1" style="stop-color:#000000"/>
	</linearGradient>
	<path class="st8" d="M391.6,135.3H382c-6.5,2.3-13.7,2-14.1,2h-1.3c0.3-0.5,0.6-1,0.9-1.5h0.4c0.1,0,2.9,0,6.5-0.5h-7.3
		c-3,5.8-8.8,10-15.6,10.8c0,0,0,0,0,0h17.7c6.4-3.6,13.5-6.4,22.4-7.7V135.3z"/>
	
		<linearGradient id="SVGID_8_" gradientUnits="userSpaceOnUse" x1="296.6451" y1="373.6658" x2="296.6451" y2="366.3807" gradientTransform="matrix(1 0 0 -1 0 512)">
		<stop  offset="0" style="stop-color:#000000;stop-opacity:0"/>
		<stop  offset="1" style="stop-color:#000000"/>
	</linearGradient>
	<path class="st9" d="M331.3,135.3C331.3,135.3,331.2,135.3,331.3,135.3l-13.4-0.1h-0.8h-70.4c-0.1,0.2-0.1,0.4-0.1,0.5h84.5
		c0.3,0.5,0.6,1,0.9,1.5h-85.5v8.8h61.5h19.3h19.7C340.1,145.3,334.3,141.1,331.3,135.3z"/>
	<path class="st3" d="M366.9,135.3h0.2c1.4-2.8,2.3-5.9,2.3-9.2c0-11.1-9.1-20.2-20.2-20.2c-11.1,0-20.2,9.1-20.2,20.2
		c0,3.3,0.8,6.5,2.3,9.3c0.4,0.7,6.2,9.5,15.8,10.8h-0.2c0.8,0.1,1.5,0.1,2.3,0.1c0.8,0,1.6-0.1,2.4-0.2
		C359.8,144.5,366.9,135.3,366.9,135.3z M349.2,144.8c-10.3,0-18.7-8.4-18.7-18.7c0-10.3,8.4-18.7,18.7-18.7
		c10.3,0,18.7,8.4,18.7,18.7C367.9,136.4,359.5,144.8,349.2,144.8z"/>
	<path class="st3" d="M367.1,135.3h-0.2c0,0-7.2,9.2-15.4,10.8C358.3,145.3,364.1,141.1,367.1,135.3z"/>
	<path class="st3" d="M331.3,135.3c3,5.8,8.8,10,15.6,10.8h0.2C337.5,144.8,331.7,136,331.3,135.3z"/>
	<path class="st3" d="M357.1,127.5c-0.7,0-1.4-0.1-2-0.2c-0.8-0.4-1.6-0.7-2.3-0.8c-0.5-0.3-0.8-0.7-1-1.1c-0.8-2.3,4-6.8,12.6-9.7
		c-0.2-0.3-0.4-0.5-0.6-0.8c-4.6,1.6-8.4,3.7-10.7,5.9c1.4-2.9,2.2-7.2,2.2-12.1c-0.3-0.1-0.6-0.2-1-0.3c0,9-2.8,15.1-5.3,15.1
		c-2.5,0-5.3-6-5.3-15.1c-0.3,0.1-0.6,0.2-1,0.3c0,4.8,0.9,9.1,2.2,11.9c-0.2-0.2-0.5-0.5-0.8-0.7c-2.4-1.9-5.9-3.7-9.8-5
		c-0.2,0.3-0.4,0.5-0.6,0.8c3.9,1.3,7.3,3,9.7,4.9c2.3,1.8,3.4,3.6,3,4.8c-0.1,0.5-0.5,0.9-1.1,1.2c-0.6,0.1-1.4,0.3-2.1,0.7
		c-0.6,0.1-1.3,0.2-2,0.2c-3,0.1-6.8-0.5-10.6-1.7c0,0,0,0.1,0,0.1c0,0.3,0,0.6,0,0.9c3.5,1.1,7,1.7,9.8,1.7c0.2,0,0.5,0,0.7,0
		c-2.5,1.7-5.2,4.4-7.6,7.6c0.2,0.3,0.4,0.6,0.6,0.8c2.4-3.3,5.1-6,7.7-7.8c0.6-0.4,1.1-0.7,1.6-0.9c0.8-0.1,1.6-0.4,2.1-0.7
		c0.1,0,0.3,0,0.5,0c0.5,0,0.9,0.1,1.2,0.3c1.1,0.8,1.2,2.8,0.4,5.6c-0.8,3-2.6,6.5-5.1,9.8c0.3,0.1,0.6,0.2,1,0.3
		c2.4-3.4,4.2-6.9,5.1-9.9c0.1-0.4,0.2-0.8,0.3-1.2c0.7,3.1,2.5,7.1,5.4,11.1c0.3-0.1,0.6-0.2,1-0.3c0,0,0,0,0-0.1
		c-5.4-7.4-6.8-14-4.7-15.5c0.4-0.3,1-0.4,1.7-0.3c0.6,0.3,1.4,0.6,2.4,0.8c2.6,1.4,6,4.3,9.2,8.7c0.2-0.3,0.4-0.5,0.6-0.8
		c-2.4-3.3-5.1-5.9-7.6-7.7c0.2,0,0.5,0,0.7,0c2.9,0,6.3-0.6,9.8-1.7c0-0.3,0-0.5,0-0.8c0,0,0-0.1,0-0.2
		C363.9,127,360.2,127.6,357.1,127.5z M350.2,127c-0.5,0.4-0.9,0.9-1.1,1.6c-0.2-0.6-0.6-1.1-1-1.5c-0.3-0.2-0.7-0.4-1.1-0.5
		c0.2-0.3,0.4-0.6,0.5-0.9c0.2-0.6,0.1-1.2,0-1.9c0.5,0.4,1.1,0.6,1.7,0.6c0.6,0,1.3-0.2,1.9-0.7c-0.2,0.7-0.3,1.4-0.1,2
		c0.1,0.3,0.2,0.6,0.4,0.8C350.9,126.6,350.5,126.8,350.2,127z"/>
	<path class="st3" d="M225.8,97c2.4-1.9,4.8-3.7,7.1-5.5c12.9-10,23.1-18,41.7-20c25.6-2.7,52.3,5.6,57.3,7.3l0.7,0.2
		c10.7,3.6,27.1,10.9,45.7,8.9c2.1-0.2,4.2-1,5.9-2.3l0.2-0.1v0c-16.9,3.8-40.2-4-51.4-7.8l-0.7-0.2c-5.1-1.7-32-10.1-57.9-7.3
		c-19,2-29.8,10.5-42.4,20.3c-2.7,2.1-5.5,4.3-8.5,6.5l-3.9,3l3.1-1.2C223.9,98.3,225,97.7,225.8,97z"/>
	<path class="st3" d="M213.6,101.7c18.9,0,131.2-7.9,158.9-12.1l-13.9,0.4c-0.3,0-0.6,0-1,0c-25.3,2.7-125.2,10.2-144,10.2
		c-21.8,0-50.6,0.6-59.8,4.9c-1.4,0.6-2.3,2-2.6,3.5l-0.2,1.3C153.2,100.6,199.9,101.7,213.6,101.7z"/>
	<path class="st3" d="M264.8,126.8c15.6-0.3,30.8-0.7,51.3-6.5c1.5-0.4,2.9-1,4.3-1.6c2.8-1.3,10-5.2,11-6.5
		c-15.8,8.8-50.2,12.8-66.7,13.2c-2.8,0-7.1,0.1-12.5,0.2c-13.6,0.3-15.6,0.6-35.7,1c-1.1,0-2.2,0.1-3.2,0.3
		c-0.9,0.2-2.4,0.4-3.8,0.6c0.8,0.2,1.7,0.4,2.6,0.6c17.4-0.4,27.5-0.8,40.2-1C257.7,126.9,262,126.8,264.8,126.8z"/>
	<path class="st3" d="M183.3,107.4c10.1,0,18.3,8,18.7,18c0.5,0.1,1,0.3,1.5,0.4c-0.1-11-9.1-19.9-20.2-19.9c-7.4,0-13.8,4-17.4,9.9
		c0.5,0.1,1.1,0.2,1.6,0.3C170.9,110.8,176.7,107.4,183.3,107.4z"/>
	<path class="st3" d="M188.6,108.3c0,5.2-0.9,9.4-2.2,12.1c0.3,0.1,0.7,0.2,1,0.3c1.3-2.9,2.2-7.1,2.2-12
		C189.3,108.6,189,108.4,188.6,108.3z"/>
	<path class="st3" d="M177,108.7c0,3.6,0.5,6.9,1.3,9.5c0.4,0.1,0.8,0.2,1.1,0.3c-0.9-2.6-1.4-6.1-1.5-10.1
		C177.7,108.5,177.4,108.6,177,108.7z"/>
	<path class="st3" d="M168.1,115.8c0.7,0.2,1.5,0.5,2.2,0.8c1.4,0.3,2.8,0.6,4.2,0.8c-1.7-0.9-3.7-1.8-5.8-2.5
		C168.5,115.2,168.3,115.5,168.1,115.8z"/>
	<path class="st3" d="M198.1,114.9c-4.6,1.5-8.3,3.7-10.6,5.8c0.4,0.1,0.7,0.2,1.1,0.3c2.2-1.8,5.7-3.8,10.2-5.3
		C198.5,115.5,198.3,115.2,198.1,114.9z"/>
	<path class="st3" d="M331.1,135.8h-84.5c-0.1,0.4-0.1,0.8-0.1,1.2v0.2H332C331.7,136.8,331.4,136.3,331.1,135.8z"/>
	<path class="st3" d="M382.7,135c1.7-0.7,3-2,3.7-3.6c-3.2,2.2-8.1,3.3-12.1,3.8h7.7C382.3,135.2,382.5,135.1,382.7,135z"/>
	<path class="st3" d="M367.5,135.8c-0.3,0.5-0.6,1-0.9,1.5h1.3c0.5,0,7.6,0.3,14.1-2h-7.7c-3.6,0.5-6.4,0.5-6.5,0.5H367.5z"/>
	<polygon class="st10" points="384.6,85.5 384.6,85.5 384.6,85.5 	"/>
	<path d="M187.5,120.7C187.4,120.7,187.4,120.7,187.5,120.7C187.4,120.7,187.4,120.7,187.5,120.7
		C187.4,120.7,187.4,120.7,187.5,120.7z"/>
</g>
<path class="st11" d="M256,251.8c-35.4,0-66.6,8.3-82.4,13.2c0,21,10.1,121.7,82.4,151c72.3-29.4,82.4-130.1,82.4-151
	C322.6,260.2,291.4,251.8,256,251.8z"/>
</svg>
