<?xml version="1.0" encoding="utf-8"?>
<!-- Generator: Adobe Illustrator 23.0.5, SVG Export Plug-In . SVG Version: 6.00 Build 0)  -->
<svg version="1.1" id="Layer_1" xmlns="http://www.w3.org/2000/svg" xmlns:xlink="http://www.w3.org/1999/xlink" x="0px" y="0px"
	 viewBox="0 0 512 512" style="enable-background:new 0 0 512 512;" xml:space="preserve">
<style type="text/css">
	.st0{fill:#FF2020;}
	.st1{fill:none;}
</style>
<g>
	<g>
		<path class="st0" d="M479.1,478.5H218c-18.1,0-32.9-14.7-32.9-32.9v-123c0-18.1,14.7-32.9,32.9-32.9h261.2
			c18.1,0,32.9,14.7,32.9,32.9v123C512,463.7,497.3,478.5,479.1,478.5z M218,305.3c-9.6,0-17.4,7.8-17.4,17.4v123
			c0,9.6,7.8,17.4,17.4,17.4h261.2c9.6,0,17.4-7.8,17.4-17.4v-123c0-9.6-7.8-17.4-17.4-17.4H218z"/>
		<g>
			<path class="st0" d="M250.7,350.3h-9.7l5.7-24.5l-10.3,15.7h-6.7l-3.3-16.7l-5.9,25.6h-9.2l8.6-37.5h11.1l4.1,18.8l12.7-18.8
				h11.4L250.7,350.3z"/>
			<path class="st0" d="M296.1,312.8l-1.6,7.1h-17.5l-1.5,6.7h16.2l-1.7,7.1h-16.2l-2.2,9.4H289l-1.6,7.1h-27.2l8.6-37.5H296.1z"/>
			<path class="st0" d="M334.8,350.3h-9.7l5.7-24.5l-10.3,15.7h-6.7l-3.3-16.7l-5.9,25.6h-9.2l8.6-37.5h11.1l4.1,18.8l12.7-18.8
				h11.4L334.8,350.3z"/>
			<path class="st0" d="M380.6,321.3c0,2.3-0.6,4.2-1.9,5.7s-3.2,2.6-5.7,3.4l-0.1,0.2c2,0.6,3.6,1.4,4.6,2.5c1,1.1,1.6,2.7,1.6,4.7
				c0,3.9-1.6,7-4.8,9.2c-3.2,2.2-7.8,3.3-13.7,3.3h-16.2l8.6-37.5h13.7c4.5,0,8,0.7,10.4,2.2C379.4,316.5,380.6,318.6,380.6,321.3z
				 M369.3,338c0-1.4-0.5-2.4-1.6-3c-1-0.6-2.7-0.9-4.9-0.9h-5.1l-2.2,9.3h4.9c2.8,0,5-0.5,6.5-1.4
				C368.5,341.1,369.3,339.7,369.3,338z M370.4,322.8c0-1.1-0.4-1.9-1.3-2.4c-0.9-0.5-2.1-0.7-3.6-0.7h-4.4l-1.8,7.9h4.4
				c2.1,0,3.8-0.4,4.9-1.2C369.8,325.5,370.4,324.4,370.4,322.8z"/>
			<path class="st0" d="M419.4,312.8l-1.6,7.1h-17.5l-1.5,6.7H415l-1.7,7.1h-16.2l-2.2,9.4h17.5l-1.6,7.1h-27.2l8.6-37.5H419.4z"/>
			<path class="st0" d="M456.5,322.2c0,3-0.9,5.5-2.7,7.6c-1.8,2-4.3,3.6-7.5,4.6l8.7,15.8h-10.8l-7.1-13.7h-5.4l-3.2,13.7h-9.7
				l8.6-37.5h14.6c4.6,0,8.1,0.8,10.6,2.3C455.2,316.7,456.5,319,456.5,322.2z M446.1,323.8c0-1.5-0.5-2.6-1.4-3.2
				c-1-0.6-2.4-0.9-4.3-0.9h-4.8l-2.3,10.1h4.8c2.6,0,4.6-0.5,6-1.6C445.4,327.2,446.1,325.7,446.1,323.8z"/>
		</g>
	</g>
	<g>
		<path class="st1" d="M380.4,227.4c4.6,0,8.1,0.8,10.6,2.3c2.5,1.6,3.8,3.9,3.8,7.1c0,3-0.9,5.5-2.7,7.6c-1.8,2-4.3,3.6-7.5,4.6
			l8.7,15.8h-10.8l-7.1-13.7H370l-3.2,13.7h-9.7l8.6-37.5H380.4z M330.5,227.4h27.2l-1.6,7.1h-17.5l-1.5,6.7h16.2l-1.7,7.1h-16.2
			l-2.2,9.4h17.5l-1.6,7.1h-27.2L330.5,227.4z M291.3,227.4h13.7c4.5,0,8,0.7,10.4,2.2c2.4,1.5,3.6,3.6,3.6,6.3
			c0,2.3-0.6,4.2-1.9,5.7c-1.3,1.5-3.2,2.6-5.7,3.4l-0.1,0.2c2,0.6,3.6,1.4,4.6,2.5c1,1.1,1.6,2.7,1.6,4.7c0,3.9-1.6,7-4.8,9.2
			c-3.2,2.2-7.8,3.3-13.7,3.3h-16.2L291.3,227.4z M253.5,227.4l4.1,18.8l12.7-18.8h11.4l-8.6,37.5h-9.7l5.7-24.5L258.8,256h-6.7
			l-3.3-16.7l-5.9,25.6h-9.2l8.6-37.5H253.5z M207.2,227.4h27.2l-1.6,7.1h-17.5l-1.5,6.7h16.2l-1.7,7.1H212l-2.2,9.4h17.5l-1.6,7.1
			h-27.2L207.2,227.4z M174.7,256h-6.7l-3.3-16.7l-5.9,25.6h-9.2l8.6-37.5h11.1l4.1,18.8l12.7-18.8h11.4l-8.6,37.5h-9.7l5.7-24.5
			L174.7,256z"/>
		<path class="st1" d="M382.2,242.8c1.4-1,2.1-2.5,2.1-4.4c0-1.5-0.5-2.6-1.4-3.2c-1-0.6-2.4-0.9-4.3-0.9h-4.8l-2.3,10.1h4.8
			C378.8,244.4,380.8,243.8,382.2,242.8z"/>
		<path class="st1" d="M306.9,240.9c1.2-0.8,1.8-2,1.8-3.6c0-1.1-0.4-1.9-1.3-2.4c-0.9-0.5-2.1-0.7-3.6-0.7h-4.4l-1.8,7.9h4.4
			C304,242.2,305.7,241.8,306.9,240.9z"/>
		<path class="st1" d="M307.6,252.5c0-1.4-0.5-2.4-1.6-3c-1-0.6-2.7-0.9-4.9-0.9H296l-2.2,9.3h4.9c2.8,0,5-0.5,6.5-1.4
			C306.8,255.7,307.6,254.3,307.6,252.5z"/>
		<path class="st0" d="M156.3,377.6c-9.6,0-17.4-7.8-17.4-17.4v-123c0-9.6,7.8-17.4,17.4-17.4h261.2c9.6,0,17.4,7.8,17.4,17.4v50
			h15.5v-50c0-18.1-14.7-32.9-32.9-32.9H156.3c-18.1,0-32.9,14.7-32.9,32.9v123c0,18.1,14.7,32.9,32.9,32.9h26.3v-15.5H156.3z"/>
		<polygon class="st0" points="189,264.8 197.7,227.4 186.3,227.4 173.5,246.2 169.4,227.4 158.3,227.4 149.7,264.8 158.8,264.8 
			164.7,239.3 168.1,256 174.7,256 185,240.3 179.4,264.8 		"/>
		<polygon class="st0" points="227.3,257.7 209.8,257.7 212,248.3 228.2,248.3 229.9,241.2 213.7,241.2 215.2,234.5 232.7,234.5 
			234.4,227.4 207.2,227.4 198.5,264.8 225.7,264.8 		"/>
		<polygon class="st0" points="242.9,264.8 248.8,239.3 252.1,256 258.8,256 269.1,240.3 263.4,264.8 273.1,264.8 281.7,227.4 
			270.4,227.4 257.6,246.2 253.5,227.4 242.4,227.4 233.8,264.8 		"/>
		<path class="st0" d="M312.6,261.5c3.2-2.2,4.8-5.3,4.8-9.2c0-2-0.5-3.6-1.6-4.7c-1-1.1-2.6-2-4.6-2.5l0.1-0.2
			c2.6-0.8,4.5-1.9,5.7-3.4c1.3-1.5,1.9-3.4,1.9-5.7c0-2.7-1.2-4.8-3.6-6.3c-2.4-1.5-5.8-2.2-10.4-2.2h-13.7l-8.6,37.5h16.2
			C304.8,264.8,309.3,263.7,312.6,261.5z M299.4,234.2h4.4c1.5,0,2.8,0.2,3.6,0.7c0.9,0.5,1.3,1.3,1.3,2.4c0,1.6-0.6,2.7-1.8,3.6
			c-1.2,0.8-2.8,1.2-4.9,1.2h-4.4L299.4,234.2z M293.9,258l2.2-9.3h5.1c2.2,0,3.9,0.3,4.9,0.9c1,0.6,1.6,1.6,1.6,3
			c0,1.8-0.8,3.1-2.3,4.1c-1.5,0.9-3.7,1.4-6.5,1.4H293.9z"/>
		<polygon class="st0" points="350.7,257.7 333.2,257.7 335.4,248.3 351.6,248.3 353.3,241.2 337,241.2 338.6,234.5 356.1,234.5 
			357.7,227.4 330.5,227.4 321.9,264.8 349.1,264.8 		"/>
		<path class="st0" d="M366.8,264.8l3.2-13.7h5.4l7.1,13.7h10.8l-8.7-15.8c3.1-1,5.6-2.6,7.5-4.6c1.8-2,2.7-4.6,2.7-7.6
			c0-3.2-1.3-5.6-3.8-7.1c-2.5-1.6-6-2.3-10.6-2.3h-14.6l-8.6,37.5H366.8z M373.8,234.3h4.8c1.9,0,3.3,0.3,4.3,0.9
			c1,0.6,1.4,1.7,1.4,3.2c0,1.9-0.7,3.3-2.1,4.4c-1.4,1-3.4,1.6-6,1.6h-4.8L373.8,234.3z"/>
	</g>
	<g>
		<path class="st1" d="M318.7,141.9c4.6,0,8.1,0.8,10.6,2.3c2.5,1.6,3.8,3.9,3.8,7.1c0,3-0.9,5.5-2.7,7.6c-1.8,2-4.3,3.6-7.5,4.6
			l8.7,15.8h-10.8l-7.1-13.7h-5.4l-3.2,13.7h-9.7l8.6-37.5H318.7z M268.8,141.9H296l-1.6,7.1h-17.5l-1.5,6.7h16.2l-1.7,7.1h-16.2
			l-2.2,9.4H289l-1.6,7.1h-27.2L268.8,141.9z M229.6,141.9h13.7c4.5,0,8,0.7,10.4,2.2c2.4,1.5,3.6,3.6,3.6,6.3
			c0,2.3-0.6,4.2-1.9,5.7s-3.2,2.6-5.7,3.4l-0.1,0.2c2,0.6,3.6,1.4,4.6,2.5s1.6,2.7,1.6,4.7c0,3.9-1.6,7-4.8,9.2
			c-3.2,2.2-7.8,3.3-13.7,3.3h-16.2L229.6,141.9z M191.8,141.9l4.1,18.8l12.7-18.8H220l-8.6,37.5h-9.7l5.7-24.5l-10.3,15.7h-6.7
			l-3.3-16.7l-5.9,25.6h-9.2l8.6-37.5H191.8z M145.5,141.9h27.2l-1.6,7.1h-17.5l-1.5,6.7h16.2l-1.7,7.1h-16.2l-2.2,9.4h17.5
			l-1.6,7.1h-27.2L145.5,141.9z M113,170.6h-6.7l-3.3-16.7l-5.9,25.6H88l8.6-37.5h11.1l4.1,18.8l12.7-18.8H136l-8.6,37.5h-9.7
			l5.7-24.5L113,170.6z"/>
		<path class="st1" d="M320.5,157.4c1.4-1,2.1-2.5,2.1-4.4c0-1.5-0.5-2.6-1.4-3.2c-1-0.6-2.4-0.9-4.3-0.9h-4.8l-2.3,10.1h4.8
			C317.1,158.9,319.1,158.4,320.5,157.4z"/>
		<path class="st1" d="M245.2,155.5c1.2-0.8,1.8-2,1.8-3.6c0-1.1-0.4-1.9-1.3-2.4c-0.9-0.5-2.1-0.7-3.6-0.7h-4.4l-1.8,7.9h4.4
			C242.3,156.7,244,156.3,245.2,155.5z"/>
		<path class="st1" d="M245.9,167.1c0-1.4-0.5-2.4-1.6-3c-1-0.6-2.7-0.9-4.9-0.9h-5.1l-2.2,9.3h4.9c2.8,0,5-0.5,6.5-1.4
			C245.1,170.3,245.9,168.9,245.9,167.1z"/>
		<path class="st0" d="M94.6,292.2c-9.6,0-17.4-7.8-17.4-17.4v-123c0-9.6,7.8-17.4,17.4-17.4h261.2c9.6,0,17.4,7.8,17.4,17.4v50
			h15.5v-50c0-18.1-14.7-32.9-32.9-32.9H94.6c-18.1,0-32.9,14.7-32.9,32.9v123c0,18.1,14.7,32.9,32.9,32.9h26.3v-15.5H94.6z"/>
		<polygon class="st0" points="127.3,179.4 136,141.9 124.6,141.9 111.8,160.8 107.7,141.9 96.6,141.9 88,179.4 97.1,179.4 
			103,153.9 106.3,170.6 113,170.6 123.3,154.9 117.6,179.4 		"/>
		<polygon class="st0" points="165.6,172.3 148.1,172.3 150.3,162.9 166.5,162.9 168.2,155.7 152,155.7 153.5,149.1 171,149.1 
			172.7,141.9 145.5,141.9 136.8,179.4 164,179.4 		"/>
		<polygon class="st0" points="181.2,179.4 187.1,153.9 190.4,170.6 197.1,170.6 207.4,154.9 201.7,179.4 211.4,179.4 220,141.9 
			208.6,141.9 195.9,160.8 191.8,141.9 180.7,141.9 172.1,179.4 		"/>
		<path class="st0" d="M250.9,176.1c3.2-2.2,4.8-5.3,4.8-9.2c0-2-0.5-3.6-1.6-4.7s-2.6-2-4.6-2.5l0.1-0.2c2.6-0.8,4.5-1.9,5.7-3.4
			s1.9-3.4,1.9-5.7c0-2.7-1.2-4.8-3.6-6.3c-2.4-1.5-5.8-2.2-10.4-2.2h-13.7l-8.6,37.5h16.2C243.1,179.4,247.6,178.3,250.9,176.1z
			 M237.7,148.8h4.4c1.5,0,2.8,0.2,3.6,0.7c0.9,0.5,1.3,1.3,1.3,2.4c0,1.6-0.6,2.7-1.8,3.6c-1.2,0.8-2.8,1.2-4.9,1.2h-4.4
			L237.7,148.8z M232.2,172.6l2.2-9.3h5.1c2.2,0,3.9,0.3,4.9,0.9c1,0.6,1.6,1.6,1.6,3c0,1.8-0.8,3.1-2.3,4.1
			c-1.5,0.9-3.7,1.4-6.5,1.4H232.2z"/>
		<polygon class="st0" points="289,172.3 271.5,172.3 273.7,162.9 289.9,162.9 291.6,155.7 275.3,155.7 276.9,149.1 294.4,149.1 
			296,141.9 268.8,141.9 260.2,179.4 287.3,179.4 		"/>
		<path class="st0" d="M305.1,179.4l3.2-13.7h5.4l7.1,13.7h10.8l-8.7-15.8c3.1-1,5.6-2.6,7.5-4.6c1.8-2,2.7-4.6,2.7-7.6
			c0-3.2-1.3-5.6-3.8-7.1c-2.5-1.6-6-2.3-10.6-2.3h-14.6l-8.6,37.5H305.1z M312.1,148.9h4.8c1.9,0,3.3,0.3,4.3,0.9
			c1,0.6,1.4,1.7,1.4,3.2c0,1.9-0.7,3.3-2.1,4.4c-1.4,1-3.4,1.6-6,1.6h-4.8L312.1,148.9z"/>
	</g>
	<g>
		<path class="st1" d="M257,56.5c4.6,0,8.1,0.8,10.6,2.3c2.5,1.6,3.8,3.9,3.8,7.1c0,3-0.9,5.5-2.7,7.6c-1.8,2-4.3,3.6-7.5,4.6
			l8.7,15.8H259L252,80.3h-5.4L243.4,94h-9.7l8.6-37.5H257z M207.1,56.5h27.2l-1.6,7.1h-17.5l-1.5,6.7h16.2l-1.7,7.1H212l-2.2,9.4
			h17.5l-1.6,7.1h-27.2L207.1,56.5z M167.9,56.5h13.7c4.5,0,8,0.7,10.4,2.2s3.6,3.6,3.6,6.3c0,2.3-0.6,4.2-1.9,5.7
			c-1.3,1.5-3.2,2.6-5.7,3.4l-0.1,0.2c2,0.6,3.6,1.4,4.6,2.5c1,1.1,1.6,2.7,1.6,4.7c0,3.9-1.6,7-4.8,9.2c-3.2,2.2-7.8,3.3-13.7,3.3
			h-16.2L167.9,56.5z M130.1,56.5l4.1,18.8l12.7-18.8h11.4L149.7,94H140l5.7-24.5l-10.3,15.7h-6.7l-3.3-16.7L119.5,94h-9.2l8.6-37.5
			H130.1z M83.8,56.5h27.2l-1.6,7.1H91.8l-1.5,6.7h16.2l-1.7,7.1H88.6l-2.2,9.4h17.5l-1.6,7.1H75.1L83.8,56.5z M51.3,85.2h-6.7
			l-3.3-16.7L35.4,94h-9.2l8.6-37.5H46l4.1,18.8l12.7-18.8h11.4L65.6,94h-9.7l5.7-24.5L51.3,85.2z"/>
		<path class="st1" d="M258.8,72c1.4-1,2.1-2.5,2.1-4.4c0-1.5-0.5-2.6-1.4-3.2c-1-0.6-2.4-0.9-4.3-0.9h-4.8l-2.3,10.1h4.8
			C255.4,73.5,257.4,73,258.8,72z"/>
		<path class="st1" d="M183.5,70.1c1.2-0.8,1.8-2,1.8-3.6c0-1.1-0.4-1.9-1.3-2.4c-0.9-0.5-2.1-0.7-3.6-0.7H176l-1.8,7.9h4.4
			C180.6,71.3,182.3,70.9,183.5,70.1z"/>
		<path class="st1" d="M184.2,81.7c0-1.4-0.5-2.4-1.6-3c-1-0.6-2.7-0.9-4.9-0.9h-5.1l-2.2,9.3h4.9c2.8,0,5-0.5,6.5-1.4
			C183.4,84.8,184.2,83.5,184.2,81.7z"/>
		<path class="st0" d="M32.9,206.7c-9.6,0-17.4-7.8-17.4-17.4v-123c0-9.6,7.8-17.4,17.4-17.4H294c9.6,0,17.4,7.8,17.4,17.4v50h15.5
			v-50c0-18.1-14.7-32.9-32.9-32.9H32.9C14.7,33.5,0,48.3,0,66.4v123c0,18.1,14.7,32.9,32.9,32.9h26.3v-15.5H32.9z"/>
		<polygon class="st0" points="65.6,94 74.3,56.5 62.9,56.5 50.1,75.3 46,56.5 34.9,56.5 26.3,94 35.4,94 41.3,68.5 44.6,85.2 
			51.3,85.2 61.6,69.5 55.9,94 		"/>
		<polygon class="st0" points="103.9,86.9 86.4,86.9 88.6,77.4 104.8,77.4 106.5,70.3 90.3,70.3 91.8,63.7 109.3,63.7 110.9,56.5 
			83.8,56.5 75.1,94 102.3,94 		"/>
		<polygon class="st0" points="119.5,94 125.4,68.5 128.7,85.2 135.4,85.2 145.7,69.5 140,94 149.7,94 158.3,56.5 146.9,56.5 
			134.2,75.3 130.1,56.5 119,56.5 110.3,94 		"/>
		<path class="st0" d="M189.1,90.7c3.2-2.2,4.8-5.3,4.8-9.2c0-2-0.5-3.6-1.6-4.7c-1-1.1-2.6-2-4.6-2.5l0.1-0.2
			c2.6-0.8,4.5-1.9,5.7-3.4c1.3-1.5,1.9-3.4,1.9-5.7c0-2.7-1.2-4.8-3.6-6.3s-5.8-2.2-10.4-2.2h-13.7L159.2,94h16.2
			C181.3,94,185.9,92.9,189.1,90.7z M176,63.4h4.4c1.5,0,2.8,0.2,3.6,0.7c0.9,0.5,1.3,1.3,1.3,2.4c0,1.6-0.6,2.7-1.8,3.6
			c-1.2,0.8-2.8,1.2-4.9,1.2h-4.4L176,63.4z M170.5,87.1l2.2-9.3h5.1c2.2,0,3.9,0.3,4.9,0.9c1,0.6,1.6,1.6,1.6,3
			c0,1.8-0.8,3.1-2.3,4.1c-1.5,0.9-3.7,1.4-6.5,1.4H170.5z"/>
		<polygon class="st0" points="227.3,86.9 209.8,86.9 212,77.4 228.2,77.4 229.8,70.3 213.6,70.3 215.2,63.7 232.7,63.7 234.3,56.5 
			207.1,56.5 198.5,94 225.6,94 		"/>
		<path class="st0" d="M243.4,94l3.2-13.7h5.4L259,94h10.8l-8.7-15.8c3.1-1,5.6-2.6,7.5-4.6c1.8-2,2.7-4.6,2.7-7.6
			c0-3.2-1.3-5.6-3.8-7.1c-2.5-1.6-6-2.3-10.6-2.3h-14.6L233.7,94H243.4z M250.4,63.5h4.8c1.9,0,3.3,0.3,4.3,0.9
			c1,0.6,1.4,1.7,1.4,3.2c0,1.9-0.7,3.3-2.1,4.4c-1.4,1-3.4,1.6-6,1.6h-4.8L250.4,63.5z"/>
	</g>
</g>
</svg>
