<?xml version="1.0" encoding="utf-8"?>
<!-- Generator: Adobe Illustrator 23.0.5, SVG Export Plug-In . SVG Version: 6.00 Build 0)  -->
<svg version="1.1" id="Layer_1" xmlns="http://www.w3.org/2000/svg" xmlns:xlink="http://www.w3.org/1999/xlink" x="0px" y="0px"
	 viewBox="0 0 512 512" style="enable-background:new 0 0 512 512;" xml:space="preserve">
<style type="text/css">
	.st0{fill:#FF2020;}
	.st1{fill:none;}
	.st2{fill:url(#SVGID_1_);}
	.st3{fill:url(#SVGID_2_);}
	.st4{fill:url(#SVGID_3_);}
</style>
<path class="st0" d="M165.2,294.6c-0.7-2.7-3.1-4.5-5.8-4.5h-6c-2.5,0-4.8,1.6-5.6,3.9l-4.6,12.5h-6l-3.8-12.2
	c-0.8-2.5-3.1-4.2-5.7-4.2h-6.3v-4c0-3.3-2.7-6-6-6H99.4v-7.6h14.8v-6.8H58.3v6.8h16.8v7.6H58.3c-3.3,0-6,2.7-6,6v2.6h-10
	c-3.3,0-6,2.7-6,6v20.4h-6.7v-19.5h-6.8v45.8h6.8v-19.5h6.7v19.6c0,3.3,2.7,6,6,6h11.5l12.5,16.6c1.1,1.5,2.9,2.4,4.8,2.4h56
	c2.7,0,5-1.8,5.8-4.3l4-13.7h6l5.2,14.1c0.9,2.4,3.1,4,5.7,4h6c2.9,0,5.4-2.1,5.9-4.9c1-5,2.6-16.2,2.6-34.5
	C168.1,309,166.3,299,165.2,294.6z M159,359.7h-4.8l-5.2-14.1c-0.9-2.4-3.1-4-5.7-4h-7.1c-2.7,0-5,1.8-5.8,4.3l-4,13.7h-55L59,343.1
	c-1.1-1.5-2.9-2.4-4.8-2.4H43v-45.2h10c3.3,0,6-2.7,6-6v-2.6h55.2v4c0,3.3,2.7,6,6,6h6.5l3.8,12.2c0.8,2.5,3.1,4.2,5.7,4.2h7.1
	c2.5,0,4.8-1.6,5.6-3.9l4.6-12.5h4.8c0.9,3.7,2.6,13.1,2.6,30.3C161.3,344.7,159.8,355.4,159,359.7z"/>
<g>
	<path class="st1" d="M140.1,355.4l-1.4,4.9c1-0.1,2.1-0.3,3.1-0.4L140.1,355.4z"/>
	<path class="st1" d="M116.7,378.2c-0.4,0.6-0.8,1.1-1.2,1.7c-2.3-3.1-4.7-5.9-7-8.4H87.2c1.4,5.8,5,13.3,10.7,21.3
		c0,0.1,0.1,0.1,0.1,0.2c-0.7,0.3-1.3,0.5-2,0.7c-5.7-7.9-9.5-15.8-11-22.2h-0.3c-0.2,0.6-0.3,1.2-0.5,1.9
		c-1.8,6.2-5.5,13.4-10.4,20.3c-0.7-0.2-1.3-0.5-2-0.7c5-6.9,8.7-14.1,10.4-20.2c0.1-0.4,0.2-0.8,0.3-1.3H71.1c-2.6,0-5.1-0.9-7-2.5
		c-3.3,3.1-6.6,6.8-9.7,11c-0.4-0.5-0.8-1.1-1.2-1.7c3-4.1,6.2-7.7,9.4-10.7c-0.1-0.1-0.3-0.3-0.4-0.4l-3.9-5.2
		c-3.6-0.6-7.5-1.5-11.4-2.6c0-0.6,0-1.2,0-1.8c0-0.1,0-0.2,0-0.3c3.3,1,6.5,1.8,9.6,2.4l-5.3-7.1h-4.5c-0.2,1.7-0.3,3.4-0.3,5.1
		c0,21.2,17.2,38.4,38.4,38.4c16.3,0,30.2-10.1,35.8-24.5h-9.3C113.1,373.6,114.9,375.8,116.7,378.2z"/>
	<path class="st1" d="M463.4,357.5c0-21.2-17.3-38.4-38.4-38.4c-21.2,0-38.4,17.2-38.4,38.4c0,21.2,17.2,38.4,38.4,38.4
		C446.2,395.9,463.4,378.7,463.4,357.5z M438.1,392.7c0,0.1,0.1,0.1,0.1,0.2c-0.7,0.3-1.3,0.5-2,0.7c-5.9-8.1-9.7-16.3-11.1-22.7
		c-0.2,0.8-0.4,1.6-0.6,2.4c-1.8,6.2-5.5,13.4-10.4,20.3c-0.7-0.2-1.3-0.5-2-0.7c5-6.9,8.7-14.1,10.4-20.2c1.6-5.7,1.3-9.9-0.9-11.5
		c-0.6-0.5-1.5-0.7-2.5-0.7c-0.3,0-0.7,0.1-1,0.1c-1.2,0.7-2.7,1.2-4.4,1.5c-1,0.5-2.1,1.1-3.3,1.9c-5.3,3.5-10.8,9.1-15.8,15.9
		c-0.4-0.5-0.8-1.1-1.2-1.7c4.9-6.6,10.3-12.1,15.5-15.6c-0.5,0-1,0-1.5,0c-5.9,0-13-1.2-20.2-3.4c0-0.6,0-1.2,0-1.8
		c0-0.1,0-0.2,0-0.3c7.9,2.5,15.6,3.7,21.8,3.5c1.5,0,2.9-0.2,4.1-0.4c1.6-0.8,3.1-1.3,4.4-1.5c1.1-0.7,1.9-1.5,2.2-2.5
		c0.8-2.5-1.4-6.1-6.1-9.8c-4.9-3.9-12-7.5-19.9-10.1c0.4-0.6,0.8-1.1,1.2-1.7c7.9,2.7,15,6.3,20,10.2c0.6,0.5,1.2,1,1.7,1.5
		c-2.7-5.8-4.4-14.5-4.5-24.4c0.7-0.3,1.3-0.5,2-0.7c0.1,18.5,5.7,30.9,10.9,30.9s10.8-12.5,10.9-31c0.7,0.2,1.3,0.5,2,0.7
		c-0.1,10.1-1.8,18.9-4.6,24.8c4.7-4.4,12.5-8.8,22-12c0.4,0.6,0.8,1.1,1.2,1.7c-17.6,5.8-27.6,15-25.9,19.8c0.3,0.9,1,1.7,2,2.3
		c1.4,0.2,3,0.8,4.7,1.6c1.2,0.2,2.5,0.3,4,0.4c6.2,0.2,13.9-1,21.8-3.5c0,0.1,0,0.3,0,0.4c0,0.6,0,1.1,0,1.7
		c-7.2,2.2-14.3,3.4-20.2,3.4c-0.5,0-1,0-1.5,0c5,3.5,10.5,8.9,15.5,15.7c-0.4,0.6-0.8,1.1-1.2,1.7c-6.6-9-13.5-15.1-18.9-17.9
		c-2-0.4-3.6-1-4.9-1.7c-1.4-0.1-2.5,0.1-3.4,0.7C424.2,364,427.1,377.5,438.1,392.7z"/>
	<path class="st1" d="M428.6,356.8c-0.4-1.3-0.3-2.7,0.2-4.1c-1.2,0.9-2.5,1.4-3.8,1.4c-1.2,0-2.4-0.4-3.5-1.2
		c0.4,1.4,0.5,2.7,0.1,3.9c-0.2,0.7-0.5,1.3-1,1.9c0.8,0.2,1.5,0.5,2.2,1c0.9,0.7,1.7,1.7,2.1,3c0.4-1.3,1.2-2.4,2.2-3.2
		c0.7-0.5,1.5-0.8,2.4-1C429.1,358,428.8,357.4,428.6,356.8z"/>
	
		<linearGradient id="SVGID_1_" gradientUnits="userSpaceOnUse" x1="39.9541" y1="129.2816" x2="39.9541" y2="114.3382" gradientTransform="matrix(1 0 0 -1 0 512)">
		<stop  offset="0" style="stop-color:#000000;stop-opacity:0"/>
		<stop  offset="1" style="stop-color:#000000"/>
	</linearGradient>
	<path class="st2" d="M48,376.4H0v22.2h79.9C66,396.9,54.2,388.4,48,376.4z M28.2,380.5c-3.1,0-6.1-0.9-8.7-2.6l-0.6-0.4h28.9
		c0.5,1,1.1,2,1.8,3H28.2z"/>
	
		<linearGradient id="SVGID_2_" gradientUnits="userSpaceOnUse" x1="470.9459" y1="129.2816" x2="470.9459" y2="114.3382" gradientTransform="matrix(1 0 0 -1 0 512)">
		<stop  offset="0" style="stop-color:#000000;stop-opacity:0"/>
		<stop  offset="1" style="stop-color:#000000"/>
	</linearGradient>
	<path class="st3" d="M512,376.4h-19.5c-13.4,4.8-28.1,4.1-29.1,4.1h-2.7c0.6-1,1.2-2,1.8-3h0.8c0.1,0,6-0.1,13.4-1.1h-14.8
		c-6.2,12-18,20.5-31.9,22.2H512V376.4z"/>
	
		<linearGradient id="SVGID_3_" gradientUnits="userSpaceOnUse" x1="254.9093" y1="129.2816" x2="254.9093" y2="114.3382" gradientTransform="matrix(1 0 0 -1 0 512)">
		<stop  offset="0" style="stop-color:#000000;stop-opacity:0"/>
		<stop  offset="1" style="stop-color:#000000"/>
	</linearGradient>
	<path class="st4" d="M388.2,376.4h-27.3h-1.7H121.6c-6.2,12-18,20.5-31.9,22.2h250.6h39.5h40.3
		C406.2,396.9,394.4,388.4,388.2,376.4z M120.6,380.5c0.6-1,1.2-2,1.8-3h265.5c0.6,1,1.2,2,1.8,3H120.6z"/>
	<path class="st0" d="M461.4,376.4h0.4c2.9-5.7,4.6-12.1,4.6-18.9c0-22.8-18.6-41.4-41.4-41.4s-41.4,18.6-41.4,41.4
		c0,6.8,1.7,13.2,4.6,18.9h0c0,0,12,19.5,32.4,22.2h-0.5c1.6,0.2,3.2,0.3,4.9,0.3s3.3-0.1,4.9-0.3h-0.1
		C446.7,395.4,461.4,376.4,461.4,376.4z M386.6,357.5c0-21.2,17.2-38.4,38.4-38.4c21.1,0,38.4,17.2,38.4,38.4
		c0,21.2-17.2,38.4-38.4,38.4C403.8,395.9,386.6,378.7,386.6,357.5z"/>
	<path class="st0" d="M461.8,376.4h-0.4c0,0-14.7,19-31.6,22.2h0.1C443.8,396.9,455.6,388.4,461.8,376.4z"/>
	<path class="st0" d="M388.2,376.4L388.2,376.4c6.2,12,18,20.5,31.9,22.2h0.5C400.2,395.9,388.2,376.4,388.2,376.4z"/>
	<path class="st0" d="M428.5,360.9c0.9-0.6,2-0.8,3.4-0.7c1.3,0.7,2.9,1.3,4.9,1.7c5.4,2.8,12.3,8.9,18.9,17.9
		c0.4-0.6,0.8-1.1,1.2-1.7c-5-6.8-10.5-12.2-15.5-15.7c0.5,0,1,0,1.5,0c5.9,0,13-1.2,20.2-3.4c0-0.6,0-1.1,0-1.7c0-0.1,0-0.3,0-0.4
		c-7.9,2.5-15.6,3.7-21.8,3.5c-1.5-0.1-2.8-0.2-4-0.4c-1.7-0.8-3.3-1.4-4.7-1.6c-1-0.6-1.7-1.4-2-2.3c-1.7-4.8,8.3-14,25.9-19.8
		c-0.4-0.6-0.8-1.1-1.2-1.7c-9.5,3.2-17.3,7.6-22,12c2.8-5.9,4.5-14.7,4.6-24.8c-0.7-0.2-1.3-0.5-2-0.7c-0.1,18.5-5.7,31-10.9,31
		s-10.8-12.4-10.9-30.9c-0.7,0.2-1.3,0.4-2,0.7c0.1,9.9,1.8,18.6,4.5,24.4c-0.5-0.5-1.1-1-1.7-1.5c-5-3.9-12.1-7.5-20-10.2
		c-0.4,0.6-0.8,1.1-1.2,1.7c7.9,2.6,15,6.2,19.9,10.1c4.7,3.7,6.9,7.3,6.1,9.8c-0.3,1-1.1,1.8-2.2,2.5c-1.3,0.2-2.8,0.7-4.4,1.5
		c-1.2,0.2-2.6,0.4-4.1,0.4c-6.2,0.2-13.9-1-21.8-3.5c0,0.1,0,0.2,0,0.3c0,0.6,0,1.2,0,1.8c7.2,2.2,14.3,3.4,20.2,3.4
		c0.5,0,1,0,1.5,0c-5.2,3.5-10.6,9-15.5,15.6c0.4,0.6,0.8,1.2,1.2,1.7c5-6.8,10.5-12.4,15.8-15.9c1.2-0.8,2.3-1.4,3.3-1.9
		c1.7-0.3,3.2-0.8,4.4-1.5c0.3,0,0.7-0.1,1-0.1c1,0,1.9,0.2,2.5,0.7c2.2,1.6,2.5,5.8,0.9,11.5c-1.7,6.1-5.4,13.3-10.4,20.2
		c0.7,0.2,1.3,0.5,2,0.7c4.9-6.9,8.6-14.1,10.4-20.3c0.2-0.8,0.4-1.6,0.6-2.4c1.4,6.4,5.2,14.6,11.1,22.7c0.7-0.2,1.3-0.4,2-0.7
		c0-0.1-0.1-0.1-0.1-0.2C427.1,377.5,424.2,364,428.5,360.9z M424.9,362.7c-0.4-1.3-1.2-2.3-2.1-3c-0.7-0.5-1.4-0.8-2.2-1
		c0.5-0.6,0.8-1.2,1-1.9c0.4-1.2,0.3-2.5-0.1-3.9c1.1,0.8,2.3,1.2,3.5,1.2c1.3,0,2.6-0.5,3.8-1.4c-0.5,1.4-0.6,2.8-0.2,4.1
		c0.2,0.6,0.5,1.2,0.9,1.7c-0.9,0.2-1.7,0.5-2.4,1C426.1,360.3,425.3,361.4,424.9,362.7z"/>
	<path class="st0" d="M172,297.9c5-3.8,9.8-7.6,14.5-11.2c26.5-20.6,47.4-36.9,85.5-41c52.6-5.6,107.2,11.4,117.6,14.9l1.5,0.5
		c21.9,7.4,55.6,22.3,93.8,18.2c4.4-0.5,8.6-2.1,12.2-4.7l0.5-0.3c-34.6,7.7-82.5-8.3-105.5-16l-1.5-0.5
		c-10.5-3.5-65.6-20.7-118.8-15c-38.9,4.2-61.2,21.5-87,41.6c-4.6,3.6-9.3,7.3-14.3,11c0.2,0.9,0.4,2,0.6,3.1
		C171.4,298.3,171.7,298.1,172,297.9z"/>
	<path class="st0" d="M472.9,282.8l-28.5,0.9c-0.7,0-1.3,0.1-2,0.1c-44.7,4.8-202.8,16.8-270.5,20.1c0.1,0.9,0.2,1.9,0.3,2.9
		C244.7,303.4,423.8,290.2,472.9,282.8z"/>
	<path class="st0" d="M226.3,359.5c11-0.2,19.9-0.4,25.6-0.5c32-0.6,63.2-1.4,105.3-13.4c3.1-0.9,6-2,8.9-3.3
		c5.7-2.6,20.5-10.7,22.6-13.3c-32.5,18.1-102.9,26.3-136.9,27c-5.7,0.1-14.6,0.3-25.6,0.5c-23,0.5-29.9,1-55,1.6
		c-0.2,1.1-0.3,2-0.5,2.9C191.6,360.4,207.5,359.9,226.3,359.5z"/>
	<path class="st0" d="M138.6,360.4l-0.4,1.4c1.4,0,2.8-0.1,4.1-0.1l-0.6-1.7C140.7,360.1,139.7,360.2,138.6,360.4z"/>
	<path class="st0" d="M41.1,358.3c-2.3,0-10.7-0.1-13.5,0.1c-4.4,0.3-8.7,2.5-8.7,3.3c2.2,0,12.5-0.1,15.4-0.3
		C38.7,361.1,41,359.1,41.1,358.3z"/>
	<path class="st0" d="M121.6,376.4L121.6,376.4c0.8-1.6,1.5-3.2,2.1-4.9h-3.2C115,385.9,101.1,396,84.8,396
		c-21.2,0-38.4-17.2-38.4-38.4c0-1.7,0.1-3.4,0.3-5.1h-3c-0.2,1.6-0.3,3.3-0.3,5c0,6.8,1.7,13.2,4.6,18.9h0.1c0,0,14.5,19.5,34,22.2
		h-2.2c1.6,0.2,3.2,0.3,4.9,0.3c1.7,0,3.3-0.1,4.9-0.3h0C112.3,392.6,121.6,376.4,121.6,376.4z"/>
	<path class="st0" d="M48.1,376.4H48c6.2,12,18,20.5,31.9,22.2h2.2C62.6,395.9,48.1,376.4,48.1,376.4z"/>
	<path class="st0" d="M121.6,376.4L121.6,376.4c0,0-9.3,16.2-31.9,22.2h0C103.7,396.9,115.5,388.4,121.6,376.4z"/>
	<path class="st0" d="M47,357.2c0,0.1,0,0.2,0,0.3c0,0.6,0,1.2,0,1.8c3.9,1.2,7.7,2.1,11.4,2.6l-1.7-2.3
		C53.5,359,50.3,358.2,47,357.2z"/>
	<path class="st0" d="M62.6,367.6c-3.2,3-6.4,6.7-9.4,10.7c0.4,0.6,0.8,1.2,1.2,1.7c3.1-4.2,6.4-7.9,9.7-11
		C63.5,368.6,63.1,368.1,62.6,367.6z"/>
	<path class="st0" d="M82.3,372.8c-1.7,6.1-5.4,13.3-10.4,20.2c0.7,0.2,1.3,0.5,2,0.7c4.9-6.9,8.6-14.1,10.4-20.3
		c0.2-0.6,0.3-1.2,0.5-1.9h-2.1C82.5,372,82.4,372.4,82.3,372.8z"/>
	<path class="st0" d="M115.5,379.9c0.4-0.6,0.8-1.1,1.2-1.7c-1.8-2.4-3.6-4.6-5.4-6.7h-2.7C110.8,374,113.2,376.8,115.5,379.9z"/>
	<path class="st0" d="M96,393.7c0.7-0.2,1.3-0.4,2-0.7c0-0.1-0.1-0.1-0.1-0.2c-5.8-8-9.3-15.5-10.7-21.3H85
		C86.5,377.9,90.3,385.8,96,393.7z"/>
	<path class="st0" d="M122.4,377.5c-0.6,1-1.2,2-1.8,3h269.1c-0.6-1-1.2-2-1.8-3H122.4z"/>
	<path class="st0" d="M18.9,377.5l0.6,0.4c2.6,1.7,5.6,2.6,8.7,2.6h21.4c-0.7-1-1.3-2-1.8-3H18.9z"/>
	<path class="st0" d="M493.8,375.9c3.4-1.4,6.1-4,7.6-7.3c-6.5,4.5-16.6,6.7-24.7,7.8h15.8C492.9,376.2,493.4,376.1,493.8,375.9z"/>
	<path class="st0" d="M462.5,377.5c-0.6,1-1.2,2-1.8,3h2.7c1,0,15.7,0.7,29.1-4.1h-15.8c-7.4,1-13.2,1.1-13.4,1.1H462.5z"/>
	<path d="M84.8,371.5H85c0-0.2-0.1-0.4-0.1-0.5C84.9,371.2,84.8,371.4,84.8,371.5z"/>
</g>
</svg>
