<?xml version="1.0" encoding="utf-8"?>
<!-- Generator: Adobe Illustrator 23.0.5, SVG Export Plug-In . SVG Version: 6.00 Build 0)  -->
<svg version="1.1" id="Layer_1" xmlns="http://www.w3.org/2000/svg" xmlns:xlink="http://www.w3.org/1999/xlink" x="0px" y="0px"
	 viewBox="0 0 512 512" style="enable-background:new 0 0 512 512;" xml:space="preserve">
<style type="text/css">
	.st0{fill:#303030;}
</style>
<path d="M77,188.2c0,0.1,0,0.2,0,0.3C84.2,334.5,256,512,256,512s171.8-177.5,179-323.5c0-0.1,0-0.2,0-0.3c0.1-1.3,0.1-2.5,0.1-3.8
	c0-0.4,0-0.7,0-1.1c0-1.4,0.1-2.8,0.1-4.2C435.2,80.2,355,0,256,0S76.8,80.2,76.8,179.2c0,1.4,0,2.8,0.1,4.2c0,0.4,0,0.7,0,1.1
	C76.9,185.7,77,187,77,188.2z"/>
<circle class="st0" cx="256" cy="179.2" r="125.4"/>
</svg>
