<?xml version="1.0" encoding="utf-8"?>
<!-- Generator: Adobe Illustrator 23.0.5, SVG Export Plug-In . SVG Version: 6.00 Build 0)  -->
<svg version="1.1" id="Layer_1" xmlns="http://www.w3.org/2000/svg" xmlns:xlink="http://www.w3.org/1999/xlink" x="0px" y="0px"
	 viewBox="0 0 512 512" style="enable-background:new 0 0 512 512;" xml:space="preserve">
<style type="text/css">
	.st0{fill:none;}
	.st1{fill:#FC6363;}
	.st2{fill:#FF2020;}
</style>
<g>
	<path class="st0" d="M133,156.5h23.6v-39.3c0,15.9-9.5,29.6-23.1,35.8v0.1C133.4,154.4,133.3,155.5,133,156.5z"/>
	<path class="st0" d="M127.5,131.6c0-1.1-0.3-2-0.8-2.6c-0.5-0.6-1.3-0.9-2.2-0.9c-0.9,0-1.7,0.3-2.2,0.9c-0.5,0.6-0.8,1.5-0.8,2.6
		v14.8c2.1-0.3,4.1-0.8,6-1.5V131.6z"/>
	<path class="st0" d="M124.7,156.5c0.9,0,1.6-0.3,2-0.9c0.1-0.1,0.2-0.2,0.2-0.3c-1.3,0.3-2.7,0.6-4.1,0.8c0.4,0.3,0.9,0.4,1.5,0.4
		H124.7z"/>
	<path class="st0" d="M51.1,128.1c-1,0-1.7,0.3-2.3,0.9c-0.5,0.6-0.8,1.4-0.8,2.6v5.5c0,1,0.3,1.8,0.8,2.4c0.5,0.6,1.3,0.9,2.3,0.9
		s1.7-0.3,2.3-0.9c0.5-0.6,0.8-1.4,0.8-2.5v-5.5c0-1.1-0.3-2-0.8-2.5C52.8,128.4,52,128.1,51.1,128.1z"/>
	<path class="st0" d="M310.4,156.5c0.9,0,1.7-0.3,2.2-0.9c0.5-0.6,0.8-1.5,0.8-2.6v-21.5c0-1.1-0.3-2-0.8-2.6
		c-0.5-0.6-1.3-0.9-2.2-0.9c-0.9,0-1.7,0.3-2.2,0.9c-0.5,0.6-0.8,1.5-0.8,2.6v21.5c0,1.1,0.3,2,0.8,2.6
		C308.8,156.2,309.5,156.5,310.4,156.5z"/>
	<path class="st0" d="M384.9,156.5c0.9,0,1.7-0.3,2.2-0.9c0.5-0.6,0.8-1.5,0.8-2.6v-21.5c0-1.1-0.3-2-0.8-2.6
		c-0.5-0.6-1.3-0.9-2.2-0.9s-1.7,0.3-2.2,0.9c-0.5,0.6-0.8,1.5-0.8,2.6v21.5c0,1.1,0.3,2,0.8,2.6C383.2,156.2,384,156.5,384.9,156.5
		z"/>
	<path class="st0" d="M156.5,156.5H133c-0.4,1.3-1,2.4-1.9,3.3c-1.6,1.6-3.7,2.4-6.6,2.4c-2.8,0-5-0.8-6.6-2.4
		c-0.9-0.9-1.5-2-1.9-3.3h-5.7c-0.2,0.6-0.4,1.1-0.6,1.7c-0.7,1.3-1.7,2.3-3.1,3c-1.4,0.7-3,1-4.8,1c-1.9,0-3.6-0.3-5-1
		c-1.4-0.7-2.4-1.6-3.1-2.9c-0.3-0.6-0.6-1.2-0.7-1.9H53.6l-2.1,5.3h-6.3l2.1-5.3h-8.9v5.3H20.6v-5.2l0-0.1H9.8v316.1
		c0,16.3,13.2,29.5,29.5,29.5h433.3c16.3,0,29.5-13.2,29.5-29.5V39.3c0-16.3-13.2-29.5-29.5-29.5H156.5v107.4V156.5z M472.3,150.5
		l8.3-27.7h6.2l-7.9,27.4h5.8v-10.6h5.8v10.6h2.6v5.7h-2.6v6h-5.8v-6h-12.3V150.5z M450,131.5c0-2.9,0.8-5.2,2.3-6.8
		c1.6-1.6,3.7-2.4,6.6-2.4c2.8,0,5,0.8,6.6,2.4c1.6,1.6,2.3,3.8,2.3,6.8v21.5c0,2.9-0.8,5.2-2.3,6.8c-1.6,1.6-3.7,2.4-6.6,2.4
		c-2.8,0-5-0.8-6.6-2.4c-1.6-1.6-2.3-3.8-2.3-6.8V131.5z M397.4,151h5.9v2.6c0,0.6,0.2,1.1,0.4,1.6s0.6,0.8,1.1,1
		c0.5,0.2,1.1,0.3,1.7,0.3c1,0,1.7-0.3,2.3-0.8c0.5-0.6,0.8-1.3,0.8-2.3v-5.5c0-1.1-0.2-1.9-0.7-2.6c-0.5-0.6-1.2-0.9-2.1-0.9h-2.4
		v-5.7h2.4c0.7,0,1.2-0.3,1.6-0.8c0.4-0.5,0.6-1.2,0.6-2.1v-5.1c0-0.8-0.2-1.4-0.6-1.9c-0.4-0.4-1-0.7-1.8-0.7c-0.6,0-1,0.1-1.4,0.3
		c-0.4,0.2-0.7,0.5-0.9,0.9c-0.2,0.4-0.3,0.8-0.3,1.4v2.9h-5.9v-3c0-1.7,0.3-3.2,1-4.5c0.7-1.3,1.7-2.2,3-2.8c1.3-0.6,2.9-1,4.7-1
		c2.6,0,4.6,0.7,6,2.2c1.4,1.5,2.1,3.5,2.1,6.1v5.3c0,1-0.3,1.9-0.9,2.9c-0.6,0.9-1.5,1.8-2.6,2.6c1.3,0.5,2.4,1.3,3.1,2.4
		c0.7,1.1,1.1,2.4,1.1,3.9v5.7c0,1.9-0.3,3.5-1,4.8c-0.7,1.3-1.7,2.3-3.1,3c-1.4,0.7-3,1-4.8,1c-1.9,0-3.6-0.3-5-1
		c-1.4-0.7-2.4-1.6-3.1-2.9c-0.7-1.3-1.1-2.8-1.1-4.6V151z M376,131.5c0-2.9,0.8-5.2,2.3-6.8c1.6-1.6,3.7-2.4,6.6-2.4s5,0.8,6.6,2.4
		c1.6,1.6,2.3,3.8,2.3,6.8v21.5c0,2.9-0.8,5.2-2.3,6.8c-1.6,1.6-3.7,2.4-6.6,2.4s-5-0.8-6.6-2.4c-1.6-1.6-2.3-3.8-2.3-6.8V131.5z
		 M323.8,133c0-2.4,0.4-4.3,1-5.9c0.7-1.6,1.7-2.7,3-3.5c1.3-0.8,3-1.2,5-1.2s3.7,0.3,5,1s2.3,1.7,3,3.1c0.7,1.4,1,3.1,1,5.2v0.3
		c0,1.5-0.3,3.2-0.9,5.1c-0.6,1.9-1.6,4-2.8,6.4l-6.8,12.6h10.5v5.7h-17.8v-5.2l8.3-14.6c1.2-2,2.1-3.9,2.6-5.6s0.9-3.1,0.9-4.4
		v-0.3c0-1.2-0.2-2.1-0.7-2.7c-0.5-0.6-1.2-0.9-2.1-0.9c-1.1,0-1.9,0.4-2.5,1.2c-0.5,0.8-0.8,2-0.8,3.6v0.8h-6V133z M301.6,131.5
		c0-2.9,0.8-5.2,2.3-6.8c1.6-1.6,3.7-2.4,6.6-2.4c2.8,0,5,0.8,6.6,2.4c1.6,1.6,2.3,3.8,2.3,6.8v21.5c0,2.9-0.8,5.2-2.3,6.8
		c-1.6,1.6-3.7,2.4-6.6,2.4c-2.8,0-5-0.8-6.6-2.4c-1.6-1.6-2.3-3.8-2.3-6.8V131.5z M255.5,126l5.2-3.2h6.2v39H261v-32.6l-5.5,3V126z
		 M234.3,131.5c0-2.9,0.8-5.2,2.3-6.8c1.6-1.6,3.7-2.4,6.6-2.4c2.8,0,5,0.8,6.6,2.4c1.6,1.6,2.3,3.8,2.3,6.8v21.5
		c0,2.9-0.8,5.2-2.3,6.8c-1.6,1.6-3.7,2.4-6.6,2.4c-2.8,0-5-0.8-6.6-2.4c-1.6-1.6-2.3-3.8-2.3-6.8V131.5z M188.3,126l5.2-3.2h6.2v39
		h-5.9v-32.6l-5.5,3V126z M167,151h5.9v2.6c0,0.6,0.2,1.1,0.4,1.6c0.3,0.4,0.6,0.8,1.1,1c0.5,0.2,1.1,0.3,1.7,0.3
		c1,0,1.7-0.3,2.3-0.8c0.5-0.6,0.8-1.3,0.8-2.3v-5.5c0-1.1-0.2-1.9-0.7-2.6c-0.5-0.6-1.2-0.9-2.1-0.9h-2.4v-5.7h2.4
		c0.7,0,1.2-0.3,1.6-0.8c0.4-0.5,0.6-1.2,0.6-2.1v-5.1c0-0.8-0.2-1.4-0.6-1.9c-0.4-0.4-1-0.7-1.8-0.7c-0.6,0-1,0.1-1.4,0.3
		c-0.4,0.2-0.7,0.5-0.9,0.9c-0.2,0.4-0.3,0.8-0.3,1.4v2.9h-5.9v-3c0-1.7,0.3-3.2,1-4.5c0.7-1.3,1.7-2.2,3-2.8c1.3-0.6,2.9-1,4.7-1
		c2.6,0,4.6,0.7,6,2.2c1.4,1.5,2.1,3.5,2.1,6.1v5.3c0,1-0.3,1.9-0.9,2.9c-0.6,0.9-1.5,1.8-2.6,2.6c1.3,0.5,2.4,1.3,3.1,2.4
		c0.7,1.1,1.1,2.4,1.1,3.9v5.7c0,1.9-0.3,3.5-1,4.8c-0.7,1.3-1.7,2.3-3.1,3c-1.4,0.7-3,1-4.8,1c-1.9,0-3.6-0.3-5-1
		c-1.4-0.7-2.4-1.6-3.1-2.9c-0.7-1.3-1.1-2.8-1.1-4.6V151z"/>
	<path class="st0" d="M458.9,156.5c0.9,0,1.7-0.3,2.2-0.9c0.5-0.6,0.8-1.5,0.8-2.6v-21.5c0-1.1-0.3-2-0.8-2.6
		c-0.5-0.6-1.3-0.9-2.2-0.9c-0.9,0-1.7,0.3-2.2,0.9c-0.5,0.6-0.8,1.5-0.8,2.6v21.5c0,1.1,0.3,2,0.8,2.6
		C457.2,156.2,458,156.5,458.9,156.5z"/>
	<path class="st0" d="M243.2,156.5c0.9,0,1.7-0.3,2.2-0.9c0.5-0.6,0.8-1.5,0.8-2.6v-21.5c0-1.1-0.3-2-0.8-2.6
		c-0.5-0.6-1.3-0.9-2.2-0.9c-0.9,0-1.7,0.3-2.2,0.9c-0.5,0.6-0.8,1.5-0.8,2.6v21.5c0,1.1,0.3,2,0.8,2.6
		C241.5,156.2,242.3,156.5,243.2,156.5z"/>
	<path class="st0" d="M124.5,156.5c0.1,0,0.1,0,0.2,0h-0.3C124.4,156.5,124.5,156.5,124.5,156.5z"/>
	<path class="st1" d="M96.9,161.3c1.4,0.7,3,1,5,1c1.9,0,3.5-0.3,4.8-1c1.4-0.7,2.4-1.7,3.1-3c0.3-0.5,0.5-1.1,0.6-1.7H93
		c0.2,0.7,0.4,1.3,0.7,1.9C94.5,159.6,95.5,160.6,96.9,161.3z"/>
	<path class="st1" d="M122.9,156.1c-1.9,0.3-3.8,0.4-5.7,0.4h7.2C123.8,156.5,123.3,156.4,122.9,156.1z"/>
	<path class="st1" d="M124.7,156.5h8.3c0.3-1,0.5-2.2,0.5-3.5V153c-2.1,0.9-4.2,1.7-6.5,2.3c-0.1,0.1-0.1,0.2-0.2,0.3
		C126.2,156.2,125.6,156.5,124.7,156.5z"/>
	<path class="st1" d="M124.5,162.2c2.8,0,5-0.8,6.6-2.4c0.9-0.9,1.5-2,1.9-3.3h-8.3c-0.1,0-0.1,0-0.2,0s-0.1,0-0.2,0h-7.2h-1.1
		c0.4,1.3,1,2.4,1.9,3.3C119.5,161.4,121.7,162.2,124.5,162.2z"/>
	<polygon class="st1" points="20.6,161.8 38.4,161.8 38.4,156.5 20.7,156.5 20.6,156.6 	"/>
	<polygon class="st1" points="51.5,161.8 53.6,156.5 47.3,156.5 45.2,161.8 	"/>
	<path class="st2" d="M472.7,0H156.5h-9.8v117.2c0,10.3-5.3,19.4-13.3,24.7c-1.8,1.2-3.8,2.2-5.9,3c-1.9,0.7-3.9,1.2-6,1.5
		c-1.4,0.2-2.9,0.3-4.4,0.3h-1.5h-4.9h-5.9H57.4h-6.2H33h-6.7H0v9.8v316.1C0,494.4,17.6,512,39.3,512h433.3
		c21.7,0,39.3-17.6,39.3-39.3V39.3C512,17.6,494.4,0,472.7,0z M502.2,472.7c0,16.3-13.2,29.5-29.5,29.5H39.3
		c-16.3,0-29.5-13.2-29.5-29.5V156.5h10.8h17.7h8.9h6.3H93h17.3h5.7h1.1c1.9,0,3.9-0.1,5.7-0.4c1.4-0.2,2.7-0.5,4.1-0.8
		c2.2-0.6,4.4-1.4,6.5-2.3c13.6-6.2,23.1-19.9,23.1-35.8V9.8h316.1c16.3,0,29.5,13.2,29.5,29.5V472.7z"/>
	<path class="st1" d="M171.2,161.3c1.4,0.7,3,1,5,1c1.9,0,3.5-0.3,4.8-1c1.4-0.7,2.4-1.7,3.1-3c0.7-1.3,1-2.9,1-4.8v-5.7
		c0-1.5-0.4-2.8-1.1-3.9c-0.7-1.1-1.8-1.9-3.1-2.4c1.1-0.8,2-1.6,2.6-2.6c0.6-0.9,0.9-1.9,0.9-2.9v-5.3c0-2.6-0.7-4.7-2.1-6.1
		c-1.4-1.5-3.4-2.2-6-2.2c-1.8,0-3.4,0.3-4.7,1c-1.3,0.6-2.3,1.6-3,2.8c-0.7,1.3-1,2.7-1,4.5v3h5.9v-2.9c0-0.5,0.1-1,0.3-1.4
		c0.2-0.4,0.5-0.7,0.9-0.9c0.4-0.2,0.9-0.3,1.4-0.3c0.8,0,1.4,0.2,1.8,0.7c0.4,0.4,0.6,1.1,0.6,1.9v5.1c0,0.9-0.2,1.6-0.6,2.1
		c-0.4,0.5-0.9,0.8-1.6,0.8h-2.4v5.7h2.4c0.9,0,1.6,0.3,2.1,0.9c0.5,0.6,0.7,1.5,0.7,2.6v5.5c0,1-0.3,1.8-0.8,2.3
		c-0.5,0.6-1.3,0.8-2.3,0.8c-0.7,0-1.2-0.1-1.7-0.3c-0.5-0.2-0.9-0.6-1.1-1c-0.3-0.4-0.4-0.9-0.4-1.6V151H167v2.8
		c0,1.8,0.4,3.3,1.1,4.6C168.7,159.6,169.8,160.6,171.2,161.3z"/>
	<polygon class="st1" points="193.8,161.8 199.7,161.8 199.7,122.8 193.5,122.8 188.3,126 188.3,132.2 193.8,129.2 	"/>
	<path class="st2" d="M243.2,162.2c2.8,0,5-0.8,6.6-2.4c1.6-1.6,2.3-3.8,2.3-6.8v-21.5c0-2.9-0.8-5.2-2.3-6.8
		c-1.6-1.6-3.7-2.4-6.6-2.4c-2.8,0-5,0.8-6.6,2.4c-1.6,1.6-2.3,3.8-2.3,6.8v21.5c0,2.9,0.8,5.2,2.3,6.8
		C238.2,161.4,240.4,162.2,243.2,162.2z M240.2,131.6c0-1.1,0.3-2,0.8-2.6c0.5-0.6,1.3-0.9,2.2-0.9c0.9,0,1.7,0.3,2.2,0.9
		c0.5,0.6,0.8,1.5,0.8,2.6v21.5c0,1.1-0.3,2-0.8,2.6c-0.5,0.6-1.3,0.9-2.2,0.9c-0.9,0-1.7-0.3-2.2-0.9c-0.5-0.6-0.8-1.5-0.8-2.6
		V131.6z"/>
	<polygon class="st2" points="261,161.8 266.9,161.8 266.9,122.8 260.7,122.8 255.5,126 255.5,132.2 261,129.2 	"/>
	<path class="st2" d="M310.4,162.2c2.8,0,5-0.8,6.6-2.4c1.6-1.6,2.3-3.8,2.3-6.8v-21.5c0-2.9-0.8-5.2-2.3-6.8
		c-1.6-1.6-3.7-2.4-6.6-2.4c-2.8,0-5,0.8-6.6,2.4c-1.6,1.6-2.3,3.8-2.3,6.8v21.5c0,2.9,0.8,5.2,2.3,6.8
		C305.5,161.4,307.6,162.2,310.4,162.2z M307.5,131.6c0-1.1,0.3-2,0.8-2.6c0.5-0.6,1.3-0.9,2.2-0.9c0.9,0,1.7,0.3,2.2,0.9
		c0.5,0.6,0.8,1.5,0.8,2.6v21.5c0,1.1-0.3,2-0.8,2.6c-0.5,0.6-1.3,0.9-2.2,0.9c-0.9,0-1.7-0.3-2.2-0.9c-0.5-0.6-0.8-1.5-0.8-2.6
		V131.6z"/>
	<path class="st2" d="M329.9,133c0-1.6,0.3-2.8,0.8-3.6c0.5-0.8,1.3-1.2,2.5-1.2c0.9,0,1.6,0.3,2.1,0.9c0.5,0.6,0.7,1.5,0.7,2.7v0.3
		c0,1.3-0.3,2.7-0.9,4.4s-1.5,3.5-2.6,5.6l-8.3,14.6v5.2h17.8v-5.7h-10.5l6.8-12.6c1.3-2.3,2.2-4.4,2.8-6.4c0.6-1.9,0.9-3.6,0.9-5.1
		v-0.3c0-2.1-0.3-3.8-1-5.2c-0.7-1.4-1.7-2.4-3-3.1s-3-1-5-1s-3.7,0.4-5,1.2c-1.3,0.8-2.3,2-3,3.5c-0.7,1.6-1,3.5-1,5.9v0.8h6V133z"
		/>
	<path class="st2" d="M384.9,162.2c2.8,0,5-0.8,6.6-2.4c1.6-1.6,2.3-3.8,2.3-6.8v-21.5c0-2.9-0.8-5.2-2.3-6.8
		c-1.6-1.6-3.7-2.4-6.6-2.4s-5,0.8-6.6,2.4c-1.6,1.6-2.3,3.8-2.3,6.8v21.5c0,2.9,0.8,5.2,2.3,6.8
		C379.9,161.4,382.1,162.2,384.9,162.2z M381.9,131.6c0-1.1,0.3-2,0.8-2.6c0.5-0.6,1.3-0.9,2.2-0.9s1.7,0.3,2.2,0.9
		c0.5,0.6,0.8,1.5,0.8,2.6v21.5c0,1.1-0.3,2-0.8,2.6c-0.5,0.6-1.3,0.9-2.2,0.9s-1.7-0.3-2.2-0.9c-0.5-0.6-0.8-1.5-0.8-2.6V131.6z"/>
	<path class="st2" d="M401.6,161.3c1.4,0.7,3,1,5,1c1.9,0,3.5-0.3,4.8-1c1.4-0.7,2.4-1.7,3.1-3c0.7-1.3,1-2.9,1-4.8v-5.7
		c0-1.5-0.4-2.8-1.1-3.9c-0.7-1.1-1.8-1.9-3.1-2.4c1.1-0.8,2-1.6,2.6-2.6c0.6-0.9,0.9-1.9,0.9-2.9v-5.3c0-2.6-0.7-4.7-2.1-6.1
		c-1.4-1.5-3.4-2.2-6-2.2c-1.8,0-3.4,0.3-4.7,1c-1.3,0.6-2.3,1.6-3,2.8c-0.7,1.3-1,2.7-1,4.5v3h5.9v-2.9c0-0.5,0.1-1,0.3-1.4
		c0.2-0.4,0.5-0.7,0.9-0.9c0.4-0.2,0.9-0.3,1.4-0.3c0.8,0,1.4,0.2,1.8,0.7c0.4,0.4,0.6,1.1,0.6,1.9v5.1c0,0.9-0.2,1.6-0.6,2.1
		c-0.4,0.5-0.9,0.8-1.6,0.8h-2.4v5.7h2.4c0.9,0,1.6,0.3,2.1,0.9c0.5,0.6,0.7,1.5,0.7,2.6v5.5c0,1-0.3,1.8-0.8,2.3
		c-0.5,0.6-1.3,0.8-2.3,0.8c-0.7,0-1.2-0.1-1.7-0.3c-0.5-0.2-0.9-0.6-1.1-1s-0.4-0.9-0.4-1.6V151h-5.9v2.8c0,1.8,0.4,3.3,1.1,4.6
		C399.2,159.6,400.3,160.6,401.6,161.3z"/>
	<path class="st2" d="M458.9,162.2c2.8,0,5-0.8,6.6-2.4c1.6-1.6,2.3-3.8,2.3-6.8v-21.5c0-2.9-0.8-5.2-2.3-6.8
		c-1.6-1.6-3.7-2.4-6.6-2.4c-2.8,0-5,0.8-6.6,2.4c-1.6,1.6-2.3,3.8-2.3,6.8v21.5c0,2.9,0.8,5.2,2.3,6.8
		C453.9,161.4,456.1,162.2,458.9,162.2z M455.9,131.6c0-1.1,0.3-2,0.8-2.6c0.5-0.6,1.3-0.9,2.2-0.9c0.9,0,1.7,0.3,2.2,0.9
		c0.5,0.6,0.8,1.5,0.8,2.6v21.5c0,1.1-0.3,2-0.8,2.6c-0.5,0.6-1.3,0.9-2.2,0.9c-0.9,0-1.7-0.3-2.2-0.9c-0.5-0.6-0.8-1.5-0.8-2.6
		V131.6z"/>
	<rect x="484.6" y="150.2" class="st2" width="5.8" height="5.7"/>
	<polygon class="st2" points="484.6,150.2 478.8,150.2 486.7,122.8 480.6,122.8 472.3,150.5 472.3,155.8 484.6,155.8 	"/>
	<rect x="490.4" y="150.2" class="st2" width="2.6" height="5.7"/>
	<rect x="484.6" y="139.6" class="st2" width="5.8" height="10.6"/>
	<rect x="484.6" y="155.8" class="st2" width="5.8" height="6"/>
</g>
<g>
	<g>
		<path class="st2" d="M178.8,33.3h4.5l4.5,28.6l2.7-28.6h5.9l-5.2,39h-6l-4.1-25.9l-4.4,25.9h-6l-5.2-39h5.9l2.7,28.6L178.8,33.3z"
			/>
		<path class="st2" d="M200.4,71.7c-1.3-0.7-2.3-1.7-3-3c-0.7-1.3-1-2.9-1-4.8V53.4c0-2,0.3-3.7,1-5.1c0.7-1.4,1.6-2.5,2.9-3.2
			c1.3-0.7,2.8-1.1,4.6-1.1c1.8,0,3.3,0.3,4.6,1c1.3,0.7,2.3,1.7,2.9,3c0.7,1.3,1,3,1,4.9v7.6h-12.5V56h6.8v-3.1
			c0-1.1-0.3-2-0.8-2.7c-0.5-0.6-1.2-1-2.1-1c-0.9,0-1.6,0.3-2.1,1c-0.5,0.7-0.7,1.6-0.7,2.9V64c0,1.1,0.3,1.9,0.8,2.5
			c0.5,0.6,1.3,0.9,2.2,0.9c0.9,0,1.6-0.2,2-0.7c0.5-0.5,0.7-1.1,0.7-1.9v-0.6l5.6,0v0.5c0,2.6-0.7,4.5-2.2,5.9
			c-1.5,1.4-3.5,2.1-6.2,2.1C203.2,72.7,201.7,72.4,200.4,71.7z"/>
	</g>
	<g>
		<path class="st2" d="M231.6,33.3h19.3v5.6h-19.3V33.3z M238.4,36.5h5.9v35.8h-5.9V36.5z"/>
		<path class="st2" d="M253.6,33.3h5.9v39h-5.9V33.3z M265,52.9c0-1.1-0.2-2-0.7-2.6c-0.4-0.6-1.1-0.9-2.1-0.9
			c-0.9,0-1.6,0.3-2.1,0.9c-0.5,0.6-0.7,1.5-0.7,2.6l-0.5-3.7c0.6-1.7,1.4-3,2.5-3.9c1.1-0.9,2.3-1.4,3.7-1.4c1.9,0,3.3,0.6,4.3,1.9
			c1,1.3,1.5,3.1,1.5,5.4v21.1H265V52.9z"/>
	</g>
	<g>
		<path class="st2" d="M301.6,33.3h5.9v39h-5.9V33.3z M304.4,33.3h14.3v5.6h-14.3V33.3z M304.4,50.5h12.9v5.6h-12.9V50.5z"/>
		<path class="st2" d="M322.1,44.4h5.9v27.9h-5.9V44.4z M334.9,50c0,0-0.1,0-0.3,0s-0.5,0-0.8,0c-1.8,0-3.2,0.5-4.3,1.5
			c-1,1-1.5,2.3-1.6,4l-0.6-6.2c0.8-1.7,1.9-3,3.3-3.9c1.4-0.9,2.8-1.4,4.4-1.4v6C335,50,334.9,50,334.9,50z"/>
	</g>
	<g>
		<path class="st2" d="M380.1,71.6c-1.4-0.7-2.5-1.8-3.3-3.2s-1.1-3.1-1.1-5.1v-2l5.9-0.1v1.9c0,1.2,0.3,2.1,1,2.8
			c0.7,0.7,1.6,1,2.8,1c1.2,0,2.1-0.3,2.7-1c0.6-0.7,1-1.6,1-2.8v-3.4c0-0.8-0.2-1.6-0.6-2.1s-1-1.1-1.7-1.5
			c-0.7-0.4-1.6-0.9-2.8-1.4c-0.1,0-0.1,0-0.2-0.1c-0.1,0-0.1,0-0.2-0.1l-0.3-0.2c-1.5-0.8-2.8-1.5-3.9-2.3c-1-0.8-1.9-1.8-2.6-3.1
			c-0.7-1.3-1.1-2.9-1.1-4.8v-2.1c0-2,0.4-3.7,1.1-5c0.7-1.4,1.8-2.5,3.3-3.2c1.4-0.7,3.2-1.1,5.2-1.1c2,0,3.7,0.4,5.1,1.1
			c1.4,0.7,2.5,1.8,3.2,3.2c0.7,1.4,1.1,3.1,1.1,5.1v2.1l-5.9,0.1v-2c0-1.2-0.3-2.2-0.9-2.8c-0.6-0.7-1.5-1-2.6-1
			c-1.2,0-2.1,0.3-2.7,0.9c-0.6,0.6-0.9,1.5-0.9,2.6v2.5c0,0.9,0.2,1.6,0.6,2.2c0.4,0.6,1,1.1,1.6,1.5c0.6,0.4,1.5,0.8,2.7,1.4
			c0.2,0.1,0.3,0.1,0.5,0.2c0.2,0.1,0.3,0.2,0.5,0.3c0.1,0,0.1,0,0.2,0.1c0.1,0,0.1,0.1,0.2,0.1c1.5,0.7,2.7,1.4,3.7,2.1
			c0.9,0.7,1.7,1.6,2.4,2.8c0.7,1.2,1,2.8,1,4.7v3.4c0,2-0.4,3.7-1.1,5.1c-0.7,1.4-1.8,2.5-3.3,3.2c-1.4,0.7-3.1,1.1-5.2,1.1
			C383.2,72.7,381.5,72.4,380.1,71.6z"/>
		<path class="st2" d="M401.3,70.7c-1.1-1.3-1.7-3.3-1.7-5.9c0-3.1,0.8-5.4,2.3-6.9c1.5-1.6,3.7-2.3,6.6-2.3h2.8l0.4,4.9h-3
			c-1.2,0-2,0.4-2.6,1.1c-0.6,0.7-0.9,1.8-0.9,3.2c0,0.9,0.2,1.7,0.7,2.1c0.4,0.5,1.1,0.7,2,0.7c1.1,0,1.9-0.3,2.5-0.9
			c0.6-0.6,0.9-1.5,0.9-2.7l0.5,2.4c0,1.3-0.2,2.5-0.7,3.4c-0.4,0.9-1,1.6-1.8,2.1s-1.8,0.7-3,0.7C404.1,72.7,402.4,72.1,401.3,70.7
			z M411.2,52.1c0-0.9-0.3-1.7-0.8-2.2c-0.5-0.5-1.2-0.8-2.1-0.8c-0.8,0-1.4,0.3-1.8,0.8c-0.4,0.5-0.7,1.2-0.7,2.2h-5.7
			c0-2.6,0.7-4.6,2.2-6c1.4-1.4,3.5-2.1,6.1-2.1c1.8,0,3.3,0.3,4.5,1c1.3,0.6,2.2,1.6,2.9,2.8c0.7,1.2,1,2.7,1,4.4v20.2h-5.6V52.1z"
			/>
	</g>
	<g>
		<path class="st2" d="M454.1,71.6c-1.4-0.7-2.5-1.8-3.3-3.2c-0.8-1.4-1.1-3.1-1.1-5.1v-2l5.9-0.1v1.9c0,1.2,0.3,2.1,1,2.8
			c0.7,0.7,1.6,1,2.8,1c1.2,0,2.1-0.3,2.7-1c0.6-0.7,1-1.6,1-2.8v-3.4c0-0.8-0.2-1.6-0.6-2.1s-1-1.1-1.7-1.5
			c-0.7-0.4-1.6-0.9-2.8-1.4c-0.1,0-0.1,0-0.2-0.1c-0.1,0-0.1,0-0.2-0.1l-0.3-0.2c-1.5-0.8-2.8-1.5-3.9-2.3s-1.9-1.8-2.6-3.1
			s-1.1-2.9-1.1-4.8v-2.1c0-2,0.4-3.7,1.1-5s1.8-2.5,3.3-3.2c1.4-0.7,3.2-1.1,5.2-1.1c2,0,3.7,0.4,5.1,1.1c1.4,0.7,2.5,1.8,3.2,3.2
			c0.7,1.4,1.1,3.1,1.1,5.1v2.1l-5.9,0.1v-2c0-1.2-0.3-2.2-0.9-2.8c-0.6-0.7-1.5-1-2.6-1c-1.2,0-2.1,0.3-2.7,0.9
			c-0.6,0.6-0.9,1.5-0.9,2.6v2.5c0,0.9,0.2,1.6,0.6,2.2c0.4,0.6,1,1.1,1.6,1.5c0.6,0.4,1.5,0.8,2.7,1.4c0.2,0.1,0.3,0.1,0.5,0.2
			c0.2,0.1,0.3,0.2,0.5,0.3c0.1,0,0.1,0,0.2,0.1c0.1,0,0.1,0.1,0.2,0.1c1.5,0.7,2.7,1.4,3.7,2.1c0.9,0.7,1.7,1.6,2.4,2.8
			c0.7,1.2,1,2.8,1,4.7v3.4c0,2-0.4,3.7-1.1,5.1c-0.7,1.4-1.8,2.5-3.3,3.2c-1.4,0.7-3.1,1.1-5.2,1.1
			C457.2,72.7,455.5,72.4,454.1,71.6z"/>
		<path class="st2" d="M479.9,64.9c0,0.9,0.2,1.5,0.6,1.9s1.1,0.6,1.9,0.6c0.8,0,1.5-0.2,1.9-0.7c0.4-0.4,0.6-1.1,0.6-2l0.4,3.1
			c-0.5,1.6-1.1,2.8-2,3.6c-0.9,0.8-2,1.2-3.2,1.2c-2,0-3.5-0.6-4.5-1.9S474,67.6,474,65V44.4h5.9V64.9z M485,44.4h5.9v27.9H485
			V44.4z"/>
	</g>
</g>
<g>
	<g>
		<path class="st2" d="M96.1,236.6c-1.6-1.6-2.3-3.8-2.3-6.8v-21.5c0-2.9,0.8-5.2,2.3-6.8c1.6-1.6,3.7-2.4,6.6-2.4
			c2.8,0,5,0.8,6.6,2.4c1.6,1.6,2.3,3.8,2.3,6.8v21.5c0,2.9-0.8,5.2-2.3,6.8c-1.6,1.6-3.7,2.4-6.6,2.4
			C99.9,239,97.7,238.2,96.1,236.6z M104.9,232.4c0.5-0.6,0.8-1.5,0.8-2.6v-21.5c0-1.1-0.3-2-0.8-2.6c-0.5-0.6-1.3-0.9-2.2-0.9
			c-0.9,0-1.7,0.3-2.2,0.9c-0.5,0.6-0.8,1.5-0.8,2.6v21.5c0,1.1,0.3,2,0.8,2.6c0.5,0.6,1.3,0.9,2.2,0.9
			C103.6,233.3,104.4,233,104.9,232.4z"/>
		<path class="st2" d="M119.9,237.9c-1.3-0.7-2.3-1.8-3-3.2s-1-3.1-1-5v-5.1c0-1.6,0.2-3,0.5-4.2c0.3-1.2,0.8-2.6,1.5-4.2
			c0.1-0.2,0.2-0.4,0.3-0.6c0.1-0.2,0.2-0.4,0.3-0.7l6.2-15.3h6.3l-7.9,19.5l-1.7-1c0.6-0.8,1.4-1.5,2.2-2c0.8-0.5,1.7-0.7,2.6-0.7
			c1.6,0,3,0.3,4.1,1c1.2,0.7,2,1.6,2.6,2.9c0.6,1.3,0.9,2.8,0.9,4.6v5.7c0,2-0.4,3.7-1.1,5.1c-0.7,1.4-1.7,2.5-3.1,3.2
			c-1.3,0.7-2.9,1.1-4.8,1.1C122.8,239,121.2,238.6,119.9,237.9z M127,232.4c0.5-0.6,0.8-1.5,0.8-2.6v-5.3c0-1.1-0.3-1.9-0.8-2.5
			c-0.5-0.6-1.3-0.9-2.3-0.9c-1,0-1.7,0.3-2.3,0.9s-0.8,1.4-0.8,2.5v5.3c0,1.1,0.3,2,0.8,2.6s1.3,0.9,2.3,0.9
			C125.7,233.3,126.5,233,127,232.4z"/>
	</g>
	<g>
		<path class="st2" d="M23.3,236.6c-1.6-1.6-2.3-3.8-2.3-6.8v-21.5c0-2.9,0.8-5.2,2.3-6.8c1.6-1.6,3.7-2.4,6.6-2.4
			c2.8,0,5,0.8,6.6,2.4c1.6,1.6,2.3,3.8,2.3,6.8v21.5c0,2.9-0.8,5.2-2.3,6.8c-1.6,1.6-3.7,2.4-6.6,2.4C27,239,24.8,238.2,23.3,236.6
			z M32,232.4c0.5-0.6,0.8-1.5,0.8-2.6v-21.5c0-1.1-0.3-2-0.8-2.6c-0.5-0.6-1.3-0.9-2.2-0.9c-0.9,0-1.7,0.3-2.2,0.9
			c-0.5,0.6-0.8,1.5-0.8,2.6v21.5c0,1.1,0.3,2,0.8,2.6c0.5,0.6,1.3,0.9,2.2,0.9C30.8,233.3,31.5,233,32,232.4z"/>
		<path class="st2" d="M47.8,238c-1.3-0.7-2.3-1.6-3-2.9c-0.7-1.3-1-2.8-1-4.6v-1.7h5.9v1.7c0,0.9,0.2,1.6,0.7,2.1
			c0.5,0.5,1.2,0.7,2,0.7c0.9,0,1.6-0.3,2.1-0.8c0.5-0.5,0.7-1.2,0.7-2.1v-9.6c0-0.9-0.2-1.6-0.7-2c-0.4-0.5-1.1-0.7-1.8-0.7
			c-0.8,0-1.4,0.2-1.9,0.7c-0.4,0.4-0.7,1.1-0.6,1.9h-5.6v-21.1h16.2v5.7H50.5v8.7c0.5-0.5,1.1-0.9,1.8-1.2c0.7-0.3,1.4-0.4,2.1-0.4
			c1.4,0,2.6,0.3,3.6,1c1,0.7,1.8,1.6,2.3,2.9c0.5,1.3,0.8,2.8,0.8,4.6v9.6c0,1.8-0.3,3.4-1,4.6c-0.7,1.3-1.7,2.3-3,2.9
			c-1.3,0.7-2.9,1-4.7,1C50.6,239,49.1,238.7,47.8,238z"/>
	</g>
	<g>
		<path class="st2" d="M170.4,236.6c-1.6-1.6-2.3-3.8-2.3-6.8v-21.5c0-2.9,0.8-5.2,2.3-6.8c1.6-1.6,3.7-2.4,6.6-2.4
			c2.8,0,5,0.8,6.6,2.4c1.6,1.6,2.3,3.8,2.3,6.8v21.5c0,2.9-0.8,5.2-2.3,6.8c-1.6,1.6-3.7,2.4-6.6,2.4
			C174.2,239,172,238.2,170.4,236.6z M179.2,232.4c0.5-0.6,0.8-1.5,0.8-2.6v-21.5c0-1.1-0.3-2-0.8-2.6c-0.5-0.6-1.3-0.9-2.2-0.9
			c-0.9,0-1.7,0.3-2.2,0.9c-0.5,0.6-0.8,1.5-0.8,2.6v21.5c0,1.1,0.3,2,0.8,2.6c0.5,0.6,1.3,0.9,2.2,0.9
			C177.9,233.3,178.7,233,179.2,232.4z"/>
		<path class="st2" d="M207.4,204.3l-7.8,34.3h-5.9l7.8-33.7h-5.8v4.6h-5.7v-10h17.5V204.3z"/>
	</g>
	<g>
		<path class="st2" d="M236.7,236.6c-1.6-1.6-2.3-3.8-2.3-6.8v-21.5c0-2.9,0.8-5.2,2.3-6.8c1.6-1.6,3.7-2.4,6.6-2.4
			c2.8,0,5,0.8,6.6,2.4c1.6,1.6,2.3,3.8,2.3,6.8v21.5c0,2.9-0.8,5.2-2.3,6.8c-1.6,1.6-3.7,2.4-6.6,2.4
			C240.4,239,238.2,238.2,236.7,236.6z M245.4,232.4c0.5-0.6,0.8-1.5,0.8-2.6v-21.5c0-1.1-0.3-2-0.8-2.6c-0.5-0.6-1.3-0.9-2.2-0.9
			c-0.9,0-1.7,0.3-2.2,0.9c-0.5,0.6-0.8,1.5-0.8,2.6v21.5c0,1.1,0.3,2,0.8,2.6c0.5,0.6,1.3,0.9,2.2,0.9
			C244.2,233.3,244.9,233,245.4,232.4z"/>
		<path class="st2" d="M261.1,238c-1.3-0.7-2.3-1.6-3-2.9c-0.7-1.3-1.1-2.8-1.1-4.6v-6.2c0-1.4,0.4-2.7,1.2-3.8
			c0.8-1.1,1.9-2,3.2-2.6c-1.2-0.6-2.2-1.3-2.9-2.2c-0.7-0.9-1-2-1-3.1v-5.3c0-1.7,0.3-3.2,1-4.4c0.7-1.2,1.6-2.1,2.9-2.8
			c1.3-0.6,2.8-1,4.6-1c1.8,0,3.3,0.3,4.6,1c1.3,0.6,2.2,1.6,2.9,2.8c0.7,1.2,1,2.6,1,4.4v5.3c0,1.2-0.4,2.2-1.1,3.1
			c-0.7,0.9-1.7,1.7-3,2.2c1.4,0.6,2.5,1.5,3.3,2.6s1.2,2.4,1.2,3.8v6.2c0,1.8-0.4,3.3-1.1,4.6c-0.7,1.3-1.7,2.3-3,2.9
			c-1.3,0.7-2.9,1-4.8,1S262.4,238.7,261.1,238z M267.6,232.9c0.5-0.2,0.8-0.6,1.1-1c0.2-0.5,0.4-1,0.4-1.6v-6.6
			c0-0.6-0.1-1.1-0.4-1.5c-0.2-0.4-0.6-0.8-1.1-1c-0.5-0.2-1-0.3-1.7-0.3c-0.6,0-1.2,0.1-1.7,0.3c-0.5,0.2-0.8,0.6-1.1,1
			c-0.2,0.4-0.4,0.9-0.4,1.6v6.6c0,0.6,0.1,1.1,0.4,1.6c0.2,0.4,0.6,0.8,1.1,1c0.5,0.2,1,0.3,1.7,0.3S267.1,233.2,267.6,232.9z
			 M267.4,214.9c0.4-0.3,0.7-0.6,0.9-1.1c0.2-0.5,0.3-1,0.3-1.7v-4.3c0-0.6-0.1-1.2-0.3-1.7c-0.2-0.5-0.5-0.8-0.9-1.1
			c-0.4-0.2-0.9-0.4-1.5-0.4c-0.6,0-1,0.1-1.5,0.4c-0.4,0.2-0.7,0.6-0.9,1.1c-0.2,0.5-0.3,1-0.3,1.7v4.4c0,0.6,0.1,1.2,0.3,1.7
			c0.2,0.5,0.5,0.8,0.9,1c0.4,0.2,0.9,0.4,1.5,0.4C266.5,215.3,267,215.2,267.4,214.9z"/>
	</g>
	<g>
		<path class="st2" d="M303.9,236.6c-1.6-1.6-2.3-3.8-2.3-6.8v-21.5c0-2.9,0.8-5.2,2.3-6.8c1.6-1.6,3.7-2.4,6.6-2.4
			c2.8,0,5,0.8,6.6,2.4c1.6,1.6,2.3,3.8,2.3,6.8v21.5c0,2.9-0.8,5.2-2.3,6.8c-1.6,1.6-3.7,2.4-6.6,2.4
			C307.6,239,305.5,238.2,303.9,236.6z M312.6,232.4c0.5-0.6,0.8-1.5,0.8-2.6v-21.5c0-1.1-0.3-2-0.8-2.6c-0.5-0.6-1.3-0.9-2.2-0.9
			c-0.9,0-1.7,0.3-2.2,0.9c-0.5,0.6-0.8,1.5-0.8,2.6v21.5c0,1.1,0.3,2,0.8,2.6c0.5,0.6,1.3,0.9,2.2,0.9
			C311.4,233.3,312.1,233,312.6,232.4z"/>
		<path class="st2" d="M334.3,219.1l1.7,1c-0.6,0.8-1.3,1.5-2.1,2c-0.8,0.5-1.7,0.7-2.5,0.7c-1.6,0-3-0.3-4.2-1
			c-1.2-0.7-2-1.6-2.7-2.9c-0.6-1.3-0.9-2.8-0.9-4.6v-5.7c0-2,0.4-3.7,1.1-5.1c0.7-1.4,1.7-2.5,3.1-3.2c1.3-0.7,2.9-1.1,4.8-1.1
			c1.9,0,3.5,0.4,4.8,1.1c1.3,0.7,2.3,1.8,3,3.2s1,3.1,1,5v5.1c0,1.6-0.2,3-0.5,4.2c-0.3,1.2-0.9,2.7-1.6,4.4
			c-0.1,0.2-0.2,0.4-0.2,0.6c-0.1,0.2-0.2,0.4-0.2,0.6l-5.9,15.1h-6.3L334.3,219.1z M334.8,216.2c0.5-0.6,0.8-1.4,0.8-2.5v-5.5
			c0-1.1-0.3-2-0.8-2.5c-0.5-0.6-1.3-0.9-2.3-0.9c-1,0-1.7,0.3-2.3,0.9c-0.5,0.6-0.8,1.4-0.8,2.6v5.5c0,1,0.3,1.8,0.8,2.4
			c0.5,0.6,1.3,0.9,2.3,0.9S334.2,216.8,334.8,216.2z"/>
	</g>
	<g>
		<path class="st2" d="M385.8,238.6h-5.9V206l-5.5,3v-6.3l5.2-3.2h6.2V238.6z"/>
		<path class="st2" d="M393.1,236.6c-1.6-1.6-2.3-3.8-2.3-6.8v-21.5c0-2.9,0.8-5.2,2.3-6.8c1.6-1.6,3.7-2.4,6.6-2.4
			c2.8,0,5,0.8,6.6,2.4c1.6,1.6,2.3,3.8,2.3,6.8v21.5c0,2.9-0.8,5.2-2.3,6.8c-1.6,1.6-3.7,2.4-6.6,2.4
			C396.9,239,394.7,238.2,393.1,236.6z M401.9,232.4c0.5-0.6,0.8-1.5,0.8-2.6v-21.5c0-1.1-0.3-2-0.8-2.6c-0.5-0.6-1.3-0.9-2.2-0.9
			c-0.9,0-1.7,0.3-2.2,0.9c-0.5,0.6-0.8,1.5-0.8,2.6v21.5c0,1.1,0.3,2,0.8,2.6c0.5,0.6,1.3,0.9,2.2,0.9
			C400.7,233.3,401.4,233,401.9,232.4z"/>
	</g>
	<g>
		<path class="st2" d="M459.8,238.6h-5.9V206l-5.5,3v-6.3l5.2-3.2h6.2V238.6z"/>
		<path class="st2" d="M474.6,238.6h-5.9V206l-5.5,3v-6.3l5.2-3.2h6.2V238.6z"/>
	</g>
</g>
<g>
	<g>
		<path class="st2" d="M103.6,315.3h-5.9v-32.6l-5.5,3v-6.3l5.2-3.2h6.2V315.3z"/>
		<path class="st2" d="M111.7,314.8c-1.4-0.7-2.4-1.6-3.1-2.9c-0.7-1.3-1.1-2.8-1.1-4.6v-2.8h5.9v2.6c0,0.6,0.2,1.1,0.4,1.6
			c0.3,0.4,0.6,0.8,1.1,1s1.1,0.3,1.7,0.3c1,0,1.7-0.3,2.3-0.8s0.8-1.3,0.8-2.3v-5.5c0-1.1-0.2-1.9-0.7-2.6
			c-0.5-0.6-1.2-0.9-2.1-0.9h-2.4v-5.7h2.4c0.7,0,1.2-0.3,1.6-0.8c0.4-0.5,0.6-1.2,0.6-2.1v-5.1c0-0.8-0.2-1.4-0.6-1.9
			s-1-0.7-1.8-0.7c-0.6,0-1,0.1-1.4,0.3c-0.4,0.2-0.7,0.5-0.9,0.9c-0.2,0.4-0.3,0.8-0.3,1.4v2.9h-5.9v-3c0-1.7,0.3-3.2,1-4.5
			c0.7-1.3,1.7-2.2,3-2.8c1.3-0.6,2.9-1,4.7-1c2.6,0,4.6,0.7,6,2.2c1.4,1.5,2.1,3.5,2.1,6.1v5.3c0,1-0.3,1.9-0.9,2.9
			c-0.6,0.9-1.5,1.8-2.6,2.6c1.3,0.5,2.4,1.3,3.1,2.3c0.7,1.1,1.1,2.4,1.1,3.9v5.7c0,1.9-0.3,3.5-1,4.8c-0.7,1.3-1.7,2.3-3.1,3
			c-1.4,0.7-3,1-4.8,1C114.7,315.7,113.1,315.4,111.7,314.8z"/>
	</g>
	<g>
		<path class="st2" d="M30.7,315.3h-5.9v-32.6l-5.5,3v-6.3l5.2-3.2h6.2V315.3z"/>
		<path class="st2" d="M35.4,310.1l8.3-14.6c1.2-2,2.1-3.9,2.6-5.6c0.6-1.7,0.9-3.1,0.9-4.4v-0.3c0-1.2-0.2-2.1-0.7-2.7
			c-0.5-0.6-1.2-0.9-2.1-0.9c-1.1,0-1.9,0.4-2.5,1.2c-0.5,0.8-0.8,2-0.8,3.6v0.8h-6v-0.8c0-2.4,0.4-4.3,1-5.9c0.7-1.6,1.7-2.7,3-3.5
			c1.3-0.8,3-1.2,5-1.2c2,0,3.7,0.3,5,1c1.3,0.7,2.3,1.7,3,3.1c0.7,1.4,1,3.1,1,5.2v0.3c0,1.5-0.3,3.2-0.9,5.1
			c-0.6,1.9-1.6,4-2.8,6.4l-6.8,12.6h10.5v5.7H35.4V310.1z"/>
	</g>
	<g>
		<path class="st2" d="M177.8,315.3h-5.9v-32.6l-5.5,3v-6.3l5.2-3.2h6.2V315.3z"/>
		<path class="st2" d="M182.3,304l8.3-27.7h6.1l-7.9,27.4h14.1v5.7h-20.6V304z M194.6,293.1h5.8v22.2h-5.8V293.1z"/>
	</g>
	<g>
		<path class="st2" d="M244.1,315.3h-5.9v-32.6l-5.5,3v-6.3l5.2-3.2h6.2V315.3z"/>
		<path class="st2" d="M253.1,314.7c-1.3-0.7-2.3-1.6-3-2.9c-0.7-1.3-1-2.8-1-4.6v-1.7h5.9v1.7c0,0.9,0.2,1.6,0.7,2.1
			c0.5,0.5,1.2,0.7,2,0.7c0.9,0,1.6-0.3,2.1-0.8c0.5-0.5,0.7-1.2,0.7-2.1v-9.6c0-0.9-0.2-1.6-0.7-2c-0.4-0.5-1.1-0.7-1.8-0.7
			c-0.8,0-1.4,0.2-1.9,0.7c-0.4,0.4-0.7,1.1-0.6,1.9H250v-21.1h16.2v5.7h-10.3v8.7c0.5-0.5,1.1-0.9,1.8-1.2s1.4-0.4,2.1-0.4
			c1.4,0,2.6,0.3,3.6,1c1,0.7,1.8,1.6,2.3,2.9c0.5,1.3,0.8,2.8,0.8,4.6v9.6c0,1.8-0.3,3.4-1,4.6s-1.7,2.3-3,2.9
			c-1.3,0.7-2.9,1-4.7,1C256,315.7,254.4,315.4,253.1,314.7z"/>
	</g>
	<g>
		<path class="st2" d="M311.3,315.3h-5.9v-32.6l-5.5,3v-6.3l5.2-3.2h6.2V315.3z"/>
		<path class="st2" d="M319.6,314.6c-1.3-0.7-2.3-1.8-3-3.2s-1-3.1-1-5v-5.1c0-1.6,0.2-3,0.5-4.2c0.3-1.2,0.8-2.6,1.5-4.2
			c0.1-0.2,0.2-0.4,0.3-0.6c0.1-0.2,0.2-0.4,0.3-0.7l6.2-15.3h6.3l-7.9,19.5l-1.7-1c0.6-0.8,1.4-1.5,2.2-2c0.8-0.5,1.7-0.7,2.6-0.7
			c1.6,0,3,0.3,4.1,1c1.2,0.7,2,1.6,2.6,2.9c0.6,1.3,0.9,2.8,0.9,4.6v5.7c0,2-0.4,3.7-1.1,5.1s-1.7,2.5-3.1,3.2
			c-1.3,0.7-2.9,1.1-4.8,1.1C322.6,315.7,321,315.4,319.6,314.6z M326.7,309.1c0.5-0.6,0.8-1.5,0.8-2.6v-5.3c0-1.1-0.3-1.9-0.8-2.5
			c-0.5-0.6-1.3-0.9-2.3-0.9c-1,0-1.7,0.3-2.3,0.9s-0.8,1.4-0.8,2.5v5.3c0,1.1,0.3,2,0.8,2.6s1.3,0.9,2.3,0.9
			C325.4,310,326.2,309.7,326.7,309.1z"/>
	</g>
	<g>
		<path class="st2" d="M385.8,315.3h-5.9v-32.6l-5.5,3v-6.3l5.2-3.2h6.2V315.3z"/>
		<path class="st2" d="M407.3,281l-7.8,34.3h-5.9l7.8-33.7h-5.8v4.6h-5.7v-10h17.5V281z"/>
	</g>
	<g>
		<path class="st2" d="M459.8,315.3h-5.9v-32.6l-5.5,3v-6.3l5.2-3.2h6.2V315.3z"/>
		<path class="st2" d="M468.8,314.7c-1.3-0.7-2.3-1.6-3-2.9c-0.7-1.3-1.1-2.8-1.1-4.6V301c0-1.4,0.4-2.7,1.2-3.8
			c0.8-1.1,1.9-2,3.2-2.6c-1.2-0.6-2.2-1.3-2.9-2.2s-1-2-1-3.1v-5.3c0-1.7,0.3-3.2,1-4.4c0.7-1.2,1.6-2.1,2.9-2.8
			c1.3-0.6,2.8-1,4.6-1c1.8,0,3.3,0.3,4.6,1s2.2,1.6,2.9,2.8c0.7,1.2,1,2.6,1,4.4v5.3c0,1.2-0.4,2.2-1.1,3.1c-0.7,0.9-1.7,1.7-3,2.2
			c1.4,0.6,2.5,1.5,3.3,2.6s1.2,2.4,1.2,3.8v6.2c0,1.8-0.4,3.3-1.1,4.6c-0.7,1.3-1.7,2.3-3,2.9c-1.3,0.7-2.9,1-4.8,1
			S470.1,315.4,468.8,314.7z M475.3,309.7c0.5-0.2,0.8-0.6,1.1-1c0.2-0.5,0.4-1,0.4-1.6v-6.6c0-0.6-0.1-1.1-0.4-1.5
			c-0.2-0.4-0.6-0.8-1.1-1c-0.5-0.2-1-0.3-1.7-0.3c-0.6,0-1.2,0.1-1.7,0.3s-0.8,0.6-1.1,1c-0.2,0.4-0.4,0.9-0.4,1.6v6.6
			c0,0.6,0.1,1.1,0.4,1.6c0.2,0.4,0.6,0.8,1.1,1c0.5,0.2,1,0.3,1.7,0.3S474.8,309.9,475.3,309.7z M475.1,291.7
			c0.4-0.3,0.7-0.6,0.9-1.1c0.2-0.5,0.3-1,0.3-1.7v-4.3c0-0.6-0.1-1.2-0.3-1.7c-0.2-0.5-0.5-0.8-0.9-1.1c-0.4-0.2-0.9-0.4-1.5-0.4
			c-0.6,0-1,0.1-1.5,0.4c-0.4,0.2-0.7,0.6-0.9,1.1c-0.2,0.5-0.3,1-0.3,1.7v4.4c0,0.6,0.1,1.2,0.3,1.7c0.2,0.5,0.5,0.8,0.9,1
			c0.4,0.2,0.9,0.4,1.5,0.4C474.2,292,474.7,291.9,475.1,291.7z"/>
	</g>
</g>
<g>
	<g>
		<path class="st2" d="M93.5,386.8l8.3-14.6c1.2-2,2.1-3.9,2.6-5.6c0.6-1.7,0.9-3.1,0.9-4.4V362c0-1.2-0.2-2.1-0.7-2.7
			c-0.5-0.6-1.2-0.9-2.1-0.9c-1.1,0-1.9,0.4-2.5,1.2c-0.5,0.8-0.8,2-0.8,3.6v0.8h-6v-0.8c0-2.4,0.4-4.3,1-5.9c0.7-1.6,1.7-2.7,3-3.5
			c1.3-0.8,3-1.2,5-1.2c2,0,3.7,0.3,5,1c1.3,0.7,2.3,1.7,3,3.1c0.7,1.4,1,3.1,1,5.2v0.3c0,1.5-0.3,3.2-0.9,5.1
			c-0.6,1.9-1.6,4-2.8,6.4l-6.8,12.6h10.5v5.7H93.5V386.8z"/>
		<path class="st2" d="M118.2,390.1c-1.6-1.6-2.3-3.8-2.3-6.8v-21.5c0-2.9,0.8-5.2,2.3-6.8s3.7-2.4,6.6-2.4c2.8,0,5,0.8,6.6,2.4
			s2.3,3.8,2.3,6.8v21.5c0,2.9-0.8,5.2-2.3,6.8s-3.7,2.4-6.6,2.4C121.9,392.5,119.7,391.7,118.2,390.1z M126.9,385.9
			c0.5-0.6,0.8-1.5,0.8-2.6v-21.5c0-1.1-0.3-2-0.8-2.6c-0.5-0.6-1.3-0.9-2.2-0.9c-0.9,0-1.7,0.3-2.2,0.9c-0.5,0.6-0.8,1.5-0.8,2.6
			v21.5c0,1.1,0.3,2,0.8,2.6c0.5,0.6,1.3,0.9,2.2,0.9C125.7,386.8,126.4,386.5,126.9,385.9z"/>
	</g>
	<g>
		<path class="st2" d="M30.7,392.1h-5.9v-32.6l-5.5,3v-6.3l5.2-3.2h6.2V392.1z"/>
		<path class="st2" d="M45.7,372.6l1.7,1c-0.6,0.8-1.3,1.5-2.1,2c-0.8,0.5-1.7,0.7-2.5,0.7c-1.6,0-3-0.3-4.2-1
			c-1.2-0.7-2-1.6-2.7-2.9c-0.6-1.3-0.9-2.8-0.9-4.6v-5.7c0-2,0.4-3.7,1.1-5.1c0.7-1.4,1.7-2.5,3.1-3.2c1.3-0.7,2.9-1.1,4.8-1.1
			c1.9,0,3.5,0.4,4.8,1.1c1.3,0.7,2.3,1.8,3,3.2s1,3.1,1,5v5.1c0,1.6-0.2,3-0.5,4.2c-0.3,1.2-0.9,2.7-1.6,4.4
			c-0.1,0.2-0.2,0.4-0.2,0.6c-0.1,0.2-0.2,0.4-0.2,0.6l-5.9,15.1H38L45.7,372.6z M46.1,369.7c0.5-0.6,0.8-1.4,0.8-2.5v-5.5
			c0-1.1-0.3-2-0.8-2.5c-0.5-0.6-1.3-0.9-2.3-0.9c-1,0-1.7,0.3-2.3,0.9c-0.5,0.6-0.8,1.4-0.8,2.6v5.5c0,1,0.3,1.8,0.8,2.4
			c0.5,0.6,1.3,0.9,2.3,0.9S45.6,370.2,46.1,369.7z"/>
	</g>
	<g>
		<path class="st2" d="M167.8,386.8l8.3-14.6c1.2-2,2.1-3.9,2.6-5.6c0.6-1.7,0.9-3.1,0.9-4.4V362c0-1.2-0.2-2.1-0.7-2.7
			c-0.5-0.6-1.2-0.9-2.1-0.9c-1.1,0-1.9,0.4-2.5,1.2c-0.5,0.8-0.8,2-0.8,3.6v0.8h-6v-0.8c0-2.4,0.4-4.3,1-5.9c0.7-1.6,1.7-2.7,3-3.5
			c1.3-0.8,3-1.2,5-1.2c2,0,3.7,0.3,5,1c1.3,0.7,2.3,1.7,3,3.1c0.7,1.4,1,3.1,1,5.2v0.3c0,1.5-0.3,3.2-0.9,5.1
			c-0.6,1.9-1.6,4-2.8,6.4l-6.8,12.6h10.5v5.7h-17.8V386.8z"/>
		<path class="st2" d="M199.9,392.1h-5.9v-32.6l-5.5,3v-6.3l5.2-3.2h6.2V392.1z"/>
	</g>
	<g>
		<path class="st2" d="M234,386.8l8.3-14.6c1.2-2,2.1-3.9,2.6-5.6c0.6-1.7,0.9-3.1,0.9-4.4V362c0-1.2-0.2-2.1-0.7-2.7
			c-0.5-0.6-1.2-0.9-2.1-0.9c-1.1,0-1.9,0.4-2.5,1.2c-0.5,0.8-0.8,2-0.8,3.6v0.8h-6v-0.8c0-2.4,0.4-4.3,1-5.9c0.7-1.6,1.7-2.7,3-3.5
			c1.3-0.8,3-1.2,5-1.2c2,0,3.7,0.3,5,1c1.3,0.7,2.3,1.7,3,3.1c0.7,1.4,1,3.1,1,5.2v0.3c0,1.5-0.3,3.2-0.9,5.1
			c-0.6,1.9-1.6,4-2.8,6.4l-6.8,12.6h10.5v5.7H234V386.8z"/>
		<path class="st2" d="M256,386.8l8.3-14.6c1.2-2,2.1-3.9,2.6-5.6c0.6-1.7,0.9-3.1,0.9-4.4V362c0-1.2-0.2-2.1-0.7-2.7
			c-0.5-0.6-1.2-0.9-2.1-0.9c-1.1,0-1.9,0.4-2.5,1.2c-0.5,0.8-0.8,2-0.8,3.6v0.8h-6v-0.8c0-2.4,0.4-4.3,1-5.9c0.7-1.6,1.7-2.7,3-3.5
			c1.3-0.8,3-1.2,5-1.2c2,0,3.7,0.3,5,1c1.3,0.7,2.3,1.7,3,3.1c0.7,1.4,1,3.1,1,5.2v0.3c0,1.5-0.3,3.2-0.9,5.1
			c-0.6,1.9-1.6,4-2.8,6.4l-6.8,12.6h10.5v5.7H256V386.8z"/>
	</g>
	<g>
		<path class="st2" d="M301.2,386.8l8.3-14.6c1.2-2,2.1-3.9,2.6-5.6s0.9-3.1,0.9-4.4V362c0-1.2-0.2-2.1-0.7-2.7
			c-0.5-0.6-1.2-0.9-2.1-0.9c-1.1,0-1.9,0.4-2.5,1.2c-0.5,0.8-0.8,2-0.8,3.6v0.8h-6v-0.8c0-2.4,0.4-4.3,1-5.9c0.7-1.6,1.7-2.7,3-3.5
			c1.3-0.8,3-1.2,5-1.2s3.7,0.3,5,1s2.3,1.7,3,3.1c0.7,1.4,1,3.1,1,5.2v0.3c0,1.5-0.3,3.2-0.9,5.1c-0.6,1.9-1.6,4-2.8,6.4l-6.8,12.6
			H319v5.7h-17.8V386.8z"/>
		<path class="st2" d="M326.7,391.5c-1.4-0.7-2.4-1.6-3.1-2.9c-0.7-1.3-1.1-2.8-1.1-4.6v-2.8h5.9v2.6c0,0.6,0.2,1.1,0.4,1.6
			c0.3,0.4,0.6,0.8,1.1,1c0.5,0.2,1.1,0.3,1.7,0.3c1,0,1.7-0.3,2.3-0.8c0.5-0.6,0.8-1.3,0.8-2.3v-5.5c0-1.1-0.2-1.9-0.7-2.6
			c-0.5-0.6-1.2-0.9-2.1-0.9h-2.4v-5.7h2.4c0.7,0,1.2-0.3,1.6-0.8c0.4-0.5,0.6-1.2,0.6-2.1V361c0-0.8-0.2-1.4-0.6-1.9
			c-0.4-0.4-1-0.7-1.8-0.7c-0.6,0-1,0.1-1.4,0.3c-0.4,0.2-0.7,0.5-0.9,0.9c-0.2,0.4-0.3,0.8-0.3,1.4v2.9h-5.9v-3
			c0-1.7,0.3-3.2,1-4.5c0.7-1.3,1.7-2.2,3-2.8s2.9-1,4.7-1c2.6,0,4.6,0.7,6,2.2c1.4,1.5,2.1,3.5,2.1,6.1v5.3c0,1-0.3,1.9-0.9,2.9
			c-0.6,0.9-1.5,1.8-2.6,2.6c1.3,0.5,2.4,1.3,3.1,2.4c0.7,1.1,1.1,2.4,1.1,3.9v5.7c0,1.9-0.3,3.5-1,4.8s-1.7,2.3-3.1,3
			c-1.4,0.7-3,1-4.8,1C329.7,392.5,328,392.2,326.7,391.5z"/>
	</g>
	<g>
		<path class="st2" d="M375.7,386.8l8.3-14.6c1.2-2,2.1-3.9,2.6-5.6c0.6-1.7,0.9-3.1,0.9-4.4V362c0-1.2-0.2-2.1-0.7-2.7
			c-0.5-0.6-1.2-0.9-2.1-0.9c-1.1,0-1.9,0.4-2.5,1.2c-0.5,0.8-0.8,2-0.8,3.6v0.8h-6v-0.8c0-2.4,0.4-4.3,1-5.9c0.7-1.6,1.7-2.7,3-3.5
			c1.3-0.8,3-1.2,5-1.2c2,0,3.7,0.3,5,1c1.3,0.7,2.3,1.7,3,3.1c0.7,1.4,1,3.1,1,5.2v0.3c0,1.5-0.3,3.2-0.9,5.1
			c-0.6,1.9-1.6,4-2.8,6.4l-6.8,12.6h10.5v5.7h-17.8V386.8z"/>
		<path class="st2" d="M395.9,380.7l8.3-27.7h6.1l-7.9,27.4h14.1v5.7h-20.6V380.7z M408.2,369.9h5.8v22.2h-5.8V369.9z"/>
	</g>
	<g>
		<path class="st2" d="M449.7,386.8l8.3-14.6c1.2-2,2.1-3.9,2.6-5.6s0.9-3.1,0.9-4.4V362c0-1.2-0.2-2.1-0.7-2.7
			c-0.5-0.6-1.2-0.9-2.1-0.9c-1.1,0-1.9,0.4-2.5,1.2c-0.5,0.8-0.8,2-0.8,3.6v0.8h-6v-0.8c0-2.4,0.4-4.3,1-5.9c0.7-1.6,1.7-2.7,3-3.5
			c1.3-0.8,3-1.2,5-1.2s3.7,0.3,5,1s2.3,1.7,3,3.1c0.7,1.4,1,3.1,1,5.2v0.3c0,1.5-0.3,3.2-0.9,5.1c-0.6,1.9-1.6,4-2.8,6.4l-6.8,12.6
			h10.5v5.7h-17.8V386.8z"/>
		<path class="st2" d="M476,391.5c-1.3-0.7-2.3-1.6-3-2.9c-0.7-1.3-1-2.8-1-4.6v-1.7h5.9v1.7c0,0.9,0.2,1.6,0.7,2.1
			c0.5,0.5,1.2,0.7,2,0.7c0.9,0,1.6-0.3,2.1-0.8c0.5-0.5,0.7-1.2,0.7-2.1v-9.6c0-0.9-0.2-1.6-0.7-2s-1.1-0.7-1.8-0.7
			c-0.8,0-1.4,0.2-1.9,0.7s-0.7,1.1-0.6,1.9h-5.6V353h16.2v5.7h-10.3v8.7c0.5-0.5,1.1-0.9,1.8-1.2c0.7-0.3,1.4-0.4,2.1-0.4
			c1.4,0,2.6,0.3,3.6,1c1,0.7,1.8,1.6,2.3,2.9s0.8,2.8,0.8,4.6v9.6c0,1.8-0.3,3.4-1,4.6s-1.7,2.3-3,2.9c-1.3,0.7-2.9,1-4.7,1
			C478.9,392.5,477.3,392.1,476,391.5z"/>
	</g>
</g>
<g>
	<g>
		<path class="st2" d="M93.5,463.6l8.3-14.6c1.2-2,2.1-3.9,2.6-5.6c0.6-1.7,0.9-3.1,0.9-4.4v-0.3c0-1.2-0.2-2.1-0.7-2.7
			c-0.5-0.6-1.2-0.9-2.1-0.9c-1.1,0-1.9,0.4-2.5,1.2c-0.5,0.8-0.8,2-0.8,3.6v0.8h-6V440c0-2.4,0.4-4.3,1-5.9c0.7-1.6,1.7-2.7,3-3.5
			c1.3-0.8,3-1.2,5-1.2c2,0,3.7,0.3,5,1c1.3,0.7,2.3,1.7,3,3.1c0.7,1.4,1,3.1,1,5.2v0.3c0,1.5-0.3,3.2-0.9,5.1
			c-0.6,1.9-1.6,4-2.8,6.4l-6.8,12.6h10.5v5.7H93.5V463.6z"/>
		<path class="st2" d="M132.3,434.5l-7.8,34.3h-5.9l7.8-33.7h-5.8v4.6h-5.7v-10h17.5V434.5z"/>
	</g>
	<g>
		<path class="st2" d="M20.6,463.6l8.3-14.6c1.2-2,2.1-3.9,2.6-5.6c0.6-1.7,0.9-3.1,0.9-4.4v-0.3c0-1.2-0.2-2.1-0.7-2.7
			c-0.5-0.6-1.2-0.9-2.1-0.9c-1.1,0-1.9,0.4-2.5,1.2c-0.5,0.8-0.8,2-0.8,3.6v0.8h-6V440c0-2.4,0.4-4.3,1-5.9c0.7-1.6,1.7-2.7,3-3.5
			c1.3-0.8,3-1.2,5-1.2c2,0,3.7,0.3,5,1c1.3,0.7,2.3,1.7,3,3.1c0.7,1.4,1,3.1,1,5.2v0.3c0,1.5-0.3,3.2-0.9,5.1
			c-0.6,1.9-1.6,4-2.8,6.4l-6.8,12.6h10.5v5.7H20.6V463.6z"/>
		<path class="st2" d="M44.6,468.1c-1.3-0.7-2.3-1.8-3-3.2s-1-3.1-1-5v-5.1c0-1.6,0.2-3,0.5-4.2c0.3-1.2,0.8-2.6,1.5-4.2
			c0.1-0.2,0.2-0.4,0.3-0.6c0.1-0.2,0.2-0.4,0.3-0.7l6.2-15.3h6.3l-7.9,19.5l-1.7-1c0.6-0.8,1.4-1.5,2.2-2c0.8-0.5,1.7-0.7,2.6-0.7
			c1.6,0,3,0.3,4.1,1c1.2,0.7,2,1.6,2.6,2.9c0.6,1.3,0.9,2.8,0.9,4.6v5.7c0,2-0.4,3.7-1.1,5.1c-0.7,1.4-1.7,2.5-3.1,3.2
			c-1.3,0.7-2.9,1.1-4.8,1.1C47.6,469.2,45.9,468.9,44.6,468.1z M51.7,462.6c0.5-0.6,0.8-1.5,0.8-2.6v-5.3c0-1.1-0.3-1.9-0.8-2.5
			c-0.5-0.6-1.3-0.9-2.3-0.9c-1,0-1.7,0.3-2.3,0.9s-0.8,1.4-0.8,2.5v5.3c0,1.1,0.3,2,0.8,2.6s1.3,0.9,2.3,0.9
			C50.4,463.5,51.2,463.2,51.7,462.6z"/>
	</g>
	<g>
		<path class="st2" d="M167.8,463.6l8.3-14.6c1.2-2,2.1-3.9,2.6-5.6c0.6-1.7,0.9-3.1,0.9-4.4v-0.3c0-1.2-0.2-2.1-0.7-2.7
			c-0.5-0.6-1.2-0.9-2.1-0.9c-1.1,0-1.9,0.4-2.5,1.2c-0.5,0.8-0.8,2-0.8,3.6v0.8h-6V440c0-2.4,0.4-4.3,1-5.9c0.7-1.6,1.7-2.7,3-3.5
			c1.3-0.8,3-1.2,5-1.2c2,0,3.7,0.3,5,1c1.3,0.7,2.3,1.7,3,3.1c0.7,1.4,1,3.1,1,5.2v0.3c0,1.5-0.3,3.2-0.9,5.1
			c-0.6,1.9-1.6,4-2.8,6.4l-6.8,12.6h10.5v5.7h-17.8V463.6z"/>
		<path class="st2" d="M194.1,468.2c-1.3-0.7-2.3-1.6-3-2.9c-0.7-1.3-1.1-2.8-1.1-4.6v-6.2c0-1.4,0.4-2.7,1.2-3.8
			c0.8-1.1,1.9-2,3.2-2.6c-1.2-0.6-2.2-1.3-2.9-2.2c-0.7-0.9-1-2-1-3.1v-5.3c0-1.7,0.3-3.2,1-4.4c0.7-1.2,1.6-2.1,2.9-2.8
			c1.3-0.6,2.8-1,4.6-1c1.8,0,3.3,0.3,4.6,1c1.3,0.6,2.2,1.6,2.9,2.8c0.7,1.2,1,2.7,1,4.4v5.3c0,1.2-0.4,2.2-1.1,3.1
			c-0.7,0.9-1.7,1.7-3,2.2c1.4,0.6,2.5,1.5,3.3,2.6c0.8,1.1,1.2,2.4,1.2,3.8v6.2c0,1.8-0.4,3.3-1.1,4.6c-0.7,1.3-1.7,2.3-3,2.9
			c-1.3,0.7-2.9,1-4.8,1S195.4,468.9,194.1,468.2z M200.6,463.2c0.5-0.2,0.8-0.6,1.1-1c0.2-0.5,0.4-1,0.4-1.6V454
			c0-0.6-0.1-1.1-0.4-1.5c-0.2-0.4-0.6-0.8-1.1-1c-0.5-0.2-1-0.3-1.7-0.3c-0.6,0-1.2,0.1-1.7,0.3c-0.5,0.2-0.8,0.6-1.1,1
			c-0.2,0.4-0.4,0.9-0.4,1.6v6.6c0,0.6,0.1,1.1,0.4,1.6c0.2,0.4,0.6,0.8,1.1,1c0.5,0.2,1,0.3,1.7,0.3S200.1,463.4,200.6,463.2z
			 M200.4,445.2c0.4-0.3,0.7-0.6,0.9-1.1c0.2-0.5,0.3-1,0.3-1.7v-4.3c0-0.6-0.1-1.2-0.3-1.7c-0.2-0.5-0.5-0.8-0.9-1.1
			c-0.4-0.2-0.9-0.4-1.5-0.4c-0.6,0-1,0.1-1.5,0.4c-0.4,0.2-0.7,0.6-0.9,1.1s-0.3,1-0.3,1.7v4.4c0,0.6,0.1,1.2,0.3,1.7
			c0.2,0.5,0.5,0.8,0.9,1c0.4,0.2,0.9,0.4,1.5,0.4C199.5,445.5,199.9,445.4,200.4,445.2z"/>
	</g>
	<g>
		<path class="st2" d="M234,463.6l8.3-14.6c1.2-2,2.1-3.9,2.6-5.6c0.6-1.7,0.9-3.1,0.9-4.4v-0.3c0-1.2-0.2-2.1-0.7-2.7
			c-0.5-0.6-1.2-0.9-2.1-0.9c-1.1,0-1.9,0.4-2.5,1.2c-0.5,0.8-0.8,2-0.8,3.6v0.8h-6V440c0-2.4,0.4-4.3,1-5.9c0.7-1.6,1.7-2.7,3-3.5
			c1.3-0.8,3-1.2,5-1.2c2,0,3.7,0.3,5,1c1.3,0.7,2.3,1.7,3,3.1c0.7,1.4,1,3.1,1,5.2v0.3c0,1.5-0.3,3.2-0.9,5.1
			c-0.6,1.9-1.6,4-2.8,6.4l-6.8,12.6h10.5v5.7H234V463.6z"/>
		<path class="st2" d="M266.3,449.4l1.7,1c-0.6,0.8-1.3,1.5-2.1,2s-1.7,0.7-2.5,0.7c-1.6,0-3-0.3-4.2-1c-1.2-0.7-2-1.6-2.7-2.9
			c-0.6-1.3-0.9-2.8-0.9-4.6v-5.7c0-2,0.4-3.7,1.1-5.1c0.7-1.4,1.7-2.5,3.1-3.2c1.3-0.7,2.9-1.1,4.8-1.1c1.9,0,3.5,0.4,4.8,1.1
			s2.3,1.8,3,3.2s1,3.1,1,5v5.1c0,1.6-0.2,3-0.5,4.2c-0.3,1.2-0.9,2.7-1.6,4.4c-0.1,0.2-0.2,0.4-0.2,0.6s-0.2,0.4-0.2,0.6l-5.9,15.1
			h-6.3L266.3,449.4z M266.7,446.4c0.5-0.6,0.8-1.4,0.8-2.5v-5.5c0-1.1-0.3-2-0.8-2.5c-0.5-0.6-1.3-0.9-2.3-0.9
			c-1,0-1.7,0.3-2.3,0.9c-0.5,0.6-0.8,1.4-0.8,2.6v5.5c0,1,0.3,1.8,0.8,2.4s1.3,0.9,2.3,0.9S266.2,447,266.7,446.4z"/>
	</g>
	<g>
		<path class="st2" d="M304.6,468.2c-1.4-0.7-2.4-1.6-3.1-2.9c-0.7-1.3-1.1-2.8-1.1-4.6V458h5.9v2.6c0,0.6,0.2,1.1,0.4,1.6
			c0.3,0.4,0.6,0.8,1.1,1c0.5,0.2,1.1,0.3,1.7,0.3c1,0,1.7-0.3,2.3-0.8c0.5-0.6,0.8-1.3,0.8-2.3v-5.5c0-1.1-0.2-1.9-0.7-2.6
			c-0.5-0.6-1.2-0.9-2.1-0.9h-2.4v-5.7h2.4c0.7,0,1.2-0.3,1.6-0.8c0.4-0.5,0.6-1.2,0.6-2.1v-5.1c0-0.8-0.2-1.4-0.6-1.9
			c-0.4-0.4-1-0.7-1.8-0.7c-0.6,0-1,0.1-1.4,0.3c-0.4,0.2-0.7,0.5-0.9,0.9c-0.2,0.4-0.3,0.8-0.3,1.4v2.9H301v-3c0-1.7,0.3-3.2,1-4.5
			c0.7-1.3,1.7-2.2,3-2.8s2.9-1,4.7-1c2.6,0,4.6,0.7,6,2.2c1.4,1.5,2.1,3.5,2.1,6.1v5.3c0,1-0.3,1.9-0.9,2.9
			c-0.6,0.9-1.5,1.8-2.6,2.6c1.3,0.5,2.4,1.3,3.1,2.4c0.7,1.1,1.1,2.4,1.1,3.9v5.7c0,1.9-0.3,3.5-1,4.8s-1.7,2.3-3.1,3
			c-1.4,0.7-3,1-4.8,1C307.7,469.2,306,468.9,304.6,468.2z"/>
		<path class="st2" d="M325.7,466.8c-1.6-1.6-2.3-3.8-2.3-6.8v-21.5c0-2.9,0.8-5.2,2.3-6.8s3.7-2.4,6.6-2.4s5,0.8,6.6,2.4
			s2.3,3.8,2.3,6.8v21.5c0,2.9-0.8,5.2-2.3,6.8s-3.7,2.4-6.6,2.4S327.3,468.4,325.7,466.8z M334.5,462.6c0.5-0.6,0.8-1.5,0.8-2.6
			v-21.5c0-1.1-0.3-2-0.8-2.6c-0.5-0.6-1.3-0.9-2.2-0.9s-1.7,0.3-2.2,0.9c-0.5,0.6-0.8,1.5-0.8,2.6V460c0,1.1,0.3,2,0.8,2.6
			c0.5,0.6,1.3,0.9,2.2,0.9S334,463.2,334.5,462.6z"/>
	</g>
	<g>
		<path class="st1" d="M378.4,466.8c-1.6-1.6-2.3-3.8-2.3-6.8v-21.5c0-2.9,0.8-5.2,2.3-6.8c1.6-1.6,3.7-2.4,6.6-2.4s5,0.8,6.6,2.4
			c1.6,1.6,2.3,3.8,2.3,6.8v21.5c0,2.9-0.8,5.2-2.3,6.8c-1.6,1.6-3.7,2.4-6.6,2.4S379.9,468.4,378.4,466.8z M387.1,462.6
			c0.5-0.6,0.8-1.5,0.8-2.6v-21.5c0-1.1-0.3-2-0.8-2.6c-0.5-0.6-1.3-0.9-2.2-0.9s-1.7,0.3-2.2,0.9s-0.8,1.5-0.8,2.6V460
			c0,1.1,0.3,2,0.8,2.6s1.3,0.9,2.2,0.9S386.6,463.2,387.1,462.6z"/>
		<path class="st1" d="M408.6,468.8h-5.9v-32.6l-5.5,3V433l5.2-3.2h6.2V468.8z"/>
	</g>
	<g>
		<path class="st1" d="M452.4,466.8c-1.6-1.6-2.3-3.8-2.3-6.8v-21.5c0-2.9,0.8-5.2,2.3-6.8c1.6-1.6,3.7-2.4,6.6-2.4
			c2.8,0,5,0.8,6.6,2.4c1.6,1.6,2.3,3.8,2.3,6.8v21.5c0,2.9-0.8,5.2-2.3,6.8c-1.6,1.6-3.7,2.4-6.6,2.4
			C456.1,469.2,453.9,468.4,452.4,466.8z M461.1,462.6c0.5-0.6,0.8-1.5,0.8-2.6v-21.5c0-1.1-0.3-2-0.8-2.6s-1.3-0.9-2.2-0.9
			c-0.9,0-1.7,0.3-2.2,0.9c-0.5,0.6-0.8,1.5-0.8,2.6V460c0,1.1,0.3,2,0.8,2.6c0.5,0.6,1.3,0.9,2.2,0.9
			C459.9,463.5,460.6,463.2,461.1,462.6z"/>
		<path class="st1" d="M472.5,463.6l8.3-14.6c1.2-2,2.1-3.9,2.6-5.6s0.9-3.1,0.9-4.4v-0.3c0-1.2-0.2-2.1-0.7-2.7
			c-0.5-0.6-1.2-0.9-2.1-0.9c-1.1,0-1.9,0.4-2.5,1.2c-0.5,0.8-0.8,2-0.8,3.6v0.8h-6V440c0-2.4,0.4-4.3,1-5.9s1.7-2.7,3-3.5
			c1.3-0.8,3-1.2,5-1.2s3.7,0.3,5,1s2.3,1.7,3,3.1c0.7,1.4,1,3.1,1,5.2v0.3c0,1.5-0.3,3.2-0.9,5.1c-0.6,1.9-1.6,4-2.8,6.4l-6.8,12.6
			h10.5v5.7h-17.8V463.6z"/>
	</g>
</g>
<g>
	<line class="st2" x1="151.9" y1="4.7" x2="5.2" y2="151.4"/>
	
		<rect x="-26.9" y="71.9" transform="matrix(0.7071 -0.7071 0.7071 0.7071 -31.8508 76.8947)" class="st2" width="207.5" height="10"/>
</g>
</svg>
